ISO-10303-21;
HEADER;
FILE_DESCRIPTION(('CATIA V5 STEP Exchange'),'2;1');

FILE_NAME('C:\\Users\\Administrator\\Desktop\\\X2\63D0624B\X0\.stp','2020-07-31T07:24:49+00:00',('none'),('none'),'CATIA Version 5 Release 20 GA (IN-10)','CATIA V5 STEP AP203','none');

FILE_SCHEMA(('CONFIG_CONTROL_DESIGN'));

ENDSEC;
/* file written by CATIA V5R20 */
DATA;
#5=PRODUCT('\X2\63D0624B\X0\','','',(#2)) ;
#1=APPLICATION_CONTEXT('configuration controlled 3D design of mechanical parts and assemblies') ;
#14=PRODUCT_DEFINITION('',' ',#6,#3) ;
#16=SECURITY_CLASSIFICATION(' ',' ',#15) ;
#15=SECURITY_CLASSIFICATION_LEVEL('unclassified') ;
#47=CARTESIAN_POINT(' ',(0.,0.,0.)) ;
#52=CARTESIAN_POINT('Axis2P3D Location',(0.,0.,0.5)) ;
#57=CARTESIAN_POINT('Line Origine',(0.,-6.5,0.5)) ;
#61=CARTESIAN_POINT('Vertex',(87.5,-6.5,0.5)) ;
#63=CARTESIAN_POINT('Vertex',(-87.5,-6.5,0.5)) ;
#66=CARTESIAN_POINT('Line Origine',(87.5,0.,0.5)) ;
#70=CARTESIAN_POINT('Vertex',(87.5,6.5,0.5)) ;
#73=CARTESIAN_POINT('Line Origine',(0.,6.5,0.5)) ;
#77=CARTESIAN_POINT('Vertex',(-87.5,6.5,0.5)) ;
#80=CARTESIAN_POINT('Line Origine',(-87.5,0.,0.5)) ;
#92=CARTESIAN_POINT('Axis2P3D Location',(0.,0.,-0.5)) ;
#97=CARTESIAN_POINT('Line Origine',(-87.5,0.,-0.5)) ;
#101=CARTESIAN_POINT('Vertex',(-87.5,6.5,-0.5)) ;
#103=CARTESIAN_POINT('Vertex',(-87.5,-6.5,-0.5)) ;
#106=CARTESIAN_POINT('Line Origine',(0.,6.5,-0.5)) ;
#110=CARTESIAN_POINT('Vertex',(87.5,6.5,-0.5)) ;
#113=CARTESIAN_POINT('Line Origine',(87.5,0.,-0.5)) ;
#117=CARTESIAN_POINT('Vertex',(87.5,-6.5,-0.5)) ;
#120=CARTESIAN_POINT('Line Origine',(0.,-6.5,-0.5)) ;
#132=CARTESIAN_POINT('Axis2P3D Location',(88.5,3.472408318,9.5)) ;
#137=CARTESIAN_POINT('Axis2P3D Location',(89.5,3.472408318,9.5)) ;
#141=CARTESIAN_POINT('Vertex',(89.5,3.472408318,11.5)) ;
#143=CARTESIAN_POINT('Vertex',(89.5,5.40193596048,10.0262348116)) ;
#146=CARTESIAN_POINT('Line Origine',(88.5,5.40193596048,10.0262348116)) ;
#150=CARTESIAN_POINT('Vertex',(87.5,5.40193596048,10.0262348116)) ;
#153=CARTESIAN_POINT('Axis2P3D Location',(87.5,3.472408318,9.5)) ;
#157=CARTESIAN_POINT('Vertex',(87.5,3.472408318,11.5)) ;
#160=CARTESIAN_POINT('Line Origine',(88.5,3.472408318,11.5)) ;
#172=CARTESIAN_POINT('Axis2P3D Location',(-87.5,5.,11.5)) ;
#177=CARTESIAN_POINT('Line Origine',(88.5,-3.472408318,11.5)) ;
#181=CARTESIAN_POINT('Vertex',(87.5,-3.472408318,11.5)) ;
#183=CARTESIAN_POINT('Vertex',(89.5,-3.472408318,11.5)) ;
#186=CARTESIAN_POINT('Line Origine',(89.5,-1.33226762955E-015,11.5)) ;
#191=CARTESIAN_POINT('Line Origine',(87.5,-1.33226762955E-015,11.5)) ;
#203=CARTESIAN_POINT('Axis2P3D Location',(88.5,-3.472408318,9.5)) ;
#208=CARTESIAN_POINT('Axis2P3D Location',(89.5,-3.472408318,9.5)) ;
#212=CARTESIAN_POINT('Vertex',(89.5,-5.40193596048,10.0262348116)) ;
#215=CARTESIAN_POINT('Axis2P3D Location',(87.5,-3.472408318,9.5)) ;
#219=CARTESIAN_POINT('Vertex',(87.5,-5.40193596048,10.0262348116)) ;
#222=CARTESIAN_POINT('Line Origine',(88.5,-5.40193596048,10.0262348116)) ;
#234=CARTESIAN_POINT('Axis2P3D Location',(88.5,3.472408318,-9.5)) ;
#239=CARTESIAN_POINT('Axis2P3D Location',(89.5,3.472408318,-9.5)) ;
#243=CARTESIAN_POINT('Vertex',(89.5,5.40193596048,-10.0262348116)) ;
#245=CARTESIAN_POINT('Vertex',(89.5,3.472408318,-11.5)) ;
#248=CARTESIAN_POINT('Line Origine',(88.5,3.472408318,-11.5)) ;
#252=CARTESIAN_POINT('Vertex',(87.5,3.472408318,-11.5)) ;
#255=CARTESIAN_POINT('Axis2P3D Location',(87.5,3.472408318,-9.5)) ;
#259=CARTESIAN_POINT('Vertex',(87.5,5.40193596048,-10.0262348116)) ;
#262=CARTESIAN_POINT('Line Origine',(88.5,5.40193596048,-10.0262348116)) ;
#274=CARTESIAN_POINT('Axis2P3D Location',(-87.5,5.,-11.5)) ;
#279=CARTESIAN_POINT('Line Origine',(87.5,-8.881784197E-016,-11.5)) ;
#283=CARTESIAN_POINT('Vertex',(87.5,-3.472408318,-11.5)) ;
#286=CARTESIAN_POINT('Line Origine',(89.5,-8.881784197E-016,-11.5)) ;
#290=CARTESIAN_POINT('Vertex',(89.5,-3.472408318,-11.5)) ;
#293=CARTESIAN_POINT('Line Origine',(88.5,-3.472408318,-11.5)) ;
#305=CARTESIAN_POINT('Axis2P3D Location',(88.5,-3.472408318,-9.5)) ;
#310=CARTESIAN_POINT('Axis2P3D Location',(89.5,-3.472408318,-9.5)) ;
#314=CARTESIAN_POINT('Vertex',(89.5,-5.40193596048,-10.0262348116)) ;
#317=CARTESIAN_POINT('Line Origine',(88.5,-5.40193596048,-10.0262348116)) ;
#321=CARTESIAN_POINT('Vertex',(87.5,-5.40193596048,-10.0262348116)) ;
#324=CARTESIAN_POINT('Axis2P3D Location',(87.5,-3.472408318,-9.5)) ;
#336=CARTESIAN_POINT('Axis2P3D Location',(-88.5,3.472408318,9.5)) ;
#341=CARTESIAN_POINT('Axis2P3D Location',(-89.5,3.472408318,9.5)) ;
#345=CARTESIAN_POINT('Vertex',(-89.5,5.40193596048,10.0262348116)) ;
#347=CARTESIAN_POINT('Vertex',(-89.5,3.472408318,11.5)) ;
#350=CARTESIAN_POINT('Line Origine',(-88.5,3.472408318,11.5)) ;
#354=CARTESIAN_POINT('Vertex',(-87.5,3.472408318,11.5)) ;
#357=CARTESIAN_POINT('Axis2P3D Location',(-87.5,3.472408318,9.5)) ;
#361=CARTESIAN_POINT('Vertex',(-87.5,5.40193596048,10.0262348116)) ;
#364=CARTESIAN_POINT('Line Origine',(-88.5,5.40193596048,10.0262348116)) ;
#376=CARTESIAN_POINT('Line Origine',(-88.5,-3.472408318,11.5)) ;
#380=CARTESIAN_POINT('Vertex',(-87.5,-3.472408318,11.5)) ;
#382=CARTESIAN_POINT('Vertex',(-89.5,-3.472408318,11.5)) ;
#385=CARTESIAN_POINT('Line Origine',(-87.5,-1.33226762955E-015,11.5)) ;
#390=CARTESIAN_POINT('Line Origine',(-89.5,-1.33226762955E-015,11.5)) ;
#402=CARTESIAN_POINT('Axis2P3D Location',(-88.5,-3.472408318,9.5)) ;
#407=CARTESIAN_POINT('Axis2P3D Location',(-89.5,-3.472408318,9.5)) ;
#411=CARTESIAN_POINT('Vertex',(-89.5,-5.40193596048,10.0262348116)) ;
#414=CARTESIAN_POINT('Line Origine',(-88.5,-5.40193596048,10.0262348116)) ;
#418=CARTESIAN_POINT('Vertex',(-87.5,-5.40193596048,10.0262348116)) ;
#421=CARTESIAN_POINT('Axis2P3D Location',(-87.5,-3.472408318,9.5)) ;
#433=CARTESIAN_POINT('Axis2P3D Location',(-88.5,3.472408318,-9.5)) ;
#438=CARTESIAN_POINT('Axis2P3D Location',(-89.5,3.472408318,-9.5)) ;
#442=CARTESIAN_POINT('Vertex',(-89.5,3.472408318,-11.5)) ;
#444=CARTESIAN_POINT('Vertex',(-89.5,5.40193596048,-10.0262348116)) ;
#447=CARTESIAN_POINT('Line Origine',(-88.5,5.40193596048,-10.0262348116)) ;
#451=CARTESIAN_POINT('Vertex',(-87.5,5.40193596048,-10.0262348116)) ;
#454=CARTESIAN_POINT('Axis2P3D Location',(-87.5,3.472408318,-9.5)) ;
#458=CARTESIAN_POINT('Vertex',(-87.5,3.472408318,-11.5)) ;
#461=CARTESIAN_POINT('Line Origine',(-88.5,3.472408318,-11.5)) ;
#473=CARTESIAN_POINT('Line Origine',(-89.5,-8.881784197E-016,-11.5)) ;
#477=CARTESIAN_POINT('Vertex',(-89.5,-3.472408318,-11.5)) ;
#480=CARTESIAN_POINT('Line Origine',(-87.5,-8.881784197E-016,-11.5)) ;
#484=CARTESIAN_POINT('Vertex',(-87.5,-3.472408318,-11.5)) ;
#487=CARTESIAN_POINT('Line Origine',(-88.5,-3.472408318,-11.5)) ;
#499=CARTESIAN_POINT('Axis2P3D Location',(-88.5,-3.472408318,-9.5)) ;
#504=CARTESIAN_POINT('Axis2P3D Location',(-89.5,-3.472408318,-9.5)) ;
#508=CARTESIAN_POINT('Vertex',(-89.5,-5.40193596048,-10.0262348116)) ;
#511=CARTESIAN_POINT('Axis2P3D Location',(-87.5,-3.472408318,-9.5)) ;
#515=CARTESIAN_POINT('Vertex',(-87.5,-5.40193596048,-10.0262348116)) ;
#518=CARTESIAN_POINT('Line Origine',(-88.5,-5.40193596048,-10.0262348116)) ;
#530=CARTESIAN_POINT('Axis2P3D Location',(125.3,8.,0.5)) ;
#535=CARTESIAN_POINT('Line Origine',(-87.5,7.932,0.75)) ;
#539=CARTESIAN_POINT('Vertex',(-87.5,7.92969600911,0.757781299942)) ;
#541=CARTESIAN_POINT('Vertex',(-87.5,7.86363636364,1.)) ;
#544=CARTESIAN_POINT('Line Origine',(0.,7.864,1.)) ;
#548=CARTESIAN_POINT('Vertex',(87.5,7.86363636364,1.)) ;
#551=CARTESIAN_POINT('Line Origine',(87.5,7.932,0.75)) ;
#555=CARTESIAN_POINT('Vertex',(87.5,7.92952764248,0.758398644257)) ;
#558=CARTESIAN_POINT('Line Origine',(0.,7.92988348642,0.757781299942)) ;
#570=CARTESIAN_POINT('Axis2P3D Location',(-87.5,5.,11.5)) ;
#575=CARTESIAN_POINT('Line Origine',(87.5,6.63278616206,5.51311740579)) ;
#580=CARTESIAN_POINT('Line Origine',(89.5,6.66573180148,5.39231672792)) ;
#584=CARTESIAN_POINT('Vertex',(89.5,7.92952764248,0.758398644257)) ;
#587=CARTESIAN_POINT('Line Origine',(88.5,7.92952764248,0.758398644257)) ;
#600=CARTESIAN_POINT('Line Origine',(-89.5,6.66573180148,5.39231672792)) ;
#604=CARTESIAN_POINT('Vertex',(-89.5,7.92952764248,0.758398644257)) ;
#607=CARTESIAN_POINT('Line Origine',(-87.5,6.63278616206,5.51311740579)) ;
#612=CARTESIAN_POINT('Line Origine',(-88.5,7.92952764248,0.758398644257)) ;
#625=CARTESIAN_POINT('Axis2P3D Location',(0.,6.,0.232852991637)) ;
#630=CARTESIAN_POINT('Axis2P3D Location',(-87.5,6.,0.232852991637)) ;
#634=CARTESIAN_POINT('Vertex',(-87.5,8.,0.232852991637)) ;
#637=CARTESIAN_POINT('Axis2P3D Location',(87.5,6.,0.232852991637)) ;
#641=CARTESIAN_POINT('Vertex',(87.5,8.,0.232163832672)) ;
#644=CARTESIAN_POINT('Line Origine',(0.,8.,0.232852991637)) ;
#656=CARTESIAN_POINT('Axis2P3D Location',(0.,6.,0.232163832672)) ;
#661=CARTESIAN_POINT('Line Origine',(0.,8.,0.232163832672)) ;
#665=CARTESIAN_POINT('Vertex',(89.5,8.,0.232163832672)) ;
#668=CARTESIAN_POINT('Axis2P3D Location',(89.5,6.,0.232163832672)) ;
#680=CARTESIAN_POINT('Axis2P3D Location',(7.1054273576E-015,6.,0.232163832672)) ;
#685=CARTESIAN_POINT('Line Origine',(0.,8.,0.232163832672)) ;
#689=CARTESIAN_POINT('Vertex',(-89.5,8.,0.232163832672)) ;
#692=CARTESIAN_POINT('Axis2P3D Location',(-89.5,6.,0.232163832672)) ;
#704=CARTESIAN_POINT('Axis2P3D Location',(125.3,8.,-0.5)) ;
#709=CARTESIAN_POINT('Line Origine',(0.,7.92988348642,-0.757781299942)) ;
#713=CARTESIAN_POINT('Vertex',(-87.5,7.92969600911,-0.757781299942)) ;
#715=CARTESIAN_POINT('Vertex',(87.5,7.92952764248,-0.758398644257)) ;
#718=CARTESIAN_POINT('Line Origine',(87.5,7.932,-0.75)) ;
#722=CARTESIAN_POINT('Vertex',(87.5,7.86363636364,-1.)) ;
#725=CARTESIAN_POINT('Line Origine',(0.,7.864,-1.)) ;
#729=CARTESIAN_POINT('Vertex',(-87.5,7.86363636364,-1.)) ;
#732=CARTESIAN_POINT('Line Origine',(-87.5,7.932,-0.75)) ;
#744=CARTESIAN_POINT('Axis2P3D Location',(-87.5,5.,-11.5)) ;
#749=CARTESIAN_POINT('Line Origine',(88.5,7.92952764248,-0.758398644257)) ;
#753=CARTESIAN_POINT('Vertex',(89.5,7.92952764248,-0.758398644257)) ;
#756=CARTESIAN_POINT('Line Origine',(89.5,6.66573180148,-5.39231672792)) ;
#761=CARTESIAN_POINT('Line Origine',(87.5,6.63278616206,-5.51311740579)) ;
#774=CARTESIAN_POINT('Line Origine',(-88.5,7.92952764248,-0.758398644257)) ;
#778=CARTESIAN_POINT('Vertex',(-89.5,7.92952764248,-0.758398644257)) ;
#781=CARTESIAN_POINT('Line Origine',(-87.5,6.63278616206,-5.51311740579)) ;
#786=CARTESIAN_POINT('Line Origine',(-89.5,6.66573180148,-5.39231672792)) ;
#799=CARTESIAN_POINT('Axis2P3D Location',(-87.5,8.,0.)) ;
#804=CARTESIAN_POINT('Line Origine',(88.5,8.,-0.232163832672)) ;
#808=CARTESIAN_POINT('Vertex',(87.5,8.,-0.232163832672)) ;
#810=CARTESIAN_POINT('Vertex',(89.5,8.,-0.232163832672)) ;
#813=CARTESIAN_POINT('Line Origine',(-1.42108547152E-014,8.,-0.232852991637)) ;
#817=CARTESIAN_POINT('Vertex',(-87.5,8.,-0.232852991637)) ;
#820=CARTESIAN_POINT('Line Origine',(-88.5,8.,-0.232163832672)) ;
#824=CARTESIAN_POINT('Vertex',(-89.5,8.,-0.232163832672)) ;
#827=CARTESIAN_POINT('Line Origine',(-89.5,8.,-0.116081916336)) ;
#831=CARTESIAN_POINT('Vertex',(-89.5,8.,9.99200722163E-016)) ;
#834=CARTESIAN_POINT('Line Origine',(-89.5,8.,0.116081916336)) ;
#839=CARTESIAN_POINT('Line Origine',(89.5,8.,0.116081916336)) ;
#843=CARTESIAN_POINT('Vertex',(89.5,8.,9.99200722163E-016)) ;
#846=CARTESIAN_POINT('Line Origine',(89.5,8.,-0.116081916336)) ;
#864=CARTESIAN_POINT('Axis2P3D Location',(7.2720441178,6.,-0.232852991637)) ;
#869=CARTESIAN_POINT('Axis2P3D Location',(-87.5,6.,-0.232852991637)) ;
#874=CARTESIAN_POINT('Axis2P3D Location',(87.5,6.,-0.232852991637)) ;
#886=CARTESIAN_POINT('Axis2P3D Location',(7.1054273576E-015,6.,-0.232163832672)) ;
#891=CARTESIAN_POINT('Axis2P3D Location',(89.5,6.,-0.232163832672)) ;
#903=CARTESIAN_POINT('Axis2P3D Location',(7.1054273576E-015,6.,-0.232163832672)) ;
#908=CARTESIAN_POINT('Axis2P3D Location',(-89.5,6.,-0.232163832672)) ;
#920=CARTESIAN_POINT('Axis2P3D Location',(-125.3,-8.,0.5)) ;
#925=CARTESIAN_POINT('Line Origine',(87.5,-7.932,0.75)) ;
#929=CARTESIAN_POINT('Vertex',(87.5,-7.92969600911,0.757781299942)) ;
#931=CARTESIAN_POINT('Vertex',(87.5,-7.86363636364,1.)) ;
#934=CARTESIAN_POINT('Line Origine',(0.,-7.864,1.)) ;
#938=CARTESIAN_POINT('Vertex',(-87.5,-7.86363636364,1.)) ;
#941=CARTESIAN_POINT('Line Origine',(-87.5,-7.932,0.75)) ;
#945=CARTESIAN_POINT('Vertex',(-87.5,-7.92952764248,0.758398644257)) ;
#948=CARTESIAN_POINT('Line Origine',(0.,-7.92988348642,0.757781299942)) ;
#960=CARTESIAN_POINT('Axis2P3D Location',(-87.5,-5.,11.5)) ;
#965=CARTESIAN_POINT('Line Origine',(88.5,-7.92952764248,0.758398644257)) ;
#969=CARTESIAN_POINT('Vertex',(89.5,-7.92952764248,0.758398644257)) ;
#972=CARTESIAN_POINT('Line Origine',(89.5,-6.66573180148,5.39231672792)) ;
#977=CARTESIAN_POINT('Line Origine',(87.5,-6.63278616206,5.51311740579)) ;
#990=CARTESIAN_POINT('Line Origine',(-88.5,-7.92952764248,0.758398644257)) ;
#994=CARTESIAN_POINT('Vertex',(-89.5,-7.92952764248,0.758398644257)) ;
#997=CARTESIAN_POINT('Line Origine',(-87.5,-6.63278616206,5.51311740579)) ;
#1002=CARTESIAN_POINT('Line Origine',(-89.5,-6.66573180148,5.39231672792)) ;
#1015=CARTESIAN_POINT('Axis2P3D Location',(0.,-6.,0.232852991637)) ;
#1020=CARTESIAN_POINT('Axis2P3D Location',(87.5,-6.,0.232852991637)) ;
#1024=CARTESIAN_POINT('Vertex',(87.5,-8.,0.232852991637)) ;
#1027=CARTESIAN_POINT('Axis2P3D Location',(-87.5,-6.,0.232852991637)) ;
#1031=CARTESIAN_POINT('Vertex',(-87.5,-8.,0.232163832672)) ;
#1034=CARTESIAN_POINT('Line Origine',(0.,-8.,0.232852991637)) ;
#1046=CARTESIAN_POINT('Axis2P3D Location',(-3.5527136788E-014,-6.,0.232163832672)) ;
#1051=CARTESIAN_POINT('Line Origine',(-2.84217094304E-014,-8.,0.232163832672)) ;
#1055=CARTESIAN_POINT('Vertex',(-89.5,-8.,0.232163832672)) ;
#1058=CARTESIAN_POINT('Axis2P3D Location',(-89.5,-6.,0.232163832672)) ;
#1070=CARTESIAN_POINT('Axis2P3D Location',(1.42108547152E-014,-6.,0.232163832672)) ;
#1075=CARTESIAN_POINT('Line Origine',(1.42108547152E-014,-8.,0.232163832672)) ;
#1079=CARTESIAN_POINT('Vertex',(89.5,-8.,0.232163832672)) ;
#1082=CARTESIAN_POINT('Axis2P3D Location',(89.5,-6.,0.232163832672)) ;
#1094=CARTESIAN_POINT('Axis2P3D Location',(-125.3,-8.,-0.5)) ;
#1099=CARTESIAN_POINT('Line Origine',(0.,-7.92988348642,-0.757781299942)) ;
#1103=CARTESIAN_POINT('Vertex',(87.5,-7.92969600911,-0.757781299942)) ;
#1105=CARTESIAN_POINT('Vertex',(-87.5,-7.92952764248,-0.758398644257)) ;
#1108=CARTESIAN_POINT('Line Origine',(-87.5,-7.932,-0.75)) ;
#1112=CARTESIAN_POINT('Vertex',(-87.5,-7.86363636364,-1.)) ;
#1115=CARTESIAN_POINT('Line Origine',(0.,-7.864,-1.)) ;
#1119=CARTESIAN_POINT('Vertex',(87.5,-7.86363636364,-1.)) ;
#1122=CARTESIAN_POINT('Line Origine',(87.5,-7.932,-0.75)) ;
#1134=CARTESIAN_POINT('Axis2P3D Location',(-87.5,-5.,-11.5)) ;
#1139=CARTESIAN_POINT('Line Origine',(87.5,-6.63278616206,-5.51311740579)) ;
#1144=CARTESIAN_POINT('Line Origine',(89.5,-6.66573180148,-5.39231672792)) ;
#1148=CARTESIAN_POINT('Vertex',(89.5,-7.92952764248,-0.758398644257)) ;
#1151=CARTESIAN_POINT('Line Origine',(88.5,-7.92952764248,-0.758398644257)) ;
#1164=CARTESIAN_POINT('Line Origine',(-89.5,-6.66573180148,-5.39231672792)) ;
#1168=CARTESIAN_POINT('Vertex',(-89.5,-7.92952764248,-0.758398644257)) ;
#1171=CARTESIAN_POINT('Line Origine',(-87.5,-6.63278616206,-5.51311740579)) ;
#1176=CARTESIAN_POINT('Line Origine',(-88.5,-7.92952764248,-0.758398644257)) ;
#1189=CARTESIAN_POINT('Axis2P3D Location',(87.5,-8.,0.)) ;
#1194=CARTESIAN_POINT('Line Origine',(-88.5,-8.,-0.232163832672)) ;
#1198=CARTESIAN_POINT('Vertex',(-87.5,-8.,-0.232163832672)) ;
#1200=CARTESIAN_POINT('Vertex',(-89.5,-8.,-0.232163832672)) ;
#1203=CARTESIAN_POINT('Line Origine',(2.41584530158E-013,-8.,-0.232852991637)) ;
#1207=CARTESIAN_POINT('Vertex',(87.5,-8.,-0.232852991637)) ;
#1210=CARTESIAN_POINT('Line Origine',(88.5,-8.,-0.232163832672)) ;
#1214=CARTESIAN_POINT('Vertex',(89.5,-8.,-0.232163832672)) ;
#1217=CARTESIAN_POINT('Line Origine',(89.5,-8.,-0.116081916336)) ;
#1221=CARTESIAN_POINT('Vertex',(89.5,-8.,-9.71445146547E-016)) ;
#1224=CARTESIAN_POINT('Line Origine',(89.5,-8.,0.116081916336)) ;
#1229=CARTESIAN_POINT('Line Origine',(-89.5,-8.,0.116081916336)) ;
#1233=CARTESIAN_POINT('Vertex',(-89.5,-8.,-9.71445146547E-016)) ;
#1236=CARTESIAN_POINT('Line Origine',(-89.5,-8.,-0.116081916336)) ;
#1254=CARTESIAN_POINT('Axis2P3D Location',(89.5,0.,0.)) ;
#1259=CARTESIAN_POINT('Axis2P3D Location',(89.5,-6.,-0.232163832672)) ;
#1285=CARTESIAN_POINT('Axis2P3D Location',(-89.5,0.,0.)) ;
#1290=CARTESIAN_POINT('Axis2P3D Location',(-89.5,-6.,-0.232163832672)) ;
#1316=CARTESIAN_POINT('Axis2P3D Location',(-7.2720441178,-6.,-0.232852991637)) ;
#1321=CARTESIAN_POINT('Axis2P3D Location',(87.5,-6.,-0.232852991637)) ;
#1326=CARTESIAN_POINT('Axis2P3D Location',(-87.5,-6.,-0.232852991637)) ;
#1338=CARTESIAN_POINT('Axis2P3D Location',(-1.42108547152E-014,-6.,-0.232163832672)) ;
#1350=CARTESIAN_POINT('Axis2P3D Location',(-1.42108547152E-014,-6.,-0.232163832672)) ;
#1362=CARTESIAN_POINT('Axis2P3D Location',(0.,0.,1.)) ;
#1367=CARTESIAN_POINT('Line Origine',(87.5,7.43181818182,1.)) ;
#1371=CARTESIAN_POINT('Vertex',(87.5,7.,1.)) ;
#1374=CARTESIAN_POINT('Line Origine',(-87.5,7.43181818182,1.)) ;
#1378=CARTESIAN_POINT('Vertex',(-87.5,7.,1.)) ;
#1381=CARTESIAN_POINT('Line Origine',(0.,7.,1.)) ;
#1393=CARTESIAN_POINT('Axis2P3D Location',(-122.5,6.5,0.5)) ;
#1398=CARTESIAN_POINT('Line Origine',(87.5,6.75,0.75)) ;
#1403=CARTESIAN_POINT('Line Origine',(-87.5,6.75,0.75)) ;
#1415=CARTESIAN_POINT('Axis2P3D Location',(87.5,8.,0.)) ;
#1420=CARTESIAN_POINT('Line Origine',(87.5,-6.75,0.75)) ;
#1424=CARTESIAN_POINT('Vertex',(87.5,-7.,1.)) ;
#1427=CARTESIAN_POINT('Line Origine',(87.5,-7.43181818182,1.)) ;
#1445=CARTESIAN_POINT('Axis2P3D Location',(-87.5,-8.,0.)) ;
#1450=CARTESIAN_POINT('Line Origine',(-87.5,-6.75,0.75)) ;
#1454=CARTESIAN_POINT('Vertex',(-87.5,-7.,1.)) ;
#1457=CARTESIAN_POINT('Line Origine',(-87.5,-7.43181818182,1.)) ;
#1475=CARTESIAN_POINT('Line Origine',(0.,-7.,1.)) ;
#1487=CARTESIAN_POINT('Axis2P3D Location',(-122.5,-6.5,0.5)) ;
#1499=CARTESIAN_POINT('Axis2P3D Location',(0.,0.,-1.)) ;
#1504=CARTESIAN_POINT('Line Origine',(1.42108547152E-014,-7.,-1.)) ;
#1508=CARTESIAN_POINT('Vertex',(87.5,-7.,-1.)) ;
#1510=CARTESIAN_POINT('Vertex',(-87.5,-7.,-1.)) ;
#1513=CARTESIAN_POINT('Line Origine',(87.5,-7.43181818182,-1.)) ;
#1518=CARTESIAN_POINT('Line Origine',(-87.5,-7.43181818182,-1.)) ;
#1530=CARTESIAN_POINT('Axis2P3D Location',(122.5,-7.,-1.)) ;
#1535=CARTESIAN_POINT('Line Origine',(-87.5,-6.75,-0.75)) ;
#1540=CARTESIAN_POINT('Line Origine',(87.5,-6.75,-0.75)) ;
#1552=CARTESIAN_POINT('Line Origine',(-87.5,6.75,-0.75)) ;
#1556=CARTESIAN_POINT('Vertex',(-87.5,7.,-1.)) ;
#1559=CARTESIAN_POINT('Line Origine',(-87.5,7.43181818182,-1.)) ;
#1577=CARTESIAN_POINT('Line Origine',(87.5,6.75,-0.75)) ;
#1581=CARTESIAN_POINT('Vertex',(87.5,7.,-1.)) ;
#1584=CARTESIAN_POINT('Line Origine',(87.5,7.43181818182,-1.)) ;
#1602=CARTESIAN_POINT('Line Origine',(1.42108547152E-014,7.,-1.)) ;
#1614=CARTESIAN_POINT('Axis2P3D Location',(122.5,7.,-1.)) ;
#53=DIRECTION('Axis2P3D Direction',(0.,0.,1.)) ;
#54=DIRECTION('Axis2P3D XDirection',(1.,0.,0.)) ;
#58=DIRECTION('Vector Direction',(1.,0.,0.)) ;
#67=DIRECTION('Vector Direction',(0.,-1.,0.)) ;
#74=DIRECTION('Vector Direction',(1.,0.,0.)) ;
#81=DIRECTION('Vector Direction',(0.,1.,0.)) ;
#93=DIRECTION('Axis2P3D Direction',(0.,0.,1.)) ;
#94=DIRECTION('Axis2P3D XDirection',(1.,0.,0.)) ;
#98=DIRECTION('Vector Direction',(0.,1.,0.)) ;
#107=DIRECTION('Vector Direction',(1.,0.,0.)) ;
#114=DIRECTION('Vector Direction',(0.,-1.,0.)) ;
#121=DIRECTION('Vector Direction',(1.,0.,0.)) ;
#133=DIRECTION('Axis2P3D Direction',(-1.,0.,0.)) ;
#134=DIRECTION('Axis2P3D XDirection',(0.,0.,1.)) ;
#138=DIRECTION('Axis2P3D Direction',(-1.,0.,0.)) ;
#147=DIRECTION('Vector Direction',(-1.,0.,0.)) ;
#154=DIRECTION('Axis2P3D Direction',(-1.,0.,0.)) ;
#161=DIRECTION('Vector Direction',(-1.,0.,0.)) ;
#173=DIRECTION('Axis2P3D Direction',(-0.,-0.,-1.)) ;
#174=DIRECTION('Axis2P3D XDirection',(0.,-1.,0.)) ;
#178=DIRECTION('Vector Direction',(-1.,0.,0.)) ;
#187=DIRECTION('Vector Direction',(0.,-1.,0.)) ;
#192=DIRECTION('Vector Direction',(0.,-1.,0.)) ;
#204=DIRECTION('Axis2P3D Direction',(-1.,0.,0.)) ;
#205=DIRECTION('Axis2P3D XDirection',(0.,-0.964763821238,0.263117405792)) ;
#209=DIRECTION('Axis2P3D Direction',(-1.,0.,0.)) ;
#216=DIRECTION('Axis2P3D Direction',(-1.,0.,0.)) ;
#223=DIRECTION('Vector Direction',(-1.,0.,0.)) ;
#235=DIRECTION('Axis2P3D Direction',(-1.,0.,0.)) ;
#236=DIRECTION('Axis2P3D XDirection',(0.,0.964763821238,-0.263117405792)) ;
#240=DIRECTION('Axis2P3D Direction',(-1.,0.,0.)) ;
#249=DIRECTION('Vector Direction',(-1.,0.,0.)) ;
#256=DIRECTION('Axis2P3D Direction',(-1.,0.,0.)) ;
#263=DIRECTION('Vector Direction',(-1.,0.,0.)) ;
#275=DIRECTION('Axis2P3D Direction',(-0.,-0.,-1.)) ;
#276=DIRECTION('Axis2P3D XDirection',(0.,-1.,0.)) ;
#280=DIRECTION('Vector Direction',(0.,-1.,0.)) ;
#287=DIRECTION('Vector Direction',(0.,-1.,0.)) ;
#294=DIRECTION('Vector Direction',(-1.,0.,0.)) ;
#306=DIRECTION('Axis2P3D Direction',(-1.,0.,0.)) ;
#307=DIRECTION('Axis2P3D XDirection',(0.,0.,-1.)) ;
#311=DIRECTION('Axis2P3D Direction',(-1.,0.,0.)) ;
#318=DIRECTION('Vector Direction',(-1.,0.,0.)) ;
#325=DIRECTION('Axis2P3D Direction',(-1.,0.,0.)) ;
#337=DIRECTION('Axis2P3D Direction',(-1.,0.,0.)) ;
#338=DIRECTION('Axis2P3D XDirection',(0.,-6.10622663544E-016,1.)) ;
#342=DIRECTION('Axis2P3D Direction',(-1.,0.,0.)) ;
#351=DIRECTION('Vector Direction',(-1.,0.,0.)) ;
#358=DIRECTION('Axis2P3D Direction',(-1.,0.,0.)) ;
#365=DIRECTION('Vector Direction',(-1.,0.,0.)) ;
#377=DIRECTION('Vector Direction',(-1.,0.,0.)) ;
#386=DIRECTION('Vector Direction',(0.,-1.,0.)) ;
#391=DIRECTION('Vector Direction',(0.,-1.,0.)) ;
#403=DIRECTION('Axis2P3D Direction',(-1.,0.,0.)) ;
#404=DIRECTION('Axis2P3D XDirection',(0.,-0.964763821238,0.263117405792)) ;
#408=DIRECTION('Axis2P3D Direction',(-1.,0.,0.)) ;
#415=DIRECTION('Vector Direction',(-1.,0.,0.)) ;
#422=DIRECTION('Axis2P3D Direction',(-1.,0.,0.)) ;
#434=DIRECTION('Axis2P3D Direction',(-1.,0.,0.)) ;
#435=DIRECTION('Axis2P3D XDirection',(0.,0.964763821238,-0.263117405792)) ;
#439=DIRECTION('Axis2P3D Direction',(-1.,0.,0.)) ;
#448=DIRECTION('Vector Direction',(-1.,0.,0.)) ;
#455=DIRECTION('Axis2P3D Direction',(-1.,0.,0.)) ;
#462=DIRECTION('Vector Direction',(-1.,0.,0.)) ;
#474=DIRECTION('Vector Direction',(0.,-1.,0.)) ;
#481=DIRECTION('Vector Direction',(0.,-1.,0.)) ;
#488=DIRECTION('Vector Direction',(-1.,0.,0.)) ;
#500=DIRECTION('Axis2P3D Direction',(-1.,-0.,0.)) ;
#501=DIRECTION('Axis2P3D XDirection',(0.,6.10622663544E-016,-1.)) ;
#505=DIRECTION('Axis2P3D Direction',(-1.,-0.,0.)) ;
#512=DIRECTION('Axis2P3D Direction',(-1.,-0.,0.)) ;
#519=DIRECTION('Vector Direction',(-1.,0.,0.)) ;
#531=DIRECTION('Axis2P3D Direction',(0.,0.964941743208,0.262464154153)) ;
#532=DIRECTION('Axis2P3D XDirection',(-1.,0.,0.)) ;
#536=DIRECTION('Vector Direction',(0.,-0.262464154153,0.964941743208)) ;
#545=DIRECTION('Vector Direction',(-1.,0.,0.)) ;
#552=DIRECTION('Vector Direction',(0.,-0.262464154153,0.964941743208)) ;
#559=DIRECTION('Vector Direction',(-1.,0.,0.)) ;
#571=DIRECTION('Axis2P3D Direction',(0.,0.964763821238,0.263117405792)) ;
#572=DIRECTION('Axis2P3D XDirection',(-0.,0.263117405792,-0.964763821238)) ;
#576=DIRECTION('Vector Direction',(0.,0.263117405792,-0.964763821238)) ;
#581=DIRECTION('Vector Direction',(0.,0.263117405792,-0.964763821238)) ;
#588=DIRECTION('Vector Direction',(-1.,0.,0.)) ;
#601=DIRECTION('Vector Direction',(0.,0.263117405792,-0.964763821238)) ;
#608=DIRECTION('Vector Direction',(0.,0.263117405792,-0.964763821238)) ;
#613=DIRECTION('Vector Direction',(1.,0.,0.)) ;
#626=DIRECTION('Axis2P3D Direction',(1.,0.,-0.)) ;
#627=DIRECTION('Axis2P3D XDirection',(0.,1.,-2.77555756156E-016)) ;
#631=DIRECTION('Axis2P3D Direction',(1.,0.,-0.)) ;
#638=DIRECTION('Axis2P3D Direction',(1.,0.,-0.)) ;
#645=DIRECTION('Vector Direction',(1.,0.,0.)) ;
#657=DIRECTION('Axis2P3D Direction',(-1.,0.,0.)) ;
#658=DIRECTION('Axis2P3D XDirection',(0.,0.964763821238,0.263117405792)) ;
#662=DIRECTION('Vector Direction',(-1.,0.,0.)) ;
#669=DIRECTION('Axis2P3D Direction',(-1.,0.,0.)) ;
#681=DIRECTION('Axis2P3D Direction',(1.,0.,-0.)) ;
#682=DIRECTION('Axis2P3D XDirection',(0.,1.,-2.22044604925E-016)) ;
#686=DIRECTION('Vector Direction',(1.,0.,0.)) ;
#693=DIRECTION('Axis2P3D Direction',(1.,0.,-0.)) ;
#705=DIRECTION('Axis2P3D Direction',(0.,-0.964941743208,0.262464154153)) ;
#706=DIRECTION('Axis2P3D XDirection',(-1.,0.,0.)) ;
#710=DIRECTION('Vector Direction',(-1.,0.,0.)) ;
#719=DIRECTION('Vector Direction',(0.,-0.262464154153,-0.964941743208)) ;
#726=DIRECTION('Vector Direction',(-1.,0.,0.)) ;
#733=DIRECTION('Vector Direction',(0.,-0.262464154153,-0.964941743208)) ;
#745=DIRECTION('Axis2P3D Direction',(0.,-0.964763821238,0.263117405792)) ;
#746=DIRECTION('Axis2P3D XDirection',(0.,0.263117405792,0.964763821238)) ;
#750=DIRECTION('Vector Direction',(-1.,0.,0.)) ;
#757=DIRECTION('Vector Direction',(0.,0.263117405792,0.964763821238)) ;
#762=DIRECTION('Vector Direction',(0.,0.263117405792,0.964763821238)) ;
#775=DIRECTION('Vector Direction',(-1.,0.,0.)) ;
#782=DIRECTION('Vector Direction',(0.,0.263117405792,0.964763821238)) ;
#787=DIRECTION('Vector Direction',(0.,0.263117405792,0.964763821238)) ;
#800=DIRECTION('Axis2P3D Direction',(0.,-1.,0.)) ;
#801=DIRECTION('Axis2P3D XDirection',(1.,0.,0.)) ;
#805=DIRECTION('Vector Direction',(-1.,0.,0.)) ;
#814=DIRECTION('Vector Direction',(-1.,0.,0.)) ;
#821=DIRECTION('Vector Direction',(-1.,0.,0.)) ;
#828=DIRECTION('Vector Direction',(0.,0.,1.)) ;
#835=DIRECTION('Vector Direction',(0.,0.,-1.)) ;
#840=DIRECTION('Vector Direction',(0.,0.,-1.)) ;
#847=DIRECTION('Vector Direction',(0.,0.,1.)) ;
#865=DIRECTION('Axis2P3D Direction',(-1.,0.,0.)) ;
#866=DIRECTION('Axis2P3D XDirection',(0.,1.,0.)) ;
#870=DIRECTION('Axis2P3D Direction',(-1.,0.,0.)) ;
#875=DIRECTION('Axis2P3D Direction',(-1.,0.,0.)) ;
#887=DIRECTION('Axis2P3D Direction',(-1.,0.,0.)) ;
#888=DIRECTION('Axis2P3D XDirection',(0.,1.,0.)) ;
#892=DIRECTION('Axis2P3D Direction',(-1.,0.,0.)) ;
#904=DIRECTION('Axis2P3D Direction',(-1.,0.,0.)) ;
#905=DIRECTION('Axis2P3D XDirection',(0.,1.,0.)) ;
#909=DIRECTION('Axis2P3D Direction',(-1.,0.,0.)) ;
#921=DIRECTION('Axis2P3D Direction',(0.,-0.964941743208,0.262464154153)) ;
#922=DIRECTION('Axis2P3D XDirection',(1.,0.,0.)) ;
#926=DIRECTION('Vector Direction',(0.,0.262464154153,0.964941743208)) ;
#935=DIRECTION('Vector Direction',(1.,0.,0.)) ;
#942=DIRECTION('Vector Direction',(0.,0.262464154153,0.964941743208)) ;
#949=DIRECTION('Vector Direction',(1.,0.,0.)) ;
#961=DIRECTION('Axis2P3D Direction',(0.,0.964763821238,-0.263117405792)) ;
#962=DIRECTION('Axis2P3D XDirection',(0.,-0.263117405792,-0.964763821238)) ;
#966=DIRECTION('Vector Direction',(1.,0.,0.)) ;
#973=DIRECTION('Vector Direction',(0.,-0.263117405792,-0.964763821238)) ;
#978=DIRECTION('Vector Direction',(0.,-0.263117405792,-0.964763821238)) ;
#991=DIRECTION('Vector Direction',(-1.,0.,0.)) ;
#998=DIRECTION('Vector Direction',(0.,-0.263117405792,-0.964763821238)) ;
#1003=DIRECTION('Vector Direction',(0.,-0.263117405792,-0.964763821238)) ;
#1016=DIRECTION('Axis2P3D Direction',(-1.,0.,0.)) ;
#1017=DIRECTION('Axis2P3D XDirection',(0.,-1.,-2.77555756156E-016)) ;
#1021=DIRECTION('Axis2P3D Direction',(-1.,0.,0.)) ;
#1028=DIRECTION('Axis2P3D Direction',(-1.,0.,0.)) ;
#1035=DIRECTION('Vector Direction',(-1.,0.,0.)) ;
#1047=DIRECTION('Axis2P3D Direction',(-1.,0.,0.)) ;
#1048=DIRECTION('Axis2P3D XDirection',(0.,-1.,8.32667268469E-016)) ;
#1052=DIRECTION('Vector Direction',(-1.,0.,0.)) ;
#1059=DIRECTION('Axis2P3D Direction',(-1.,0.,0.)) ;
#1071=DIRECTION('Axis2P3D Direction',(1.,0.,0.)) ;
#1072=DIRECTION('Axis2P3D XDirection',(0.,-0.964763821238,0.263117405792)) ;
#1076=DIRECTION('Vector Direction',(1.,0.,0.)) ;
#1083=DIRECTION('Axis2P3D Direction',(1.,0.,0.)) ;
#1095=DIRECTION('Axis2P3D Direction',(-0.,0.964941743208,0.262464154153)) ;
#1096=DIRECTION('Axis2P3D XDirection',(1.,0.,0.)) ;
#1100=DIRECTION('Vector Direction',(1.,0.,0.)) ;
#1109=DIRECTION('Vector Direction',(0.,0.262464154153,-0.964941743208)) ;
#1116=DIRECTION('Vector Direction',(1.,0.,0.)) ;
#1123=DIRECTION('Vector Direction',(0.,0.262464154153,-0.964941743208)) ;
#1135=DIRECTION('Axis2P3D Direction',(-0.,-0.964763821238,-0.263117405792)) ;
#1136=DIRECTION('Axis2P3D XDirection',(0.,-0.263117405792,0.964763821238)) ;
#1140=DIRECTION('Vector Direction',(0.,-0.263117405792,0.964763821238)) ;
#1145=DIRECTION('Vector Direction',(0.,-0.263117405792,0.964763821238)) ;
#1152=DIRECTION('Vector Direction',(-1.,0.,0.)) ;
#1165=DIRECTION('Vector Direction',(0.,-0.263117405792,0.964763821238)) ;
#1172=DIRECTION('Vector Direction',(0.,-0.263117405792,0.964763821238)) ;
#1177=DIRECTION('Vector Direction',(-1.,0.,0.)) ;
#1190=DIRECTION('Axis2P3D Direction',(0.,1.,-0.)) ;
#1191=DIRECTION('Axis2P3D XDirection',(-1.,0.,0.)) ;
#1195=DIRECTION('Vector Direction',(-1.,0.,0.)) ;
#1204=DIRECTION('Vector Direction',(1.,0.,0.)) ;
#1211=DIRECTION('Vector Direction',(-1.,0.,0.)) ;
#1218=DIRECTION('Vector Direction',(0.,0.,1.)) ;
#1225=DIRECTION('Vector Direction',(0.,0.,-1.)) ;
#1230=DIRECTION('Vector Direction',(0.,0.,-1.)) ;
#1237=DIRECTION('Vector Direction',(0.,0.,1.)) ;
#1255=DIRECTION('Axis2P3D Direction',(-1.,0.,0.)) ;
#1256=DIRECTION('Axis2P3D XDirection',(0.,-1.,0.)) ;
#1260=DIRECTION('Axis2P3D Direction',(-1.,0.,0.)) ;
#1286=DIRECTION('Axis2P3D Direction',(-1.,0.,0.)) ;
#1287=DIRECTION('Axis2P3D XDirection',(0.,-1.,0.)) ;
#1291=DIRECTION('Axis2P3D Direction',(-1.,0.,0.)) ;
#1317=DIRECTION('Axis2P3D Direction',(1.,0.,0.)) ;
#1318=DIRECTION('Axis2P3D XDirection',(0.,-1.,0.)) ;
#1322=DIRECTION('Axis2P3D Direction',(1.,0.,0.)) ;
#1327=DIRECTION('Axis2P3D Direction',(1.,0.,0.)) ;
#1339=DIRECTION('Axis2P3D Direction',(-1.,0.,0.)) ;
#1340=DIRECTION('Axis2P3D XDirection',(0.,-0.964763821238,-0.263117405792)) ;
#1351=DIRECTION('Axis2P3D Direction',(-1.,0.,0.)) ;
#1352=DIRECTION('Axis2P3D XDirection',(0.,-0.964763821238,-0.263117405792)) ;
#1363=DIRECTION('Axis2P3D Direction',(0.,0.,1.)) ;
#1364=DIRECTION('Axis2P3D XDirection',(1.,0.,0.)) ;
#1368=DIRECTION('Vector Direction',(0.,1.,0.)) ;
#1375=DIRECTION('Vector Direction',(0.,-1.,0.)) ;
#1382=DIRECTION('Vector Direction',(1.,0.,0.)) ;
#1394=DIRECTION('Axis2P3D Direction',(0.,-0.707106781187,0.707106781187)) ;
#1395=DIRECTION('Axis2P3D XDirection',(1.,0.,0.)) ;
#1399=DIRECTION('Vector Direction',(0.,0.707106781187,0.707106781187)) ;
#1404=DIRECTION('Vector Direction',(0.,0.707106781187,0.707106781187)) ;
#1416=DIRECTION('Axis2P3D Direction',(-1.,0.,0.)) ;
#1417=DIRECTION('Axis2P3D XDirection',(0.,-1.,0.)) ;
#1421=DIRECTION('Vector Direction',(0.,0.707106781187,-0.707106781187)) ;
#1428=DIRECTION('Vector Direction',(0.,-1.,0.)) ;
#1446=DIRECTION('Axis2P3D Direction',(1.,0.,0.)) ;
#1447=DIRECTION('Axis2P3D XDirection',(0.,1.,0.)) ;
#1451=DIRECTION('Vector Direction',(0.,0.707106781187,-0.707106781187)) ;
#1458=DIRECTION('Vector Direction',(0.,1.,0.)) ;
#1476=DIRECTION('Vector Direction',(1.,0.,0.)) ;
#1488=DIRECTION('Axis2P3D Direction',(0.,-0.707106781187,-0.707106781187)) ;
#1489=DIRECTION('Axis2P3D XDirection',(1.,0.,0.)) ;
#1500=DIRECTION('Axis2P3D Direction',(0.,0.,1.)) ;
#1501=DIRECTION('Axis2P3D XDirection',(1.,0.,0.)) ;
#1505=DIRECTION('Vector Direction',(-1.,0.,0.)) ;
#1514=DIRECTION('Vector Direction',(0.,-1.,0.)) ;
#1519=DIRECTION('Vector Direction',(0.,1.,0.)) ;
#1531=DIRECTION('Axis2P3D Direction',(0.,0.707106781187,-0.707106781187)) ;
#1532=DIRECTION('Axis2P3D XDirection',(-1.,0.,0.)) ;
#1536=DIRECTION('Vector Direction',(0.,0.707106781187,0.707106781187)) ;
#1541=DIRECTION('Vector Direction',(0.,0.707106781187,0.707106781187)) ;
#1553=DIRECTION('Vector Direction',(0.,0.707106781187,-0.707106781187)) ;
#1560=DIRECTION('Vector Direction',(0.,-1.,0.)) ;
#1578=DIRECTION('Vector Direction',(0.,0.707106781187,-0.707106781187)) ;
#1585=DIRECTION('Vector Direction',(0.,1.,0.)) ;
#1603=DIRECTION('Vector Direction',(-1.,0.,0.)) ;
#1615=DIRECTION('Axis2P3D Direction',(0.,0.707106781187,0.707106781187)) ;
#1616=DIRECTION('Axis2P3D XDirection',(-1.,0.,0.)) ;
#48=AXIS2_PLACEMENT_3D(' ',#47,$,$) ;
#55=AXIS2_PLACEMENT_3D('Plane Axis2P3D',#52,#53,#54) ;
#95=AXIS2_PLACEMENT_3D('Plane Axis2P3D',#92,#93,#94) ;
#135=AXIS2_PLACEMENT_3D('Cylinder Axis2P3D',#132,#133,#134) ;
#139=AXIS2_PLACEMENT_3D('Circle Axis2P3D',#137,#138,$) ;
#155=AXIS2_PLACEMENT_3D('Circle Axis2P3D',#153,#154,$) ;
#175=AXIS2_PLACEMENT_3D('Plane Axis2P3D',#172,#173,#174) ;
#206=AXIS2_PLACEMENT_3D('Cylinder Axis2P3D',#203,#204,#205) ;
#210=AXIS2_PLACEMENT_3D('Circle Axis2P3D',#208,#209,$) ;
#217=AXIS2_PLACEMENT_3D('Circle Axis2P3D',#215,#216,$) ;
#237=AXIS2_PLACEMENT_3D('Cylinder Axis2P3D',#234,#235,#236) ;
#241=AXIS2_PLACEMENT_3D('Circle Axis2P3D',#239,#240,$) ;
#257=AXIS2_PLACEMENT_3D('Circle Axis2P3D',#255,#256,$) ;
#277=AXIS2_PLACEMENT_3D('Plane Axis2P3D',#274,#275,#276) ;
#308=AXIS2_PLACEMENT_3D('Cylinder Axis2P3D',#305,#306,#307) ;
#312=AXIS2_PLACEMENT_3D('Circle Axis2P3D',#310,#311,$) ;
#326=AXIS2_PLACEMENT_3D('Circle Axis2P3D',#324,#325,$) ;
#339=AXIS2_PLACEMENT_3D('Cylinder Axis2P3D',#336,#337,#338) ;
#343=AXIS2_PLACEMENT_3D('Circle Axis2P3D',#341,#342,$) ;
#359=AXIS2_PLACEMENT_3D('Circle Axis2P3D',#357,#358,$) ;
#405=AXIS2_PLACEMENT_3D('Cylinder Axis2P3D',#402,#403,#404) ;
#409=AXIS2_PLACEMENT_3D('Circle Axis2P3D',#407,#408,$) ;
#423=AXIS2_PLACEMENT_3D('Circle Axis2P3D',#421,#422,$) ;
#436=AXIS2_PLACEMENT_3D('Cylinder Axis2P3D',#433,#434,#435) ;
#440=AXIS2_PLACEMENT_3D('Circle Axis2P3D',#438,#439,$) ;
#456=AXIS2_PLACEMENT_3D('Circle Axis2P3D',#454,#455,$) ;
#502=AXIS2_PLACEMENT_3D('Cylinder Axis2P3D',#499,#500,#501) ;
#506=AXIS2_PLACEMENT_3D('Circle Axis2P3D',#504,#505,$) ;
#513=AXIS2_PLACEMENT_3D('Circle Axis2P3D',#511,#512,$) ;
#533=AXIS2_PLACEMENT_3D('Plane Axis2P3D',#530,#531,#532) ;
#573=AXIS2_PLACEMENT_3D('Plane Axis2P3D',#570,#571,#572) ;
#628=AXIS2_PLACEMENT_3D('Cylinder Axis2P3D',#625,#626,#627) ;
#632=AXIS2_PLACEMENT_3D('Circle Axis2P3D',#630,#631,$) ;
#639=AXIS2_PLACEMENT_3D('Circle Axis2P3D',#637,#638,$) ;
#659=AXIS2_PLACEMENT_3D('Cylinder Axis2P3D',#656,#657,#658) ;
#670=AXIS2_PLACEMENT_3D('Circle Axis2P3D',#668,#669,$) ;
#683=AXIS2_PLACEMENT_3D('Cylinder Axis2P3D',#680,#681,#682) ;
#694=AXIS2_PLACEMENT_3D('Circle Axis2P3D',#692,#693,$) ;
#707=AXIS2_PLACEMENT_3D('Plane Axis2P3D',#704,#705,#706) ;
#747=AXIS2_PLACEMENT_3D('Plane Axis2P3D',#744,#745,#746) ;
#802=AXIS2_PLACEMENT_3D('Plane Axis2P3D',#799,#800,#801) ;
#867=AXIS2_PLACEMENT_3D('Cylinder Axis2P3D',#864,#865,#866) ;
#871=AXIS2_PLACEMENT_3D('Circle Axis2P3D',#869,#870,$) ;
#876=AXIS2_PLACEMENT_3D('Circle Axis2P3D',#874,#875,$) ;
#889=AXIS2_PLACEMENT_3D('Cylinder Axis2P3D',#886,#887,#888) ;
#893=AXIS2_PLACEMENT_3D('Circle Axis2P3D',#891,#892,$) ;
#906=AXIS2_PLACEMENT_3D('Cylinder Axis2P3D',#903,#904,#905) ;
#910=AXIS2_PLACEMENT_3D('Circle Axis2P3D',#908,#909,$) ;
#923=AXIS2_PLACEMENT_3D('Plane Axis2P3D',#920,#921,#922) ;
#963=AXIS2_PLACEMENT_3D('Plane Axis2P3D',#960,#961,#962) ;
#1018=AXIS2_PLACEMENT_3D('Cylinder Axis2P3D',#1015,#1016,#1017) ;
#1022=AXIS2_PLACEMENT_3D('Circle Axis2P3D',#1020,#1021,$) ;
#1029=AXIS2_PLACEMENT_3D('Circle Axis2P3D',#1027,#1028,$) ;
#1049=AXIS2_PLACEMENT_3D('Cylinder Axis2P3D',#1046,#1047,#1048) ;
#1060=AXIS2_PLACEMENT_3D('Circle Axis2P3D',#1058,#1059,$) ;
#1073=AXIS2_PLACEMENT_3D('Cylinder Axis2P3D',#1070,#1071,#1072) ;
#1084=AXIS2_PLACEMENT_3D('Circle Axis2P3D',#1082,#1083,$) ;
#1097=AXIS2_PLACEMENT_3D('Plane Axis2P3D',#1094,#1095,#1096) ;
#1137=AXIS2_PLACEMENT_3D('Plane Axis2P3D',#1134,#1135,#1136) ;
#1192=AXIS2_PLACEMENT_3D('Plane Axis2P3D',#1189,#1190,#1191) ;
#1257=AXIS2_PLACEMENT_3D('Plane Axis2P3D',#1254,#1255,#1256) ;
#1261=AXIS2_PLACEMENT_3D('Circle Axis2P3D',#1259,#1260,$) ;
#1288=AXIS2_PLACEMENT_3D('Plane Axis2P3D',#1285,#1286,#1287) ;
#1292=AXIS2_PLACEMENT_3D('Circle Axis2P3D',#1290,#1291,$) ;
#1319=AXIS2_PLACEMENT_3D('Cylinder Axis2P3D',#1316,#1317,#1318) ;
#1323=AXIS2_PLACEMENT_3D('Circle Axis2P3D',#1321,#1322,$) ;
#1328=AXIS2_PLACEMENT_3D('Circle Axis2P3D',#1326,#1327,$) ;
#1341=AXIS2_PLACEMENT_3D('Cylinder Axis2P3D',#1338,#1339,#1340) ;
#1353=AXIS2_PLACEMENT_3D('Cylinder Axis2P3D',#1350,#1351,#1352) ;
#1365=AXIS2_PLACEMENT_3D('Plane Axis2P3D',#1362,#1363,#1364) ;
#1396=AXIS2_PLACEMENT_3D('Plane Axis2P3D',#1393,#1394,#1395) ;
#1418=AXIS2_PLACEMENT_3D('Plane Axis2P3D',#1415,#1416,#1417) ;
#1448=AXIS2_PLACEMENT_3D('Plane Axis2P3D',#1445,#1446,#1447) ;
#1490=AXIS2_PLACEMENT_3D('Plane Axis2P3D',#1487,#1488,#1489) ;
#1502=AXIS2_PLACEMENT_3D('Plane Axis2P3D',#1499,#1500,#1501) ;
#1533=AXIS2_PLACEMENT_3D('Plane Axis2P3D',#1530,#1531,#1532) ;
#1617=AXIS2_PLACEMENT_3D('Plane Axis2P3D',#1614,#1615,#1616) ;
#40=PRODUCT_DEFINITION_SHAPE(' ',' ',#14) ;
#31=APPROVAL_PERSON_ORGANIZATION(#25,#21,#19) ;
#25=PERSON_AND_ORGANIZATION(#22,#23) ;
#22=PERSON(' ',' ',' ',$,$,$) ;
#23=ORGANIZATION(' ',' ',' ') ;
#21=APPROVAL(#20,' ') ;
#20=APPROVAL_STATUS('not_yet_approved') ;
#19=APPROVAL_ROLE('APPROVER') ;
#13=DATE_AND_TIME(#11,#12) ;
#12=LOCAL_TIME(15,24,49.,#10) ;
#10=COORDINATED_UNIVERSAL_TIME_OFFSET(0,0,.AHEAD.) ;
#86=ORIENTED_EDGE('',*,*,#65,.F.) ;
#87=ORIENTED_EDGE('',*,*,#72,.T.) ;
#88=ORIENTED_EDGE('',*,*,#79,.F.) ;
#89=ORIENTED_EDGE('',*,*,#84,.T.) ;
#126=ORIENTED_EDGE('',*,*,#105,.F.) ;
#127=ORIENTED_EDGE('',*,*,#112,.T.) ;
#128=ORIENTED_EDGE('',*,*,#119,.F.) ;
#129=ORIENTED_EDGE('',*,*,#124,.T.) ;
#166=ORIENTED_EDGE('',*,*,#145,.T.) ;
#167=ORIENTED_EDGE('',*,*,#152,.F.) ;
#168=ORIENTED_EDGE('',*,*,#159,.T.) ;
#169=ORIENTED_EDGE('',*,*,#164,.T.) ;
#197=ORIENTED_EDGE('',*,*,#185,.T.) ;
#198=ORIENTED_EDGE('',*,*,#190,.T.) ;
#199=ORIENTED_EDGE('',*,*,#164,.F.) ;
#200=ORIENTED_EDGE('',*,*,#195,.F.) ;
#228=ORIENTED_EDGE('',*,*,#214,.T.) ;
#229=ORIENTED_EDGE('',*,*,#185,.F.) ;
#230=ORIENTED_EDGE('',*,*,#221,.T.) ;
#231=ORIENTED_EDGE('',*,*,#226,.T.) ;
#268=ORIENTED_EDGE('',*,*,#247,.T.) ;
#269=ORIENTED_EDGE('',*,*,#254,.F.) ;
#270=ORIENTED_EDGE('',*,*,#261,.T.) ;
#271=ORIENTED_EDGE('',*,*,#266,.T.) ;
#299=ORIENTED_EDGE('',*,*,#285,.F.) ;
#300=ORIENTED_EDGE('',*,*,#254,.T.) ;
#301=ORIENTED_EDGE('',*,*,#292,.T.) ;
#302=ORIENTED_EDGE('',*,*,#297,.F.) ;
#330=ORIENTED_EDGE('',*,*,#316,.T.) ;
#331=ORIENTED_EDGE('',*,*,#323,.F.) ;
#332=ORIENTED_EDGE('',*,*,#328,.T.) ;
#333=ORIENTED_EDGE('',*,*,#297,.T.) ;
#370=ORIENTED_EDGE('',*,*,#349,.T.) ;
#371=ORIENTED_EDGE('',*,*,#356,.F.) ;
#372=ORIENTED_EDGE('',*,*,#363,.T.) ;
#373=ORIENTED_EDGE('',*,*,#368,.T.) ;
#396=ORIENTED_EDGE('',*,*,#384,.F.) ;
#397=ORIENTED_EDGE('',*,*,#389,.T.) ;
#398=ORIENTED_EDGE('',*,*,#356,.T.) ;
#399=ORIENTED_EDGE('',*,*,#394,.F.) ;
#427=ORIENTED_EDGE('',*,*,#413,.T.) ;
#428=ORIENTED_EDGE('',*,*,#420,.F.) ;
#429=ORIENTED_EDGE('',*,*,#425,.T.) ;
#430=ORIENTED_EDGE('',*,*,#384,.T.) ;
#467=ORIENTED_EDGE('',*,*,#446,.T.) ;
#468=ORIENTED_EDGE('',*,*,#453,.F.) ;
#469=ORIENTED_EDGE('',*,*,#460,.T.) ;
#470=ORIENTED_EDGE('',*,*,#465,.T.) ;
#493=ORIENTED_EDGE('',*,*,#479,.F.) ;
#494=ORIENTED_EDGE('',*,*,#465,.F.) ;
#495=ORIENTED_EDGE('',*,*,#486,.T.) ;
#496=ORIENTED_EDGE('',*,*,#491,.T.) ;
#524=ORIENTED_EDGE('',*,*,#510,.T.) ;
#525=ORIENTED_EDGE('',*,*,#491,.F.) ;
#526=ORIENTED_EDGE('',*,*,#517,.T.) ;
#527=ORIENTED_EDGE('',*,*,#522,.T.) ;
#564=ORIENTED_EDGE('',*,*,#543,.T.) ;
#565=ORIENTED_EDGE('',*,*,#550,.F.) ;
#566=ORIENTED_EDGE('',*,*,#557,.T.) ;
#567=ORIENTED_EDGE('',*,*,#562,.F.) ;
#593=ORIENTED_EDGE('',*,*,#557,.F.) ;
#594=ORIENTED_EDGE('',*,*,#579,.F.) ;
#595=ORIENTED_EDGE('',*,*,#152,.T.) ;
#596=ORIENTED_EDGE('',*,*,#586,.T.) ;
#597=ORIENTED_EDGE('',*,*,#591,.F.) ;
#618=ORIENTED_EDGE('',*,*,#606,.F.) ;
#619=ORIENTED_EDGE('',*,*,#368,.F.) ;
#620=ORIENTED_EDGE('',*,*,#611,.T.) ;
#621=ORIENTED_EDGE('',*,*,#543,.F.) ;
#622=ORIENTED_EDGE('',*,*,#616,.F.) ;
#650=ORIENTED_EDGE('',*,*,#636,.T.) ;
#651=ORIENTED_EDGE('',*,*,#562,.T.) ;
#652=ORIENTED_EDGE('',*,*,#643,.F.) ;
#653=ORIENTED_EDGE('',*,*,#648,.F.) ;
#674=ORIENTED_EDGE('',*,*,#667,.F.) ;
#675=ORIENTED_EDGE('',*,*,#643,.T.) ;
#676=ORIENTED_EDGE('',*,*,#591,.T.) ;
#677=ORIENTED_EDGE('',*,*,#672,.T.) ;
#698=ORIENTED_EDGE('',*,*,#616,.T.) ;
#699=ORIENTED_EDGE('',*,*,#636,.F.) ;
#700=ORIENTED_EDGE('',*,*,#691,.F.) ;
#701=ORIENTED_EDGE('',*,*,#696,.T.) ;
#738=ORIENTED_EDGE('',*,*,#717,.T.) ;
#739=ORIENTED_EDGE('',*,*,#724,.T.) ;
#740=ORIENTED_EDGE('',*,*,#731,.T.) ;
#741=ORIENTED_EDGE('',*,*,#736,.T.) ;
#767=ORIENTED_EDGE('',*,*,#755,.T.) ;
#768=ORIENTED_EDGE('',*,*,#760,.T.) ;
#769=ORIENTED_EDGE('',*,*,#266,.F.) ;
#770=ORIENTED_EDGE('',*,*,#765,.F.) ;
#771=ORIENTED_EDGE('',*,*,#724,.F.) ;
#792=ORIENTED_EDGE('',*,*,#780,.T.) ;
#793=ORIENTED_EDGE('',*,*,#736,.F.) ;
#794=ORIENTED_EDGE('',*,*,#785,.T.) ;
#795=ORIENTED_EDGE('',*,*,#453,.T.) ;
#796=ORIENTED_EDGE('',*,*,#790,.F.) ;
#852=ORIENTED_EDGE('',*,*,#812,.F.) ;
#853=ORIENTED_EDGE('',*,*,#819,.F.) ;
#854=ORIENTED_EDGE('',*,*,#826,.F.) ;
#855=ORIENTED_EDGE('',*,*,#833,.F.) ;
#856=ORIENTED_EDGE('',*,*,#838,.F.) ;
#857=ORIENTED_EDGE('',*,*,#691,.T.) ;
#858=ORIENTED_EDGE('',*,*,#648,.T.) ;
#859=ORIENTED_EDGE('',*,*,#667,.T.) ;
#860=ORIENTED_EDGE('',*,*,#845,.T.) ;
#861=ORIENTED_EDGE('',*,*,#850,.T.) ;
#880=ORIENTED_EDGE('',*,*,#873,.T.) ;
#881=ORIENTED_EDGE('',*,*,#819,.T.) ;
#882=ORIENTED_EDGE('',*,*,#878,.F.) ;
#883=ORIENTED_EDGE('',*,*,#717,.F.) ;
#897=ORIENTED_EDGE('',*,*,#755,.F.) ;
#898=ORIENTED_EDGE('',*,*,#878,.T.) ;
#899=ORIENTED_EDGE('',*,*,#812,.T.) ;
#900=ORIENTED_EDGE('',*,*,#895,.T.) ;
#914=ORIENTED_EDGE('',*,*,#826,.T.) ;
#915=ORIENTED_EDGE('',*,*,#873,.F.) ;
#916=ORIENTED_EDGE('',*,*,#780,.F.) ;
#917=ORIENTED_EDGE('',*,*,#912,.T.) ;
#954=ORIENTED_EDGE('',*,*,#933,.T.) ;
#955=ORIENTED_EDGE('',*,*,#940,.F.) ;
#956=ORIENTED_EDGE('',*,*,#947,.T.) ;
#957=ORIENTED_EDGE('',*,*,#952,.F.) ;
#983=ORIENTED_EDGE('',*,*,#971,.F.) ;
#984=ORIENTED_EDGE('',*,*,#976,.T.) ;
#985=ORIENTED_EDGE('',*,*,#226,.F.) ;
#986=ORIENTED_EDGE('',*,*,#981,.F.) ;
#987=ORIENTED_EDGE('',*,*,#933,.F.) ;
#1008=ORIENTED_EDGE('',*,*,#996,.F.) ;
#1009=ORIENTED_EDGE('',*,*,#947,.F.) ;
#1010=ORIENTED_EDGE('',*,*,#1001,.T.) ;
#1011=ORIENTED_EDGE('',*,*,#420,.T.) ;
#1012=ORIENTED_EDGE('',*,*,#1006,.F.) ;
#1040=ORIENTED_EDGE('',*,*,#1026,.T.) ;
#1041=ORIENTED_EDGE('',*,*,#952,.T.) ;
#1042=ORIENTED_EDGE('',*,*,#1033,.F.) ;
#1043=ORIENTED_EDGE('',*,*,#1038,.F.) ;
#1064=ORIENTED_EDGE('',*,*,#1057,.F.) ;
#1065=ORIENTED_EDGE('',*,*,#1033,.T.) ;
#1066=ORIENTED_EDGE('',*,*,#996,.T.) ;
#1067=ORIENTED_EDGE('',*,*,#1062,.T.) ;
#1088=ORIENTED_EDGE('',*,*,#971,.T.) ;
#1089=ORIENTED_EDGE('',*,*,#1026,.F.) ;
#1090=ORIENTED_EDGE('',*,*,#1081,.F.) ;
#1091=ORIENTED_EDGE('',*,*,#1086,.T.) ;
#1128=ORIENTED_EDGE('',*,*,#1107,.T.) ;
#1129=ORIENTED_EDGE('',*,*,#1114,.T.) ;
#1130=ORIENTED_EDGE('',*,*,#1121,.T.) ;
#1131=ORIENTED_EDGE('',*,*,#1126,.T.) ;
#1157=ORIENTED_EDGE('',*,*,#1126,.F.) ;
#1158=ORIENTED_EDGE('',*,*,#1143,.F.) ;
#1159=ORIENTED_EDGE('',*,*,#323,.T.) ;
#1160=ORIENTED_EDGE('',*,*,#1150,.T.) ;
#1161=ORIENTED_EDGE('',*,*,#1155,.T.) ;
#1182=ORIENTED_EDGE('',*,*,#1170,.F.) ;
#1183=ORIENTED_EDGE('',*,*,#522,.F.) ;
#1184=ORIENTED_EDGE('',*,*,#1175,.T.) ;
#1185=ORIENTED_EDGE('',*,*,#1114,.F.) ;
#1186=ORIENTED_EDGE('',*,*,#1180,.T.) ;
#1242=ORIENTED_EDGE('',*,*,#1202,.F.) ;
#1243=ORIENTED_EDGE('',*,*,#1209,.F.) ;
#1244=ORIENTED_EDGE('',*,*,#1216,.F.) ;
#1245=ORIENTED_EDGE('',*,*,#1223,.T.) ;
#1246=ORIENTED_EDGE('',*,*,#1228,.T.) ;
#1247=ORIENTED_EDGE('',*,*,#1081,.T.) ;
#1248=ORIENTED_EDGE('',*,*,#1038,.T.) ;
#1249=ORIENTED_EDGE('',*,*,#1057,.T.) ;
#1250=ORIENTED_EDGE('',*,*,#1235,.F.) ;
#1251=ORIENTED_EDGE('',*,*,#1240,.F.) ;
#1265=ORIENTED_EDGE('',*,*,#1263,.F.) ;
#1266=ORIENTED_EDGE('',*,*,#1150,.F.) ;
#1267=ORIENTED_EDGE('',*,*,#316,.F.) ;
#1268=ORIENTED_EDGE('',*,*,#292,.F.) ;
#1269=ORIENTED_EDGE('',*,*,#247,.F.) ;
#1270=ORIENTED_EDGE('',*,*,#760,.F.) ;
#1271=ORIENTED_EDGE('',*,*,#895,.F.) ;
#1272=ORIENTED_EDGE('',*,*,#850,.F.) ;
#1273=ORIENTED_EDGE('',*,*,#845,.F.) ;
#1274=ORIENTED_EDGE('',*,*,#672,.F.) ;
#1275=ORIENTED_EDGE('',*,*,#586,.F.) ;
#1276=ORIENTED_EDGE('',*,*,#145,.F.) ;
#1277=ORIENTED_EDGE('',*,*,#190,.F.) ;
#1278=ORIENTED_EDGE('',*,*,#214,.F.) ;
#1279=ORIENTED_EDGE('',*,*,#976,.F.) ;
#1280=ORIENTED_EDGE('',*,*,#1086,.F.) ;
#1281=ORIENTED_EDGE('',*,*,#1228,.F.) ;
#1282=ORIENTED_EDGE('',*,*,#1223,.F.) ;
#1296=ORIENTED_EDGE('',*,*,#1240,.T.) ;
#1297=ORIENTED_EDGE('',*,*,#1235,.T.) ;
#1298=ORIENTED_EDGE('',*,*,#1062,.F.) ;
#1299=ORIENTED_EDGE('',*,*,#1006,.T.) ;
#1300=ORIENTED_EDGE('',*,*,#413,.F.) ;
#1301=ORIENTED_EDGE('',*,*,#394,.T.) ;
#1302=ORIENTED_EDGE('',*,*,#349,.F.) ;
#1303=ORIENTED_EDGE('',*,*,#606,.T.) ;
#1304=ORIENTED_EDGE('',*,*,#696,.F.) ;
#1305=ORIENTED_EDGE('',*,*,#838,.T.) ;
#1306=ORIENTED_EDGE('',*,*,#833,.T.) ;
#1307=ORIENTED_EDGE('',*,*,#912,.F.) ;
#1308=ORIENTED_EDGE('',*,*,#790,.T.) ;
#1309=ORIENTED_EDGE('',*,*,#446,.F.) ;
#1310=ORIENTED_EDGE('',*,*,#479,.T.) ;
#1311=ORIENTED_EDGE('',*,*,#510,.F.) ;
#1312=ORIENTED_EDGE('',*,*,#1170,.T.) ;
#1313=ORIENTED_EDGE('',*,*,#1294,.F.) ;
#1332=ORIENTED_EDGE('',*,*,#1325,.T.) ;
#1333=ORIENTED_EDGE('',*,*,#1209,.T.) ;
#1334=ORIENTED_EDGE('',*,*,#1330,.F.) ;
#1335=ORIENTED_EDGE('',*,*,#1107,.F.) ;
#1344=ORIENTED_EDGE('',*,*,#1180,.F.) ;
#1345=ORIENTED_EDGE('',*,*,#1330,.T.) ;
#1346=ORIENTED_EDGE('',*,*,#1202,.T.) ;
#1347=ORIENTED_EDGE('',*,*,#1294,.T.) ;
#1356=ORIENTED_EDGE('',*,*,#1216,.T.) ;
#1357=ORIENTED_EDGE('',*,*,#1325,.F.) ;
#1358=ORIENTED_EDGE('',*,*,#1155,.F.) ;
#1359=ORIENTED_EDGE('',*,*,#1263,.T.) ;
#1387=ORIENTED_EDGE('',*,*,#1373,.T.) ;
#1388=ORIENTED_EDGE('',*,*,#550,.T.) ;
#1389=ORIENTED_EDGE('',*,*,#1380,.T.) ;
#1390=ORIENTED_EDGE('',*,*,#1385,.T.) ;
#1409=ORIENTED_EDGE('',*,*,#1402,.T.) ;
#1410=ORIENTED_EDGE('',*,*,#1385,.F.) ;
#1411=ORIENTED_EDGE('',*,*,#1407,.T.) ;
#1412=ORIENTED_EDGE('',*,*,#79,.T.) ;
#1433=ORIENTED_EDGE('',*,*,#1426,.F.) ;
#1434=ORIENTED_EDGE('',*,*,#1431,.F.) ;
#1435=ORIENTED_EDGE('',*,*,#981,.T.) ;
#1436=ORIENTED_EDGE('',*,*,#221,.F.) ;
#1437=ORIENTED_EDGE('',*,*,#195,.T.) ;
#1438=ORIENTED_EDGE('',*,*,#159,.F.) ;
#1439=ORIENTED_EDGE('',*,*,#579,.T.) ;
#1440=ORIENTED_EDGE('',*,*,#1373,.F.) ;
#1441=ORIENTED_EDGE('',*,*,#1402,.F.) ;
#1442=ORIENTED_EDGE('',*,*,#72,.F.) ;
#1463=ORIENTED_EDGE('',*,*,#1456,.F.) ;
#1464=ORIENTED_EDGE('',*,*,#84,.F.) ;
#1465=ORIENTED_EDGE('',*,*,#1407,.F.) ;
#1466=ORIENTED_EDGE('',*,*,#1380,.F.) ;
#1467=ORIENTED_EDGE('',*,*,#611,.F.) ;
#1468=ORIENTED_EDGE('',*,*,#363,.F.) ;
#1469=ORIENTED_EDGE('',*,*,#389,.F.) ;
#1470=ORIENTED_EDGE('',*,*,#425,.F.) ;
#1471=ORIENTED_EDGE('',*,*,#1001,.F.) ;
#1472=ORIENTED_EDGE('',*,*,#1461,.F.) ;
#1481=ORIENTED_EDGE('',*,*,#1461,.T.) ;
#1482=ORIENTED_EDGE('',*,*,#940,.T.) ;
#1483=ORIENTED_EDGE('',*,*,#1431,.T.) ;
#1484=ORIENTED_EDGE('',*,*,#1479,.T.) ;
#1493=ORIENTED_EDGE('',*,*,#1479,.F.) ;
#1494=ORIENTED_EDGE('',*,*,#1426,.T.) ;
#1495=ORIENTED_EDGE('',*,*,#65,.T.) ;
#1496=ORIENTED_EDGE('',*,*,#1456,.T.) ;
#1524=ORIENTED_EDGE('',*,*,#1512,.F.) ;
#1525=ORIENTED_EDGE('',*,*,#1517,.F.) ;
#1526=ORIENTED_EDGE('',*,*,#1121,.F.) ;
#1527=ORIENTED_EDGE('',*,*,#1522,.F.) ;
#1546=ORIENTED_EDGE('',*,*,#1539,.T.) ;
#1547=ORIENTED_EDGE('',*,*,#124,.F.) ;
#1548=ORIENTED_EDGE('',*,*,#1544,.T.) ;
#1549=ORIENTED_EDGE('',*,*,#1512,.T.) ;
#1565=ORIENTED_EDGE('',*,*,#1558,.F.) ;
#1566=ORIENTED_EDGE('',*,*,#105,.T.) ;
#1567=ORIENTED_EDGE('',*,*,#1539,.F.) ;
#1568=ORIENTED_EDGE('',*,*,#1522,.T.) ;
#1569=ORIENTED_EDGE('',*,*,#1175,.F.) ;
#1570=ORIENTED_EDGE('',*,*,#517,.F.) ;
#1571=ORIENTED_EDGE('',*,*,#486,.F.) ;
#1572=ORIENTED_EDGE('',*,*,#460,.F.) ;
#1573=ORIENTED_EDGE('',*,*,#785,.F.) ;
#1574=ORIENTED_EDGE('',*,*,#1563,.T.) ;
#1590=ORIENTED_EDGE('',*,*,#1583,.F.) ;
#1591=ORIENTED_EDGE('',*,*,#1588,.T.) ;
#1592=ORIENTED_EDGE('',*,*,#765,.T.) ;
#1593=ORIENTED_EDGE('',*,*,#261,.F.) ;
#1594=ORIENTED_EDGE('',*,*,#285,.T.) ;
#1595=ORIENTED_EDGE('',*,*,#328,.F.) ;
#1596=ORIENTED_EDGE('',*,*,#1143,.T.) ;
#1597=ORIENTED_EDGE('',*,*,#1517,.T.) ;
#1598=ORIENTED_EDGE('',*,*,#1544,.F.) ;
#1599=ORIENTED_EDGE('',*,*,#119,.T.) ;
#1608=ORIENTED_EDGE('',*,*,#1606,.F.) ;
#1609=ORIENTED_EDGE('',*,*,#1563,.F.) ;
#1610=ORIENTED_EDGE('',*,*,#731,.F.) ;
#1611=ORIENTED_EDGE('',*,*,#1588,.F.) ;
#1620=ORIENTED_EDGE('',*,*,#112,.F.) ;
#1621=ORIENTED_EDGE('',*,*,#1558,.T.) ;
#1622=ORIENTED_EDGE('',*,*,#1606,.T.) ;
#1623=ORIENTED_EDGE('',*,*,#1583,.T.) ;
#51=CLOSED_SHELL('Closed Shell',(#91,#131,#171,#202,#233,#273,#304,#335,#375,#401,#432,#472,#498,#529,#569,#599,#624,#655,#679,#703,#743,#773,#798,#863,#885,#902,#919,#959,#989,#1014,#1045,#1069,#1093,#1133,#1163,#1188,#1253,#1284,#1315,#1337,#1349,#1361,#1392,#1414,#1444,#1474,#1486,#1498,#1529,#1551,#1576,#1601,#1613,#1625)) ;
#59=VECTOR('Line Direction',#58,1.) ;
#68=VECTOR('Line Direction',#67,1.) ;
#75=VECTOR('Line Direction',#74,1.) ;
#82=VECTOR('Line Direction',#81,1.) ;
#99=VECTOR('Line Direction',#98,1.) ;
#108=VECTOR('Line Direction',#107,1.) ;
#115=VECTOR('Line Direction',#114,1.) ;
#122=VECTOR('Line Direction',#121,1.) ;
#148=VECTOR('Line Direction',#147,1.) ;
#162=VECTOR('Line Direction',#161,1.) ;
#179=VECTOR('Line Direction',#178,1.) ;
#188=VECTOR('Line Direction',#187,1.) ;
#193=VECTOR('Line Direction',#192,1.) ;
#224=VECTOR('Line Direction',#223,1.) ;
#250=VECTOR('Line Direction',#249,1.) ;
#264=VECTOR('Line Direction',#263,1.) ;
#281=VECTOR('Line Direction',#280,1.) ;
#288=VECTOR('Line Direction',#287,1.) ;
#295=VECTOR('Line Direction',#294,1.) ;
#319=VECTOR('Line Direction',#318,1.) ;
#352=VECTOR('Line Direction',#351,1.) ;
#366=VECTOR('Line Direction',#365,1.) ;
#378=VECTOR('Line Direction',#377,1.) ;
#387=VECTOR('Line Direction',#386,1.) ;
#392=VECTOR('Line Direction',#391,1.) ;
#416=VECTOR('Line Direction',#415,1.) ;
#449=VECTOR('Line Direction',#448,1.) ;
#463=VECTOR('Line Direction',#462,1.) ;
#475=VECTOR('Line Direction',#474,1.) ;
#482=VECTOR('Line Direction',#481,1.) ;
#489=VECTOR('Line Direction',#488,1.) ;
#520=VECTOR('Line Direction',#519,1.) ;
#537=VECTOR('Line Direction',#536,1.) ;
#546=VECTOR('Line Direction',#545,1.) ;
#553=VECTOR('Line Direction',#552,1.) ;
#560=VECTOR('Line Direction',#559,1.) ;
#577=VECTOR('Line Direction',#576,1.) ;
#582=VECTOR('Line Direction',#581,1.) ;
#589=VECTOR('Line Direction',#588,1.) ;
#602=VECTOR('Line Direction',#601,1.) ;
#609=VECTOR('Line Direction',#608,1.) ;
#614=VECTOR('Line Direction',#613,1.) ;
#646=VECTOR('Line Direction',#645,1.) ;
#663=VECTOR('Line Direction',#662,1.) ;
#687=VECTOR('Line Direction',#686,1.) ;
#711=VECTOR('Line Direction',#710,1.) ;
#720=VECTOR('Line Direction',#719,1.) ;
#727=VECTOR('Line Direction',#726,1.) ;
#734=VECTOR('Line Direction',#733,1.) ;
#751=VECTOR('Line Direction',#750,1.) ;
#758=VECTOR('Line Direction',#757,1.) ;
#763=VECTOR('Line Direction',#762,1.) ;
#776=VECTOR('Line Direction',#775,1.) ;
#783=VECTOR('Line Direction',#782,1.) ;
#788=VECTOR('Line Direction',#787,1.) ;
#806=VECTOR('Line Direction',#805,1.) ;
#815=VECTOR('Line Direction',#814,1.) ;
#822=VECTOR('Line Direction',#821,1.) ;
#829=VECTOR('Line Direction',#828,1.) ;
#836=VECTOR('Line Direction',#835,1.) ;
#841=VECTOR('Line Direction',#840,1.) ;
#848=VECTOR('Line Direction',#847,1.) ;
#927=VECTOR('Line Direction',#926,1.) ;
#936=VECTOR('Line Direction',#935,1.) ;
#943=VECTOR('Line Direction',#942,1.) ;
#950=VECTOR('Line Direction',#949,1.) ;
#967=VECTOR('Line Direction',#966,1.) ;
#974=VECTOR('Line Direction',#973,1.) ;
#979=VECTOR('Line Direction',#978,1.) ;
#992=VECTOR('Line Direction',#991,1.) ;
#999=VECTOR('Line Direction',#998,1.) ;
#1004=VECTOR('Line Direction',#1003,1.) ;
#1036=VECTOR('Line Direction',#1035,1.) ;
#1053=VECTOR('Line Direction',#1052,1.) ;
#1077=VECTOR('Line Direction',#1076,1.) ;
#1101=VECTOR('Line Direction',#1100,1.) ;
#1110=VECTOR('Line Direction',#1109,1.) ;
#1117=VECTOR('Line Direction',#1116,1.) ;
#1124=VECTOR('Line Direction',#1123,1.) ;
#1141=VECTOR('Line Direction',#1140,1.) ;
#1146=VECTOR('Line Direction',#1145,1.) ;
#1153=VECTOR('Line Direction',#1152,1.) ;
#1166=VECTOR('Line Direction',#1165,1.) ;
#1173=VECTOR('Line Direction',#1172,1.) ;
#1178=VECTOR('Line Direction',#1177,1.) ;
#1196=VECTOR('Line Direction',#1195,1.) ;
#1205=VECTOR('Line Direction',#1204,1.) ;
#1212=VECTOR('Line Direction',#1211,1.) ;
#1219=VECTOR('Line Direction',#1218,1.) ;
#1226=VECTOR('Line Direction',#1225,1.) ;
#1231=VECTOR('Line Direction',#1230,1.) ;
#1238=VECTOR('Line Direction',#1237,1.) ;
#1369=VECTOR('Line Direction',#1368,1.) ;
#1376=VECTOR('Line Direction',#1375,1.) ;
#1383=VECTOR('Line Direction',#1382,1.) ;
#1400=VECTOR('Line Direction',#1399,1.) ;
#1405=VECTOR('Line Direction',#1404,1.) ;
#1422=VECTOR('Line Direction',#1421,1.) ;
#1429=VECTOR('Line Direction',#1428,1.) ;
#1452=VECTOR('Line Direction',#1451,1.) ;
#1459=VECTOR('Line Direction',#1458,1.) ;
#1477=VECTOR('Line Direction',#1476,1.) ;
#1506=VECTOR('Line Direction',#1505,1.) ;
#1515=VECTOR('Line Direction',#1514,1.) ;
#1520=VECTOR('Line Direction',#1519,1.) ;
#1537=VECTOR('Line Direction',#1536,1.) ;
#1542=VECTOR('Line Direction',#1541,1.) ;
#1554=VECTOR('Line Direction',#1553,1.) ;
#1561=VECTOR('Line Direction',#1560,1.) ;
#1579=VECTOR('Line Direction',#1578,1.) ;
#1586=VECTOR('Line Direction',#1585,1.) ;
#1604=VECTOR('Line Direction',#1603,1.) ;
#1627=ADVANCED_BREP_SHAPE_REPRESENTATION('NONE',(#1626),#46) ;
#49=SHAPE_REPRESENTATION(' ',(#48),#46) ;
#91=ADVANCED_FACE('\X2\96F64EF651E04F554F53\X0\',(#90),#56,.T.) ;
#131=ADVANCED_FACE('\X2\96F64EF651E04F554F53\X0\',(#130),#96,.F.) ;
#171=ADVANCED_FACE('\X2\96F64EF651E04F554F53\X0\',(#170),#136,.T.) ;
#202=ADVANCED_FACE('\X2\96F64EF651E04F554F53\X0\',(#201),#176,.F.) ;
#233=ADVANCED_FACE('\X2\96F64EF651E04F554F53\X0\',(#232),#207,.T.) ;
#273=ADVANCED_FACE('\X2\96F64EF651E04F554F53\X0\',(#272),#238,.T.) ;
#304=ADVANCED_FACE('\X2\96F64EF651E04F554F53\X0\',(#303),#278,.T.) ;
#335=ADVANCED_FACE('\X2\96F64EF651E04F554F53\X0\',(#334),#309,.T.) ;
#375=ADVANCED_FACE('\X2\96F64EF651E04F554F53\X0\',(#374),#340,.T.) ;
#401=ADVANCED_FACE('\X2\96F64EF651E04F554F53\X0\',(#400),#176,.F.) ;
#432=ADVANCED_FACE('\X2\96F64EF651E04F554F53\X0\',(#431),#406,.T.) ;
#472=ADVANCED_FACE('\X2\96F64EF651E04F554F53\X0\',(#471),#437,.T.) ;
#498=ADVANCED_FACE('\X2\96F64EF651E04F554F53\X0\',(#497),#278,.T.) ;
#529=ADVANCED_FACE('\X2\96F64EF651E04F554F53\X0\',(#528),#503,.T.) ;
#569=ADVANCED_FACE('\X2\96F64EF651E04F554F53\X0\',(#568),#534,.T.) ;
#599=ADVANCED_FACE('\X2\96F64EF651E04F554F53\X0\',(#598),#574,.T.) ;
#624=ADVANCED_FACE('\X2\96F64EF651E04F554F53\X0\',(#623),#574,.T.) ;
#655=ADVANCED_FACE('\X2\96F64EF651E04F554F53\X0\',(#654),#629,.T.) ;
#679=ADVANCED_FACE('\X2\96F64EF651E04F554F53\X0\',(#678),#660,.T.) ;
#703=ADVANCED_FACE('\X2\96F64EF651E04F554F53\X0\',(#702),#684,.T.) ;
#743=ADVANCED_FACE('\X2\96F64EF651E04F554F53\X0\',(#742),#708,.F.) ;
#773=ADVANCED_FACE('\X2\96F64EF651E04F554F53\X0\',(#772),#748,.F.) ;
#798=ADVANCED_FACE('\X2\96F64EF651E04F554F53\X0\',(#797),#748,.F.) ;
#863=ADVANCED_FACE('\X2\96F64EF651E04F554F53\X0\',(#862),#803,.F.) ;
#885=ADVANCED_FACE('\X2\96F64EF651E04F554F53\X0\',(#884),#868,.T.) ;
#902=ADVANCED_FACE('\X2\96F64EF651E04F554F53\X0\',(#901),#890,.T.) ;
#919=ADVANCED_FACE('\X2\96F64EF651E04F554F53\X0\',(#918),#907,.T.) ;
#959=ADVANCED_FACE('\X2\96F64EF651E04F554F53\X0\',(#958),#924,.T.) ;
#989=ADVANCED_FACE('\X2\96F64EF651E04F554F53\X0\',(#988),#964,.F.) ;
#1014=ADVANCED_FACE('\X2\96F64EF651E04F554F53\X0\',(#1013),#964,.F.) ;
#1045=ADVANCED_FACE('\X2\96F64EF651E04F554F53\X0\',(#1044),#1019,.T.) ;
#1069=ADVANCED_FACE('\X2\96F64EF651E04F554F53\X0\',(#1068),#1050,.T.) ;
#1093=ADVANCED_FACE('\X2\96F64EF651E04F554F53\X0\',(#1092),#1074,.T.) ;
#1133=ADVANCED_FACE('\X2\96F64EF651E04F554F53\X0\',(#1132),#1098,.F.) ;
#1163=ADVANCED_FACE('\X2\96F64EF651E04F554F53\X0\',(#1162),#1138,.T.) ;
#1188=ADVANCED_FACE('\X2\96F64EF651E04F554F53\X0\',(#1187),#1138,.T.) ;
#1253=ADVANCED_FACE('\X2\96F64EF651E04F554F53\X0\',(#1252),#1193,.F.) ;
#1284=ADVANCED_FACE('\X2\96F64EF651E04F554F53\X0\',(#1283),#1258,.F.) ;
#1315=ADVANCED_FACE('\X2\96F64EF651E04F554F53\X0\',(#1314),#1289,.T.) ;
#1337=ADVANCED_FACE('\X2\96F64EF651E04F554F53\X0\',(#1336),#1320,.T.) ;
#1349=ADVANCED_FACE('\X2\96F64EF651E04F554F53\X0\',(#1348),#1342,.T.) ;
#1361=ADVANCED_FACE('\X2\96F64EF651E04F554F53\X0\',(#1360),#1354,.T.) ;
#1392=ADVANCED_FACE('\X2\96F64EF651E04F554F53\X0\',(#1391),#1366,.T.) ;
#1414=ADVANCED_FACE('\X2\96F64EF651E04F554F53\X0\',(#1413),#1397,.T.) ;
#1444=ADVANCED_FACE('\X2\96F64EF651E04F554F53\X0\',(#1443),#1419,.T.) ;
#1474=ADVANCED_FACE('\X2\96F64EF651E04F554F53\X0\',(#1473),#1449,.T.) ;
#1486=ADVANCED_FACE('\X2\96F64EF651E04F554F53\X0\',(#1485),#1366,.T.) ;
#1498=ADVANCED_FACE('\X2\96F64EF651E04F554F53\X0\',(#1497),#1491,.F.) ;
#1529=ADVANCED_FACE('\X2\96F64EF651E04F554F53\X0\',(#1528),#1503,.F.) ;
#1551=ADVANCED_FACE('\X2\96F64EF651E04F554F53\X0\',(#1550),#1534,.T.) ;
#1576=ADVANCED_FACE('\X2\96F64EF651E04F554F53\X0\',(#1575),#1449,.T.) ;
#1601=ADVANCED_FACE('\X2\96F64EF651E04F554F53\X0\',(#1600),#1419,.T.) ;
#1613=ADVANCED_FACE('\X2\96F64EF651E04F554F53\X0\',(#1612),#1503,.F.) ;
#1625=ADVANCED_FACE('\X2\96F64EF651E04F554F53\X0\',(#1624),#1618,.F.) ;
#4=APPLICATION_PROTOCOL_DEFINITION('international standard','config_control_design',1994,#1) ;
#32=APPROVAL_DATE_TIME(#13,#21) ;
#1626=MANIFOLD_SOLID_BREP('\X2\96F64EF651E04F554F53\X0\',#51) ;
#11=CALENDAR_DATE(2020,31,7) ;
#30=CC_DESIGN_APPROVAL(#21,(#16,#6,#14)) ;
#18=CC_DESIGN_DATE_AND_TIME_ASSIGNMENT(#13,#17,(#16)) ;
#29=CC_DESIGN_DATE_AND_TIME_ASSIGNMENT(#13,#28,(#14)) ;
#17=DATE_TIME_ROLE('classification_date') ;
#28=DATE_TIME_ROLE('creation_date') ;
#27=CC_DESIGN_PERSON_AND_ORGANIZATION_ASSIGNMENT(#25,#26,(#16)) ;
#33=CC_DESIGN_PERSON_AND_ORGANIZATION_ASSIGNMENT(#25,#34,(#6)) ;
#35=CC_DESIGN_PERSON_AND_ORGANIZATION_ASSIGNMENT(#25,#36,(#6,#14)) ;
#37=CC_DESIGN_PERSON_AND_ORGANIZATION_ASSIGNMENT(#25,#38,(#5)) ;
#26=PERSON_AND_ORGANIZATION_ROLE('classification_officer') ;
#34=PERSON_AND_ORGANIZATION_ROLE('design_supplier') ;
#36=PERSON_AND_ORGANIZATION_ROLE('creator') ;
#38=PERSON_AND_ORGANIZATION_ROLE('design_owner') ;
#39=CC_DESIGN_SECURITY_CLASSIFICATION(#16,(#6)) ;
#140=CIRCLE('generated circle',#139,2.) ;
#156=CIRCLE('generated circle',#155,2.) ;
#211=CIRCLE('generated circle',#210,2.) ;
#218=CIRCLE('generated circle',#217,2.) ;
#242=CIRCLE('generated circle',#241,2.) ;
#258=CIRCLE('generated circle',#257,2.) ;
#313=CIRCLE('generated circle',#312,2.) ;
#327=CIRCLE('generated circle',#326,2.) ;
#344=CIRCLE('generated circle',#343,2.) ;
#360=CIRCLE('generated circle',#359,2.) ;
#410=CIRCLE('generated circle',#409,2.) ;
#424=CIRCLE('generated circle',#423,2.) ;
#441=CIRCLE('generated circle',#440,2.) ;
#457=CIRCLE('generated circle',#456,2.) ;
#507=CIRCLE('generated circle',#506,2.) ;
#514=CIRCLE('generated circle',#513,2.) ;
#633=CIRCLE('generated circle',#632,2.) ;
#640=CIRCLE('generated circle',#639,2.) ;
#671=CIRCLE('generated circle',#670,2.) ;
#695=CIRCLE('generated circle',#694,2.) ;
#872=CIRCLE('generated circle',#871,2.) ;
#877=CIRCLE('generated circle',#876,2.) ;
#894=CIRCLE('generated circle',#893,2.) ;
#911=CIRCLE('generated circle',#910,2.) ;
#1023=CIRCLE('generated circle',#1022,2.) ;
#1030=CIRCLE('generated circle',#1029,2.) ;
#1061=CIRCLE('generated circle',#1060,2.) ;
#1085=CIRCLE('generated circle',#1084,2.) ;
#1262=CIRCLE('generated circle',#1261,2.) ;
#1293=CIRCLE('generated circle',#1292,2.) ;
#1324=CIRCLE('generated circle',#1323,2.) ;
#1329=CIRCLE('generated circle',#1328,2.) ;
#1628=SHAPE_REPRESENTATION_RELATIONSHIP(' ',' ',#49,#1627) ;
#136=CYLINDRICAL_SURFACE('generated cylinder',#135,2.) ;
#207=CYLINDRICAL_SURFACE('generated cylinder',#206,2.) ;
#238=CYLINDRICAL_SURFACE('generated cylinder',#237,2.) ;
#309=CYLINDRICAL_SURFACE('generated cylinder',#308,2.) ;
#340=CYLINDRICAL_SURFACE('generated cylinder',#339,2.) ;
#406=CYLINDRICAL_SURFACE('generated cylinder',#405,2.) ;
#437=CYLINDRICAL_SURFACE('generated cylinder',#436,2.) ;
#503=CYLINDRICAL_SURFACE('generated cylinder',#502,2.) ;
#629=CYLINDRICAL_SURFACE('generated cylinder',#628,2.) ;
#660=CYLINDRICAL_SURFACE('generated cylinder',#659,2.) ;
#684=CYLINDRICAL_SURFACE('generated cylinder',#683,2.) ;
#868=CYLINDRICAL_SURFACE('generated cylinder',#867,2.) ;
#890=CYLINDRICAL_SURFACE('generated cylinder',#889,2.) ;
#907=CYLINDRICAL_SURFACE('generated cylinder',#906,2.) ;
#1019=CYLINDRICAL_SURFACE('generated cylinder',#1018,2.) ;
#1050=CYLINDRICAL_SURFACE('generated cylinder',#1049,2.) ;
#1074=CYLINDRICAL_SURFACE('generated cylinder',#1073,2.) ;
#1320=CYLINDRICAL_SURFACE('generated cylinder',#1319,2.) ;
#1342=CYLINDRICAL_SURFACE('generated cylinder',#1341,2.) ;
#1354=CYLINDRICAL_SURFACE('generated cylinder',#1353,2.) ;
#3=DESIGN_CONTEXT(' ',#1,'design') ;
#65=EDGE_CURVE('',#62,#64,#60,.F.) ;
#72=EDGE_CURVE('',#62,#71,#69,.F.) ;
#79=EDGE_CURVE('',#78,#71,#76,.T.) ;
#84=EDGE_CURVE('',#78,#64,#83,.F.) ;
#105=EDGE_CURVE('',#102,#104,#100,.F.) ;
#112=EDGE_CURVE('',#102,#111,#109,.T.) ;
#119=EDGE_CURVE('',#118,#111,#116,.F.) ;
#124=EDGE_CURVE('',#118,#104,#123,.F.) ;
#145=EDGE_CURVE('',#142,#144,#140,.T.) ;
#152=EDGE_CURVE('',#151,#144,#149,.F.) ;
#159=EDGE_CURVE('',#151,#158,#156,.F.) ;
#164=EDGE_CURVE('',#158,#142,#163,.F.) ;
#185=EDGE_CURVE('',#182,#184,#180,.F.) ;
#190=EDGE_CURVE('',#184,#142,#189,.F.) ;
#195=EDGE_CURVE('',#182,#158,#194,.F.) ;
#214=EDGE_CURVE('',#213,#184,#211,.T.) ;
#221=EDGE_CURVE('',#182,#220,#218,.F.) ;
#226=EDGE_CURVE('',#220,#213,#225,.F.) ;
#247=EDGE_CURVE('',#244,#246,#242,.T.) ;
#254=EDGE_CURVE('',#253,#246,#251,.F.) ;
#261=EDGE_CURVE('',#253,#260,#258,.F.) ;
#266=EDGE_CURVE('',#260,#244,#265,.F.) ;
#285=EDGE_CURVE('',#253,#284,#282,.T.) ;
#292=EDGE_CURVE('',#246,#291,#289,.T.) ;
#297=EDGE_CURVE('',#284,#291,#296,.F.) ;
#316=EDGE_CURVE('',#291,#315,#313,.T.) ;
#323=EDGE_CURVE('',#322,#315,#320,.F.) ;
#328=EDGE_CURVE('',#322,#284,#327,.F.) ;
#349=EDGE_CURVE('',#346,#348,#344,.F.) ;
#356=EDGE_CURVE('',#355,#348,#353,.T.) ;
#363=EDGE_CURVE('',#355,#362,#360,.T.) ;
#368=EDGE_CURVE('',#362,#346,#367,.T.) ;
#384=EDGE_CURVE('',#381,#383,#379,.T.) ;
#389=EDGE_CURVE('',#381,#355,#388,.F.) ;
#394=EDGE_CURVE('',#383,#348,#393,.F.) ;
#413=EDGE_CURVE('',#383,#412,#410,.F.) ;
#420=EDGE_CURVE('',#419,#412,#417,.T.) ;
#425=EDGE_CURVE('',#419,#381,#424,.T.) ;
#446=EDGE_CURVE('',#443,#445,#441,.F.) ;
#453=EDGE_CURVE('',#452,#445,#450,.T.) ;
#460=EDGE_CURVE('',#452,#459,#457,.T.) ;
#465=EDGE_CURVE('',#459,#443,#464,.T.) ;
#479=EDGE_CURVE('',#443,#478,#476,.T.) ;
#486=EDGE_CURVE('',#459,#485,#483,.T.) ;
#491=EDGE_CURVE('',#485,#478,#490,.T.) ;
#510=EDGE_CURVE('',#509,#478,#507,.F.) ;
#517=EDGE_CURVE('',#485,#516,#514,.T.) ;
#522=EDGE_CURVE('',#516,#509,#521,.T.) ;
#543=EDGE_CURVE('',#540,#542,#538,.T.) ;
#550=EDGE_CURVE('',#549,#542,#547,.T.) ;
#557=EDGE_CURVE('',#549,#556,#554,.F.) ;
#562=EDGE_CURVE('',#540,#556,#561,.F.) ;
#579=EDGE_CURVE('',#151,#549,#578,.T.) ;
#586=EDGE_CURVE('',#144,#585,#583,.T.) ;
#591=EDGE_CURVE('',#556,#585,#590,.F.) ;
#606=EDGE_CURVE('',#346,#605,#603,.T.) ;
#611=EDGE_CURVE('',#362,#542,#610,.T.) ;
#616=EDGE_CURVE('',#605,#540,#615,.T.) ;
#636=EDGE_CURVE('',#635,#540,#633,.T.) ;
#643=EDGE_CURVE('',#642,#556,#640,.T.) ;
#648=EDGE_CURVE('',#635,#642,#647,.T.) ;
#667=EDGE_CURVE('',#642,#666,#664,.F.) ;
#672=EDGE_CURVE('',#585,#666,#671,.T.) ;
#691=EDGE_CURVE('',#690,#635,#688,.T.) ;
#696=EDGE_CURVE('',#690,#605,#695,.T.) ;
#717=EDGE_CURVE('',#714,#716,#712,.F.) ;
#724=EDGE_CURVE('',#716,#723,#721,.T.) ;
#731=EDGE_CURVE('',#723,#730,#728,.T.) ;
#736=EDGE_CURVE('',#730,#714,#735,.F.) ;
#755=EDGE_CURVE('',#716,#754,#752,.F.) ;
#760=EDGE_CURVE('',#754,#244,#759,.F.) ;
#765=EDGE_CURVE('',#723,#260,#764,.F.) ;
#780=EDGE_CURVE('',#779,#714,#777,.F.) ;
#785=EDGE_CURVE('',#730,#452,#784,.F.) ;
#790=EDGE_CURVE('',#779,#445,#789,.F.) ;
#812=EDGE_CURVE('',#809,#811,#807,.F.) ;
#819=EDGE_CURVE('',#818,#809,#816,.F.) ;
#826=EDGE_CURVE('',#825,#818,#823,.F.) ;
#833=EDGE_CURVE('',#832,#825,#830,.F.) ;
#838=EDGE_CURVE('',#690,#832,#837,.T.) ;
#845=EDGE_CURVE('',#666,#844,#842,.T.) ;
#850=EDGE_CURVE('',#844,#811,#849,.F.) ;
#873=EDGE_CURVE('',#714,#818,#872,.F.) ;
#878=EDGE_CURVE('',#716,#809,#877,.F.) ;
#895=EDGE_CURVE('',#811,#754,#894,.T.) ;
#912=EDGE_CURVE('',#779,#825,#911,.F.) ;
#933=EDGE_CURVE('',#930,#932,#928,.T.) ;
#940=EDGE_CURVE('',#939,#932,#937,.T.) ;
#947=EDGE_CURVE('',#939,#946,#944,.F.) ;
#952=EDGE_CURVE('',#930,#946,#951,.F.) ;
#971=EDGE_CURVE('',#970,#930,#968,.F.) ;
#976=EDGE_CURVE('',#970,#213,#975,.F.) ;
#981=EDGE_CURVE('',#932,#220,#980,.F.) ;
#996=EDGE_CURVE('',#946,#995,#993,.T.) ;
#1001=EDGE_CURVE('',#939,#419,#1000,.F.) ;
#1006=EDGE_CURVE('',#995,#412,#1005,.F.) ;
#1026=EDGE_CURVE('',#1025,#930,#1023,.T.) ;
#1033=EDGE_CURVE('',#1032,#946,#1030,.T.) ;
#1038=EDGE_CURVE('',#1025,#1032,#1037,.T.) ;
#1057=EDGE_CURVE('',#1032,#1056,#1054,.T.) ;
#1062=EDGE_CURVE('',#995,#1056,#1061,.F.) ;
#1081=EDGE_CURVE('',#1080,#1025,#1078,.F.) ;
#1086=EDGE_CURVE('',#1080,#970,#1085,.F.) ;
#1107=EDGE_CURVE('',#1104,#1106,#1102,.F.) ;
#1114=EDGE_CURVE('',#1106,#1113,#1111,.T.) ;
#1121=EDGE_CURVE('',#1113,#1120,#1118,.T.) ;
#1126=EDGE_CURVE('',#1120,#1104,#1125,.F.) ;
#1143=EDGE_CURVE('',#322,#1120,#1142,.T.) ;
#1150=EDGE_CURVE('',#315,#1149,#1147,.T.) ;
#1155=EDGE_CURVE('',#1149,#1104,#1154,.T.) ;
#1170=EDGE_CURVE('',#509,#1169,#1167,.T.) ;
#1175=EDGE_CURVE('',#516,#1113,#1174,.T.) ;
#1180=EDGE_CURVE('',#1106,#1169,#1179,.T.) ;
#1202=EDGE_CURVE('',#1199,#1201,#1197,.T.) ;
#1209=EDGE_CURVE('',#1208,#1199,#1206,.F.) ;
#1216=EDGE_CURVE('',#1215,#1208,#1213,.T.) ;
#1223=EDGE_CURVE('',#1215,#1222,#1220,.T.) ;
#1228=EDGE_CURVE('',#1222,#1080,#1227,.F.) ;
#1235=EDGE_CURVE('',#1234,#1056,#1232,.F.) ;
#1240=EDGE_CURVE('',#1201,#1234,#1239,.T.) ;
#1263=EDGE_CURVE('',#1149,#1215,#1262,.T.) ;
#1294=EDGE_CURVE('',#1201,#1169,#1293,.F.) ;
#1325=EDGE_CURVE('',#1104,#1208,#1324,.F.) ;
#1330=EDGE_CURVE('',#1106,#1199,#1329,.F.) ;
#1373=EDGE_CURVE('',#1372,#549,#1370,.T.) ;
#1380=EDGE_CURVE('',#542,#1379,#1377,.T.) ;
#1385=EDGE_CURVE('',#1379,#1372,#1384,.T.) ;
#1402=EDGE_CURVE('',#71,#1372,#1401,.T.) ;
#1407=EDGE_CURVE('',#1379,#78,#1406,.F.) ;
#1426=EDGE_CURVE('',#1425,#62,#1423,.T.) ;
#1431=EDGE_CURVE('',#932,#1425,#1430,.F.) ;
#1456=EDGE_CURVE('',#64,#1455,#1453,.F.) ;
#1461=EDGE_CURVE('',#1455,#939,#1460,.F.) ;
#1479=EDGE_CURVE('',#1425,#1455,#1478,.F.) ;
#1512=EDGE_CURVE('',#1509,#1511,#1507,.T.) ;
#1517=EDGE_CURVE('',#1120,#1509,#1516,.F.) ;
#1522=EDGE_CURVE('',#1511,#1113,#1521,.F.) ;
#1539=EDGE_CURVE('',#1511,#104,#1538,.T.) ;
#1544=EDGE_CURVE('',#118,#1509,#1543,.F.) ;
#1558=EDGE_CURVE('',#102,#1557,#1555,.T.) ;
#1563=EDGE_CURVE('',#730,#1557,#1562,.T.) ;
#1583=EDGE_CURVE('',#1582,#111,#1580,.F.) ;
#1588=EDGE_CURVE('',#1582,#723,#1587,.T.) ;
#1606=EDGE_CURVE('',#1557,#1582,#1605,.F.) ;
#85=EDGE_LOOP('',(#86,#87,#88,#89)) ;
#125=EDGE_LOOP('',(#126,#127,#128,#129)) ;
#165=EDGE_LOOP('',(#166,#167,#168,#169)) ;
#196=EDGE_LOOP('',(#197,#198,#199,#200)) ;
#227=EDGE_LOOP('',(#228,#229,#230,#231)) ;
#267=EDGE_LOOP('',(#268,#269,#270,#271)) ;
#298=EDGE_LOOP('',(#299,#300,#301,#302)) ;
#329=EDGE_LOOP('',(#330,#331,#332,#333)) ;
#369=EDGE_LOOP('',(#370,#371,#372,#373)) ;
#395=EDGE_LOOP('',(#396,#397,#398,#399)) ;
#426=EDGE_LOOP('',(#427,#428,#429,#430)) ;
#466=EDGE_LOOP('',(#467,#468,#469,#470)) ;
#492=EDGE_LOOP('',(#493,#494,#495,#496)) ;
#523=EDGE_LOOP('',(#524,#525,#526,#527)) ;
#563=EDGE_LOOP('',(#564,#565,#566,#567)) ;
#592=EDGE_LOOP('',(#593,#594,#595,#596,#597)) ;
#617=EDGE_LOOP('',(#618,#619,#620,#621,#622)) ;
#649=EDGE_LOOP('',(#650,#651,#652,#653)) ;
#673=EDGE_LOOP('',(#674,#675,#676,#677)) ;
#697=EDGE_LOOP('',(#698,#699,#700,#701)) ;
#737=EDGE_LOOP('',(#738,#739,#740,#741)) ;
#766=EDGE_LOOP('',(#767,#768,#769,#770,#771)) ;
#791=EDGE_LOOP('',(#792,#793,#794,#795,#796)) ;
#851=EDGE_LOOP('',(#852,#853,#854,#855,#856,#857,#858,#859,#860,#861)) ;
#879=EDGE_LOOP('',(#880,#881,#882,#883)) ;
#896=EDGE_LOOP('',(#897,#898,#899,#900)) ;
#913=EDGE_LOOP('',(#914,#915,#916,#917)) ;
#953=EDGE_LOOP('',(#954,#955,#956,#957)) ;
#982=EDGE_LOOP('',(#983,#984,#985,#986,#987)) ;
#1007=EDGE_LOOP('',(#1008,#1009,#1010,#1011,#1012)) ;
#1039=EDGE_LOOP('',(#1040,#1041,#1042,#1043)) ;
#1063=EDGE_LOOP('',(#1064,#1065,#1066,#1067)) ;
#1087=EDGE_LOOP('',(#1088,#1089,#1090,#1091)) ;
#1127=EDGE_LOOP('',(#1128,#1129,#1130,#1131)) ;
#1156=EDGE_LOOP('',(#1157,#1158,#1159,#1160,#1161)) ;
#1181=EDGE_LOOP('',(#1182,#1183,#1184,#1185,#1186)) ;
#1241=EDGE_LOOP('',(#1242,#1243,#1244,#1245,#1246,#1247,#1248,#1249,#1250,#1251)) ;
#1264=EDGE_LOOP('',(#1265,#1266,#1267,#1268,#1269,#1270,#1271,#1272,#1273,#1274,#1275,#1276,#1277,#1278,#1279,#1280,#1281,#1282)) ;
#1295=EDGE_LOOP('',(#1296,#1297,#1298,#1299,#1300,#1301,#1302,#1303,#1304,#1305,#1306,#1307,#1308,#1309,#1310,#1311,#1312,#1313)) ;
#1331=EDGE_LOOP('',(#1332,#1333,#1334,#1335)) ;
#1343=EDGE_LOOP('',(#1344,#1345,#1346,#1347)) ;
#1355=EDGE_LOOP('',(#1356,#1357,#1358,#1359)) ;
#1386=EDGE_LOOP('',(#1387,#1388,#1389,#1390)) ;
#1408=EDGE_LOOP('',(#1409,#1410,#1411,#1412)) ;
#1432=EDGE_LOOP('',(#1433,#1434,#1435,#1436,#1437,#1438,#1439,#1440,#1441,#1442)) ;
#1462=EDGE_LOOP('',(#1463,#1464,#1465,#1466,#1467,#1468,#1469,#1470,#1471,#1472)) ;
#1480=EDGE_LOOP('',(#1481,#1482,#1483,#1484)) ;
#1492=EDGE_LOOP('',(#1493,#1494,#1495,#1496)) ;
#1523=EDGE_LOOP('',(#1524,#1525,#1526,#1527)) ;
#1545=EDGE_LOOP('',(#1546,#1547,#1548,#1549)) ;
#1564=EDGE_LOOP('',(#1565,#1566,#1567,#1568,#1569,#1570,#1571,#1572,#1573,#1574)) ;
#1589=EDGE_LOOP('',(#1590,#1591,#1592,#1593,#1594,#1595,#1596,#1597,#1598,#1599)) ;
#1607=EDGE_LOOP('',(#1608,#1609,#1610,#1611)) ;
#1619=EDGE_LOOP('',(#1620,#1621,#1622,#1623)) ;
#90=FACE_OUTER_BOUND('',#85,.T.) ;
#130=FACE_OUTER_BOUND('',#125,.T.) ;
#170=FACE_OUTER_BOUND('',#165,.T.) ;
#201=FACE_OUTER_BOUND('',#196,.T.) ;
#232=FACE_OUTER_BOUND('',#227,.T.) ;
#272=FACE_OUTER_BOUND('',#267,.T.) ;
#303=FACE_OUTER_BOUND('',#298,.T.) ;
#334=FACE_OUTER_BOUND('',#329,.T.) ;
#374=FACE_OUTER_BOUND('',#369,.T.) ;
#400=FACE_OUTER_BOUND('',#395,.T.) ;
#431=FACE_OUTER_BOUND('',#426,.T.) ;
#471=FACE_OUTER_BOUND('',#466,.T.) ;
#497=FACE_OUTER_BOUND('',#492,.T.) ;
#528=FACE_OUTER_BOUND('',#523,.T.) ;
#568=FACE_OUTER_BOUND('',#563,.T.) ;
#598=FACE_OUTER_BOUND('',#592,.T.) ;
#623=FACE_OUTER_BOUND('',#617,.T.) ;
#654=FACE_OUTER_BOUND('',#649,.T.) ;
#678=FACE_OUTER_BOUND('',#673,.T.) ;
#702=FACE_OUTER_BOUND('',#697,.T.) ;
#742=FACE_OUTER_BOUND('',#737,.T.) ;
#772=FACE_OUTER_BOUND('',#766,.T.) ;
#797=FACE_OUTER_BOUND('',#791,.T.) ;
#862=FACE_OUTER_BOUND('',#851,.T.) ;
#884=FACE_OUTER_BOUND('',#879,.T.) ;
#901=FACE_OUTER_BOUND('',#896,.T.) ;
#918=FACE_OUTER_BOUND('',#913,.T.) ;
#958=FACE_OUTER_BOUND('',#953,.T.) ;
#988=FACE_OUTER_BOUND('',#982,.T.) ;
#1013=FACE_OUTER_BOUND('',#1007,.T.) ;
#1044=FACE_OUTER_BOUND('',#1039,.T.) ;
#1068=FACE_OUTER_BOUND('',#1063,.T.) ;
#1092=FACE_OUTER_BOUND('',#1087,.T.) ;
#1132=FACE_OUTER_BOUND('',#1127,.T.) ;
#1162=FACE_OUTER_BOUND('',#1156,.T.) ;
#1187=FACE_OUTER_BOUND('',#1181,.T.) ;
#1252=FACE_OUTER_BOUND('',#1241,.T.) ;
#1283=FACE_OUTER_BOUND('',#1264,.T.) ;
#1314=FACE_OUTER_BOUND('',#1295,.T.) ;
#1336=FACE_OUTER_BOUND('',#1331,.T.) ;
#1348=FACE_OUTER_BOUND('',#1343,.T.) ;
#1360=FACE_OUTER_BOUND('',#1355,.T.) ;
#1391=FACE_OUTER_BOUND('',#1386,.T.) ;
#1413=FACE_OUTER_BOUND('',#1408,.T.) ;
#1443=FACE_OUTER_BOUND('',#1432,.T.) ;
#1473=FACE_OUTER_BOUND('',#1462,.T.) ;
#1485=FACE_OUTER_BOUND('',#1480,.T.) ;
#1497=FACE_OUTER_BOUND('',#1492,.T.) ;
#1528=FACE_OUTER_BOUND('',#1523,.T.) ;
#1550=FACE_OUTER_BOUND('',#1545,.T.) ;
#1575=FACE_OUTER_BOUND('',#1564,.T.) ;
#1600=FACE_OUTER_BOUND('',#1589,.T.) ;
#1612=FACE_OUTER_BOUND('',#1607,.T.) ;
#1624=FACE_OUTER_BOUND('',#1619,.T.) ;
#45=UNCERTAINTY_MEASURE_WITH_UNIT(LENGTH_MEASURE(0.005),#41,'distance_accuracy_value','CONFUSED CURVE UNCERTAINTY') ;
#60=LINE('Line',#57,#59) ;
#69=LINE('Line',#66,#68) ;
#76=LINE('Line',#73,#75) ;
#83=LINE('Line',#80,#82) ;
#100=LINE('Line',#97,#99) ;
#109=LINE('Line',#106,#108) ;
#116=LINE('Line',#113,#115) ;
#123=LINE('Line',#120,#122) ;
#149=LINE('Line',#146,#148) ;
#163=LINE('Line',#160,#162) ;
#180=LINE('Line',#177,#179) ;
#189=LINE('Line',#186,#188) ;
#194=LINE('Line',#191,#193) ;
#225=LINE('Line',#222,#224) ;
#251=LINE('Line',#248,#250) ;
#265=LINE('Line',#262,#264) ;
#282=LINE('Line',#279,#281) ;
#289=LINE('Line',#286,#288) ;
#296=LINE('Line',#293,#295) ;
#320=LINE('Line',#317,#319) ;
#353=LINE('Line',#350,#352) ;
#367=LINE('Line',#364,#366) ;
#379=LINE('Line',#376,#378) ;
#388=LINE('Line',#385,#387) ;
#393=LINE('Line',#390,#392) ;
#417=LINE('Line',#414,#416) ;
#450=LINE('Line',#447,#449) ;
#464=LINE('Line',#461,#463) ;
#476=LINE('Line',#473,#475) ;
#483=LINE('Line',#480,#482) ;
#490=LINE('Line',#487,#489) ;
#521=LINE('Line',#518,#520) ;
#538=LINE('Line',#535,#537) ;
#547=LINE('Line',#544,#546) ;
#554=LINE('Line',#551,#553) ;
#561=LINE('Line',#558,#560) ;
#578=LINE('Line',#575,#577) ;
#583=LINE('Line',#580,#582) ;
#590=LINE('Line',#587,#589) ;
#603=LINE('Line',#600,#602) ;
#610=LINE('Line',#607,#609) ;
#615=LINE('Line',#612,#614) ;
#647=LINE('Line',#644,#646) ;
#664=LINE('Line',#661,#663) ;
#688=LINE('Line',#685,#687) ;
#712=LINE('Line',#709,#711) ;
#721=LINE('Line',#718,#720) ;
#728=LINE('Line',#725,#727) ;
#735=LINE('Line',#732,#734) ;
#752=LINE('Line',#749,#751) ;
#759=LINE('Line',#756,#758) ;
#764=LINE('Line',#761,#763) ;
#777=LINE('Line',#774,#776) ;
#784=LINE('Line',#781,#783) ;
#789=LINE('Line',#786,#788) ;
#807=LINE('Line',#804,#806) ;
#816=LINE('Line',#813,#815) ;
#823=LINE('Line',#820,#822) ;
#830=LINE('Line',#827,#829) ;
#837=LINE('Line',#834,#836) ;
#842=LINE('Line',#839,#841) ;
#849=LINE('Line',#846,#848) ;
#928=LINE('Line',#925,#927) ;
#937=LINE('Line',#934,#936) ;
#944=LINE('Line',#941,#943) ;
#951=LINE('Line',#948,#950) ;
#968=LINE('Line',#965,#967) ;
#975=LINE('Line',#972,#974) ;
#980=LINE('Line',#977,#979) ;
#993=LINE('Line',#990,#992) ;
#1000=LINE('Line',#997,#999) ;
#1005=LINE('Line',#1002,#1004) ;
#1037=LINE('Line',#1034,#1036) ;
#1054=LINE('Line',#1051,#1053) ;
#1078=LINE('Line',#1075,#1077) ;
#1102=LINE('Line',#1099,#1101) ;
#1111=LINE('Line',#1108,#1110) ;
#1118=LINE('Line',#1115,#1117) ;
#1125=LINE('Line',#1122,#1124) ;
#1142=LINE('Line',#1139,#1141) ;
#1147=LINE('Line',#1144,#1146) ;
#1154=LINE('Line',#1151,#1153) ;
#1167=LINE('Line',#1164,#1166) ;
#1174=LINE('Line',#1171,#1173) ;
#1179=LINE('Line',#1176,#1178) ;
#1197=LINE('Line',#1194,#1196) ;
#1206=LINE('Line',#1203,#1205) ;
#1213=LINE('Line',#1210,#1212) ;
#1220=LINE('Line',#1217,#1219) ;
#1227=LINE('Line',#1224,#1226) ;
#1232=LINE('Line',#1229,#1231) ;
#1239=LINE('Line',#1236,#1238) ;
#1370=LINE('Line',#1367,#1369) ;
#1377=LINE('Line',#1374,#1376) ;
#1384=LINE('Line',#1381,#1383) ;
#1401=LINE('Line',#1398,#1400) ;
#1406=LINE('Line',#1403,#1405) ;
#1423=LINE('Line',#1420,#1422) ;
#1430=LINE('Line',#1427,#1429) ;
#1453=LINE('Line',#1450,#1452) ;
#1460=LINE('Line',#1457,#1459) ;
#1478=LINE('Line',#1475,#1477) ;
#1507=LINE('Line',#1504,#1506) ;
#1516=LINE('Line',#1513,#1515) ;
#1521=LINE('Line',#1518,#1520) ;
#1538=LINE('Line',#1535,#1537) ;
#1543=LINE('Line',#1540,#1542) ;
#1555=LINE('Line',#1552,#1554) ;
#1562=LINE('Line',#1559,#1561) ;
#1580=LINE('Line',#1577,#1579) ;
#1587=LINE('Line',#1584,#1586) ;
#1605=LINE('Line',#1602,#1604) ;
#2=MECHANICAL_CONTEXT(' ',#1,'mechanical') ;
#24=PERSONAL_ADDRESS(' ',' ',' ',' ',' ',' ',' ',' ',' ',' ',' ',' ',(#22),' ') ;
#56=PLANE('Plane',#55) ;
#96=PLANE('Plane',#95) ;
#176=PLANE('Plane',#175) ;
#278=PLANE('Plane',#277) ;
#534=PLANE('Plane',#533) ;
#574=PLANE('Plane',#573) ;
#708=PLANE('Plane',#707) ;
#748=PLANE('Plane',#747) ;
#803=PLANE('Plane',#802) ;
#924=PLANE('Plane',#923) ;
#964=PLANE('Plane',#963) ;
#1098=PLANE('Plane',#1097) ;
#1138=PLANE('Plane',#1137) ;
#1193=PLANE('Plane',#1192) ;
#1258=PLANE('Plane',#1257) ;
#1289=PLANE('Plane',#1288) ;
#1366=PLANE('Plane',#1365) ;
#1397=PLANE('Plane',#1396) ;
#1419=PLANE('Plane',#1418) ;
#1449=PLANE('Plane',#1448) ;
#1491=PLANE('Plane',#1490) ;
#1503=PLANE('Plane',#1502) ;
#1534=PLANE('Plane',#1533) ;
#1618=PLANE('Plane',#1617) ;
#43=PLANE_ANGLE_MEASURE_WITH_UNIT(PLANE_ANGLE_MEASURE(0.0174532925199),#42) ;
#7=PRODUCT_CATEGORY('part',$) ;
#9=PRODUCT_CATEGORY_RELATIONSHIP(' ',' ',#7,#8) ;
#6=PRODUCT_DEFINITION_FORMATION_WITH_SPECIFIED_SOURCE('',' ',#5,.NOT_KNOWN.) ;
#8=PRODUCT_RELATED_PRODUCT_CATEGORY('detail',$,(#5)) ;
#50=SHAPE_DEFINITION_REPRESENTATION(#40,#49) ;
#62=VERTEX_POINT('',#61) ;
#64=VERTEX_POINT('',#63) ;
#71=VERTEX_POINT('',#70) ;
#78=VERTEX_POINT('',#77) ;
#102=VERTEX_POINT('',#101) ;
#104=VERTEX_POINT('',#103) ;
#111=VERTEX_POINT('',#110) ;
#118=VERTEX_POINT('',#117) ;
#142=VERTEX_POINT('',#141) ;
#144=VERTEX_POINT('',#143) ;
#151=VERTEX_POINT('',#150) ;
#158=VERTEX_POINT('',#157) ;
#182=VERTEX_POINT('',#181) ;
#184=VERTEX_POINT('',#183) ;
#213=VERTEX_POINT('',#212) ;
#220=VERTEX_POINT('',#219) ;
#244=VERTEX_POINT('',#243) ;
#246=VERTEX_POINT('',#245) ;
#253=VERTEX_POINT('',#252) ;
#260=VERTEX_POINT('',#259) ;
#284=VERTEX_POINT('',#283) ;
#291=VERTEX_POINT('',#290) ;
#315=VERTEX_POINT('',#314) ;
#322=VERTEX_POINT('',#321) ;
#346=VERTEX_POINT('',#345) ;
#348=VERTEX_POINT('',#347) ;
#355=VERTEX_POINT('',#354) ;
#362=VERTEX_POINT('',#361) ;
#381=VERTEX_POINT('',#380) ;
#383=VERTEX_POINT('',#382) ;
#412=VERTEX_POINT('',#411) ;
#419=VERTEX_POINT('',#418) ;
#443=VERTEX_POINT('',#442) ;
#445=VERTEX_POINT('',#444) ;
#452=VERTEX_POINT('',#451) ;
#459=VERTEX_POINT('',#458) ;
#478=VERTEX_POINT('',#477) ;
#485=VERTEX_POINT('',#484) ;
#509=VERTEX_POINT('',#508) ;
#516=VERTEX_POINT('',#515) ;
#540=VERTEX_POINT('',#539) ;
#542=VERTEX_POINT('',#541) ;
#549=VERTEX_POINT('',#548) ;
#556=VERTEX_POINT('',#555) ;
#585=VERTEX_POINT('',#584) ;
#605=VERTEX_POINT('',#604) ;
#635=VERTEX_POINT('',#634) ;
#642=VERTEX_POINT('',#641) ;
#666=VERTEX_POINT('',#665) ;
#690=VERTEX_POINT('',#689) ;
#714=VERTEX_POINT('',#713) ;
#716=VERTEX_POINT('',#715) ;
#723=VERTEX_POINT('',#722) ;
#730=VERTEX_POINT('',#729) ;
#754=VERTEX_POINT('',#753) ;
#779=VERTEX_POINT('',#778) ;
#809=VERTEX_POINT('',#808) ;
#811=VERTEX_POINT('',#810) ;
#818=VERTEX_POINT('',#817) ;
#825=VERTEX_POINT('',#824) ;
#832=VERTEX_POINT('',#831) ;
#844=VERTEX_POINT('',#843) ;
#930=VERTEX_POINT('',#929) ;
#932=VERTEX_POINT('',#931) ;
#939=VERTEX_POINT('',#938) ;
#946=VERTEX_POINT('',#945) ;
#970=VERTEX_POINT('',#969) ;
#995=VERTEX_POINT('',#994) ;
#1025=VERTEX_POINT('',#1024) ;
#1032=VERTEX_POINT('',#1031) ;
#1056=VERTEX_POINT('',#1055) ;
#1080=VERTEX_POINT('',#1079) ;
#1104=VERTEX_POINT('',#1103) ;
#1106=VERTEX_POINT('',#1105) ;
#1113=VERTEX_POINT('',#1112) ;
#1120=VERTEX_POINT('',#1119) ;
#1149=VERTEX_POINT('',#1148) ;
#1169=VERTEX_POINT('',#1168) ;
#1199=VERTEX_POINT('',#1198) ;
#1201=VERTEX_POINT('',#1200) ;
#1208=VERTEX_POINT('',#1207) ;
#1215=VERTEX_POINT('',#1214) ;
#1222=VERTEX_POINT('',#1221) ;
#1234=VERTEX_POINT('',#1233) ;
#1372=VERTEX_POINT('',#1371) ;
#1379=VERTEX_POINT('',#1378) ;
#1425=VERTEX_POINT('',#1424) ;
#1455=VERTEX_POINT('',#1454) ;
#1509=VERTEX_POINT('',#1508) ;
#1511=VERTEX_POINT('',#1510) ;
#1557=VERTEX_POINT('',#1556) ;
#1582=VERTEX_POINT('',#1581) ;
#41=(LENGTH_UNIT()NAMED_UNIT(*)SI_UNIT(.MILLI.,.METRE.)) ;
#42=(NAMED_UNIT(*)PLANE_ANGLE_UNIT()SI_UNIT($,.RADIAN.)) ;
#44=(NAMED_UNIT(*)SI_UNIT($,.STERADIAN.)SOLID_ANGLE_UNIT()) ;
#46=(GEOMETRIC_REPRESENTATION_CONTEXT(3)GLOBAL_UNCERTAINTY_ASSIGNED_CONTEXT((#45))GLOBAL_UNIT_ASSIGNED_CONTEXT((#41,#42,#44))REPRESENTATION_CONTEXT(' ',' ')) ;
ENDSEC;
END-ISO-10303-21;
