ISO-10303-21;
HEADER;
FILE_DESCRIPTION (( 'STEP AP203' ),
    '1' );
FILE_NAME ('提手护圈.STEP',
    '2020-07-30T03:51:01',
    ( '' ),
    ( '' ),
    'SwSTEP 2.0',
    'SolidWorks 2020',
    '' );
FILE_SCHEMA (( 'CONFIG_CONTROL_DESIGN' ));
ENDSEC;

DATA;
#1 = ORIENTED_EDGE ( 'NONE', *, *, #122, .T. ) ;
#2 = CARTESIAN_POINT ( 'NONE',  ( 9.299999999999998934, 3.100000000000000089, 11.50000000000000000 ) ) ;
#3 = FACE_OUTER_BOUND ( 'NONE', #223, .T. ) ;
#4 = EDGE_CURVE ( 'NONE', #575, #625, #182, .T. ) ;
#5 = ORIENTED_EDGE ( 'NONE', *, *, #239, .T. ) ;
#6 = DIRECTION ( 'NONE',  ( 0.000000000000000000, 0.000000000000000000, -1.000000000000000000 ) ) ;
#7 = CIRCLE ( 'NONE', #149, 2.999999999999999112 ) ;
#8 = CARTESIAN_POINT ( 'NONE',  ( -16.00000000000000355, -7.500000000000000888, 1.500000000000000000 ) ) ;
#9 = VECTOR ( 'NONE', #343, 1000.000000000000000 ) ;
#10 = EDGE_CURVE ( 'NONE', #267, #535, #385, .T. ) ;
#11 = CARTESIAN_POINT ( 'NONE',  ( -8.500000000000001776, -2.299999999999999822, 0.000000000000000000 ) ) ;
#12 = CARTESIAN_POINT ( 'NONE',  ( -9.300000000000002487, -3.100000000000000089, 11.50000000000000000 ) ) ;
#13 = LINE ( 'NONE', #215, #358 ) ;
#14 = PERSON_AND_ORGANIZATION ( #497, #523 ) ;
#15 = PLANE ( 'NONE',  #613 ) ;
#16 = VECTOR ( 'NONE', #533, 1000.000000000000000 ) ;
#17 = CIRCLE ( 'NONE', #356, 2.999999999999999112 ) ;
#18 = EDGE_LOOP ( 'NONE', ( #376, #42, #191, #440 ) ) ;
#19 = PRODUCT_RELATED_PRODUCT_CATEGORY ( 'detail', '', ( #453 ) ) ;
#20 = DIRECTION ( 'NONE',  ( -0.000000000000000000, -0.000000000000000000, 1.000000000000000000 ) ) ;
#21 = EDGE_LOOP ( 'NONE', ( #640, #318, #197, #288, #641, #165, #419, #397 ) ) ;
#22 = CALENDAR_DATE ( 2020, 30, 7 ) ;
#23 = CARTESIAN_POINT ( 'NONE',  ( 12.99999999999999822, -7.500000000000000888, 1.500000000000000000 ) ) ;
#24 = EDGE_CURVE ( 'NONE', #153, #351, #552, .T. ) ;
#25 = ORIENTED_EDGE ( 'NONE', *, *, #58, .T. ) ;
#26 = ORIENTED_EDGE ( 'NONE', *, *, #341, .T. ) ;
#27 = APPLICATION_CONTEXT ( 'configuration controlled 3d designs of mechanical parts and assemblies' ) ;
#28 = CARTESIAN_POINT ( 'NONE',  ( 9.299999999999998934, -3.100000000000000089, 11.50000000000000000 ) ) ;
#29 = APPROVAL ( #626, '未指定' ) ;
#30 = VECTOR ( 'NONE', #507, 1000.000000000000000 ) ;
#31 = AXIS2_PLACEMENT_3D ( 'NONE', #246, #595, #498 ) ;
#32 = SHAPE_DEFINITION_REPRESENTATION ( #458, #436 ) ;
#33 = DIRECTION ( 'NONE',  ( -0.000000000000000000, -0.000000000000000000, 1.000000000000000000 ) ) ;
#34 = EDGE_LOOP ( 'NONE', ( #514, #95, #5, #608 ) ) ;
#35 = ORIENTED_EDGE ( 'NONE', *, *, #39, .T. ) ;
#36 = EDGE_CURVE ( 'NONE', #153, #629, #253, .T. ) ;
#37 = FACE_BOUND ( 'NONE', #597, .T. ) ;
#38 = VERTEX_POINT ( 'NONE', #450 ) ;
#39 = EDGE_CURVE ( 'NONE', #479, #169, #233, .T. ) ;
#40 = PLANE ( 'NONE',  #241 ) ;
#41 = VECTOR ( 'NONE', #33, 1000.000000000000000 ) ;
#42 = ORIENTED_EDGE ( 'NONE', *, *, #4, .F. ) ;
#43 = LINE ( 'NONE', #603, #559 ) ;
#44 = VECTOR ( 'NONE', #435, 1000.000000000000000 ) ;
#45 = ORIENTED_EDGE ( 'NONE', *, *, #337, .F. ) ;
#46 = LINE ( 'NONE', #102, #548 ) ;
#47 = ORIENTED_EDGE ( 'NONE', *, *, #193, .T. ) ;
#48 = ADVANCED_FACE ( 'NONE', ( #655 ), #591, .F. ) ;
#49 = ORIENTED_EDGE ( 'NONE', *, *, #341, .F. ) ;
#50 = DIRECTION ( 'NONE',  ( 0.000000000000000000, 0.000000000000000000, 1.000000000000000000 ) ) ;
#51 = DIRECTION ( 'NONE',  ( 0.000000000000000000, 1.000000000000000000, 0.000000000000000000 ) ) ;
#52 = APPLICATION_CONTEXT ( 'configuration controlled 3d designs of mechanical parts and assemblies' ) ;
#53 = LINE ( 'NONE', #607, #273 ) ;
#54 = CC_DESIGN_SECURITY_CLASSIFICATION ( #466, ( #283 ) ) ;
#55 = LINE ( 'NONE', #410, #250 ) ;
#56 = DIRECTION ( 'NONE',  ( -1.000000000000000000, 0.000000000000000000, 0.000000000000000000 ) ) ;
#57 = DIRECTION ( 'NONE',  ( 0.000000000000000000, -0.000000000000000000, 1.000000000000000000 ) ) ;
#58 = EDGE_CURVE ( 'NONE', #81, #433, #205, .T. ) ;
#59 = DIRECTION ( 'NONE',  ( 0.000000000000000000, 0.000000000000000000, -1.000000000000000000 ) ) ;
#60 = CYLINDRICAL_SURFACE ( 'NONE', #477, 2.999999999999999112 ) ;
#61 = CLOSED_SHELL ( 'NONE', ( #266, #381, #398, #142, #104, #377, #586, #482, #185, #628, #448, #77, #68, #562, #298, #434, #48, #571, #234 ) ) ;
#62 = PLANE ( 'NONE',  #325 ) ;
#63 = CARTESIAN_POINT ( 'NONE',  ( -9.300000000000002487, 3.100000000000000089, 11.50000000000000000 ) ) ;
#64 = CARTESIAN_POINT ( 'NONE',  ( 12.99999999999999822, 7.499999999999999112, 0.000000000000000000 ) ) ;
#65 = DIRECTION ( 'NONE',  ( 0.000000000000000000, 1.000000000000000000, 0.000000000000000000 ) ) ;
#66 = CARTESIAN_POINT ( 'NONE',  ( -8.500000000000001776, -2.299999999999999822, 11.50000000000000000 ) ) ;
#67 = EDGE_LOOP ( 'NONE', ( #606, #45, #293, #123 ) ) ;
#68 = ADVANCED_FACE ( 'NONE', ( #99 ), #444, .T. ) ;
#69 = ORIENTED_EDGE ( 'NONE', *, *, #317, .T. ) ;
#70 = PERSON_AND_ORGANIZATION_ROLE ( 'classification_officer' ) ;
#71 = DIRECTION ( 'NONE',  ( -1.000000000000000000, 0.000000000000000000, 0.000000000000000000 ) ) ;
#72 = AXIS2_PLACEMENT_3D ( 'NONE', #563, #208, #155 ) ;
#73 = VERTEX_POINT ( 'NONE', #255 ) ;
#74 = VECTOR ( 'NONE', #411, 1000.000000000000000 ) ;
#75 = ORIENTED_EDGE ( 'NONE', *, *, #599, .F. ) ;
#76 = PERSON_AND_ORGANIZATION_ROLE ( 'design_owner' ) ;
#77 = ADVANCED_FACE ( 'NONE', ( #369 ), #564, .T. ) ;
#78 = PLANE ( 'NONE',  #499 ) ;
#79 = DIRECTION ( 'NONE',  ( -1.000000000000000000, 0.000000000000000000, -0.000000000000000000 ) ) ;
#80 = EDGE_CURVE ( 'NONE', #433, #235, #614, .T. ) ;
#81 = VERTEX_POINT ( 'NONE', #303 ) ;
#82 = ORIENTED_EDGE ( 'NONE', *, *, #468, .F. ) ;
#83 = APPROVAL_DATE_TIME ( #532, #29 ) ;
#84 = CARTESIAN_POINT ( 'NONE',  ( -13.00000000000000533, 7.499999999999999112, 1.500000000000000000 ) ) ;
#85 = CARTESIAN_POINT ( 'NONE',  ( 15.99999999999999645, -4.500000000000001776, 1.500000000000000000 ) ) ;
#86 = ORIENTED_EDGE ( 'NONE', *, *, #534, .T. ) ;
#87 = CARTESIAN_POINT ( 'NONE',  ( 8.499999999999998224, -2.299999999999999822, 11.50000000000000000 ) ) ;
#88 = DESIGN_CONTEXT ( 'detailed design', #52, 'design' ) ;
#89 = APPROVAL ( #528, '未指定' ) ;
#90 = ORIENTED_EDGE ( 'NONE', *, *, #389, .T. ) ;
#91 = DIRECTION ( 'NONE',  ( 1.000000000000000000, 0.000000000000000000, 0.000000000000000000 ) ) ;
#92 = EDGE_LOOP ( 'NONE', ( #90, #480, #321, #393 ) ) ;
#93 = FACE_OUTER_BOUND ( 'NONE', #176, .T. ) ;
#94 = VECTOR ( 'NONE', #300, 1000.000000000000000 ) ;
#95 = ORIENTED_EDGE ( 'NONE', *, *, #10, .T. ) ;
#96 = AXIS2_PLACEMENT_3D ( 'NONE', #553, #294, #495 ) ;
#97 = DIRECTION ( 'NONE',  ( -1.000000000000000000, 0.000000000000000000, -0.000000000000000000 ) ) ;
#98 = EDGE_CURVE ( 'NONE', #235, #175, #161, .T. ) ;
#99 = FACE_OUTER_BOUND ( 'NONE', #442, .T. ) ;
#100 = ORIENTED_EDGE ( 'NONE', *, *, #251, .F. ) ;
#101 = CARTESIAN_POINT ( 'NONE',  ( -16.00000000000000355, 7.499999999999999112, 1.500000000000000000 ) ) ;
#102 = CARTESIAN_POINT ( 'NONE',  ( -16.00000000000000355, 7.499999999999999112, 1.500000000000000000 ) ) ;
#103 = VERTEX_POINT ( 'NONE', #64 ) ;
#104 = ADVANCED_FACE ( 'NONE', ( #3 ), #168, .F. ) ;
#105 = AXIS2_PLACEMENT_3D ( 'NONE', #329, #470, #79 ) ;
#106 = CARTESIAN_POINT ( 'NONE',  ( -16.00000000000000355, -7.500000000000000888, 1.500000000000000000 ) ) ;
#107 = LOCAL_TIME ( 11, 51, 1.000000000000000000, #427 ) ;
#108 = CARTESIAN_POINT ( 'NONE',  ( 12.99999999999999822, 4.500000000000000000, 1.500000000000000000 ) ) ;
#109 = DIRECTION ( 'NONE',  ( 0.000000000000000000, 0.000000000000000000, -1.000000000000000000 ) ) ;
#110 = LINE ( 'NONE', #570, #547 ) ;
#111 =( LENGTH_UNIT ( ) NAMED_UNIT ( * ) SI_UNIT ( .MILLI., .METRE. ) );
#112 = DIRECTION ( 'NONE',  ( -1.000000000000000000, -0.000000000000000000, -0.000000000000000000 ) ) ;
#113 = DIRECTION ( 'NONE',  ( -0.000000000000000000, -0.000000000000000000, -1.000000000000000000 ) ) ;
#114 = AXIS2_PLACEMENT_3D ( 'NONE', #8, #502, #621 ) ;
#115 = LINE ( 'NONE', #12, #604 ) ;
#116 = AXIS2_PLACEMENT_3D ( 'NONE', #308, #451, #612 ) ;
#117 = CARTESIAN_POINT ( 'NONE',  ( 15.99999999999999645, -4.500000000000001776, 0.000000000000000000 ) ) ;
#118 = DIRECTION ( 'NONE',  ( -1.000000000000000000, 0.000000000000000000, 0.000000000000000000 ) ) ;
#119 = EDGE_CURVE ( 'NONE', #351, #143, #509, .T. ) ;
#120 = APPROVAL_DATE_TIME ( #467, #150 ) ;
#121 = CARTESIAN_POINT ( 'NONE',  ( 12.99999999999999822, 4.500000000000000000, 1.500000000000000000 ) ) ;
#122 = EDGE_CURVE ( 'NONE', #304, #583, #110, .T. ) ;
#123 = ORIENTED_EDGE ( 'NONE', *, *, #258, .T. ) ;
#124 = APPROVAL_DATE_TIME ( #374, #89 ) ;
#125 = CARTESIAN_POINT ( 'NONE',  ( 9.299999999999998934, -3.100000000000000089, 11.50000000000000000 ) ) ;
#126 = VECTOR ( 'NONE', #384, 1000.000000000000000 ) ;
#127 = AXIS2_PLACEMENT_3D ( 'NONE', #560, #156, #654 ) ;
#128 = CC_DESIGN_PERSON_AND_ORGANIZATION_ASSIGNMENT ( #334, #70, ( #466 ) ) ;
#129 = ORIENTED_EDGE ( 'NONE', *, *, #543, .T. ) ;
#130 = DIRECTION ( 'NONE',  ( 0.000000000000000000, 0.000000000000000000, -1.000000000000000000 ) ) ;
#131 = ORIENTED_EDGE ( 'NONE', *, *, #305, .T. ) ;
#132 = EDGE_LOOP ( 'NONE', ( #311, #649, #49, #47 ) ) ;
#133 = APPROVAL_ROLE ( '' ) ;
#134 = LINE ( 'NONE', #478, #41 ) ;
#135 = DIRECTION ( 'NONE',  ( -1.000000000000000000, -0.000000000000000000, -0.000000000000000000 ) ) ;
#136 = ORIENTED_EDGE ( 'NONE', *, *, #138, .T. ) ;
#137 = CARTESIAN_POINT ( 'NONE',  ( -13.00000000000000533, 4.500000000000000000, 0.000000000000000000 ) ) ;
#138 = EDGE_CURVE ( 'NONE', #542, #332, #115, .T. ) ;
#139 = AXIS2_PLACEMENT_3D ( 'NONE', #121, #130, #577 ) ;
#140 = ORIENTED_EDGE ( 'NONE', *, *, #488, .T. ) ;
#141 = DIRECTION ( 'NONE',  ( 0.000000000000000000, 1.000000000000000000, 0.000000000000000000 ) ) ;
#142 = ADVANCED_FACE ( 'NONE', ( #464 ), #316, .F. ) ;
#143 = VERTEX_POINT ( 'NONE', #313 ) ;
#144 = CARTESIAN_POINT ( 'NONE',  ( 15.99999999999999645, -7.500000000000000888, 0.000000000000000000 ) ) ;
#145 = ORIENTED_EDGE ( 'NONE', *, *, #154, .F. ) ;
#146 = EDGE_CURVE ( 'NONE', #365, #351, #407, .T. ) ;
#147 = DIRECTION ( 'NONE',  ( -1.000000000000000000, -0.000000000000000000, -0.000000000000000000 ) ) ;
#148 = ORIENTED_EDGE ( 'NONE', *, *, #653, .F. ) ;
#149 = AXIS2_PLACEMENT_3D ( 'NONE', #137, #429, #71 ) ;
#150 = APPROVAL ( #322, '未指定' ) ;
#151 = CARTESIAN_POINT ( 'NONE',  ( -16.00000000000000355, -7.500000000000000888, 0.000000000000000000 ) ) ;
#152 = DIRECTION ( 'NONE',  ( 0.000000000000000000, -0.000000000000000000, -1.000000000000000000 ) ) ;
#153 = VERTEX_POINT ( 'NONE', #418 ) ;
#154 = EDGE_CURVE ( 'NONE', #485, #153, #617, .T. ) ;
#155 = DIRECTION ( 'NONE',  ( 0.000000000000000000, 0.000000000000000000, 1.000000000000000000 ) ) ;
#156 = DIRECTION ( 'NONE',  ( -0.000000000000000000, -0.000000000000000000, 1.000000000000000000 ) ) ;
#157 = VECTOR ( 'NONE', #91, 1000.000000000000000 ) ;
#158 = DIRECTION ( 'NONE',  ( 0.000000000000000000, -0.000000000000000000, 1.000000000000000000 ) ) ;
#159 = VECTOR ( 'NONE', #112, 1000.000000000000000 ) ;
#160 = FACE_OUTER_BOUND ( 'NONE', #132, .T. ) ;
#161 = LINE ( 'NONE', #513, #646 ) ;
#162 = EDGE_CURVE ( 'NONE', #373, #602, #13, .T. ) ;
#163 =( NAMED_UNIT ( * ) PLANE_ANGLE_UNIT ( ) SI_UNIT ( $, .RADIAN. ) );
#164 = CARTESIAN_POINT ( 'NONE',  ( 12.99999999999999822, -4.500000000000001776, 1.500000000000000000 ) ) ;
#165 = ORIENTED_EDGE ( 'NONE', *, *, #539, .T. ) ;
#166 = CARTESIAN_POINT ( 'NONE',  ( -9.300000000000002487, -3.100000000000000089, 11.50000000000000000 ) ) ;
#167 = AXIS2_PLACEMENT_3D ( 'NONE', #203, #406, #367 ) ;
#168 = PLANE ( 'NONE',  #439 ) ;
#169 = VERTEX_POINT ( 'NONE', #269 ) ;
#170 = CALENDAR_DATE ( 2020, 30, 7 ) ;
#171 = CARTESIAN_POINT ( 'NONE',  ( -9.300000000000002487, 3.100000000000000089, 11.50000000000000000 ) ) ;
#172 = ORIENTED_EDGE ( 'NONE', *, *, #24, .T. ) ;
#173 = PERSON_AND_ORGANIZATION ( #497, #523 ) ;
#174 = DIRECTION ( 'NONE',  ( -0.000000000000000000, -0.000000000000000000, -1.000000000000000000 ) ) ;
#175 = VERTEX_POINT ( 'NONE', #66 ) ;
#176 = EDGE_LOOP ( 'NONE', ( #216, #580, #517, #391 ) ) ;
#177 = PERSON_AND_ORGANIZATION ( #497, #523 ) ;
#178 = LINE ( 'NONE', #125, #126 ) ;
#179 = CIRCLE ( 'NONE', #127, 2.999999999999999112 ) ;
#180 = DATE_TIME_ROLE ( 'classification_date' ) ;
#181 = CARTESIAN_POINT ( 'NONE',  ( -16.00000000000000355, -4.500000000000001776, 1.500000000000000000 ) ) ;
#182 = LINE ( 'NONE', #346, #94 ) ;
#183 = ORIENTED_EDGE ( 'NONE', *, *, #534, .F. ) ;
#184 = SECURITY_CLASSIFICATION_LEVEL ( 'unclassified' ) ;
#185 = ADVANCED_FACE ( 'NONE', ( #516 ), #15, .F. ) ;
#186 = CARTESIAN_POINT ( 'NONE',  ( 12.99999999999999822, 7.499999999999999112, 1.500000000000000000 ) ) ;
#187 = ORIENTED_EDGE ( 'NONE', *, *, #196, .T. ) ;
#188 = PLANE ( 'NONE',  #347 ) ;
#189 = VECTOR ( 'NONE', #630, 1000.000000000000000 ) ;
#190 = VECTOR ( 'NONE', #147, 1000.000000000000000 ) ;
#191 = ORIENTED_EDGE ( 'NONE', *, *, #616, .T. ) ;
#192 = DIRECTION ( 'NONE',  ( -1.000000000000000000, -0.000000000000000000, -0.000000000000000000 ) ) ;
#193 = EDGE_CURVE ( 'NONE', #314, #382, #627, .T. ) ;
#194 = ORIENTED_EDGE ( 'NONE', *, *, #360, .F. ) ;
#195 = CARTESIAN_POINT ( 'NONE',  ( -9.300000000000002487, 3.100000000000000089, 11.50000000000000000 ) ) ;
#196 = EDGE_CURVE ( 'NONE', #625, #235, #454, .T. ) ;
#197 = ORIENTED_EDGE ( 'NONE', *, *, #122, .F. ) ;
#198 = DIRECTION ( 'NONE',  ( 1.000000000000000000, 0.000000000000000000, 0.000000000000000000 ) ) ;
#199 = CARTESIAN_POINT ( 'NONE',  ( -13.00000000000000533, 4.500000000000000000, 1.500000000000000000 ) ) ;
#200 = AXIS2_PLACEMENT_3D ( 'NONE', #164, #364, #118 ) ;
#201 = VECTOR ( 'NONE', #306, 1000.000000000000000 ) ;
#202 = LINE ( 'NONE', #299, #652 ) ;
#203 = CARTESIAN_POINT ( 'NONE',  ( -13.00000000000000533, 4.500000000000000000, 1.500000000000000000 ) ) ;
#204 = EDGE_CURVE ( 'NONE', #474, #373, #618, .T. ) ;
#205 = LINE ( 'NONE', #611, #557 ) ;
#206 = LINE ( 'NONE', #260, #301 ) ;
#207 = CARTESIAN_POINT ( 'NONE',  ( -16.00000000000000355, -7.500000000000000888, 1.500000000000000000 ) ) ;
#208 = DIRECTION ( 'NONE',  ( -1.000000000000000000, 0.000000000000000000, 0.000000000000000000 ) ) ;
#209 = CIRCLE ( 'NONE', #167, 2.999999999999999112 ) ;
#210 = CARTESIAN_POINT ( 'NONE',  ( 8.499999999999998224, -2.299999999999999822, 0.000000000000000000 ) ) ;
#211 = CARTESIAN_POINT ( 'NONE',  ( -8.500000000000001776, -2.299999999999999822, 0.000000000000000000 ) ) ;
#212 = DIRECTION ( 'NONE',  ( -0.000000000000000000, -0.000000000000000000, 1.000000000000000000 ) ) ;
#213 = PRODUCT_DEFINITION ( '未知', '', #283, #88 ) ;
#214 = LINE ( 'NONE', #211, #229 ) ;
#215 = CARTESIAN_POINT ( 'NONE',  ( -9.300000000000002487, -3.100000000000000089, 1.500000000000000000 ) ) ;
#216 = ORIENTED_EDGE ( 'NONE', *, *, #24, .F. ) ;
#217 = ORIENTED_EDGE ( 'NONE', *, *, #262, .T. ) ;
#218 = AXIS2_PLACEMENT_3D ( 'NONE', #199, #566, #56 ) ;
#219 = LOCAL_TIME ( 11, 51, 1.000000000000000000, #278 ) ;
#220 = DIRECTION ( 'NONE',  ( 1.000000000000000000, 0.000000000000000000, 0.000000000000000000 ) ) ;
#221 = ORIENTED_EDGE ( 'NONE', *, *, #565, .T. ) ;
#222 = CARTESIAN_POINT ( 'NONE',  ( -9.300000000000002487, -3.100000000000000089, 11.50000000000000000 ) ) ;
#223 = EDGE_LOOP ( 'NONE', ( #423, #412, #647, #430 ) ) ;
#224 = COORDINATED_UNIVERSAL_TIME_OFFSET ( 8, 0, .AHEAD. ) ;
#225 = DIRECTION ( 'NONE',  ( -0.000000000000000000, -0.000000000000000000, 1.000000000000000000 ) ) ;
#226 = PERSON_AND_ORGANIZATION_ROLE ( 'design_supplier' ) ;
#227 = LINE ( 'NONE', #520, #409 ) ;
#228 = VECTOR ( 'NONE', #297, 1000.000000000000000 ) ;
#229 = VECTOR ( 'NONE', #515, 1000.000000000000000 ) ;
#230 = ORIENTED_EDGE ( 'NONE', *, *, #610, .T. ) ;
#231 = APPROVAL_ROLE ( '' ) ;
#232 = CARTESIAN_POINT ( 'NONE',  ( -13.00000000000000533, -7.500000000000000888, 1.500000000000000000 ) ) ;
#233 = LINE ( 'NONE', #446, #455 ) ;
#234 = ADVANCED_FACE ( 'NONE', ( #310 ), #62, .F. ) ;
#235 = VERTEX_POINT ( 'NONE', #87 ) ;
#236 = LINE ( 'NONE', #232, #44 ) ;
#237 = ORIENTED_EDGE ( 'NONE', *, *, #565, .F. ) ;
#238 = DIRECTION ( 'NONE',  ( 0.000000000000000000, 1.000000000000000000, 0.000000000000000000 ) ) ;
#239 = EDGE_CURVE ( 'NONE', #535, #575, #469, .T. ) ;
#240 = VECTOR ( 'NONE', #421, 1000.000000000000000 ) ;
#241 = AXIS2_PLACEMENT_3D ( 'NONE', #650, #243, #97 ) ;
#242 = ORIENTED_EDGE ( 'NONE', *, *, #204, .T. ) ;
#243 = DIRECTION ( 'NONE',  ( 0.000000000000000000, 0.000000000000000000, -1.000000000000000000 ) ) ;
#244 = CC_DESIGN_PERSON_AND_ORGANIZATION_ASSIGNMENT ( #387, #475, ( #283 ) ) ;
#245 = ORIENTED_EDGE ( 'NONE', *, *, #98, .T. ) ;
#246 = CARTESIAN_POINT ( 'NONE',  ( 8.499999999999998224, -2.299999999999999822, 0.000000000000000000 ) ) ;
#247 = ORIENTED_EDGE ( 'NONE', *, *, #289, .T. ) ;
#248 = CARTESIAN_POINT ( 'NONE',  ( 8.499999999999998224, 2.299999999999999378, 11.50000000000000000 ) ) ;
#249 = ORIENTED_EDGE ( 'NONE', *, *, #389, .F. ) ;
#250 = VECTOR ( 'NONE', #254, 1000.000000000000000 ) ;
#251 = EDGE_CURVE ( 'NONE', #503, #38, #236, .T. ) ;
#252 = CARTESIAN_POINT ( 'NONE',  ( -13.00000000000000533, -7.500000000000000888, 1.500000000000000000 ) ) ;
#253 = LINE ( 'NONE', #85, #228 ) ;
#254 = DIRECTION ( 'NONE',  ( 0.000000000000000000, 1.000000000000000000, 0.000000000000000000 ) ) ;
#255 = CARTESIAN_POINT ( 'NONE',  ( 12.99999999999999822, -7.500000000000000888, 0.000000000000000000 ) ) ;
#256 = EDGE_LOOP ( 'NONE', ( #25, #631, #245, #330 ) ) ;
#257 = DIRECTION ( 'NONE',  ( -0.000000000000000000, -0.000000000000000000, -1.000000000000000000 ) ) ;
#258 = EDGE_CURVE ( 'NONE', #542, #373, #587, .T. ) ;
#259 = AXIS2_PLACEMENT_3D ( 'NONE', #452, #261, #459 ) ;
#260 = CARTESIAN_POINT ( 'NONE',  ( -16.00000000000000355, 4.500000000000000000, 1.500000000000000000 ) ) ;
#261 = DIRECTION ( 'NONE',  ( 0.000000000000000000, 0.000000000000000000, -1.000000000000000000 ) ) ;
#262 = EDGE_CURVE ( 'NONE', #550, #275, #134, .T. ) ;
#263 = ORIENTED_EDGE ( 'NONE', *, *, #462, .F. ) ;
#264 = FACE_OUTER_BOUND ( 'NONE', #636, .T. ) ;
#265 = DIRECTION ( 'NONE',  ( -0.000000000000000000, -0.000000000000000000, 1.000000000000000000 ) ) ;
#266 = ADVANCED_FACE ( 'NONE', ( #431, #37 ), #277, .F. ) ;
#267 = VERTEX_POINT ( 'NONE', #372 ) ;
#268 = DATE_AND_TIME ( #634, #615 ) ;
#269 = CARTESIAN_POINT ( 'NONE',  ( -16.00000000000000355, -4.500000000000001776, 1.500000000000000000 ) ) ;
#270 = ORIENTED_EDGE ( 'NONE', *, *, #154, .T. ) ;
#271 = CALENDAR_DATE ( 2020, 30, 7 ) ;
#272 = AXIS2_PLACEMENT_3D ( 'NONE', #108, #212, #561 ) ;
#273 = VECTOR ( 'NONE', #198, 1000.000000000000000 ) ;
#274 = CARTESIAN_POINT ( 'NONE',  ( 15.99999999999999645, 4.500000000000000000, 0.000000000000000000 ) ) ;
#275 = VERTEX_POINT ( 'NONE', #84 ) ;
#276 = DATE_TIME_ROLE ( 'creation_date' ) ;
#277 = PLANE ( 'NONE',  #105 ) ;
#278 = COORDINATED_UNIVERSAL_TIME_OFFSET ( 8, 0, .AHEAD. ) ;
#279 = CARTESIAN_POINT ( 'NONE',  ( 8.499999999999998224, 2.299999999999999378, 0.000000000000000000 ) ) ;
#280 = ORIENTED_EDGE ( 'NONE', *, *, #239, .F. ) ;
#281 = CARTESIAN_POINT ( 'NONE',  ( 0.000000000000000000, 0.000000000000000000, 0.000000000000000000 ) ) ;
#282 = FACE_OUTER_BOUND ( 'NONE', #395, .T. ) ;
#283 = PRODUCT_DEFINITION_FORMATION_WITH_SPECIFIED_SOURCE ( '任何', '', #453, .NOT_KNOWN. ) ;
#284 = ORIENTED_EDGE ( 'NONE', *, *, #305, .F. ) ;
#285 = LINE ( 'NONE', #186, #189 ) ;
#286 = ORIENTED_EDGE ( 'NONE', *, *, #119, .T. ) ;
#287 = FACE_OUTER_BOUND ( 'NONE', #339, .T. ) ;
#288 = ORIENTED_EDGE ( 'NONE', *, *, #360, .T. ) ;
#289 = EDGE_CURVE ( 'NONE', #583, #169, #582, .T. ) ;
#290 = CARTESIAN_POINT ( 'NONE',  ( 15.99999999999999645, -7.500000000000000888, 1.500000000000000000 ) ) ;
#291 = VECTOR ( 'NONE', #265, 1000.000000000000000 ) ;
#292 = APPROVAL_PERSON_ORGANIZATION ( #177, #150, #327 ) ;
#293 = ORIENTED_EDGE ( 'NONE', *, *, #138, .F. ) ;
#294 = DIRECTION ( 'NONE',  ( 0.000000000000000000, -1.000000000000000000, 0.000000000000000000 ) ) ;
#295 = ORIENTED_EDGE ( 'NONE', *, *, #554, .F. ) ;
#296 = CARTESIAN_POINT ( 'NONE',  ( 9.299999999999998934, 3.100000000000000089, 1.500000000000000000 ) ) ;
#297 = DIRECTION ( 'NONE',  ( 0.000000000000000000, 0.000000000000000000, -1.000000000000000000 ) ) ;
#298 = ADVANCED_FACE ( 'NONE', ( #282 ), #388, .T. ) ;
#299 = CARTESIAN_POINT ( 'NONE',  ( -16.00000000000000355, 7.499999999999999112, 0.000000000000000000 ) ) ;
#300 = DIRECTION ( 'NONE',  ( 1.000000000000000000, 0.000000000000000000, 0.000000000000000000 ) ) ;
#301 = VECTOR ( 'NONE', #109, 1000.000000000000000 ) ;
#302 = CARTESIAN_POINT ( 'NONE',  ( -9.300000000000002487, -3.100000000000000089, 1.500000000000000000 ) ) ;
#303 = CARTESIAN_POINT ( 'NONE',  ( -8.500000000000001776, 2.299999999999999378, 11.50000000000000000 ) ) ;
#304 = VERTEX_POINT ( 'NONE', #320 ) ;
#305 = EDGE_CURVE ( 'NONE', #267, #433, #538, .T. ) ;
#306 = DIRECTION ( 'NONE',  ( 1.000000000000000000, 0.000000000000000000, 0.000000000000000000 ) ) ;
#307 = DIRECTION ( 'NONE',  ( -0.000000000000000000, -1.000000000000000000, -0.000000000000000000 ) ) ;
#308 = CARTESIAN_POINT ( 'NONE',  ( -8.500000000000001776, -2.299999999999999822, 0.000000000000000000 ) ) ;
#309 = CC_DESIGN_PERSON_AND_ORGANIZATION_ASSIGNMENT ( #572, #581, ( #213 ) ) ;
#310 = FACE_OUTER_BOUND ( 'NONE', #471, .T. ) ;
#311 = ORIENTED_EDGE ( 'NONE', *, *, #508, .T. ) ;
#312 = APPROVAL_PERSON_ORGANIZATION ( #383, #29, #133 ) ;
#313 = CARTESIAN_POINT ( 'NONE',  ( 12.99999999999999822, 7.499999999999999112, 1.500000000000000000 ) ) ;
#314 = VERTEX_POINT ( 'NONE', #28 ) ;
#315 = DIRECTION ( 'NONE',  ( 0.000000000000000000, 0.000000000000000000, -1.000000000000000000 ) ) ;
#316 = PLANE ( 'NONE',  #114 ) ;
#317 = EDGE_CURVE ( 'NONE', #143, #103, #285, .T. ) ;
#318 = ORIENTED_EDGE ( 'NONE', *, *, #599, .T. ) ;
#319 = DIRECTION ( 'NONE',  ( 1.000000000000000000, 0.000000000000000000, 0.000000000000000000 ) ) ;
#320 = CARTESIAN_POINT ( 'NONE',  ( -16.00000000000000355, 4.500000000000000000, 0.000000000000000000 ) ) ;
#321 = ORIENTED_EDGE ( 'NONE', *, *, #328, .F. ) ;
#322 = APPROVAL_STATUS ( 'not_yet_approved' ) ;
#323 = LOCAL_TIME ( 11, 51, 1.000000000000000000, #425 ) ;
#324 = CARTESIAN_POINT ( 'NONE',  ( -9.300000000000002487, 3.100000000000000089, 1.500000000000000000 ) ) ;
#325 = AXIS2_PLACEMENT_3D ( 'NONE', #635, #335, #331 ) ;
#326 = ORIENTED_EDGE ( 'NONE', *, *, #119, .F. ) ;
#327 = APPROVAL_ROLE ( '' ) ;
#328 = EDGE_CURVE ( 'NONE', #332, #314, #481, .T. ) ;
#329 = CARTESIAN_POINT ( 'NONE',  ( 0.000000000000000000, 0.000000000000000000, 1.500000000000000000 ) ) ;
#330 = ORIENTED_EDGE ( 'NONE', *, *, #468, .T. ) ;
#331 = DIRECTION ( 'NONE',  ( 0.000000000000000000, -0.000000000000000000, 1.000000000000000000 ) ) ;
#332 = VERTEX_POINT ( 'NONE', #639 ) ;
#333 = ORIENTED_EDGE ( 'NONE', *, *, #262, .F. ) ;
#334 = PERSON_AND_ORGANIZATION ( #497, #523 ) ;
#335 = DIRECTION ( 'NONE',  ( -0.000000000000000000, 1.000000000000000000, 0.000000000000000000 ) ) ;
#336 = LOCAL_TIME ( 11, 51, 1.000000000000000000, #525 ) ;
#337 = EDGE_CURVE ( 'NONE', #332, #602, #227, .T. ) ;
#338 = UNCERTAINTY_MEASURE_WITH_UNIT (LENGTH_MEASURE( 1.000000000000000082E-05 ), #111, 'distance_accuracy_value', 'NONE');
#339 = EDGE_LOOP ( 'NONE', ( #242, #540, #183, #230 ) ) ;
#340 = CARTESIAN_POINT ( 'NONE',  ( -16.00000000000000355, 4.500000000000000000, 1.500000000000000000 ) ) ;
#341 = EDGE_CURVE ( 'NONE', #314, #524, #178, .T. ) ;
#342 = ORIENTED_EDGE ( 'NONE', *, *, #58, .F. ) ;
#343 = DIRECTION ( 'NONE',  ( 0.000000000000000000, 1.000000000000000000, 0.000000000000000000 ) ) ;
#344 = EDGE_LOOP ( 'NONE', ( #284, #148, #187, #593 ) ) ;
#345 = PLANE ( 'NONE',  #366 ) ;
#346 = CARTESIAN_POINT ( 'NONE',  ( -8.500000000000001776, -2.299999999999999822, 0.000000000000000000 ) ) ;
#347 = AXIS2_PLACEMENT_3D ( 'NONE', #290, #349, #50 ) ;
#348 = ORIENTED_EDGE ( 'NONE', *, *, #408, .F. ) ;
#349 = DIRECTION ( 'NONE',  ( -1.000000000000000000, 0.000000000000000000, 0.000000000000000000 ) ) ;
#350 = FACE_OUTER_BOUND ( 'NONE', #344, .T. ) ;
#351 = VERTEX_POINT ( 'NONE', #590 ) ;
#352 = CARTESIAN_POINT ( 'NONE',  ( -13.00000000000000533, -4.500000000000001776, 0.000000000000000000 ) ) ;
#353 = DIRECTION ( 'NONE',  ( -0.000000000000000000, -1.000000000000000000, -0.000000000000000000 ) ) ;
#354 = VECTOR ( 'NONE', #529, 1000.000000000000000 ) ;
#355 = EDGE_CURVE ( 'NONE', #73, #485, #375, .T. ) ;
#356 = AXIS2_PLACEMENT_3D ( 'NONE', #361, #6, #449 ) ;
#357 = PLANE ( 'NONE',  #72 ) ;
#358 = VECTOR ( 'NONE', #353, 1000.000000000000000 ) ;
#359 = CARTESIAN_POINT ( 'NONE',  ( 15.99999999999999645, 4.500000000000000000, 1.500000000000000000 ) ) ;
#360 = EDGE_CURVE ( 'NONE', #304, #550, #7, .T. ) ;
#361 = CARTESIAN_POINT ( 'NONE',  ( 12.99999999999999822, 4.500000000000000000, 0.000000000000000000 ) ) ;
#362 = CARTESIAN_POINT ( 'NONE',  ( -9.300000000000002487, 3.100000000000000089, 1.500000000000000000 ) ) ;
#363 = LINE ( 'NONE', #106, #201 ) ;
#364 = DIRECTION ( 'NONE',  ( -0.000000000000000000, -0.000000000000000000, 1.000000000000000000 ) ) ;
#365 = VERTEX_POINT ( 'NONE', #274 ) ;
#366 = AXIS2_PLACEMENT_3D ( 'NONE', #101, #392, #152 ) ;
#367 = DIRECTION ( 'NONE',  ( -1.000000000000000000, 0.000000000000000000, 0.000000000000000000 ) ) ;
#368 =( GEOMETRIC_REPRESENTATION_CONTEXT ( 3 ) GLOBAL_UNCERTAINTY_ASSIGNED_CONTEXT ( ( #338 ) ) GLOBAL_UNIT_ASSIGNED_CONTEXT ( ( #111, #163, #415 ) ) REPRESENTATION_CONTEXT ( 'NONE', 'WORKASPACE' ) );
#369 = FACE_OUTER_BOUND ( 'NONE', #536, .T. ) ;
#370 = ORIENTED_EDGE ( 'NONE', *, *, #162, .F. ) ;
#371 = CALENDAR_DATE ( 2020, 30, 7 ) ;
#372 = CARTESIAN_POINT ( 'NONE',  ( 8.499999999999998224, 2.299999999999999378, 0.000000000000000000 ) ) ;
#373 = VERTEX_POINT ( 'NONE', #324 ) ;
#374 = DATE_AND_TIME ( #371, #107 ) ;
#375 = LINE ( 'NONE', #23, #487 ) ;
#376 = ORIENTED_EDGE ( 'NONE', *, *, #196, .F. ) ;
#377 = ADVANCED_FACE ( 'NONE', ( #526, #632 ), #78, .T. ) ;
#378 = APPLICATION_PROTOCOL_DEFINITION ( 'international standard', 'config_control_design', 1994, #27 ) ;
#379 = DIRECTION ( 'NONE',  ( 0.000000000000000000, 0.000000000000000000, -1.000000000000000000 ) ) ;
#380 = ORIENTED_EDGE ( 'NONE', *, *, #616, .F. ) ;
#381 = ADVANCED_FACE ( 'NONE', ( #93 ), #188, .F. ) ;
#382 = VERTEX_POINT ( 'NONE', #486 ) ;
#383 = PERSON_AND_ORGANIZATION ( #497, #523 ) ;
#384 = DIRECTION ( 'NONE',  ( 0.000000000000000000, 1.000000000000000000, 0.000000000000000000 ) ) ;
#385 = LINE ( 'NONE', #588, #428 ) ;
#386 = ORIENTED_EDGE ( 'NONE', *, *, #508, .F. ) ;
#387 = PERSON_AND_ORGANIZATION ( #497, #523 ) ;
#388 = CYLINDRICAL_SURFACE ( 'NONE', #139, 2.999999999999999112 ) ;
#389 = EDGE_CURVE ( 'NONE', #602, #382, #53, .T. ) ;
#390 = CARTESIAN_POINT ( 'NONE',  ( 15.99999999999999645, -7.500000000000000888, 1.500000000000000000 ) ) ;
#391 = ORIENTED_EDGE ( 'NONE', *, *, #146, .T. ) ;
#392 = DIRECTION ( 'NONE',  ( 0.000000000000000000, -1.000000000000000000, 0.000000000000000000 ) ) ;
#393 = ORIENTED_EDGE ( 'NONE', *, *, #337, .T. ) ;
#394 = FACE_BOUND ( 'NONE', #256, .T. ) ;
#395 = EDGE_LOOP ( 'NONE', ( #326, #600, #483, #531 ) ) ;
#396 = LINE ( 'NONE', #151, #157 ) ;
#397 = ORIENTED_EDGE ( 'NONE', *, *, #408, .T. ) ;
#398 = ADVANCED_FACE ( 'NONE', ( #443 ), #345, .F. ) ;
#399 = LINE ( 'NONE', #402, #401 ) ;
#400 = CARTESIAN_POINT ( 'NONE',  ( -8.500000000000001776, -2.299999999999999822, 0.000000000000000000 ) ) ;
#401 = VECTOR ( 'NONE', #141, 1000.000000000000000 ) ;
#402 = CARTESIAN_POINT ( 'NONE',  ( -8.500000000000001776, 0.000000000000000000, 11.50000000000000000 ) ) ;
#403 = CARTESIAN_POINT ( 'NONE',  ( 12.99999999999999822, -4.500000000000001776, 1.500000000000000000 ) ) ;
#404 = ORIENTED_EDGE ( 'NONE', *, *, #328, .T. ) ;
#405 = EDGE_CURVE ( 'NONE', #38, #73, #396, .T. ) ;
#406 = DIRECTION ( 'NONE',  ( -0.000000000000000000, -0.000000000000000000, 1.000000000000000000 ) ) ;
#407 = LINE ( 'NONE', #359, #291 ) ;
#408 = EDGE_CURVE ( 'NONE', #629, #73, #594, .T. ) ;
#409 = VECTOR ( 'NONE', #174, 1000.000000000000000 ) ;
#410 = CARTESIAN_POINT ( 'NONE',  ( 8.499999999999998224, -2.299999999999999822, 0.000000000000000000 ) ) ;
#411 = DIRECTION ( 'NONE',  ( -0.000000000000000000, -0.000000000000000000, 1.000000000000000000 ) ) ;
#412 = ORIENTED_EDGE ( 'NONE', *, *, #251, .T. ) ;
#413 = CARTESIAN_POINT ( 'NONE',  ( 8.499999999999998224, -2.299999999999999822, 0.000000000000000000 ) ) ;
#414 = DIRECTION ( 'NONE',  ( -0.000000000000000000, -1.000000000000000000, -0.000000000000000000 ) ) ;
#415 =( NAMED_UNIT ( * ) SI_UNIT ( $, .STERADIAN. ) SOLID_ANGLE_UNIT ( ) );
#416 = CARTESIAN_POINT ( 'NONE',  ( 8.499999999999998224, 0.000000000000000000, 11.50000000000000000 ) ) ;
#417 = CIRCLE ( 'NONE', #633, 2.999999999999999112 ) ;
#418 = CARTESIAN_POINT ( 'NONE',  ( 15.99999999999999645, -4.500000000000001776, 1.500000000000000000 ) ) ;
#419 = ORIENTED_EDGE ( 'NONE', *, *, #518, .F. ) ;
#420 = DIRECTION ( 'NONE',  ( 0.000000000000000000, 0.000000000000000000, 1.000000000000000000 ) ) ;
#421 = DIRECTION ( 'NONE',  ( -0.000000000000000000, -0.000000000000000000, -1.000000000000000000 ) ) ;
#422 = EDGE_CURVE ( 'NONE', #535, #81, #43, .T. ) ;
#423 = ORIENTED_EDGE ( 'NONE', *, *, #596, .F. ) ;
#424 = ORIENTED_EDGE ( 'NONE', *, *, #422, .F. ) ;
#425 = COORDINATED_UNIVERSAL_TIME_OFFSET ( 8, 0, .AHEAD. ) ;
#426 = CARTESIAN_POINT ( 'NONE',  ( 0.000000000000000000, 0.000000000000000000, 0.000000000000000000 ) ) ;
#427 = COORDINATED_UNIVERSAL_TIME_OFFSET ( 8, 0, .AHEAD. ) ;
#428 = VECTOR ( 'NONE', #135, 1000.000000000000000 ) ;
#429 = DIRECTION ( 'NONE',  ( 0.000000000000000000, 0.000000000000000000, -1.000000000000000000 ) ) ;
#430 = ORIENTED_EDGE ( 'NONE', *, *, #355, .T. ) ;
#431 = FACE_OUTER_BOUND ( 'NONE', #589, .T. ) ;
#432 = DIRECTION ( 'NONE',  ( -0.000000000000000000, -1.000000000000000000, -0.000000000000000000 ) ) ;
#433 = VERTEX_POINT ( 'NONE', #248 ) ;
#434 = ADVANCED_FACE ( 'NONE', ( #350 ), #491, .F. ) ;
#435 = DIRECTION ( 'NONE',  ( 0.000000000000000000, 0.000000000000000000, -1.000000000000000000 ) ) ;
#436 = ADVANCED_BREP_SHAPE_REPRESENTATION ( '提手护圈', ( #556, #567 ), #368 ) ;
#437 = ORIENTED_EDGE ( 'NONE', *, *, #554, .T. ) ;
#438 = LINE ( 'NONE', #144, #9 ) ;
#439 = AXIS2_PLACEMENT_3D ( 'NONE', #207, #623, #158 ) ;
#440 = ORIENTED_EDGE ( 'NONE', *, *, #98, .F. ) ;
#441 = CARTESIAN_POINT ( 'NONE',  ( 12.99999999999999822, -4.500000000000001776, 0.000000000000000000 ) ) ;
#442 = EDGE_LOOP ( 'NONE', ( #237, #333, #194, #624 ) ) ;
#443 = FACE_OUTER_BOUND ( 'NONE', #511, .T. ) ;
#444 = CYLINDRICAL_SURFACE ( 'NONE', #218, 2.999999999999999112 ) ;
#445 = DIRECTION ( 'NONE',  ( 0.000000000000000000, 0.000000000000000000, -1.000000000000000000 ) ) ;
#446 = CARTESIAN_POINT ( 'NONE',  ( -16.00000000000000355, -7.500000000000000888, 1.500000000000000000 ) ) ;
#447 = VECTOR ( 'NONE', #113, 1000.000000000000000 ) ;
#448 = ADVANCED_FACE ( 'NONE', ( #394, #551 ), #40, .F. ) ;
#449 = DIRECTION ( 'NONE',  ( -1.000000000000000000, 0.000000000000000000, 0.000000000000000000 ) ) ;
#450 = CARTESIAN_POINT ( 'NONE',  ( -13.00000000000000533, -7.500000000000000888, 0.000000000000000000 ) ) ;
#451 = DIRECTION ( 'NONE',  ( -1.000000000000000000, 0.000000000000000000, 0.000000000000000000 ) ) ;
#452 = CARTESIAN_POINT ( 'NONE',  ( -13.00000000000000533, -4.500000000000001776, 1.500000000000000000 ) ) ;
#453 = PRODUCT ( '提手护圈', '提手护圈', '', ( #585 ) ) ;
#454 = LINE ( 'NONE', #210, #74 ) ;
#455 = VECTOR ( 'NONE', #432, 1000.000000000000000 ) ;
#456 = CC_DESIGN_APPROVAL ( #89, ( #213 ) ) ;
#457 = FACE_OUTER_BOUND ( 'NONE', #490, .T. ) ;
#458 = PRODUCT_DEFINITION_SHAPE ( 'NONE', 'NONE',  #213 ) ;
#459 = DIRECTION ( 'NONE',  ( -1.000000000000000000, 0.000000000000000000, 0.000000000000000000 ) ) ;
#460 = DIRECTION ( 'NONE',  ( -1.000000000000000000, 0.000000000000000000, 0.000000000000000000 ) ) ;
#461 = DIRECTION ( 'NONE',  ( -1.000000000000000000, 0.000000000000000000, 0.000000000000000000 ) ) ;
#462 = EDGE_CURVE ( 'NONE', #143, #275, #46, .T. ) ;
#463 = ORIENTED_EDGE ( 'NONE', *, *, #422, .T. ) ;
#464 = FACE_OUTER_BOUND ( 'NONE', #545, .T. ) ;
#465 = VECTOR ( 'NONE', #20, 1000.000000000000000 ) ;
#466 = SECURITY_CLASSIFICATION ( '', '', #184 ) ;
#467 = DATE_AND_TIME ( #22, #336 ) ;
#468 = EDGE_CURVE ( 'NONE', #175, #81, #399, .T. ) ;
#469 = LINE ( 'NONE', #473, #16 ) ;
#470 = DIRECTION ( 'NONE',  ( 0.000000000000000000, 0.000000000000000000, -1.000000000000000000 ) ) ;
#471 = EDGE_LOOP ( 'NONE', ( #424, #568, #131, #342 ) ) ;
#472 = PERSON_AND_ORGANIZATION ( #497, #523 ) ;
#473 = CARTESIAN_POINT ( 'NONE',  ( -8.500000000000001776, -2.299999999999999822, 0.000000000000000000 ) ) ;
#474 = VERTEX_POINT ( 'NONE', #296 ) ;
#475 = PERSON_AND_ORGANIZATION_ROLE ( 'creator' ) ;
#476 = AXIS2_PLACEMENT_3D ( 'NONE', #400, #496, #549 ) ;
#477 = AXIS2_PLACEMENT_3D ( 'NONE', #403, #315, #506 ) ;
#478 = CARTESIAN_POINT ( 'NONE',  ( -13.00000000000000533, 7.499999999999999112, 1.500000000000000000 ) ) ;
#479 = VERTEX_POINT ( 'NONE', #340 ) ;
#480 = ORIENTED_EDGE ( 'NONE', *, *, #193, .F. ) ;
#481 = LINE ( 'NONE', #222, #354 ) ;
#482 = ADVANCED_FACE ( 'NONE', ( #287 ), #648, .F. ) ;
#483 = ORIENTED_EDGE ( 'NONE', *, *, #539, .F. ) ;
#484 = CARTESIAN_POINT ( 'NONE',  ( 9.299999999999998934, -3.100000000000000089, 1.500000000000000000 ) ) ;
#485 = VERTEX_POINT ( 'NONE', #651 ) ;
#486 = CARTESIAN_POINT ( 'NONE',  ( 9.299999999999998934, -3.100000000000000089, 1.500000000000000000 ) ) ;
#487 = VECTOR ( 'NONE', #225, 1000.000000000000000 ) ;
#488 = EDGE_CURVE ( 'NONE', #103, #550, #202, .T. ) ;
#489 = CC_DESIGN_APPROVAL ( #29, ( #466 ) ) ;
#490 = EDGE_LOOP ( 'NONE', ( #380, #280, #463, #82 ) ) ;
#491 = PLANE ( 'NONE',  #31 ) ;
#492 = CC_DESIGN_DATE_AND_TIME_ASSIGNMENT ( #268, #180, ( #466 ) ) ;
#493 = DIRECTION ( 'NONE',  ( 1.000000000000000000, 0.000000000000000000, 0.000000000000000000 ) ) ;
#494 = ORIENTED_EDGE ( 'NONE', *, *, #596, .T. ) ;
#495 = DIRECTION ( 'NONE',  ( 0.000000000000000000, -0.000000000000000000, -1.000000000000000000 ) ) ;
#496 = DIRECTION ( 'NONE',  ( 0.000000000000000000, -1.000000000000000000, 0.000000000000000000 ) ) ;
#497 = PERSON ( '未指定', '未指定', '未指定', ('未指定'), ('未指定'), ('未指定') ) ;
#498 = DIRECTION ( 'NONE',  ( 0.000000000000000000, 0.000000000000000000, -1.000000000000000000 ) ) ;
#499 = AXIS2_PLACEMENT_3D ( 'NONE', #426, #379, #642 ) ;
#500 = CC_DESIGN_PERSON_AND_ORGANIZATION_ASSIGNMENT ( #14, #76, ( #453 ) ) ;
#501 = FACE_OUTER_BOUND ( 'NONE', #92, .T. ) ;
#502 = DIRECTION ( 'NONE',  ( 1.000000000000000000, 0.000000000000000000, 0.000000000000000000 ) ) ;
#503 = VERTEX_POINT ( 'NONE', #252 ) ;
#504 = PLANE ( 'NONE',  #537 ) ;
#505 = CARTESIAN_POINT ( 'NONE',  ( -9.300000000000002487, -3.100000000000000089, 11.50000000000000000 ) ) ;
#506 = DIRECTION ( 'NONE',  ( -1.000000000000000000, 0.000000000000000000, 0.000000000000000000 ) ) ;
#507 = DIRECTION ( 'NONE',  ( 0.000000000000000000, -1.000000000000000000, 0.000000000000000000 ) ) ;
#508 = EDGE_CURVE ( 'NONE', #382, #474, #598, .T. ) ;
#509 = CIRCLE ( 'NONE', #272, 2.999999999999999112 ) ;
#510 = VECTOR ( 'NONE', #238, 1000.000000000000000 ) ;
#511 = EDGE_LOOP ( 'NONE', ( #140, #217, #263, #69 ) ) ;
#512 = CARTESIAN_POINT ( 'NONE',  ( -16.00000000000000355, -4.500000000000001776, 0.000000000000000000 ) ) ;
#513 = CARTESIAN_POINT ( 'NONE',  ( 0.000000000000000000, -2.299999999999999822, 11.50000000000000000 ) ) ;
#514 = ORIENTED_EDGE ( 'NONE', *, *, #653, .T. ) ;
#515 = DIRECTION ( 'NONE',  ( -0.000000000000000000, -0.000000000000000000, 1.000000000000000000 ) ) ;
#516 = FACE_OUTER_BOUND ( 'NONE', #67, .T. ) ;
#517 = ORIENTED_EDGE ( 'NONE', *, *, #518, .T. ) ;
#518 = EDGE_CURVE ( 'NONE', #629, #365, #438, .T. ) ;
#519 = APPLICATION_PROTOCOL_DEFINITION ( 'international standard', 'config_control_design', 1994, #52 ) ;
#520 = CARTESIAN_POINT ( 'NONE',  ( -9.300000000000002487, -3.100000000000000089, 11.50000000000000000 ) ) ;
#521 = ORIENTED_EDGE ( 'NONE', *, *, #355, .F. ) ;
#522 = VECTOR ( 'NONE', #51, 1000.000000000000000 ) ;
#523 = ORGANIZATION ( '未指定', '未指定', '' ) ;
#524 = VERTEX_POINT ( 'NONE', #601 ) ;
#525 = COORDINATED_UNIVERSAL_TIME_OFFSET ( 8, 0, .AHEAD. ) ;
#526 = FACE_BOUND ( 'NONE', #34, .T. ) ;
#527 = ORIENTED_EDGE ( 'NONE', *, *, #462, .T. ) ;
#528 = APPROVAL_STATUS ( 'not_yet_approved' ) ;
#529 = DIRECTION ( 'NONE',  ( 1.000000000000000000, 0.000000000000000000, 0.000000000000000000 ) ) ;
#530 = EDGE_LOOP ( 'NONE', ( #26, #86, #136, #404 ) ) ;
#531 = ORIENTED_EDGE ( 'NONE', *, *, #317, .F. ) ;
#532 = DATE_AND_TIME ( #170, #323 ) ;
#533 = DIRECTION ( 'NONE',  ( -0.000000000000000000, -1.000000000000000000, -0.000000000000000000 ) ) ;
#534 = EDGE_CURVE ( 'NONE', #524, #542, #544, .T. ) ;
#535 = VERTEX_POINT ( 'NONE', #622 ) ;
#536 = EDGE_LOOP ( 'NONE', ( #295, #584, #75, #100 ) ) ;
#537 = AXIS2_PLACEMENT_3D ( 'NONE', #166, #65, #57 ) ;
#538 = LINE ( 'NONE', #279, #465 ) ;
#539 = EDGE_CURVE ( 'NONE', #103, #365, #17, .T. ) ;
#540 = ORIENTED_EDGE ( 'NONE', *, *, #258, .F. ) ;
#541 = DIRECTION ( 'NONE',  ( -1.000000000000000000, 0.000000000000000000, 0.000000000000000000 ) ) ;
#542 = VERTEX_POINT ( 'NONE', #63 ) ;
#543 = EDGE_CURVE ( 'NONE', #479, #304, #206, .T. ) ;
#544 = LINE ( 'NONE', #195, #190 ) ;
#545 = EDGE_LOOP ( 'NONE', ( #1, #247, #643, #129 ) ) ;
#546 = DIRECTION ( 'NONE',  ( -1.000000000000000000, -0.000000000000000000, -0.000000000000000000 ) ) ;
#547 = VECTOR ( 'NONE', #307, 1000.000000000000000 ) ;
#548 = VECTOR ( 'NONE', #192, 1000.000000000000000 ) ;
#549 = DIRECTION ( 'NONE',  ( 0.000000000000000000, -0.000000000000000000, -1.000000000000000000 ) ) ;
#550 = VERTEX_POINT ( 'NONE', #569 ) ;
#551 = FACE_OUTER_BOUND ( 'NONE', #530, .T. ) ;
#552 = LINE ( 'NONE', #390, #522 ) ;
#553 = CARTESIAN_POINT ( 'NONE',  ( -9.300000000000002487, 3.100000000000000089, 11.50000000000000000 ) ) ;
#554 = EDGE_CURVE ( 'NONE', #169, #503, #179, .T. ) ;
#555 = DIRECTION ( 'NONE',  ( 0.000000000000000000, 0.000000000000000000, -1.000000000000000000 ) ) ;
#556 = MANIFOLD_SOLID_BREP ( '切除-拉伸1', #61 ) ;
#557 = VECTOR ( 'NONE', #493, 1000.000000000000000 ) ;
#558 = CARTESIAN_POINT ( 'NONE',  ( 9.299999999999998934, -3.100000000000000089, 11.50000000000000000 ) ) ;
#559 = VECTOR ( 'NONE', #645, 1000.000000000000000 ) ;
#560 = CARTESIAN_POINT ( 'NONE',  ( -13.00000000000000533, -4.500000000000001776, 1.500000000000000000 ) ) ;
#561 = DIRECTION ( 'NONE',  ( -1.000000000000000000, 0.000000000000000000, 0.000000000000000000 ) ) ;
#562 = ADVANCED_FACE ( 'NONE', ( #264 ), #60, .T. ) ;
#563 = CARTESIAN_POINT ( 'NONE',  ( 9.299999999999998934, -3.100000000000000089, 11.50000000000000000 ) ) ;
#564 = CYLINDRICAL_SURFACE ( 'NONE', #259, 2.999999999999999112 ) ;
#565 = EDGE_CURVE ( 'NONE', #275, #479, #209, .T. ) ;
#566 = DIRECTION ( 'NONE',  ( 0.000000000000000000, 0.000000000000000000, -1.000000000000000000 ) ) ;
#567 = AXIS2_PLACEMENT_3D ( 'NONE', #281, #420, #319 ) ;
#568 = ORIENTED_EDGE ( 'NONE', *, *, #10, .F. ) ;
#569 = CARTESIAN_POINT ( 'NONE',  ( -13.00000000000000533, 7.499999999999999112, 0.000000000000000000 ) ) ;
#570 = CARTESIAN_POINT ( 'NONE',  ( -16.00000000000000355, -7.500000000000000888, 0.000000000000000000 ) ) ;
#571 = ADVANCED_FACE ( 'NONE', ( #457 ), #609, .F. ) ;
#572 = PERSON_AND_ORGANIZATION ( #497, #523 ) ;
#573 = DIRECTION ( 'NONE',  ( -0.000000000000000000, -0.000000000000000000, 1.000000000000000000 ) ) ;
#574 = ORIENTED_EDGE ( 'NONE', *, *, #36, .F. ) ;
#575 = VERTEX_POINT ( 'NONE', #11 ) ;
#576 = DATE_AND_TIME ( #271, #219 ) ;
#577 = DIRECTION ( 'NONE',  ( -1.000000000000000000, 0.000000000000000000, 0.000000000000000000 ) ) ;
#578 = VECTOR ( 'NONE', #573, 1000.000000000000000 ) ;
#579 = APPROVAL_PERSON_ORGANIZATION ( #173, #89, #231 ) ;
#580 = ORIENTED_EDGE ( 'NONE', *, *, #36, .T. ) ;
#581 = PERSON_AND_ORGANIZATION_ROLE ( 'creator' ) ;
#582 = LINE ( 'NONE', #181, #578 ) ;
#583 = VERTEX_POINT ( 'NONE', #512 ) ;
#584 = ORIENTED_EDGE ( 'NONE', *, *, #289, .F. ) ;
#585 = MECHANICAL_CONTEXT ( 'NONE', #27, 'mechanical' ) ;
#586 = ADVANCED_FACE ( 'NONE', ( #160 ), #357, .F. ) ;
#587 = LINE ( 'NONE', #171, #240 ) ;
#588 = CARTESIAN_POINT ( 'NONE',  ( -8.500000000000001776, 2.299999999999999378, 0.000000000000000000 ) ) ;
#589 = EDGE_LOOP ( 'NONE', ( #35, #437, #494, #270, #172, #286, #527, #221 ) ) ;
#590 = CARTESIAN_POINT ( 'NONE',  ( 15.99999999999999645, 4.500000000000000000, 1.500000000000000000 ) ) ;
#591 = PLANE ( 'NONE',  #476 ) ;
#592 = VECTOR ( 'NONE', #257, 1000.000000000000000 ) ;
#593 = ORIENTED_EDGE ( 'NONE', *, *, #80, .F. ) ;
#594 = CIRCLE ( 'NONE', #644, 2.999999999999999112 ) ;
#595 = DIRECTION ( 'NONE',  ( 1.000000000000000000, -0.000000000000000000, 0.000000000000000000 ) ) ;
#596 = EDGE_CURVE ( 'NONE', #503, #485, #363, .T. ) ;
#597 = EDGE_LOOP ( 'NONE', ( #386, #249, #370, #638 ) ) ;
#598 = LINE ( 'NONE', #484, #510 ) ;
#599 = EDGE_CURVE ( 'NONE', #38, #583, #417, .T. ) ;
#600 = ORIENTED_EDGE ( 'NONE', *, *, #146, .F. ) ;
#601 = CARTESIAN_POINT ( 'NONE',  ( 9.299999999999998934, 3.100000000000000089, 11.50000000000000000 ) ) ;
#602 = VERTEX_POINT ( 'NONE', #302 ) ;
#603 = CARTESIAN_POINT ( 'NONE',  ( -8.500000000000001776, 2.299999999999999378, 0.000000000000000000 ) ) ;
#604 = VECTOR ( 'NONE', #414, 1000.000000000000000 ) ;
#605 = CC_DESIGN_APPROVAL ( #150, ( #283 ) ) ;
#606 = ORIENTED_EDGE ( 'NONE', *, *, #162, .T. ) ;
#607 = CARTESIAN_POINT ( 'NONE',  ( -9.300000000000002487, -3.100000000000000089, 1.500000000000000000 ) ) ;
#608 = ORIENTED_EDGE ( 'NONE', *, *, #4, .T. ) ;
#609 = PLANE ( 'NONE',  #116 ) ;
#610 = EDGE_CURVE ( 'NONE', #524, #474, #620, .T. ) ;
#611 = CARTESIAN_POINT ( 'NONE',  ( 0.000000000000000000, 2.299999999999999378, 11.50000000000000000 ) ) ;
#612 = DIRECTION ( 'NONE',  ( 0.000000000000000000, 0.000000000000000000, 1.000000000000000000 ) ) ;
#613 = AXIS2_PLACEMENT_3D ( 'NONE', #505, #220, #59 ) ;
#614 = LINE ( 'NONE', #416, #30 ) ;
#615 = LOCAL_TIME ( 11, 51, 1.000000000000000000, #224 ) ;
#616 = EDGE_CURVE ( 'NONE', #575, #175, #214, .T. ) ;
#617 = CIRCLE ( 'NONE', #200, 2.999999999999999112 ) ;
#618 = LINE ( 'NONE', #362, #159 ) ;
#619 = CC_DESIGN_PERSON_AND_ORGANIZATION_ASSIGNMENT ( #472, #226, ( #283 ) ) ;
#620 = LINE ( 'NONE', #2, #447 ) ;
#621 = DIRECTION ( 'NONE',  ( 0.000000000000000000, 0.000000000000000000, -1.000000000000000000 ) ) ;
#622 = CARTESIAN_POINT ( 'NONE',  ( -8.500000000000001776, 2.299999999999999378, 0.000000000000000000 ) ) ;
#623 = DIRECTION ( 'NONE',  ( 0.000000000000000000, 1.000000000000000000, 0.000000000000000000 ) ) ;
#624 = ORIENTED_EDGE ( 'NONE', *, *, #543, .F. ) ;
#625 = VERTEX_POINT ( 'NONE', #413 ) ;
#626 = APPROVAL_STATUS ( 'not_yet_approved' ) ;
#627 = LINE ( 'NONE', #558, #592 ) ;
#628 = ADVANCED_FACE ( 'NONE', ( #501 ), #504, .F. ) ;
#629 = VERTEX_POINT ( 'NONE', #117 ) ;
#630 = DIRECTION ( 'NONE',  ( 0.000000000000000000, 0.000000000000000000, -1.000000000000000000 ) ) ;
#631 = ORIENTED_EDGE ( 'NONE', *, *, #80, .T. ) ;
#632 = FACE_OUTER_BOUND ( 'NONE', #21, .T. ) ;
#633 = AXIS2_PLACEMENT_3D ( 'NONE', #352, #555, #460 ) ;
#634 = CALENDAR_DATE ( 2020, 30, 7 ) ;
#635 = CARTESIAN_POINT ( 'NONE',  ( -8.500000000000001776, 2.299999999999999378, 0.000000000000000000 ) ) ;
#636 = EDGE_LOOP ( 'NONE', ( #145, #521, #348, #574 ) ) ;
#637 = CC_DESIGN_DATE_AND_TIME_ASSIGNMENT ( #576, #276, ( #213 ) ) ;
#638 = ORIENTED_EDGE ( 'NONE', *, *, #204, .F. ) ;
#639 = CARTESIAN_POINT ( 'NONE',  ( -9.300000000000002487, -3.100000000000000089, 11.50000000000000000 ) ) ;
#640 = ORIENTED_EDGE ( 'NONE', *, *, #405, .F. ) ;
#641 = ORIENTED_EDGE ( 'NONE', *, *, #488, .F. ) ;
#642 = DIRECTION ( 'NONE',  ( -1.000000000000000000, 0.000000000000000000, -0.000000000000000000 ) ) ;
#643 = ORIENTED_EDGE ( 'NONE', *, *, #39, .F. ) ;
#644 = AXIS2_PLACEMENT_3D ( 'NONE', #441, #445, #541 ) ;
#645 = DIRECTION ( 'NONE',  ( -0.000000000000000000, -0.000000000000000000, 1.000000000000000000 ) ) ;
#646 = VECTOR ( 'NONE', #461, 1000.000000000000000 ) ;
#647 = ORIENTED_EDGE ( 'NONE', *, *, #405, .T. ) ;
#648 = PLANE ( 'NONE',  #96 ) ;
#649 = ORIENTED_EDGE ( 'NONE', *, *, #610, .F. ) ;
#650 = CARTESIAN_POINT ( 'NONE',  ( 0.000000000000000000, 0.000000000000000000, 11.50000000000000000 ) ) ;
#651 = CARTESIAN_POINT ( 'NONE',  ( 12.99999999999999822, -7.500000000000000888, 1.500000000000000000 ) ) ;
#652 = VECTOR ( 'NONE', #546, 1000.000000000000000 ) ;
#653 = EDGE_CURVE ( 'NONE', #625, #267, #55, .T. ) ;
#654 = DIRECTION ( 'NONE',  ( -1.000000000000000000, 0.000000000000000000, 0.000000000000000000 ) ) ;
#655 = FACE_OUTER_BOUND ( 'NONE', #18, .T. ) ;
ENDSEC;
END-ISO-10303-21;
