ISO-10303-21;
HEADER;
FILE_DESCRIPTION (( 'STEP AP203' ),
    '1' );
FILE_NAME ('锁扣底.STEP',
    '2020-07-30T03:47:54',
    ( '' ),
    ( '' ),
    'SwSTEP 2.0',
    'SolidWorks 2020',
    '' );
FILE_SCHEMA (( 'CONFIG_CONTROL_DESIGN' ));
ENDSEC;

DATA;
#1 = EDGE_CURVE ( 'NONE', #616, #246, #669, .T. ) ;
#2 = VECTOR ( 'NONE', #658, 1000.000000000000000 ) ;
#3 = DIRECTION ( 'NONE',  ( 0.000000000000000000, 0.000000000000000000, -1.000000000000000000 ) ) ;
#4 = VERTEX_POINT ( 'NONE', #598 ) ;
#5 = CARTESIAN_POINT ( 'NONE',  ( 0.000000000000000000, -4.599999999999999645, 0.000000000000000000 ) ) ;
#6 = DIRECTION ( 'NONE',  ( 0.000000000000000000, -1.000000000000000000, 0.000000000000000000 ) ) ;
#7 = DIRECTION ( 'NONE',  ( 1.000000000000000000, 0.000000000000000000, 0.000000000000000000 ) ) ;
#8 = LINE ( 'NONE', #646, #651 ) ;
#9 = CARTESIAN_POINT ( 'NONE',  ( 9.999999999999991118, 6.199999999999999289, 1.199999999999999956 ) ) ;
#10 = FACE_OUTER_BOUND ( 'NONE', #16, .T. ) ;
#11 = CIRCLE ( 'NONE', #70, 4.599999999999999645 ) ;
#12 = CARTESIAN_POINT ( 'NONE',  ( 0.9999999999999863443, 3.174484912464424194E-13, 0.000000000000000000 ) ) ;
#13 = DIRECTION ( 'NONE',  ( 0.000000000000000000, 0.000000000000000000, -1.000000000000000000 ) ) ;
#14 = LINE ( 'NONE', #211, #451 ) ;
#15 = FACE_BOUND ( 'NONE', #295, .T. ) ;
#16 = EDGE_LOOP ( 'NONE', ( #28, #477, #571, #323 ) ) ;
#17 = PLANE ( 'NONE',  #463 ) ;
#18 = LINE ( 'NONE', #119, #420 ) ;
#19 = FACE_BOUND ( 'NONE', #110, .T. ) ;
#20 = CARTESIAN_POINT ( 'NONE',  ( 9.999999999999994671, -18.59999999999999787, 1.199999999999999956 ) ) ;
#21 = LINE ( 'NONE', #179, #595 ) ;
#22 = VERTEX_POINT ( 'NONE', #12 ) ;
#23 = DIRECTION ( 'NONE',  ( 0.000000000000000000, -0.000000000000000000, 1.000000000000000000 ) ) ;
#24 = EDGE_CURVE ( 'NONE', #158, #65, #11, .T. ) ;
#25 = UNCERTAINTY_MEASURE_WITH_UNIT (LENGTH_MEASURE( 1.000000000000000082E-05 ), #32, 'distance_accuracy_value', 'NONE');
#26 = CARTESIAN_POINT ( 'NONE',  ( 0.000000000000000000, -4.599999999999999645, 1.199999999999999956 ) ) ;
#27 =( NAMED_UNIT ( * ) PLANE_ANGLE_UNIT ( ) SI_UNIT ( $, .RADIAN. ) );
#28 = ORIENTED_EDGE ( 'NONE', *, *, #49, .F. ) ;
#29 = EDGE_CURVE ( 'NONE', #556, #286, #226, .T. ) ;
#30 = VECTOR ( 'NONE', #542, 1000.000000000000000 ) ;
#31 = DIRECTION ( 'NONE',  ( 1.000000000000000000, 2.797941090285173083E-16, -0.000000000000000000 ) ) ;
#32 =( LENGTH_UNIT ( ) NAMED_UNIT ( * ) SI_UNIT ( .MILLI., .METRE. ) );
#33 = ORIENTED_EDGE ( 'NONE', *, *, #630, .F. ) ;
#34 = COORDINATED_UNIVERSAL_TIME_OFFSET ( 8, 0, .AHEAD. ) ;
#35 = CARTESIAN_POINT ( 'NONE',  ( 42.99999999999995026, 1.766925408957329781E-14, 1.199999999999999956 ) ) ;
#36 = DIRECTION ( 'NONE',  ( -0.000000000000000000, -0.000000000000000000, -1.000000000000000000 ) ) ;
#37 = ORIENTED_EDGE ( 'NONE', *, *, #325, .F. ) ;
#38 = EDGE_CURVE ( 'NONE', #381, #355, #18, .T. ) ;
#39 = COORDINATED_UNIVERSAL_TIME_OFFSET ( 8, 0, .AHEAD. ) ;
#40 = EDGE_CURVE ( 'NONE', #472, #496, #324, .T. ) ;
#41 = ORIENTED_EDGE ( 'NONE', *, *, #248, .F. ) ;
#42 = PERSON_AND_ORGANIZATION_ROLE ( 'creator' ) ;
#43 = VECTOR ( 'NONE', #447, 1000.000000000000000 ) ;
#44 = CIRCLE ( 'NONE', #242, 4.599999999999999645 ) ;
#45 = ORIENTED_EDGE ( 'NONE', *, *, #217, .F. ) ;
#46 = EDGE_LOOP ( 'NONE', ( #562, #180, #41, #258 ) ) ;
#47 = ADVANCED_FACE ( 'NONE', ( #545 ), #330, .F. ) ;
#48 = VERTEX_POINT ( 'NONE', #234 ) ;
#49 = EDGE_CURVE ( 'NONE', #124, #308, #444, .T. ) ;
#50 = AXIS2_PLACEMENT_3D ( 'NONE', #173, #263, #159 ) ;
#51 = AXIS2_PLACEMENT_3D ( 'NONE', #230, #3, #372 ) ;
#52 = ORIENTED_EDGE ( 'NONE', *, *, #687, .F. ) ;
#53 = ORIENTED_EDGE ( 'NONE', *, *, #1, .F. ) ;
#54 = ADVANCED_FACE ( 'NONE', ( #72 ), #17, .T. ) ;
#55 = ADVANCED_FACE ( 'NONE', ( #239 ), #557, .F. ) ;
#56 = DIRECTION ( 'NONE',  ( -0.000000000000000000, 0.000000000000000000, 1.000000000000000000 ) ) ;
#57 = VERTEX_POINT ( 'NONE', #395 ) ;
#58 = LINE ( 'NONE', #645, #507 ) ;
#59 = CIRCLE ( 'NONE', #649, 1.000000000000000222 ) ;
#60 = CYLINDRICAL_SURFACE ( 'NONE', #594, 4.599999999999999645 ) ;
#61 = DIRECTION ( 'NONE',  ( -0.000000000000000000, -0.000000000000000000, -1.000000000000000000 ) ) ;
#62 = FACE_OUTER_BOUND ( 'NONE', #282, .T. ) ;
#63 = LINE ( 'NONE', #266, #198 ) ;
#64 = DIRECTION ( 'NONE',  ( 0.000000000000000000, -0.000000000000000000, -1.000000000000000000 ) ) ;
#65 = VERTEX_POINT ( 'NONE', #443 ) ;
#66 = DIRECTION ( 'NONE',  ( -0.000000000000000000, -0.000000000000000000, -1.000000000000000000 ) ) ;
#67 = PERSON_AND_ORGANIZATION ( #653, #392 ) ;
#68 = CARTESIAN_POINT ( 'NONE',  ( 0.000000000000000000, -4.599999999999999645, 1.199999999999999956 ) ) ;
#69 = CARTESIAN_POINT ( 'NONE',  ( 42.99999999999999289, 0.000000000000000000, 1.199999999999999956 ) ) ;
#70 = AXIS2_PLACEMENT_3D ( 'NONE', #176, #383, #73 ) ;
#71 = ORIENTED_EDGE ( 'NONE', *, *, #208, .T. ) ;
#72 = FACE_OUTER_BOUND ( 'NONE', #251, .T. ) ;
#73 = DIRECTION ( 'NONE',  ( 1.000000000000000000, 0.000000000000000000, 0.000000000000000000 ) ) ;
#74 = PLANE ( 'NONE',  #490 ) ;
#75 = LINE ( 'NONE', #285, #346 ) ;
#76 = CYLINDRICAL_SURFACE ( 'NONE', #257, 1.000000000000000222 ) ;
#77 = ORIENTED_EDGE ( 'NONE', *, *, #155, .F. ) ;
#78 = CARTESIAN_POINT ( 'NONE',  ( 0.000000000000000000, -4.599999999999999645, 1.199999999999999956 ) ) ;
#79 = FACE_OUTER_BOUND ( 'NONE', #566, .T. ) ;
#80 = CARTESIAN_POINT ( 'NONE',  ( 9.999999999999991118, 4.599999999999999645, 1.199999999999999956 ) ) ;
#81 = ORIENTED_EDGE ( 'NONE', *, *, #99, .F. ) ;
#82 = PLANE ( 'NONE',  #519 ) ;
#83 = DIRECTION ( 'NONE',  ( -0.000000000000000000, 0.000000000000000000, 1.000000000000000000 ) ) ;
#84 = ORIENTED_EDGE ( 'NONE', *, *, #91, .F. ) ;
#85 = CLOSED_SHELL ( 'NONE', ( #47, #681, #408, #55, #54, #541, #587, #529, #128, #474, #118, #232, #485, #579, #468, #243, #548, #473, #673 ) ) ;
#86 = CC_DESIGN_SECURITY_CLASSIFICATION ( #479, ( #294 ) ) ;
#87 = CYLINDRICAL_SURFACE ( 'NONE', #509, 1.000000000000000888 ) ;
#88 = DIRECTION ( 'NONE',  ( 1.000000000000000000, 0.000000000000000000, 0.000000000000000000 ) ) ;
#89 = EDGE_LOOP ( 'NONE', ( #53, #200, #449, #259 ) ) ;
#90 = DATE_AND_TIME ( #199, #280 ) ;
#91 = EDGE_CURVE ( 'NONE', #650, #308, #283, .T. ) ;
#92 = ORIENTED_EDGE ( 'NONE', *, *, #572, .F. ) ;
#93 = ORIENTED_EDGE ( 'NONE', *, *, #352, .T. ) ;
#94 = CIRCLE ( 'NONE', #150, 4.599999999999999645 ) ;
#95 = CIRCLE ( 'NONE', #51, 1.000000000000000888 ) ;
#96 = ORIENTED_EDGE ( 'NONE', *, *, #304, .F. ) ;
#97 = CC_DESIGN_PERSON_AND_ORGANIZATION_ASSIGNMENT ( #486, #42, ( #294 ) ) ;
#98 = ORIENTED_EDGE ( 'NONE', *, *, #29, .T. ) ;
#99 = EDGE_CURVE ( 'NONE', #308, #286, #329, .T. ) ;
#100 = ORIENTED_EDGE ( 'NONE', *, *, #155, .T. ) ;
#101 = VECTOR ( 'NONE', #504, 1000.000000000000000 ) ;
#102 = CIRCLE ( 'NONE', #157, 1.000000000000000888 ) ;
#103 = EDGE_CURVE ( 'NONE', #355, #663, #387, .T. ) ;
#104 = ORIENTED_EDGE ( 'NONE', *, *, #354, .T. ) ;
#105 = EDGE_CURVE ( 'NONE', #688, #57, #189, .T. ) ;
#106 = FACE_OUTER_BOUND ( 'NONE', #361, .T. ) ;
#107 = ORIENTED_EDGE ( 'NONE', *, *, #644, .F. ) ;
#108 = DIRECTION ( 'NONE',  ( 1.000000000000000000, 0.000000000000000000, 0.000000000000000000 ) ) ;
#109 = DIRECTION ( 'NONE',  ( 1.000000000000000000, 2.797941090285173083E-16, -0.000000000000000000 ) ) ;
#110 = EDGE_LOOP ( 'NONE', ( #623, #569 ) ) ;
#111 = CARTESIAN_POINT ( 'NONE',  ( 32.99999999999998579, 6.199999999999999289, 1.199999999999999956 ) ) ;
#112 = VECTOR ( 'NONE', #665, 1000.000000000000000 ) ;
#113 = VECTOR ( 'NONE', #555, 1000.000000000000000 ) ;
#114 = CARTESIAN_POINT ( 'NONE',  ( 0.000000000000000000, 4.599999999999999645, 1.199999999999999956 ) ) ;
#115 = DIRECTION ( 'NONE',  ( 1.000000000000000000, 0.000000000000000000, 0.000000000000000000 ) ) ;
#116 = PLANE ( 'NONE',  #686 ) ;
#117 = VERTEX_POINT ( 'NONE', #445 ) ;
#118 = ADVANCED_FACE ( 'NONE', ( #235, #19, #599 ), #74, .F. ) ;
#119 = CARTESIAN_POINT ( 'NONE',  ( 9.999999999999991118, 6.199999999999999289, 1.199999999999999956 ) ) ;
#120 = DIRECTION ( 'NONE',  ( -1.000000000000000000, 0.000000000000000000, 0.000000000000000000 ) ) ;
#121 = PERSON_AND_ORGANIZATION ( #653, #392 ) ;
#122 = CARTESIAN_POINT ( 'NONE',  ( 0.000000000000000000, 4.599999999999999645, 0.000000000000000000 ) ) ;
#123 = PLANE ( 'NONE',  #582 ) ;
#124 = VERTEX_POINT ( 'NONE', #177 ) ;
#125 = DIRECTION ( 'NONE',  ( 1.398970545142586541E-16, -1.000000000000000000, 0.000000000000000000 ) ) ;
#126 = PERSON_AND_ORGANIZATION ( #653, #392 ) ;
#127 = CARTESIAN_POINT ( 'NONE',  ( -4.599999999999999645, 0.000000000000000000, 1.199999999999999956 ) ) ;
#128 = ADVANCED_FACE ( 'NONE', ( #546 ), #228, .T. ) ;
#129 = DIRECTION ( 'NONE',  ( -1.000000000000000000, 0.000000000000000000, 0.000000000000000000 ) ) ;
#130 = ORIENTED_EDGE ( 'NONE', *, *, #499, .T. ) ;
#131 = CARTESIAN_POINT ( 'NONE',  ( 0.000000000000000000, 4.599999999999999645, 1.199999999999999956 ) ) ;
#132 = CARTESIAN_POINT ( 'NONE',  ( 0.000000000000000000, -4.599999999999999645, 0.000000000000000000 ) ) ;
#133 = CARTESIAN_POINT ( 'NONE',  ( 32.99999999999998579, 6.199999999999999289, 0.000000000000000000 ) ) ;
#134 = EDGE_LOOP ( 'NONE', ( #359, #140, #335, #683 ) ) ;
#135 = LINE ( 'NONE', #196, #221 ) ;
#136 = LINE ( 'NONE', #133, #307 ) ;
#137 = ORIENTED_EDGE ( 'NONE', *, *, #278, .F. ) ;
#138 = LINE ( 'NONE', #26, #639 ) ;
#139 = CARTESIAN_POINT ( 'NONE',  ( 9.999999999999991118, 6.199999999999999289, 0.000000000000000000 ) ) ;
#140 = ORIENTED_EDGE ( 'NONE', *, *, #182, .T. ) ;
#141 = VECTOR ( 'NONE', #184, 1000.000000000000000 ) ;
#142 = CIRCLE ( 'NONE', #416, 1.000000000000000888 ) ;
#143 = APPLICATION_PROTOCOL_DEFINITION ( 'international standard', 'config_control_design', 1994, #631 ) ;
#144 = DIRECTION ( 'NONE',  ( -1.000000000000000000, 0.000000000000000000, 0.000000000000000000 ) ) ;
#145 = ORIENTED_EDGE ( 'NONE', *, *, #460, .F. ) ;
#146 = DIRECTION ( 'NONE',  ( 0.000000000000000000, 0.000000000000000000, 1.000000000000000000 ) ) ;
#147 = ORIENTED_EDGE ( 'NONE', *, *, #417, .F. ) ;
#148 = DATE_TIME_ROLE ( 'classification_date' ) ;
#149 = ORIENTED_EDGE ( 'NONE', *, *, #644, .T. ) ;
#150 = AXIS2_PLACEMENT_3D ( 'NONE', #609, #333, #178 ) ;
#151 = EDGE_CURVE ( 'NONE', #611, #381, #183, .T. ) ;
#152 = ORIENTED_EDGE ( 'NONE', *, *, #446, .F. ) ;
#153 = ORIENTED_EDGE ( 'NONE', *, *, #607, .F. ) ;
#154 = EDGE_CURVE ( 'NONE', #246, #616, #593, .T. ) ;
#155 = EDGE_CURVE ( 'NONE', #22, #241, #59, .T. ) ;
#156 = VECTOR ( 'NONE', #677, 1000.000000000000000 ) ;
#157 = AXIS2_PLACEMENT_3D ( 'NONE', #169, #376, #380 ) ;
#158 = VERTEX_POINT ( 'NONE', #127 ) ;
#159 = DIRECTION ( 'NONE',  ( 1.000000000000000000, 0.000000000000000000, 0.000000000000000000 ) ) ;
#160 = FACE_OUTER_BOUND ( 'NONE', #300, .T. ) ;
#161 = ORIENTED_EDGE ( 'NONE', *, *, #365, .T. ) ;
#162 = LINE ( 'NONE', #371, #205 ) ;
#163 = CC_DESIGN_PERSON_AND_ORGANIZATION_ASSIGNMENT ( #411, #172, ( #479 ) ) ;
#164 = DIRECTION ( 'NONE',  ( 1.398970545142586541E-16, -1.000000000000000000, 0.000000000000000000 ) ) ;
#165 = VECTOR ( 'NONE', #61, 1000.000000000000000 ) ;
#166 = EDGE_CURVE ( 'NONE', #48, #663, #14, .T. ) ;
#167 = DIRECTION ( 'NONE',  ( 1.398970545142586541E-16, -1.000000000000000000, 0.000000000000000000 ) ) ;
#168 = AXIS2_PLACEMENT_3D ( 'NONE', #603, #662, #369 ) ;
#169 = CARTESIAN_POINT ( 'NONE',  ( 42.99999999999995026, 1.766925408957329781E-14, 1.199999999999999956 ) ) ;
#170 = EDGE_LOOP ( 'NONE', ( #672, #544, #461, #684, #104, #559, #33, #467, #328, #349, #535, #93, #254 ) ) ;
#171 = DIRECTION ( 'NONE',  ( -0.000000000000000000, -0.000000000000000000, -1.000000000000000000 ) ) ;
#172 = PERSON_AND_ORGANIZATION_ROLE ( 'classification_officer' ) ;
#173 = CARTESIAN_POINT ( 'NONE',  ( 42.99999999999995026, 1.766925408957329781E-14, 0.000000000000000000 ) ) ;
#174 = DIRECTION ( 'NONE',  ( -0.000000000000000000, -0.000000000000000000, -1.000000000000000000 ) ) ;
#175 = EDGE_LOOP ( 'NONE', ( #442, #637, #353, #153 ) ) ;
#176 = CARTESIAN_POINT ( 'NONE',  ( 0.000000000000000000, 0.000000000000000000, 1.199999999999999956 ) ) ;
#177 = CARTESIAN_POINT ( 'NONE',  ( 32.99999999999998579, 4.599999999999999645, 1.199999999999999956 ) ) ;
#178 = DIRECTION ( 'NONE',  ( 1.000000000000000000, 0.000000000000000000, 0.000000000000000000 ) ) ;
#179 = CARTESIAN_POINT ( 'NONE',  ( 0.000000000000000000, 4.599999999999999645, 1.199999999999999956 ) ) ;
#180 = ORIENTED_EDGE ( 'NONE', *, *, #105, .T. ) ;
#181 = DIRECTION ( 'NONE',  ( -1.000000000000000000, -0.000000000000000000, -0.000000000000000000 ) ) ;
#182 = EDGE_CURVE ( 'NONE', #526, #517, #75, .T. ) ;
#183 = LINE ( 'NONE', #388, #625 ) ;
#184 = DIRECTION ( 'NONE',  ( -0.000000000000000000, -0.000000000000000000, -1.000000000000000000 ) ) ;
#185 = DIRECTION ( 'NONE',  ( -1.398970545142586541E-16, 1.000000000000000000, -0.000000000000000000 ) ) ;
#186 = AXIS2_PLACEMENT_3D ( 'NONE', #455, #341, #144 ) ;
#187 = ORIENTED_EDGE ( 'NONE', *, *, #553, .T. ) ;
#188 = AXIS2_PLACEMENT_3D ( 'NONE', #429, #592, #281 ) ;
#189 = LINE ( 'NONE', #382, #112 ) ;
#190 = LINE ( 'NONE', #249, #141 ) ;
#191 = DIRECTION ( 'NONE',  ( 2.797941090285173083E-16, -1.000000000000000000, 0.000000000000000000 ) ) ;
#192 = ORIENTED_EDGE ( 'NONE', *, *, #227, .T. ) ;
#193 = LINE ( 'NONE', #400, #209 ) ;
#194 = ORIENTED_EDGE ( 'NONE', *, *, #460, .T. ) ;
#195 = APPROVAL_ROLE ( '' ) ;
#196 = CARTESIAN_POINT ( 'NONE',  ( 32.99999999999998579, 6.199999999999999289, 1.199999999999999956 ) ) ;
#197 = VERTEX_POINT ( 'NONE', #501 ) ;
#198 = VECTOR ( 'NONE', #7, 1000.000000000000000 ) ;
#199 = CALENDAR_DATE ( 2020, 30, 7 ) ;
#200 = ORIENTED_EDGE ( 'NONE', *, *, #343, .T. ) ;
#201 = SECURITY_CLASSIFICATION_LEVEL ( 'unclassified' ) ;
#202 = ORIENTED_EDGE ( 'NONE', *, *, #601, .F. ) ;
#203 = ORIENTED_EDGE ( 'NONE', *, *, #524, .T. ) ;
#204 = AXIS2_PLACEMENT_3D ( 'NONE', #78, #233, #497 ) ;
#205 = VECTOR ( 'NONE', #591, 1000.000000000000000 ) ;
#206 = AXIS2_PLACEMENT_3D ( 'NONE', #462, #146, #512 ) ;
#207 = ORIENTED_EDGE ( 'NONE', *, *, #208, .F. ) ;
#208 = EDGE_CURVE ( 'NONE', #399, #412, #94, .T. ) ;
#209 = VECTOR ( 'NONE', #298, 1000.000000000000000 ) ;
#210 = VECTOR ( 'NONE', #615, 1000.000000000000000 ) ;
#211 = CARTESIAN_POINT ( 'NONE',  ( 32.99999999999999289, -18.59999999999999787, -33.82366035780278679 ) ) ;
#212 = FACE_OUTER_BOUND ( 'NONE', #523, .T. ) ;
#213 = ORIENTED_EDGE ( 'NONE', *, *, #217, .T. ) ;
#214 = CC_DESIGN_PERSON_AND_ORGANIZATION_ASSIGNMENT ( #458, #573, ( #340 ) ) ;
#215 = DIRECTION ( 'NONE',  ( -1.000000000000000000, -1.398970545142586541E-16, 0.000000000000000000 ) ) ;
#216 = DIRECTION ( 'NONE',  ( -1.000000000000000000, 0.000000000000000000, 0.000000000000000000 ) ) ;
#217 = EDGE_CURVE ( 'NONE', #4, #117, #63, .T. ) ;
#218 = DIRECTION ( 'NONE',  ( 1.398970545142586541E-16, -1.000000000000000000, 0.000000000000000000 ) ) ;
#219 = FACE_OUTER_BOUND ( 'NONE', #676, .T. ) ;
#220 = PERSON_AND_ORGANIZATION_ROLE ( 'design_supplier' ) ;
#221 = VECTOR ( 'NONE', #508, 1000.000000000000000 ) ;
#222 = DIRECTION ( 'NONE',  ( 1.000000000000000000, 0.000000000000000000, 0.000000000000000000 ) ) ;
#223 = CC_DESIGN_APPROVAL ( #390, ( #340 ) ) ;
#224 = PLANE ( 'NONE',  #422 ) ;
#225 = ORIENTED_EDGE ( 'NONE', *, *, #657, .T. ) ;
#226 = LINE ( 'NONE', #606, #2 ) ;
#227 = EDGE_CURVE ( 'NONE', #241, #22, #277, .T. ) ;
#228 = CYLINDRICAL_SURFACE ( 'NONE', #389, 4.599999999999999645 ) ;
#229 = FACE_OUTER_BOUND ( 'NONE', #255, .T. ) ;
#230 = CARTESIAN_POINT ( 'NONE',  ( 42.99999999999995026, 1.766925408957329781E-14, 1.199999999999999956 ) ) ;
#231 = ORIENTED_EDGE ( 'NONE', *, *, #166, .F. ) ;
#232 = ADVANCED_FACE ( 'NONE', ( #229 ), #326, .T. ) ;
#233 = DIRECTION ( 'NONE',  ( 0.000000000000000000, 1.000000000000000000, 0.000000000000000000 ) ) ;
#234 = CARTESIAN_POINT ( 'NONE',  ( 32.99999999999999289, -18.59999999999999787, 0.000000000000000000 ) ) ;
#235 = FACE_BOUND ( 'NONE', #628, .T. ) ;
#236 = LINE ( 'NONE', #452, #332 ) ;
#237 = LINE ( 'NONE', #667, #640 ) ;
#238 = ORIENTED_EDGE ( 'NONE', *, *, #265, .F. ) ;
#239 = FACE_OUTER_BOUND ( 'NONE', #134, .T. ) ;
#240 = DIRECTION ( 'NONE',  ( 1.000000000000000000, 0.000000000000000000, 0.000000000000000000 ) ) ;
#241 = VERTEX_POINT ( 'NONE', #661 ) ;
#242 = AXIS2_PLACEMENT_3D ( 'NONE', #531, #56, #260 ) ;
#243 = ADVANCED_FACE ( 'NONE', ( #384 ), #655, .T. ) ;
#244 = DIRECTION ( 'NONE',  ( -2.797941090285173083E-16, 1.000000000000000000, 0.000000000000000000 ) ) ;
#245 = LINE ( 'NONE', #347, #113 ) ;
#246 = VERTEX_POINT ( 'NONE', #554 ) ;
#247 = APPROVAL_STATUS ( 'not_yet_approved' ) ;
#248 = EDGE_CURVE ( 'NONE', #496, #57, #679, .T. ) ;
#249 = CARTESIAN_POINT ( 'NONE',  ( 42.99999999999999289, -4.599999999999999645, 1.199999999999999956 ) ) ;
#250 = ORIENTED_EDGE ( 'NONE', *, *, #553, .F. ) ;
#251 = EDGE_LOOP ( 'NONE', ( #137, #436, #310, #45 ) ) ;
#252 = VECTOR ( 'NONE', #345, 1000.000000000000000 ) ;
#253 = DATE_AND_TIME ( #409, #296 ) ;
#254 = ORIENTED_EDGE ( 'NONE', *, *, #24, .T. ) ;
#255 = EDGE_LOOP ( 'NONE', ( #250, #98, #81, #84 ) ) ;
#256 = AXIS2_PLACEMENT_3D ( 'NONE', #494, #487, #222 ) ;
#257 = AXIS2_PLACEMENT_3D ( 'NONE', #453, #299, #610 ) ;
#258 = ORIENTED_EDGE ( 'NONE', *, *, #40, .F. ) ;
#259 = ORIENTED_EDGE ( 'NONE', *, *, #362, .F. ) ;
#260 = DIRECTION ( 'NONE',  ( 1.000000000000000000, 0.000000000000000000, 0.000000000000000000 ) ) ;
#261 = APPROVAL ( #629, '未指定' ) ;
#262 = LOCAL_TIME ( 11, 47, 54.00000000000000000, #654 ) ;
#263 = DIRECTION ( 'NONE',  ( -0.000000000000000000, 0.000000000000000000, 1.000000000000000000 ) ) ;
#264 = DIRECTION ( 'NONE',  ( -1.000000000000000000, 0.000000000000000000, 0.000000000000000000 ) ) ;
#265 = EDGE_CURVE ( 'NONE', #517, #414, #434, .T. ) ;
#266 = CARTESIAN_POINT ( 'NONE',  ( -0.000000000000000000, 4.599999999999999645, 0.000000000000000000 ) ) ;
#267 = DIRECTION ( 'NONE',  ( 1.000000000000000000, -0.000000000000000000, 0.000000000000000000 ) ) ;
#268 = ADVANCED_BREP_SHAPE_REPRESENTATION ( '锁扣底', ( #475, #206 ), #528 ) ;
#269 = APPROVAL_ROLE ( '' ) ;
#270 = CARTESIAN_POINT ( 'NONE',  ( 0.9999999999999863443, 3.174484912464424194E-13, 1.199999999999999956 ) ) ;
#271 = EDGE_CURVE ( 'NONE', #414, #117, #685, .T. ) ;
#272 = DIRECTION ( 'NONE',  ( 0.000000000000000000, 1.000000000000000000, 0.000000000000000000 ) ) ;
#273 = ORIENTED_EDGE ( 'NONE', *, *, #590, .F. ) ;
#274 = DIRECTION ( 'NONE',  ( 0.000000000000000000, 0.000000000000000000, -1.000000000000000000 ) ) ;
#275 = DIRECTION ( 'NONE',  ( 0.000000000000000000, 0.000000000000000000, 1.000000000000000000 ) ) ;
#276 = APPROVAL_ROLE ( '' ) ;
#277 = CIRCLE ( 'NONE', #478, 1.000000000000000222 ) ;
#278 = EDGE_CURVE ( 'NONE', #124, #4, #426, .T. ) ;
#279 = CARTESIAN_POINT ( 'NONE',  ( 42.99999999999999289, 0.000000000000000000, 0.000000000000000000 ) ) ;
#280 = LOCAL_TIME ( 11, 47, 54.00000000000000000, #34 ) ;
#281 = DIRECTION ( 'NONE',  ( 1.000000000000000000, 0.000000000000000000, 0.000000000000000000 ) ) ;
#282 = EDGE_LOOP ( 'NONE', ( #532, #680, #576, #367 ) ) ;
#283 = LINE ( 'NONE', #287, #405 ) ;
#284 = DIRECTION ( 'NONE',  ( -0.000000000000000000, -0.000000000000000000, -1.000000000000000000 ) ) ;
#285 = CARTESIAN_POINT ( 'NONE',  ( 32.99999999999998579, -4.599999999999999645, 1.199999999999999956 ) ) ;
#286 = VERTEX_POINT ( 'NONE', #9 ) ;
#287 = CARTESIAN_POINT ( 'NONE',  ( 32.99999999999998579, 6.199999999999999289, -33.82366035780278679 ) ) ;
#288 = CARTESIAN_POINT ( 'NONE',  ( 42.99999999999999289, -4.599999999999999645, 0.000000000000000000 ) ) ;
#289 = CARTESIAN_POINT ( 'NONE',  ( 32.99999999999999289, -18.59999999999999787, 1.199999999999999956 ) ) ;
#290 = VERTEX_POINT ( 'NONE', #533 ) ;
#291 = APPROVAL ( #247, '未指定' ) ;
#292 = CARTESIAN_POINT ( 'NONE',  ( 32.99999999999998579, 6.199999999999999289, -33.82366035780278679 ) ) ;
#293 = AXIS2_PLACEMENT_3D ( 'NONE', #492, #13, #309 ) ;
#294 = PRODUCT_DEFINITION_FORMATION_WITH_SPECIFIED_SOURCE ( '任何', '', #570, .NOT_KNOWN. ) ;
#295 = EDGE_LOOP ( 'NONE', ( #511, #457 ) ) ;
#296 = LOCAL_TIME ( 11, 47, 54.00000000000000000, #608 ) ;
#297 = EDGE_CURVE ( 'NONE', #286, #583, #58, .T. ) ;
#298 = DIRECTION ( 'NONE',  ( 0.000000000000000000, 0.000000000000000000, 1.000000000000000000 ) ) ;
#299 = DIRECTION ( 'NONE',  ( -0.000000000000000000, -0.000000000000000000, -1.000000000000000000 ) ) ;
#300 = EDGE_LOOP ( 'NONE', ( #407, #357, #370, #386 ) ) ;
#301 = DATE_AND_TIME ( #660, #364 ) ;
#302 = ORIENTED_EDGE ( 'NONE', *, *, #271, .F. ) ;
#303 = APPROVAL_STATUS ( 'not_yet_approved' ) ;
#304 = EDGE_CURVE ( 'NONE', #158, #399, #162, .T. ) ;
#305 = ORIENTED_EDGE ( 'NONE', *, *, #24, .F. ) ;
#306 = VECTOR ( 'NONE', #181, 1000.000000000000000 ) ;
#307 = VECTOR ( 'NONE', #191, 1000.000000000000000 ) ;
#308 = VERTEX_POINT ( 'NONE', #111 ) ;
#309 = DIRECTION ( 'NONE',  ( -1.000000000000000000, 0.000000000000000000, 0.000000000000000000 ) ) ;
#310 = ORIENTED_EDGE ( 'NONE', *, *, #396, .T. ) ;
#311 = CC_DESIGN_APPROVAL ( #291, ( #479 ) ) ;
#312 = ORIENTED_EDGE ( 'NONE', *, *, #362, .T. ) ;
#313 = CARTESIAN_POINT ( 'NONE',  ( 9.999999999999994671, -18.59999999999999787, 0.000000000000000000 ) ) ;
#314 = EDGE_LOOP ( 'NONE', ( #585, #147, #231, #37 ) ) ;
#315 = DIRECTION ( 'NONE',  ( -0.000000000000000000, 0.000000000000000000, 1.000000000000000000 ) ) ;
#316 = LINE ( 'NONE', #114, #575 ) ;
#317 = ORIENTED_EDGE ( 'NONE', *, *, #271, .T. ) ;
#318 = AXIS2_PLACEMENT_3D ( 'NONE', #514, #36, #129 ) ;
#319 = LINE ( 'NONE', #539, #415 ) ;
#320 = PLANE ( 'NONE',  #168 ) ;
#321 = CARTESIAN_POINT ( 'NONE',  ( 9.999999999999991118, 6.199999999999999289, -33.82366035780278679 ) ) ;
#322 = CARTESIAN_POINT ( 'NONE',  ( 0.000000000000000000, 4.599999999999999645, 1.199999999999999956 ) ) ;
#323 = ORIENTED_EDGE ( 'NONE', *, *, #91, .T. ) ;
#324 = LINE ( 'NONE', #652, #471 ) ;
#325 = EDGE_CURVE ( 'NONE', #517, #48, #319, .T. ) ;
#326 = PLANE ( 'NONE',  #635 ) ;
#327 = DIRECTION ( 'NONE',  ( 1.000000000000000000, 0.000000000000000000, 0.000000000000000000 ) ) ;
#328 = ORIENTED_EDGE ( 'NONE', *, *, #99, .T. ) ;
#329 = LINE ( 'NONE', #605, #306 ) ;
#330 = CYLINDRICAL_SURFACE ( 'NONE', #358, 1.000000000000000222 ) ;
#331 = CARTESIAN_POINT ( 'NONE',  ( 0.000000000000000000, 0.000000000000000000, 0.000000000000000000 ) ) ;
#332 = VECTOR ( 'NONE', #560, 1000.000000000000000 ) ;
#333 = DIRECTION ( 'NONE',  ( -0.000000000000000000, 0.000000000000000000, 1.000000000000000000 ) ) ;
#334 = DIRECTION ( 'NONE',  ( 0.000000000000000000, 0.000000000000000000, 1.000000000000000000 ) ) ;
#335 = ORIENTED_EDGE ( 'NONE', *, *, #265, .T. ) ;
#336 = DIRECTION ( 'NONE',  ( 0.000000000000000000, 1.000000000000000000, 0.000000000000000000 ) ) ;
#337 = LINE ( 'NONE', #404, #252 ) ;
#338 = FACE_OUTER_BOUND ( 'NONE', #46, .T. ) ;
#339 = ORIENTED_EDGE ( 'NONE', *, *, #325, .T. ) ;
#340 = PRODUCT_DEFINITION ( '未知', '', #294, #450 ) ;
#341 = DIRECTION ( 'NONE',  ( -0.000000000000000000, -0.000000000000000000, -1.000000000000000000 ) ) ;
#342 = CARTESIAN_POINT ( 'NONE',  ( 42.99999999999999289, 0.000000000000000000, 1.199999999999999956 ) ) ;
#343 = EDGE_CURVE ( 'NONE', #616, #22, #602, .T. ) ;
#344 = VERTEX_POINT ( 'NONE', #122 ) ;
#345 = DIRECTION ( 'NONE',  ( 1.000000000000000000, 0.000000000000000000, 0.000000000000000000 ) ) ;
#346 = VECTOR ( 'NONE', #647, 1000.000000000000000 ) ;
#347 = CARTESIAN_POINT ( 'NONE',  ( 9.999999999999994671, -18.59999999999999787, 0.000000000000000000 ) ) ;
#348 = AXIS2_PLACEMENT_3D ( 'NONE', #495, #476, #164 ) ;
#349 = ORIENTED_EDGE ( 'NONE', *, *, #297, .T. ) ;
#350 = MECHANICAL_CONTEXT ( 'NONE', #631, 'mechanical' ) ;
#351 = CARTESIAN_POINT ( 'NONE',  ( 0.000000000000000000, 4.599999999999999645, 1.199999999999999956 ) ) ;
#352 = EDGE_CURVE ( 'NONE', #410, #158, #563, .T. ) ;
#353 = ORIENTED_EDGE ( 'NONE', *, *, #40, .T. ) ;
#354 = EDGE_CURVE ( 'NONE', #526, #197, #547, .T. ) ;
#355 = VERTEX_POINT ( 'NONE', #20 ) ;
#356 = COORDINATED_UNIVERSAL_TIME_OFFSET ( 8, 0, .AHEAD. ) ;
#357 = ORIENTED_EDGE ( 'NONE', *, *, #601, .T. ) ;
#358 = AXIS2_PLACEMENT_3D ( 'NONE', #551, #284, #498 ) ;
#359 = ORIENTED_EDGE ( 'NONE', *, *, #354, .F. ) ;
#360 = PRODUCT_RELATED_PRODUCT_CATEGORY ( 'detail', '', ( #570 ) ) ;
#361 = EDGE_LOOP ( 'NONE', ( #107, #632, #678, #641 ) ) ;
#362 = EDGE_CURVE ( 'NONE', #246, #241, #674, .T. ) ;
#363 = VECTOR ( 'NONE', #379, 1000.000000000000000 ) ;
#364 = LOCAL_TIME ( 11, 47, 54.00000000000000000, #356 ) ;
#365 = EDGE_CURVE ( 'NONE', #197, #414, #190, .T. ) ;
#366 = DIRECTION ( 'NONE',  ( -0.000000000000000000, -0.000000000000000000, -1.000000000000000000 ) ) ;
#367 = ORIENTED_EDGE ( 'NONE', *, *, #446, .T. ) ;
#368 = DIRECTION ( 'NONE',  ( 0.000000000000000000, 1.000000000000000000, 0.000000000000000000 ) ) ;
#369 = DIRECTION ( 'NONE',  ( 0.000000000000000000, -0.000000000000000000, 1.000000000000000000 ) ) ;
#370 = ORIENTED_EDGE ( 'NONE', *, *, #297, .F. ) ;
#371 = CARTESIAN_POINT ( 'NONE',  ( -4.599999999999999645, 0.000000000000000000, 1.199999999999999956 ) ) ;
#372 = DIRECTION ( 'NONE',  ( -1.000000000000000000, 0.000000000000000000, 0.000000000000000000 ) ) ;
#373 = AXIS2_PLACEMENT_3D ( 'NONE', #489, #274, #437 ) ;
#374 = APPROVAL_PERSON_ORGANIZATION ( #67, #261, #269 ) ;
#375 = CARTESIAN_POINT ( 'NONE',  ( 32.99999999999998579, 4.599999999999999645, 1.199999999999999956 ) ) ;
#376 = DIRECTION ( 'NONE',  ( 0.000000000000000000, 0.000000000000000000, -1.000000000000000000 ) ) ;
#377 = CARTESIAN_POINT ( 'NONE',  ( 32.99999999999998579, 6.199999999999999289, 1.199999999999999956 ) ) ;
#378 = PERSON_AND_ORGANIZATION ( #653, #392 ) ;
#379 = DIRECTION ( 'NONE',  ( -0.000000000000000000, 0.000000000000000000, -1.000000000000000000 ) ) ;
#380 = DIRECTION ( 'NONE',  ( -1.000000000000000000, 0.000000000000000000, 0.000000000000000000 ) ) ;
#381 = VERTEX_POINT ( 'NONE', #627 ) ;
#382 = CARTESIAN_POINT ( 'NONE',  ( 43.99999999999995026, 1.779171876948803296E-14, 1.199999999999999956 ) ) ;
#383 = DIRECTION ( 'NONE',  ( -0.000000000000000000, 0.000000000000000000, 1.000000000000000000 ) ) ;
#384 = FACE_OUTER_BOUND ( 'NONE', #515, .T. ) ;
#385 = CARTESIAN_POINT ( 'NONE',  ( 32.99999999999998579, 6.199999999999999289, 0.000000000000000000 ) ) ;
#386 = ORIENTED_EDGE ( 'NONE', *, *, #29, .F. ) ;
#387 = LINE ( 'NONE', #612, #101 ) ;
#388 = CARTESIAN_POINT ( 'NONE',  ( 9.999999999999992895, -4.599999999999999645, 1.199999999999999956 ) ) ;
#389 = AXIS2_PLACEMENT_3D ( 'NONE', #500, #66, #120 ) ;
#390 = APPROVAL ( #303, '未指定' ) ;
#391 = CARTESIAN_POINT ( 'NONE',  ( -4.599999999999999645, 0.000000000000000000, 0.000000000000000000 ) ) ;
#392 = ORGANIZATION ( '未指定', '未指定', '' ) ;
#393 = CYLINDRICAL_SURFACE ( 'NONE', #318, 1.000000000000000888 ) ;
#394 = ORIENTED_EDGE ( 'NONE', *, *, #304, .T. ) ;
#395 = CARTESIAN_POINT ( 'NONE',  ( 43.99999999999995026, 1.779171876948803296E-14, 0.000000000000000000 ) ) ;
#396 = EDGE_CURVE ( 'NONE', #290, #117, #505, .T. ) ;
#397 = CARTESIAN_POINT ( 'NONE',  ( 0.000000000000000000, 4.599999999999999645, 1.199999999999999956 ) ) ;
#398 = CARTESIAN_POINT ( 'NONE',  ( 43.99999999999995026, 1.779171876948803296E-14, 1.199999999999999956 ) ) ;
#399 = VERTEX_POINT ( 'NONE', #391 ) ;
#400 = CARTESIAN_POINT ( 'NONE',  ( 9.999999999999994671, -18.59999999999999787, -33.82366035780278679 ) ) ;
#401 = DIRECTION ( 'NONE',  ( 1.000000000000000000, 0.000000000000000000, 0.000000000000000000 ) ) ;
#402 = ORIENTED_EDGE ( 'NONE', *, *, #522, .T. ) ;
#403 = APPLICATION_PROTOCOL_DEFINITION ( 'international standard', 'config_control_design', 1994, #580 ) ;
#404 = CARTESIAN_POINT ( 'NONE',  ( -0.000000000000000000, 4.599999999999999645, 0.000000000000000000 ) ) ;
#405 = VECTOR ( 'NONE', #664, 1000.000000000000000 ) ;
#406 = LOCAL_TIME ( 11, 47, 54.00000000000000000, #39 ) ;
#407 = ORIENTED_EDGE ( 'NONE', *, *, #657, .F. ) ;
#408 = ADVANCED_FACE ( 'NONE', ( #79 ), #671, .T. ) ;
#409 = CALENDAR_DATE ( 2020, 30, 7 ) ;
#410 = VERTEX_POINT ( 'NONE', #397 ) ;
#411 = PERSON_AND_ORGANIZATION ( #653, #392 ) ;
#412 = VERTEX_POINT ( 'NONE', #132 ) ;
#413 = CC_DESIGN_DATE_AND_TIME_ASSIGNMENT ( #90, #148, ( #479 ) ) ;
#414 = VERTEX_POINT ( 'NONE', #288 ) ;
#415 = VECTOR ( 'NONE', #428, 1000.000000000000000 ) ;
#416 = AXIS2_PLACEMENT_3D ( 'NONE', #565, #448, #401 ) ;
#417 = EDGE_CURVE ( 'NONE', #663, #526, #135, .T. ) ;
#418 = ORIENTED_EDGE ( 'NONE', *, *, #419, .T. ) ;
#419 = EDGE_CURVE ( 'NONE', #344, #454, #337, .T. ) ;
#420 = VECTOR ( 'NONE', #125, 1000.000000000000000 ) ;
#421 = EDGE_CURVE ( 'NONE', #65, #381, #138, .T. ) ;
#422 = AXIS2_PLACEMENT_3D ( 'NONE', #435, #109, #656 ) ;
#423 = DIRECTION ( 'NONE',  ( 0.000000000000000000, 0.000000000000000000, 1.000000000000000000 ) ) ;
#424 = LINE ( 'NONE', #80, #432 ) ;
#425 = ORIENTED_EDGE ( 'NONE', *, *, #419, .F. ) ;
#426 = LINE ( 'NONE', #375, #363 ) ;
#427 = CARTESIAN_POINT ( 'NONE',  ( 32.99999999999998579, -4.599999999999999645, 1.199999999999999956 ) ) ;
#428 = DIRECTION ( 'NONE',  ( 2.797941090285173083E-16, -1.000000000000000000, 0.000000000000000000 ) ) ;
#429 = CARTESIAN_POINT ( 'NONE',  ( 0.000000000000000000, 0.000000000000000000, 1.199999999999999956 ) ) ;
#430 = DIRECTION ( 'NONE',  ( -2.797941090285173083E-16, 1.000000000000000000, -0.000000000000000000 ) ) ;
#431 = VECTOR ( 'NONE', #568, 1000.000000000000000 ) ;
#432 = VECTOR ( 'NONE', #334, 1000.000000000000000 ) ;
#433 = APPROVAL_DATE_TIME ( #253, #390 ) ;
#434 = LINE ( 'NONE', #5, #30 ) ;
#435 = CARTESIAN_POINT ( 'NONE',  ( 32.99999999999998579, 6.199999999999999289, -33.82366035780278679 ) ) ;
#436 = ORIENTED_EDGE ( 'NONE', *, *, #630, .T. ) ;
#437 = DIRECTION ( 'NONE',  ( -1.000000000000000000, 0.000000000000000000, 0.000000000000000000 ) ) ;
#438 = DIRECTION ( 'NONE',  ( -0.000000000000000000, 0.000000000000000000, 1.000000000000000000 ) ) ;
#439 = DATE_TIME_ROLE ( 'creation_date' ) ;
#440 = DIRECTION ( 'NONE',  ( 0.000000000000000000, -0.000000000000000000, 1.000000000000000000 ) ) ;
#441 = DIRECTION ( 'NONE',  ( 0.000000000000000000, -0.000000000000000000, 1.000000000000000000 ) ) ;
#442 = ORIENTED_EDGE ( 'NONE', *, *, #105, .F. ) ;
#443 = CARTESIAN_POINT ( 'NONE',  ( 0.000000000000000000, -4.599999999999999645, 1.199999999999999956 ) ) ;
#444 = LINE ( 'NONE', #377, #581 ) ;
#445 = CARTESIAN_POINT ( 'NONE',  ( 42.99999999999999289, 4.599999999999999645, 0.000000000000000000 ) ) ;
#446 = EDGE_CURVE ( 'NONE', #65, #412, #236, .T. ) ;
#447 = DIRECTION ( 'NONE',  ( -0.000000000000000000, -0.000000000000000000, -1.000000000000000000 ) ) ;
#448 = DIRECTION ( 'NONE',  ( -0.000000000000000000, 0.000000000000000000, 1.000000000000000000 ) ) ;
#449 = ORIENTED_EDGE ( 'NONE', *, *, #227, .F. ) ;
#450 = DESIGN_CONTEXT ( 'detailed design', #580, 'design' ) ;
#451 = VECTOR ( 'NONE', #423, 1000.000000000000000 ) ;
#452 = CARTESIAN_POINT ( 'NONE',  ( 0.000000000000000000, -4.599999999999999645, 1.199999999999999956 ) ) ;
#453 = CARTESIAN_POINT ( 'NONE',  ( -1.387778780781445676E-14, 3.173260265665276590E-13, 1.199999999999999956 ) ) ;
#454 = VERTEX_POINT ( 'NONE', #666 ) ;
#455 = CARTESIAN_POINT ( 'NONE',  ( 0.000000000000000000, 0.000000000000000000, 1.199999999999999956 ) ) ;
#456 = CARTESIAN_POINT ( 'NONE',  ( 0.9999999999999863443, 3.174484912464424194E-13, 1.199999999999999956 ) ) ;
#457 = ORIENTED_EDGE ( 'NONE', *, *, #1, .T. ) ;
#458 = PERSON_AND_ORGANIZATION ( #653, #392 ) ;
#459 = CARTESIAN_POINT ( 'NONE',  ( 42.99999999999999289, 4.599999999999999645, 1.199999999999999956 ) ) ;
#460 = EDGE_CURVE ( 'NONE', #410, #344, #617, .T. ) ;
#461 = ORIENTED_EDGE ( 'NONE', *, *, #103, .T. ) ;
#462 = CARTESIAN_POINT ( 'NONE',  ( 0.000000000000000000, 0.000000000000000000, 0.000000000000000000 ) ) ;
#463 = AXIS2_PLACEMENT_3D ( 'NONE', #131, #336, #23 ) ;
#464 = APPROVAL_PERSON_ORGANIZATION ( #126, #390, #195 ) ;
#465 = ORIENTED_EDGE ( 'NONE', *, *, #154, .F. ) ;
#466 = APPROVAL_DATE_TIME ( #633, #261 ) ;
#467 = ORIENTED_EDGE ( 'NONE', *, *, #49, .T. ) ;
#468 = ADVANCED_FACE ( 'NONE', ( #513 ), #82, .T. ) ;
#469 = ORIENTED_EDGE ( 'NONE', *, *, #396, .F. ) ;
#470 = EDGE_CURVE ( 'NONE', #589, #355, #193, .T. ) ;
#471 = VECTOR ( 'NONE', #171, 1000.000000000000000 ) ;
#472 = VERTEX_POINT ( 'NONE', #620 ) ;
#473 = ADVANCED_FACE ( 'NONE', ( #564 ), #87, .F. ) ;
#474 = ADVANCED_FACE ( 'NONE', ( #15, #643, #584 ), #481, .T. ) ;
#475 = MANIFOLD_SOLID_BREP ( '切除-拉伸5', #85 ) ;
#476 = DIRECTION ( 'NONE',  ( -1.000000000000000000, -1.398970545142586541E-16, 0.000000000000000000 ) ) ;
#477 = ORIENTED_EDGE ( 'NONE', *, *, #278, .T. ) ;
#478 = AXIS2_PLACEMENT_3D ( 'NONE', #596, #315, #115 ) ;
#479 = SECURITY_CLASSIFICATION ( '', '', #201 ) ;
#480 = DIRECTION ( 'NONE',  ( 1.000000000000000000, 0.000000000000000000, 0.000000000000000000 ) ) ;
#481 = PLANE ( 'NONE',  #188 ) ;
#482 = CC_DESIGN_DATE_AND_TIME_ASSIGNMENT ( #600, #439, ( #340 ) ) ;
#483 = DIRECTION ( 'NONE',  ( -0.000000000000000000, 0.000000000000000000, 1.000000000000000000 ) ) ;
#484 = CARTESIAN_POINT ( 'NONE',  ( 41.99999999999995026, 1.766925408957329781E-14, 0.000000000000000000 ) ) ;
#485 = ADVANCED_FACE ( 'NONE', ( #160 ), #543, .T. ) ;
#486 = PERSON_AND_ORGANIZATION ( #653, #392 ) ;
#487 = DIRECTION ( 'NONE',  ( -0.000000000000000000, 0.000000000000000000, 1.000000000000000000 ) ) ;
#488 = LINE ( 'NONE', #588, #538 ) ;
#489 = CARTESIAN_POINT ( 'NONE',  ( -1.387778780781445676E-14, 3.173260265665276590E-13, 1.199999999999999956 ) ) ;
#490 = AXIS2_PLACEMENT_3D ( 'NONE', #331, #438, #659 ) ;
#491 = AXIS2_PLACEMENT_3D ( 'NONE', #342, #83, #502 ) ;
#492 = CARTESIAN_POINT ( 'NONE',  ( -1.387778780781445676E-14, 3.173260265665276590E-13, 1.199999999999999956 ) ) ;
#493 = APPROVAL_DATE_TIME ( #301, #291 ) ;
#494 = CARTESIAN_POINT ( 'NONE',  ( 0.000000000000000000, 0.000000000000000000, 1.199999999999999956 ) ) ;
#495 = CARTESIAN_POINT ( 'NONE',  ( 9.999999999999991118, 6.199999999999999289, -33.82366035780278679 ) ) ;
#496 = VERTEX_POINT ( 'NONE', #484 ) ;
#497 = DIRECTION ( 'NONE',  ( 0.000000000000000000, -0.000000000000000000, 1.000000000000000000 ) ) ;
#498 = DIRECTION ( 'NONE',  ( -1.000000000000000000, 0.000000000000000000, 0.000000000000000000 ) ) ;
#499 = EDGE_CURVE ( 'NONE', #410, #583, #316, .T. ) ;
#500 = CARTESIAN_POINT ( 'NONE',  ( 0.000000000000000000, 0.000000000000000000, 1.199999999999999956 ) ) ;
#501 = CARTESIAN_POINT ( 'NONE',  ( 42.99999999999999289, -4.599999999999999645, 1.199999999999999956 ) ) ;
#502 = DIRECTION ( 'NONE',  ( 1.000000000000000000, 0.000000000000000000, 0.000000000000000000 ) ) ;
#503 = ORIENTED_EDGE ( 'NONE', *, *, #619, .T. ) ;
#504 = DIRECTION ( 'NONE',  ( 1.000000000000000000, 0.000000000000000000, 0.000000000000000000 ) ) ;
#505 = LINE ( 'NONE', #459, #156 ) ;
#506 = ORIENTED_EDGE ( 'NONE', *, *, #470, .T. ) ;
#507 = VECTOR ( 'NONE', #218, 1000.000000000000000 ) ;
#508 = DIRECTION ( 'NONE',  ( -2.797941090285173083E-16, 1.000000000000000000, -0.000000000000000000 ) ) ;
#509 = AXIS2_PLACEMENT_3D ( 'NONE', #35, #174, #264 ) ;
#510 = FACE_OUTER_BOUND ( 'NONE', #520, .T. ) ;
#511 = ORIENTED_EDGE ( 'NONE', *, *, #154, .T. ) ;
#512 = DIRECTION ( 'NONE',  ( 1.000000000000000000, 0.000000000000000000, 0.000000000000000000 ) ) ;
#513 = FACE_OUTER_BOUND ( 'NONE', #314, .T. ) ;
#514 = CARTESIAN_POINT ( 'NONE',  ( 42.99999999999995026, 1.766925408957329781E-14, 1.199999999999999956 ) ) ;
#515 = EDGE_LOOP ( 'NONE', ( #550, #52, #506, #604 ) ) ;
#516 = SHAPE_DEFINITION_REPRESENTATION ( #521, #268 ) ;
#517 = VERTEX_POINT ( 'NONE', #597 ) ;
#518 = CALENDAR_DATE ( 2020, 30, 7 ) ;
#519 = AXIS2_PLACEMENT_3D ( 'NONE', #292, #31, #244 ) ;
#520 = EDGE_LOOP ( 'NONE', ( #577, #465, #312, #77 ) ) ;
#521 = PRODUCT_DEFINITION_SHAPE ( 'NONE', 'NONE',  #340 ) ;
#522 = EDGE_CURVE ( 'NONE', #688, #472, #95, .T. ) ;
#523 = EDGE_LOOP ( 'NONE', ( #317, #469, #578, #161 ) ) ;
#524 = EDGE_CURVE ( 'NONE', #472, #688, #102, .T. ) ;
#525 = CARTESIAN_POINT ( 'NONE',  ( -1.387778780781445676E-14, 3.173260265665276590E-13, 0.000000000000000000 ) ) ;
#526 = VERTEX_POINT ( 'NONE', #427 ) ;
#527 = ORIENTED_EDGE ( 'NONE', *, *, #590, .T. ) ;
#528 =( GEOMETRIC_REPRESENTATION_CONTEXT ( 3 ) GLOBAL_UNCERTAINTY_ASSIGNED_CONTEXT ( ( #25 ) ) GLOBAL_UNIT_ASSIGNED_CONTEXT ( ( #32, #27, #675 ) ) REPRESENTATION_CONTEXT ( 'NONE', 'WORKASPACE' ) );
#529 = ADVANCED_FACE ( 'NONE', ( #219 ), #116, .T. ) ;
#530 = ORIENTED_EDGE ( 'NONE', *, *, #352, .F. ) ;
#531 = CARTESIAN_POINT ( 'NONE',  ( 0.000000000000000000, 0.000000000000000000, 0.000000000000000000 ) ) ;
#532 = ORIENTED_EDGE ( 'NONE', *, *, #572, .T. ) ;
#533 = CARTESIAN_POINT ( 'NONE',  ( 42.99999999999999289, 4.599999999999999645, 1.199999999999999956 ) ) ;
#534 = CARTESIAN_POINT ( 'NONE',  ( 9.999999999999994671, -18.59999999999999787, -33.82366035780278679 ) ) ;
#535 = ORIENTED_EDGE ( 'NONE', *, *, #499, .F. ) ;
#536 = AXIS2_PLACEMENT_3D ( 'NONE', #321, #215, #167 ) ;
#537 = CC_DESIGN_PERSON_AND_ORGANIZATION_ASSIGNMENT ( #378, #682, ( #570 ) ) ;
#538 = VECTOR ( 'NONE', #267, 1000.000000000000000 ) ;
#539 = CARTESIAN_POINT ( 'NONE',  ( 32.99999999999998579, 6.199999999999999289, 0.000000000000000000 ) ) ;
#540 = CARTESIAN_POINT ( 'NONE',  ( 9.999999999999991118, 6.199999999999999289, 0.000000000000000000 ) ) ;
#541 = ADVANCED_FACE ( 'NONE', ( #62 ), #320, .F. ) ;
#542 = DIRECTION ( 'NONE',  ( 1.000000000000000000, 0.000000000000000000, 0.000000000000000000 ) ) ;
#543 = PLANE ( 'NONE',  #348 ) ;
#544 = ORIENTED_EDGE ( 'NONE', *, *, #38, .T. ) ;
#545 = FACE_OUTER_BOUND ( 'NONE', #89, .T. ) ;
#546 = FACE_OUTER_BOUND ( 'NONE', #634, .T. ) ;
#547 = LINE ( 'NONE', #68, #552 ) ;
#548 = ADVANCED_FACE ( 'NONE', ( #106 ), #123, .T. ) ;
#549 = CARTESIAN_POINT ( 'NONE',  ( 9.999999999999991118, 4.599999999999999645, 1.199999999999999956 ) ) ;
#550 = ORIENTED_EDGE ( 'NONE', *, *, #151, .F. ) ;
#551 = CARTESIAN_POINT ( 'NONE',  ( -1.387778780781445676E-14, 3.173260265665276590E-13, 1.199999999999999956 ) ) ;
#552 = VECTOR ( 'NONE', #558, 1000.000000000000000 ) ;
#553 = EDGE_CURVE ( 'NONE', #556, #650, #488, .T. ) ;
#554 = CARTESIAN_POINT ( 'NONE',  ( -1.000000000000014211, 3.173260265665276590E-13, 1.199999999999999956 ) ) ;
#555 = DIRECTION ( 'NONE',  ( -1.000000000000000000, 0.000000000000000000, 0.000000000000000000 ) ) ;
#556 = VERTEX_POINT ( 'NONE', #540 ) ;
#557 = PLANE ( 'NONE',  #204 ) ;
#558 = DIRECTION ( 'NONE',  ( 1.000000000000000000, 0.000000000000000000, 0.000000000000000000 ) ) ;
#559 = ORIENTED_EDGE ( 'NONE', *, *, #622, .T. ) ;
#560 = DIRECTION ( 'NONE',  ( -0.000000000000000000, -0.000000000000000000, -1.000000000000000000 ) ) ;
#561 = LINE ( 'NONE', #139, #210 ) ;
#562 = ORIENTED_EDGE ( 'NONE', *, *, #522, .F. ) ;
#563 = CIRCLE ( 'NONE', #256, 4.599999999999999645 ) ;
#564 = FACE_OUTER_BOUND ( 'NONE', #175, .T. ) ;
#565 = CARTESIAN_POINT ( 'NONE',  ( 42.99999999999995026, 1.766925408957329781E-14, 0.000000000000000000 ) ) ;
#566 = EDGE_LOOP ( 'NONE', ( #305, #394, #71, #152 ) ) ;
#567 = PERSON_AND_ORGANIZATION ( #653, #392 ) ;
#568 = DIRECTION ( 'NONE',  ( -0.000000000000000000, -0.000000000000000000, -1.000000000000000000 ) ) ;
#569 = ORIENTED_EDGE ( 'NONE', *, *, #607, .T. ) ;
#570 = PRODUCT ( '锁扣底', '锁扣底', '', ( #350 ) ) ;
#571 = ORIENTED_EDGE ( 'NONE', *, *, #619, .F. ) ;
#572 = EDGE_CURVE ( 'NONE', #412, #611, #8, .T. ) ;
#573 = PERSON_AND_ORGANIZATION_ROLE ( 'creator' ) ;
#574 = AXIS2_PLACEMENT_3D ( 'NONE', #279, #483, #480 ) ;
#575 = VECTOR ( 'NONE', #648, 1000.000000000000000 ) ;
#576 = ORIENTED_EDGE ( 'NONE', *, *, #421, .F. ) ;
#577 = ORIENTED_EDGE ( 'NONE', *, *, #343, .F. ) ;
#578 = ORIENTED_EDGE ( 'NONE', *, *, #622, .F. ) ;
#579 = ADVANCED_FACE ( 'NONE', ( #10 ), #224, .T. ) ;
#580 = APPLICATION_CONTEXT ( 'configuration controlled 3d designs of mechanical parts and assemblies' ) ;
#581 = VECTOR ( 'NONE', #430, 1000.000000000000000 ) ;
#582 = AXIS2_PLACEMENT_3D ( 'NONE', #534, #6, #64 ) ;
#583 = VERTEX_POINT ( 'NONE', #549 ) ;
#584 = FACE_OUTER_BOUND ( 'NONE', #170, .T. ) ;
#585 = ORIENTED_EDGE ( 'NONE', *, *, #182, .F. ) ;
#586 = DIRECTION ( 'NONE',  ( -0.000000000000000000, 0.000000000000000000, 1.000000000000000000 ) ) ;
#587 = ADVANCED_FACE ( 'NONE', ( #212 ), #60, .T. ) ;
#588 = CARTESIAN_POINT ( 'NONE',  ( 9.999999999999991118, 6.199999999999999289, 0.000000000000000000 ) ) ;
#589 = VERTEX_POINT ( 'NONE', #313 ) ;
#590 = EDGE_CURVE ( 'NONE', #344, #399, #44, .T. ) ;
#591 = DIRECTION ( 'NONE',  ( -0.000000000000000000, -0.000000000000000000, -1.000000000000000000 ) ) ;
#592 = DIRECTION ( 'NONE',  ( -0.000000000000000000, 0.000000000000000000, 1.000000000000000000 ) ) ;
#593 = CIRCLE ( 'NONE', #293, 1.000000000000000222 ) ;
#594 = AXIS2_PLACEMENT_3D ( 'NONE', #69, #366, #216 ) ;
#595 = VECTOR ( 'NONE', #88, 1000.000000000000000 ) ;
#596 = CARTESIAN_POINT ( 'NONE',  ( -1.387778780781445676E-14, 3.173260265665276590E-13, 0.000000000000000000 ) ) ;
#597 = CARTESIAN_POINT ( 'NONE',  ( 32.99999999999998579, -4.599999999999999645, 0.000000000000000000 ) ) ;
#598 = CARTESIAN_POINT ( 'NONE',  ( 32.99999999999998579, 4.599999999999999645, 0.000000000000000000 ) ) ;
#599 = FACE_OUTER_BOUND ( 'NONE', #638, .T. ) ;
#600 = DATE_AND_TIME ( #624, #406 ) ;
#601 = EDGE_CURVE ( 'NONE', #454, #583, #424, .T. ) ;
#602 = LINE ( 'NONE', #270, #165 ) ;
#603 = CARTESIAN_POINT ( 'NONE',  ( 0.000000000000000000, -4.599999999999999645, 1.199999999999999956 ) ) ;
#604 = ORIENTED_EDGE ( 'NONE', *, *, #38, .F. ) ;
#605 = CARTESIAN_POINT ( 'NONE',  ( 9.999999999999991118, 6.199999999999999289, 1.199999999999999956 ) ) ;
#606 = CARTESIAN_POINT ( 'NONE',  ( 9.999999999999991118, 6.199999999999999289, -33.82366035780278679 ) ) ;
#607 = EDGE_CURVE ( 'NONE', #57, #496, #142, .T. ) ;
#608 = COORDINATED_UNIVERSAL_TIME_OFFSET ( 8, 0, .AHEAD. ) ;
#609 = CARTESIAN_POINT ( 'NONE',  ( 0.000000000000000000, 0.000000000000000000, 0.000000000000000000 ) ) ;
#610 = DIRECTION ( 'NONE',  ( -1.000000000000000000, 0.000000000000000000, 0.000000000000000000 ) ) ;
#611 = VERTEX_POINT ( 'NONE', #621 ) ;
#612 = CARTESIAN_POINT ( 'NONE',  ( 9.999999999999994671, -18.59999999999999787, 1.199999999999999956 ) ) ;
#613 = CC_DESIGN_APPROVAL ( #261, ( #294 ) ) ;
#614 = CARTESIAN_POINT ( 'NONE',  ( -1.000000000000014211, 3.173260265665276590E-13, 1.199999999999999956 ) ) ;
#615 = DIRECTION ( 'NONE',  ( -1.398970545142586541E-16, 1.000000000000000000, -0.000000000000000000 ) ) ;
#616 = VERTEX_POINT ( 'NONE', #456 ) ;
#617 = LINE ( 'NONE', #351, #43 ) ;
#618 = EDGE_LOOP ( 'NONE', ( #203, #402 ) ) ;
#619 = EDGE_CURVE ( 'NONE', #650, #4, #136, .T. ) ;
#620 = CARTESIAN_POINT ( 'NONE',  ( 41.99999999999995026, 1.766925408957329781E-14, 1.199999999999999956 ) ) ;
#621 = CARTESIAN_POINT ( 'NONE',  ( 9.999999999999991118, -4.599999999999999645, 0.000000000000000000 ) ) ;
#622 = EDGE_CURVE ( 'NONE', #197, #290, #636, .T. ) ;
#623 = ORIENTED_EDGE ( 'NONE', *, *, #248, .T. ) ;
#624 = CALENDAR_DATE ( 2020, 30, 7 ) ;
#625 = VECTOR ( 'NONE', #275, 1000.000000000000000 ) ;
#626 = APPROVAL_PERSON_ORGANIZATION ( #121, #291, #276 ) ;
#627 = CARTESIAN_POINT ( 'NONE',  ( 9.999999999999991118, -4.599999999999999645, 1.199999999999999956 ) ) ;
#628 = EDGE_LOOP ( 'NONE', ( #192, #100 ) ) ;
#629 = APPROVAL_STATUS ( 'not_yet_approved' ) ;
#630 = EDGE_CURVE ( 'NONE', #124, #290, #21, .T. ) ;
#631 = APPLICATION_CONTEXT ( 'configuration controlled 3d designs of mechanical parts and assemblies' ) ;
#632 = ORIENTED_EDGE ( 'NONE', *, *, #166, .T. ) ;
#633 = DATE_AND_TIME ( #518, #262 ) ;
#634 = EDGE_LOOP ( 'NONE', ( #96, #530, #194, #527 ) ) ;
#635 = AXIS2_PLACEMENT_3D ( 'NONE', #642, #368, #440 ) ;
#636 = CIRCLE ( 'NONE', #491, 4.599999999999999645 ) ;
#637 = ORIENTED_EDGE ( 'NONE', *, *, #524, .F. ) ;
#638 = EDGE_LOOP ( 'NONE', ( #418, #225, #187, #503, #213, #302, #238, #339, #149, #668, #92, #207, #273 ) ) ;
#639 = VECTOR ( 'NONE', #240, 1000.000000000000000 ) ;
#640 = VECTOR ( 'NONE', #185, 1000.000000000000000 ) ;
#641 = ORIENTED_EDGE ( 'NONE', *, *, #470, .F. ) ;
#642 = CARTESIAN_POINT ( 'NONE',  ( 9.999999999999991118, 6.199999999999999289, -33.82366035780278679 ) ) ;
#643 = FACE_BOUND ( 'NONE', #618, .T. ) ;
#644 = EDGE_CURVE ( 'NONE', #48, #589, #245, .T. ) ;
#645 = CARTESIAN_POINT ( 'NONE',  ( 9.999999999999991118, 6.199999999999999289, 1.199999999999999956 ) ) ;
#646 = CARTESIAN_POINT ( 'NONE',  ( 0.000000000000000000, -4.599999999999999645, 0.000000000000000000 ) ) ;
#647 = DIRECTION ( 'NONE',  ( -0.000000000000000000, 0.000000000000000000, -1.000000000000000000 ) ) ;
#648 = DIRECTION ( 'NONE',  ( 1.000000000000000000, 0.000000000000000000, 0.000000000000000000 ) ) ;
#649 = AXIS2_PLACEMENT_3D ( 'NONE', #525, #586, #108 ) ;
#650 = VERTEX_POINT ( 'NONE', #385 ) ;
#651 = VECTOR ( 'NONE', #327, 1000.000000000000000 ) ;
#652 = CARTESIAN_POINT ( 'NONE',  ( 41.99999999999995026, 1.766925408957329781E-14, 1.199999999999999956 ) ) ;
#653 = PERSON ( '未指定', '未指定', '未指定', ('未指定'), ('未指定'), ('未指定') ) ;
#654 = COORDINATED_UNIVERSAL_TIME_OFFSET ( 8, 0, .AHEAD. ) ;
#655 = PLANE ( 'NONE',  #536 ) ;
#656 = DIRECTION ( 'NONE',  ( -2.797941090285173083E-16, 1.000000000000000000, 0.000000000000000000 ) ) ;
#657 = EDGE_CURVE ( 'NONE', #454, #556, #561, .T. ) ;
#658 = DIRECTION ( 'NONE',  ( 0.000000000000000000, 0.000000000000000000, 1.000000000000000000 ) ) ;
#659 = DIRECTION ( 'NONE',  ( 1.000000000000000000, 0.000000000000000000, 0.000000000000000000 ) ) ;
#660 = CALENDAR_DATE ( 2020, 30, 7 ) ;
#661 = CARTESIAN_POINT ( 'NONE',  ( -1.000000000000014211, 3.173260265665276590E-13, 0.000000000000000000 ) ) ;
#662 = DIRECTION ( 'NONE',  ( 0.000000000000000000, 1.000000000000000000, 0.000000000000000000 ) ) ;
#663 = VERTEX_POINT ( 'NONE', #289 ) ;
#664 = DIRECTION ( 'NONE',  ( 0.000000000000000000, 0.000000000000000000, 1.000000000000000000 ) ) ;
#665 = DIRECTION ( 'NONE',  ( -0.000000000000000000, -0.000000000000000000, -1.000000000000000000 ) ) ;
#666 = CARTESIAN_POINT ( 'NONE',  ( 9.999999999999991118, 4.599999999999999645, 0.000000000000000000 ) ) ;
#667 = CARTESIAN_POINT ( 'NONE',  ( 9.999999999999991118, 6.199999999999999289, 0.000000000000000000 ) ) ;
#668 = ORIENTED_EDGE ( 'NONE', *, *, #687, .T. ) ;
#669 = CIRCLE ( 'NONE', #373, 1.000000000000000222 ) ;
#670 = CC_DESIGN_PERSON_AND_ORGANIZATION_ASSIGNMENT ( #567, #220, ( #294 ) ) ;
#671 = CYLINDRICAL_SURFACE ( 'NONE', #186, 4.599999999999999645 ) ;
#672 = ORIENTED_EDGE ( 'NONE', *, *, #421, .T. ) ;
#673 = ADVANCED_FACE ( 'NONE', ( #510 ), #76, .F. ) ;
#674 = LINE ( 'NONE', #614, #431 ) ;
#675 =( NAMED_UNIT ( * ) SI_UNIT ( $, .STERADIAN. ) SOLID_ANGLE_UNIT ( ) );
#676 = EDGE_LOOP ( 'NONE', ( #202, #425, #145, #130 ) ) ;
#677 = DIRECTION ( 'NONE',  ( -0.000000000000000000, -0.000000000000000000, -1.000000000000000000 ) ) ;
#678 = ORIENTED_EDGE ( 'NONE', *, *, #103, .F. ) ;
#679 = CIRCLE ( 'NONE', #50, 1.000000000000000888 ) ;
#680 = ORIENTED_EDGE ( 'NONE', *, *, #151, .T. ) ;
#681 = ADVANCED_FACE ( 'NONE', ( #338 ), #393, .F. ) ;
#682 = PERSON_AND_ORGANIZATION_ROLE ( 'design_owner' ) ;
#683 = ORIENTED_EDGE ( 'NONE', *, *, #365, .F. ) ;
#684 = ORIENTED_EDGE ( 'NONE', *, *, #417, .T. ) ;
#685 = CIRCLE ( 'NONE', #574, 4.599999999999999645 ) ;
#686 = AXIS2_PLACEMENT_3D ( 'NONE', #322, #272, #441 ) ;
#687 = EDGE_CURVE ( 'NONE', #589, #611, #237, .T. ) ;
#688 = VERTEX_POINT ( 'NONE', #398 ) ;
ENDSEC;
END-ISO-10303-21;
