ISO-10303-21;
HEADER;
FILE_DESCRIPTION (( 'STEP AP203' ),
    '1' );
FILE_NAME ('锁芯.STEP',
    '2020-07-30T03:48:46',
    ( '' ),
    ( '' ),
    'SwSTEP 2.0',
    'SolidWorks 2020',
    '' );
FILE_SCHEMA (( 'CONFIG_CONTROL_DESIGN' ));
ENDSEC;

DATA;
#1 = ORIENTED_EDGE ( 'NONE', *, *, #101, .T. ) ;
#2 = DIRECTION ( 'NONE',  ( 0.000000000000000000, 0.000000000000000000, 1.000000000000000000 ) ) ;
#3 = LINE ( 'NONE', #189, #815 ) ;
#4 = AXIS2_PLACEMENT_3D ( 'NONE', #711, #525, #725 ) ;
#5 = CC_DESIGN_PERSON_AND_ORGANIZATION_ASSIGNMENT ( #887, #153, ( #266 ) ) ;
#6 = EDGE_CURVE ( 'NONE', #1185, #1016, #237, .T. ) ;
#7 = VERTEX_POINT ( 'NONE', #419 ) ;
#8 = AXIS2_PLACEMENT_3D ( 'NONE', #304, #221, #932 ) ;
#9 = EDGE_CURVE ( 'NONE', #888, #687, #1053, .T. ) ;
#10 = DIRECTION ( 'NONE',  ( -3.942553354492744024E-16, 1.000000000000000000, 0.000000000000000000 ) ) ;
#11 = CARTESIAN_POINT ( 'NONE',  ( 0.000000000000000000, -0.4999999999999997780, 7.700000000000000178 ) ) ;
#12 = CARTESIAN_POINT ( 'NONE',  ( 19.80000000000000071, 9.899999999999998579, 1.149999999999999689 ) ) ;
#13 = AXIS2_PLACEMENT_3D ( 'NONE', #716, #275, #1101 ) ;
#14 = ORIENTED_EDGE ( 'NONE', *, *, #698, .T. ) ;
#15 = COORDINATED_UNIVERSAL_TIME_OFFSET ( 8, 0, .AHEAD. ) ;
#16 = CARTESIAN_POINT ( 'NONE',  ( 6.567326732673269163, -5.373267326732658944, 3.899999999999999911 ) ) ;
#17 = CARTESIAN_POINT ( 'NONE',  ( 0.000000000000000000, 0.000000000000000000, 3.899999999999999911 ) ) ;
#18 = CARTESIAN_POINT ( 'NONE',  ( 17.19999999999999929, 0.5000000000000000000, 7.700000000000000178 ) ) ;
#19 = ORIENTED_EDGE ( 'NONE', *, *, #204, .T. ) ;
#20 = LOCAL_TIME ( 11, 48, 46.00000000000000000, #822 ) ;
#21 = ORIENTED_EDGE ( 'NONE', *, *, #176, .T. ) ;
#22 = CARTESIAN_POINT ( 'NONE',  ( 19.79999999999999716, -5.099999999999999645, 2.750000000000000444 ) ) ;
#23 = EDGE_CURVE ( 'NONE', #477, #1126, #772, .T. ) ;
#24 = VECTOR ( 'NONE', #783, 1000.000000000000000 ) ;
#25 = AXIS2_PLACEMENT_3D ( 'NONE', #825, #177, #96 ) ;
#26 = DIRECTION ( 'NONE',  ( 3.942553354492744024E-16, -1.000000000000000000, 0.000000000000000000 ) ) ;
#27 = VERTEX_POINT ( 'NONE', #219 ) ;
#28 = DIRECTION ( 'NONE',  ( 0.000000000000000000, -1.000000000000000000, 0.000000000000000000 ) ) ;
#29 = ORIENTED_EDGE ( 'NONE', *, *, #355, .F. ) ;
#30 = PLANE ( 'NONE',  #882 ) ;
#31 = FACE_OUTER_BOUND ( 'NONE', #804, .T. ) ;
#32 = VERTEX_POINT ( 'NONE', #1131 ) ;
#33 = VECTOR ( 'NONE', #867, 1000.000000000000000 ) ;
#34 = DIRECTION ( 'NONE',  ( -1.000000000000000000, 0.000000000000000000, 0.000000000000000000 ) ) ;
#35 = VERTEX_POINT ( 'NONE', #148 ) ;
#36 = LINE ( 'NONE', #134, #429 ) ;
#37 = LINE ( 'NONE', #321, #850 ) ;
#38 = VERTEX_POINT ( 'NONE', #493 ) ;
#39 = CARTESIAN_POINT ( 'NONE',  ( 7.200000000000000178, -3.599999999999999645, 3.899999999999999911 ) ) ;
#40 = EDGE_LOOP ( 'NONE', ( #563, #1096, #1079, #102 ) ) ;
#41 = CARTESIAN_POINT ( 'NONE',  ( 21.19999999999999574, 8.358213111524615713E-15, 6.700000000000000178 ) ) ;
#42 = CARTESIAN_POINT ( 'NONE',  ( 21.39999999999999858, -5.099999999999999645, 1.149999999999999689 ) ) ;
#43 = CARTESIAN_POINT ( 'NONE',  ( 8.327598234202000132E-16, -6.799999999999999822, 3.899999999999999911 ) ) ;
#44 = CC_DESIGN_PERSON_AND_ORGANIZATION_ASSIGNMENT ( #1111, #646, ( #912 ) ) ;
#45 = EDGE_CURVE ( 'NONE', #1039, #259, #953, .T. ) ;
#46 = DIRECTION ( 'NONE',  ( -0.000000000000000000, -1.000000000000000000, -0.000000000000000000 ) ) ;
#47 = ORIENTED_EDGE ( 'NONE', *, *, #995, .F. ) ;
#48 = EDGE_CURVE ( 'NONE', #224, #32, #141, .T. ) ;
#49 = DIRECTION ( 'NONE',  ( -2.168404344971006896E-16, -1.000000000000000000, 0.000000000000000000 ) ) ;
#50 = CARTESIAN_POINT ( 'NONE',  ( 7.200000000000000178, -4.599999999999985434, 3.899999999999999911 ) ) ;
#51 = CARTESIAN_POINT ( 'NONE',  ( 17.19999999999999929, -5.299999999999998934, 3.899999999999999911 ) ) ;
#52 = CARTESIAN_POINT ( 'NONE',  ( 22.19999999999999929, -3.100000000000000533, 3.899999999999999911 ) ) ;
#53 = ORIENTED_EDGE ( 'NONE', *, *, #681, .F. ) ;
#54 = ADVANCED_FACE ( 'NONE', ( #1143 ), #686, .F. ) ;
#55 = DIRECTION ( 'NONE',  ( 1.000000000000000000, 0.000000000000000000, 0.000000000000000000 ) ) ;
#56 = LINE ( 'NONE', #596, #241 ) ;
#57 = ORIENTED_EDGE ( 'NONE', *, *, #333, .F. ) ;
#58 = PERSON_AND_ORGANIZATION ( #782, #450 ) ;
#59 = ORIENTED_EDGE ( 'NONE', *, *, #637, .T. ) ;
#60 = DIRECTION ( 'NONE',  ( -0.000000000000000000, -0.000000000000000000, -1.000000000000000000 ) ) ;
#61 = EDGE_CURVE ( 'NONE', #32, #693, #601, .T. ) ;
#62 = DIRECTION ( 'NONE',  ( 1.000000000000000000, 0.000000000000000000, 0.000000000000000000 ) ) ;
#63 = VECTOR ( 'NONE', #939, 1000.000000000000000 ) ;
#64 = ORIENTED_EDGE ( 'NONE', *, *, #176, .F. ) ;
#65 = APPLICATION_PROTOCOL_DEFINITION ( 'international standard', 'config_control_design', 1994, #940 ) ;
#66 = AXIS2_PLACEMENT_3D ( 'NONE', #739, #830, #1007 ) ;
#67 = ORIENTED_EDGE ( 'NONE', *, *, #597, .F. ) ;
#68 = DIRECTION ( 'NONE',  ( -2.168404344971006896E-16, -1.000000000000000000, -0.000000000000000000 ) ) ;
#69 = CARTESIAN_POINT ( 'NONE',  ( 8.327598234202000132E-16, -6.799999999999999822, 0.000000000000000000 ) ) ;
#70 = ORIENTED_EDGE ( 'NONE', *, *, #218, .F. ) ;
#71 = MANIFOLD_SOLID_BREP ( '倒角1', #922 ) ;
#72 = CARTESIAN_POINT ( 'NONE',  ( 19.79999999999999716, 2.000000000000000000, 2.750000000000000444 ) ) ;
#73 = ORIENTED_EDGE ( 'NONE', *, *, #597, .T. ) ;
#74 = DIRECTION ( 'NONE',  ( 1.000000000000000000, -0.000000000000000000, -0.000000000000000000 ) ) ;
#75 = VECTOR ( 'NONE', #859, 1000.000000000000000 ) ;
#76 = CYLINDRICAL_SURFACE ( 'NONE', #320, 1.000000000000000000 ) ;
#77 = EDGE_CURVE ( 'NONE', #255, #645, #591, .T. ) ;
#78 = ORIENTED_EDGE ( 'NONE', *, *, #315, .F. ) ;
#79 = DIRECTION ( 'NONE',  ( -0.000000000000000000, -0.000000000000000000, -1.000000000000000000 ) ) ;
#80 = ADVANCED_BREP_SHAPE_REPRESENTATION ( '锁芯', ( #71, #1122 ), #88 ) ;
#81 = LINE ( 'NONE', #1098, #1024 ) ;
#82 = CC_DESIGN_APPROVAL ( #902, ( #1178 ) ) ;
#83 = ORIENTED_EDGE ( 'NONE', *, *, #112, .T. ) ;
#84 = DIRECTION ( 'NONE',  ( -0.000000000000000000, -0.000000000000000000, -1.000000000000000000 ) ) ;
#85 = VECTOR ( 'NONE', #68, 1000.000000000000000 ) ;
#86 = EDGE_CURVE ( 'NONE', #27, #661, #874, .T. ) ;
#87 = EDGE_CURVE ( 'NONE', #592, #1126, #120, .T. ) ;
#88 =( GEOMETRIC_REPRESENTATION_CONTEXT ( 3 ) GLOBAL_UNCERTAINTY_ASSIGNED_CONTEXT ( ( #93 ) ) GLOBAL_UNIT_ASSIGNED_CONTEXT ( ( #1080, #1174, #618 ) ) REPRESENTATION_CONTEXT ( 'NONE', 'WORKASPACE' ) );
#89 = CARTESIAN_POINT ( 'NONE',  ( 22.19999999999999929, -1.700000000000000178, -0.000000000000000000 ) ) ;
#90 = CARTESIAN_POINT ( 'NONE',  ( 7.200000000000000178, -3.599999999999999645, 3.899999999999999911 ) ) ;
#91 = EDGE_LOOP ( 'NONE', ( #533, #168, #1109, #249 ) ) ;
#92 = APPROVAL_DATE_TIME ( #1106, #902 ) ;
#93 = UNCERTAINTY_MEASURE_WITH_UNIT (LENGTH_MEASURE( 1.000000000000000082E-05 ), #1080, 'distance_accuracy_value', 'NONE');
#94 = EDGE_CURVE ( 'NONE', #729, #544, #329, .T. ) ;
#95 = CARTESIAN_POINT ( 'NONE',  ( 21.40000000000000213, -5.100000000000000533, 2.750000000000000444 ) ) ;
#96 = DIRECTION ( 'NONE',  ( -1.224646799147352714E-16, 1.000000000000000000, 0.000000000000000000 ) ) ;
#97 = EDGE_LOOP ( 'NONE', ( #451, #226, #413, #438 ) ) ;
#98 = EDGE_CURVE ( 'NONE', #917, #1104, #972, .T. ) ;
#99 = CARTESIAN_POINT ( 'NONE',  ( 0.000000000000000000, 2.000000000000000000, 3.899999999999999911 ) ) ;
#100 = LINE ( 'NONE', #629, #734 ) ;
#101 = EDGE_CURVE ( 'NONE', #286, #432, #116, .T. ) ;
#102 = ORIENTED_EDGE ( 'NONE', *, *, #380, .T. ) ;
#103 = COORDINATED_UNIVERSAL_TIME_OFFSET ( 8, 0, .AHEAD. ) ;
#104 = VECTOR ( 'NONE', #955, 1000.000000000000000 ) ;
#105 = FACE_OUTER_BOUND ( 'NONE', #746, .T. ) ;
#106 = PLANE ( 'NONE',  #675 ) ;
#107 = ORIENTED_EDGE ( 'NONE', *, *, #421, .F. ) ;
#108 = SHAPE_DEFINITION_REPRESENTATION ( #1089, #80 ) ;
#109 = FACE_OUTER_BOUND ( 'NONE', #660, .T. ) ;
#110 = DIRECTION ( 'NONE',  ( 0.000000000000000000, -0.000000000000000000, -1.000000000000000000 ) ) ;
#111 = ORIENTED_EDGE ( 'NONE', *, *, #543, .F. ) ;
#112 = EDGE_CURVE ( 'NONE', #152, #906, #396, .T. ) ;
#113 = VERTEX_POINT ( 'NONE', #760 ) ;
#114 = LINE ( 'NONE', #481, #486 ) ;
#115 = FACE_OUTER_BOUND ( 'NONE', #613, .T. ) ;
#116 =( BOUNDED_CURVE ( )  B_SPLINE_CURVE ( 3, ( #403, #574, #485, #853 ),
 .UNSPECIFIED., .F., .F. ) 
 B_SPLINE_CURVE_WITH_KNOTS ( ( 4, 4 ),
 ( 3.141592653589794004, 4.712388980384688786 ),
 .UNSPECIFIED. ) 
 CURVE ( )  GEOMETRIC_REPRESENTATION_ITEM ( )  RATIONAL_B_SPLINE_CURVE ( ( 1.000000000000000000, 0.8047378541243654926, 0.8047378541243654926, 1.000000000000000000 ) ) 
 REPRESENTATION_ITEM ( '' )  );
#117 = CARTESIAN_POINT ( 'NONE',  ( 19.80000000000000071, 2.000000000000000000, 1.149999999999999689 ) ) ;
#118 = APPLICATION_CONTEXT ( 'configuration controlled 3d designs of mechanical parts and assemblies' ) ;
#119 = ORIENTED_EDGE ( 'NONE', *, *, #45, .T. ) ;
#120 = LINE ( 'NONE', #213, #1033 ) ;
#121 = EDGE_LOOP ( 'NONE', ( #701, #821, #460, #211 ) ) ;
#122 = CARTESIAN_POINT ( 'NONE',  ( 22.19999999999999929, -5.299999999999998934, 3.899999999999999911 ) ) ;
#123 = VECTOR ( 'NONE', #589, 1000.000000000000000 ) ;
#124 = VECTOR ( 'NONE', #994, 1000.000000000000000 ) ;
#125 = LINE ( 'NONE', #203, #1045 ) ;
#126 = ORIENTED_EDGE ( 'NONE', *, *, #94, .F. ) ;
#127 = DIRECTION ( 'NONE',  ( 1.000000000000000000, 0.000000000000000000, 0.000000000000000000 ) ) ;
#128 = ORIENTED_EDGE ( 'NONE', *, *, #98, .T. ) ;
#129 = CARTESIAN_POINT ( 'NONE',  ( 4.000000000000000000, -3.600000000000000089, 3.899999999999999911 ) ) ;
#130 = ADVANCED_FACE ( 'NONE', ( #309 ), #666, .F. ) ;
#131 = CARTESIAN_POINT ( 'NONE',  ( 17.19999999999999929, -5.299999999999998934, 3.899999999999999911 ) ) ;
#132 = CARTESIAN_POINT ( 'NONE',  ( 8.327598234202000132E-16, -6.799999999999999822, 3.899999999999999911 ) ) ;
#133 = ORIENTED_EDGE ( 'NONE', *, *, #473, .F. ) ;
#134 = CARTESIAN_POINT ( 'NONE',  ( 19.79999999999999716, -5.099999999999999645, 1.149999999999999689 ) ) ;
#135 = APPROVAL ( #425, '未指定' ) ;
#136 = LINE ( 'NONE', #42, #634 ) ;
#137 = DIRECTION ( 'NONE',  ( -1.000000000000000000, 0.000000000000000000, -0.000000000000000000 ) ) ;
#138 = ADVANCED_FACE ( 'NONE', ( #586 ), #958, .F. ) ;
#139 = ORIENTED_EDGE ( 'NONE', *, *, #1194, .T. ) ;
#140 = EDGE_CURVE ( 'NONE', #1185, #592, #555, .T. ) ;
#141 = LINE ( 'NONE', #779, #1011 ) ;
#142 = ORIENTED_EDGE ( 'NONE', *, *, #191, .T. ) ;
#143 = DIRECTION ( 'NONE',  ( -1.000000000000000000, -0.000000000000000000, -0.000000000000000000 ) ) ;
#144 = FACE_OUTER_BOUND ( 'NONE', #514, .T. ) ;
#145 = VECTOR ( 'NONE', #1123, 1000.000000000000000 ) ;
#146 = FACE_OUTER_BOUND ( 'NONE', #1173, .T. ) ;
#147 = VECTOR ( 'NONE', #281, 1000.000000000000000 ) ;
#148 = CARTESIAN_POINT ( 'NONE',  ( 22.19999999999999929, -5.100000000000000533, -0.000000000000000000 ) ) ;
#149 = ORIENTED_EDGE ( 'NONE', *, *, #264, .T. ) ;
#150 = DIRECTION ( 'NONE',  ( 0.000000000000000000, 0.000000000000000000, -1.000000000000000000 ) ) ;
#151 = CARTESIAN_POINT ( 'NONE',  ( 18.19999999999999574, -5.099999999999999645, 3.899999999999999911 ) ) ;
#152 = VERTEX_POINT ( 'NONE', #99 ) ;
#153 = PERSON_AND_ORGANIZATION_ROLE ( 'design_owner' ) ;
#154 = VERTEX_POINT ( 'NONE', #181 ) ;
#155 = EDGE_CURVE ( 'NONE', #272, #190, #1083, .T. ) ;
#156 = LINE ( 'NONE', #986, #894 ) ;
#157 = CARTESIAN_POINT ( 'NONE',  ( 19.79999999999999716, 2.000000000000000000, 3.899999999999999911 ) ) ;
#158 = VERTEX_POINT ( 'NONE', #1001 ) ;
#159 = FACE_OUTER_BOUND ( 'NONE', #414, .T. ) ;
#160 = EDGE_LOOP ( 'NONE', ( #1175, #767, #64, #139 ) ) ;
#161 = LINE ( 'NONE', #229, #672 ) ;
#162 = CARTESIAN_POINT ( 'NONE',  ( 21.39999999999999858, -1.700000000000000178, 1.149999999999999689 ) ) ;
#163 = VECTOR ( 'NONE', #662, 1000.000000000000000 ) ;
#164 = VECTOR ( 'NONE', #378, 1000.000000000000000 ) ;
#165 = ORIENTED_EDGE ( 'NONE', *, *, #985, .F. ) ;
#166 = MECHANICAL_CONTEXT ( 'NONE', #940, 'mechanical' ) ;
#167 = VECTOR ( 'NONE', #616, 1000.000000000000000 ) ;
#168 = ORIENTED_EDGE ( 'NONE', *, *, #862, .F. ) ;
#169 = DIRECTION ( 'NONE',  ( 1.000000000000000000, 0.000000000000000000, -0.000000000000000000 ) ) ;
#170 = DIRECTION ( 'NONE',  ( 0.000000000000000000, 0.000000000000000000, 1.000000000000000000 ) ) ;
#171 = AXIS2_PLACEMENT_3D ( 'NONE', #196, #1107, #583 ) ;
#172 = EDGE_LOOP ( 'NONE', ( #1000, #390, #692, #926 ) ) ;
#173 = CARTESIAN_POINT ( 'NONE',  ( 0.000000000000000000, 0.000000000000000000, 3.899999999999999911 ) ) ;
#174 = DIRECTION ( 'NONE',  ( 0.000000000000000000, -1.000000000000000000, 0.000000000000000000 ) ) ;
#175 = VECTOR ( 'NONE', #188, 1000.000000000000000 ) ;
#176 = EDGE_CURVE ( 'NONE', #679, #387, #546, .T. ) ;
#177 = DIRECTION ( 'NONE',  ( 1.000000000000000000, 1.224646799147352714E-16, -0.000000000000000000 ) ) ;
#178 = ADVANCED_FACE ( 'NONE', ( #1097, #625 ), #914, .F. ) ;
#179 = ORIENTED_EDGE ( 'NONE', *, *, #771, .F. ) ;
#180 = CARTESIAN_POINT ( 'NONE',  ( 22.19999999999999929, 0.5000000000000000000, 7.700000000000000178 ) ) ;
#181 = CARTESIAN_POINT ( 'NONE',  ( 18.19999999999999929, -4.299999999999998934, 7.700000000000000178 ) ) ;
#182 = PLANE ( 'NONE',  #25 ) ;
#183 = ORIENTED_EDGE ( 'NONE', *, *, #299, .T. ) ;
#184 = EDGE_CURVE ( 'NONE', #1126, #233, #262, .T. ) ;
#185 = COORDINATED_UNIVERSAL_TIME_OFFSET ( 8, 0, .AHEAD. ) ;
#186 = VECTOR ( 'NONE', #763, 1000.000000000000000 ) ;
#187 = AXIS2_PLACEMENT_3D ( 'NONE', #173, #534, #545 ) ;
#188 = DIRECTION ( 'NONE',  ( -2.168404344971006896E-16, -1.000000000000000000, -0.000000000000000000 ) ) ;
#189 = CARTESIAN_POINT ( 'NONE',  ( 7.200000000000000178, -3.599999999999999645, 0.000000000000000000 ) ) ;
#190 = VERTEX_POINT ( 'NONE', #95 ) ;
#191 = EDGE_CURVE ( 'NONE', #420, #923, #1006, .T. ) ;
#192 = PLANE ( 'NONE',  #1171 ) ;
#193 = CARTESIAN_POINT ( 'NONE',  ( 22.19999999999999929, -5.100000000000000533, -0.000000000000000000 ) ) ;
#194 = VECTOR ( 'NONE', #316, 1000.000000000000000 ) ;
#195 = EDGE_LOOP ( 'NONE', ( #57, #951, #223, #133 ) ) ;
#196 = CARTESIAN_POINT ( 'NONE',  ( 0.000000000000000000, 0.000000000000000000, 3.899999999999999911 ) ) ;
#197 = LINE ( 'NONE', #11, #973 ) ;
#198 = ORIENTED_EDGE ( 'NONE', *, *, #86, .F. ) ;
#199 = PERSON_AND_ORGANIZATION ( #782, #450 ) ;
#200 = VECTOR ( 'NONE', #150, 1000.000000000000000 ) ;
#201 = DIRECTION ( 'NONE',  ( -1.000000000000000000, 0.000000000000000000, -0.000000000000000000 ) ) ;
#202 = CARTESIAN_POINT ( 'NONE',  ( 17.19999999999999929, -6.799999999999999822, 3.899999999999999911 ) ) ;
#203 = CARTESIAN_POINT ( 'NONE',  ( 18.19999999999999574, -5.099999999999999645, -0.000000000000000000 ) ) ;
#204 = EDGE_CURVE ( 'NONE', #756, #898, #726, .T. ) ;
#205 = ORIENTED_EDGE ( 'NONE', *, *, #355, .T. ) ;
#206 = APPROVAL_DATE_TIME ( #1017, #1092 ) ;
#207 = CARTESIAN_POINT ( 'NONE',  ( 19.79999999999999716, -1.700000000000000178, 2.750000000000000444 ) ) ;
#208 = DIRECTION ( 'NONE',  ( 0.000000000000000000, 0.000000000000000000, -1.000000000000000000 ) ) ;
#209 = DIRECTION ( 'NONE',  ( 0.000000000000000000, 1.000000000000000000, 0.000000000000000000 ) ) ;
#210 = VECTOR ( 'NONE', #1187, 1000.000000000000000 ) ;
#211 = ORIENTED_EDGE ( 'NONE', *, *, #1040, .T. ) ;
#212 = EDGE_CURVE ( 'NONE', #441, #1070, #924, .T. ) ;
#213 = CARTESIAN_POINT ( 'NONE',  ( 17.19999999999999929, -5.299999999999998934, 3.899999999999999911 ) ) ;
#214 = VERTEX_POINT ( 'NONE', #824 ) ;
#215 = DIRECTION ( 'NONE',  ( 1.000000000000000000, -2.168404344971006896E-16, 0.000000000000000000 ) ) ;
#216 = PLANE ( 'NONE',  #531 ) ;
#217 = ORIENTED_EDGE ( 'NONE', *, *, #554, .T. ) ;
#218 = EDGE_CURVE ( 'NONE', #906, #827, #1192, .T. ) ;
#219 = CARTESIAN_POINT ( 'NONE',  ( 19.79999999999999716, -3.100000000000000533, 2.750000000000000444 ) ) ;
#220 = VERTEX_POINT ( 'NONE', #813 ) ;
#221 = DIRECTION ( 'NONE',  ( -0.000000000000000000, 0.000000000000000000, 1.000000000000000000 ) ) ;
#222 = CARTESIAN_POINT ( 'NONE',  ( 0.000000000000000000, -0.4999999999999997780, 6.700000000000000178 ) ) ;
#223 = ORIENTED_EDGE ( 'NONE', *, *, #264, .F. ) ;
#224 = VERTEX_POINT ( 'NONE', #369 ) ;
#225 = DIRECTION ( 'NONE',  ( 0.000000000000000000, 0.000000000000000000, 1.000000000000000000 ) ) ;
#226 = ORIENTED_EDGE ( 'NONE', *, *, #818, .T. ) ;
#227 = FACE_OUTER_BOUND ( 'NONE', #803, .T. ) ;
#228 = EDGE_CURVE ( 'NONE', #233, #420, #280, .T. ) ;
#229 = CARTESIAN_POINT ( 'NONE',  ( 18.19999999999999574, -5.099999999999999645, 3.899999999999999911 ) ) ;
#230 = ADVANCED_FACE ( 'NONE', ( #829 ), #638, .F. ) ;
#231 = CARTESIAN_POINT ( 'NONE',  ( 21.39999999999999858, -1.700000000000000178, 3.899999999999999911 ) ) ;
#232 = DIRECTION ( 'NONE',  ( -0.000000000000000000, -0.000000000000000000, -1.000000000000000000 ) ) ;
#233 = VERTEX_POINT ( 'NONE', #992 ) ;
#234 = LINE ( 'NONE', #593, #733 ) ;
#235 = DIRECTION ( 'NONE',  ( 1.000000000000000000, 0.000000000000000000, 0.000000000000000000 ) ) ;
#236 = CARTESIAN_POINT ( 'NONE',  ( 19.80000000000000071, 9.899999999999998579, 1.149999999999999689 ) ) ;
#237 = LINE ( 'NONE', #322, #400 ) ;
#238 = VERTEX_POINT ( 'NONE', #998 ) ;
#239 = CARTESIAN_POINT ( 'NONE',  ( 21.19999999999999929, -4.299999999999998934, 7.700000000000000178 ) ) ;
#240 = LINE ( 'NONE', #50, #200 ) ;
#241 = VECTOR ( 'NONE', #1166, 1000.000000000000000 ) ;
#242 = DIRECTION ( 'NONE',  ( 0.000000000000000000, 0.000000000000000000, -1.000000000000000000 ) ) ;
#243 = AXIS2_PLACEMENT_3D ( 'NONE', #657, #644, #475 ) ;
#244 = ADVANCED_FACE ( 'NONE', ( #819 ), #192, .F. ) ;
#245 = ORIENTED_EDGE ( 'NONE', *, *, #910, .F. ) ;
#246 = ORIENTED_EDGE ( 'NONE', *, *, #299, .F. ) ;
#247 = CARTESIAN_POINT ( 'NONE',  ( 17.61421356237309510, 0.08578643762690478514, 7.699999999999999289 ) ) ;
#248 = CARTESIAN_POINT ( 'NONE',  ( 22.19999999999999574, 2.000000000000000000, 3.899999999999999911 ) ) ;
#249 = ORIENTED_EDGE ( 'NONE', *, *, #560, .T. ) ;
#250 = CARTESIAN_POINT ( 'NONE',  ( 22.19999999999999929, 0.5000000000000000000, 6.700000000000001066 ) ) ;
#251 = EDGE_LOOP ( 'NONE', ( #535, #557, #599, #73, #480 ) ) ;
#252 = LINE ( 'NONE', #1063, #123 ) ;
#253 = LINE ( 'NONE', #872, #655 ) ;
#254 = ORIENTED_EDGE ( 'NONE', *, *, #505, .T. ) ;
#255 = VERTEX_POINT ( 'NONE', #536 ) ;
#256 = CARTESIAN_POINT ( 'NONE',  ( 17.19999999999999929, -6.799999999999999822, 0.000000000000000000 ) ) ;
#257 = CC_DESIGN_SECURITY_CLASSIFICATION ( #912, ( #1178 ) ) ;
#258 = CARTESIAN_POINT ( 'NONE',  ( 19.79999999999999716, -5.099999999999999645, 1.149999999999999689 ) ) ;
#259 = VERTEX_POINT ( 'NONE', #901 ) ;
#260 = LINE ( 'NONE', #180, #392 ) ;
#261 = CC_DESIGN_DATE_AND_TIME_ASSIGNMENT ( #388, #844, ( #990 ) ) ;
#262 = LINE ( 'NONE', #1087, #685 ) ;
#263 = EDGE_CURVE ( 'NONE', #1039, #609, #721, .T. ) ;
#264 = EDGE_CURVE ( 'NONE', #833, #113, #354, .T. ) ;
#265 = CARTESIAN_POINT ( 'NONE',  ( 21.40000000000000213, 2.000000000000000000, 3.899999999999999911 ) ) ;
#266 = PRODUCT ( '锁芯', '锁芯', '', ( #166 ) ) ;
#267 = ORIENTED_EDGE ( 'NONE', *, *, #9, .F. ) ;
#268 = DIRECTION ( 'NONE',  ( 1.000000000000000000, 0.000000000000000000, 0.000000000000000000 ) ) ;
#269 = PLANE ( 'NONE',  #8 ) ;
#270 = LINE ( 'NONE', #463, #279 ) ;
#271 = ADVANCED_FACE ( 'NONE', ( #628 ), #269, .T. ) ;
#272 = VERTEX_POINT ( 'NONE', #1014 ) ;
#273 = VECTOR ( 'NONE', #1028, 1000.000000000000000 ) ;
#274 = CARTESIAN_POINT ( 'NONE',  ( 4.000000000000000000, -3.600000000000000089, 3.899999999999999911 ) ) ;
#275 = DIRECTION ( 'NONE',  ( 0.000000000000000000, 1.000000000000000000, -0.000000000000000000 ) ) ;
#276 = CARTESIAN_POINT ( 'NONE',  ( 19.79999999999999716, -5.099999999999999645, 2.750000000000000444 ) ) ;
#277 = ORIENTED_EDGE ( 'NONE', *, *, #1129, .T. ) ;
#278 = AXIS2_PLACEMENT_3D ( 'NONE', #1153, #689, #605 ) ;
#279 = VECTOR ( 'NONE', #1002, 1000.000000000000000 ) ;
#280 = LINE ( 'NONE', #1183, #980 ) ;
#281 = DIRECTION ( 'NONE',  ( 1.000000000000000000, -2.168404344971005170E-16, -0.000000000000000000 ) ) ;
#282 = ORIENTED_EDGE ( 'NONE', *, *, #641, .F. ) ;
#283 = PLANE ( 'NONE',  #620 ) ;
#284 = DIRECTION ( 'NONE',  ( -0.000000000000000000, -0.000000000000000000, -1.000000000000000000 ) ) ;
#285 = VECTOR ( 'NONE', #880, 1000.000000000000000 ) ;
#286 = VERTEX_POINT ( 'NONE', #757 ) ;
#287 = PERSON_AND_ORGANIZATION_ROLE ( 'creator' ) ;
#288 = DIRECTION ( 'NONE',  ( 0.000000000000000000, 0.000000000000000000, -1.000000000000000000 ) ) ;
#289 = ADVANCED_FACE ( 'NONE', ( #105 ), #1113, .T. ) ;
#290 = DIRECTION ( 'NONE',  ( -1.000000000000000000, 0.000000000000000000, 0.000000000000000000 ) ) ;
#291 = LINE ( 'NONE', #857, #186 ) ;
#292 = APPROVAL_PERSON_ORGANIZATION ( #199, #1092, #1125 ) ;
#293 = ORIENTED_EDGE ( 'NONE', *, *, #112, .F. ) ;
#294 = CALENDAR_DATE ( 2020, 30, 7 ) ;
#295 = VECTOR ( 'NONE', #1064, 1000.000000000000000 ) ;
#296 = CARTESIAN_POINT ( 'NONE',  ( 21.19999999999999574, 8.358213111524615713E-15, 7.700000000000000178 ) ) ;
#297 = AXIS2_PLACEMENT_3D ( 'NONE', #202, #1029, #570 ) ;
#298 = CARTESIAN_POINT ( 'NONE',  ( 0.000000000000000000, -4.299999999999998934, 7.700000000000000178 ) ) ;
#299 = EDGE_CURVE ( 'NONE', #1164, #441, #384, .T. ) ;
#300 = EDGE_CURVE ( 'NONE', #272, #27, #847, .T. ) ;
#301 = PLANE ( 'NONE',  #831 ) ;
#302 = ORIENTED_EDGE ( 'NONE', *, *, #1112, .F. ) ;
#303 = VERTEX_POINT ( 'NONE', #1127 ) ;
#304 = CARTESIAN_POINT ( 'NONE',  ( 0.000000000000000000, 0.000000000000000000, 3.899999999999999911 ) ) ;
#305 = LINE ( 'NONE', #394, #1121 ) ;
#306 = VECTOR ( 'NONE', #453, 1000.000000000000000 ) ;
#307 = ADVANCED_FACE ( 'NONE', ( #391 ), #1036, .F. ) ;
#308 = ORIENTED_EDGE ( 'NONE', *, *, #735, .F. ) ;
#309 = FACE_OUTER_BOUND ( 'NONE', #434, .T. ) ;
#310 = VERTEX_POINT ( 'NONE', #207 ) ;
#311 = CARTESIAN_POINT ( 'NONE',  ( 17.61421356237309510, -4.885786437626904011, 7.699999999999999289 ) ) ;
#312 = CARTESIAN_POINT ( 'NONE',  ( 19.80000000000000071, 9.899999999999998579, 1.149999999999999689 ) ) ;
#313 = EDGE_CURVE ( 'NONE', #619, #220, #948, .T. ) ;
#314 = ORIENTED_EDGE ( 'NONE', *, *, #764, .T. ) ;
#315 = EDGE_CURVE ( 'NONE', #432, #786, #467, .T. ) ;
#316 = DIRECTION ( 'NONE',  ( 0.000000000000000000, 1.000000000000000000, 0.000000000000000000 ) ) ;
#317 = ORIENTED_EDGE ( 'NONE', *, *, #1026, .F. ) ;
#318 = LINE ( 'NONE', #775, #389 ) ;
#319 = VECTOR ( 'NONE', #949, 1000.000000000000000 ) ;
#320 = AXIS2_PLACEMENT_3D ( 'NONE', #626, #999, #1184 ) ;
#321 = CARTESIAN_POINT ( 'NONE',  ( 19.80000000000000071, 9.899999999999998579, 2.750000000000000444 ) ) ;
#322 = CARTESIAN_POINT ( 'NONE',  ( 17.19999999999999929, 0.5000000000000000000, 6.700000000000000178 ) ) ;
#323 = ORIENTED_EDGE ( 'NONE', *, *, #690, .F. ) ;
#324 = EDGE_CURVE ( 'NONE', #1070, #32, #927, .T. ) ;
#325 = CARTESIAN_POINT ( 'NONE',  ( 22.19999999999999929, -6.799999999999999822, 3.899999999999999911 ) ) ;
#326 = DIRECTION ( 'NONE',  ( 2.168404344971006896E-16, 1.000000000000000000, 0.000000000000000000 ) ) ;
#327 = CARTESIAN_POINT ( 'NONE',  ( 17.19999999999999929, -5.299999999999998934, 6.700000000000000178 ) ) ;
#328 =( BOUNDED_CURVE ( )  B_SPLINE_CURVE ( 3, ( #1051, #247, #337, #595 ),
 .UNSPECIFIED., .F., .F. ) 
 B_SPLINE_CURVE_WITH_KNOTS ( ( 4, 4 ),
 ( 4.712388980384689674, 6.283185307179585344 ),
 .UNSPECIFIED. ) 
 CURVE ( )  GEOMETRIC_REPRESENTATION_ITEM ( )  RATIONAL_B_SPLINE_CURVE ( ( 1.000000000000000000, 0.8047378541243649375, 0.8047378541243649375, 1.000000000000000000 ) ) 
 REPRESENTATION_ITEM ( '' )  );
#329 = LINE ( 'NONE', #1060, #742 ) ;
#330 = ORIENTED_EDGE ( 'NONE', *, *, #366, .T. ) ;
#331 = CARTESIAN_POINT ( 'NONE',  ( 19.79999999999999716, -5.099999999999999645, 1.149999999999999689 ) ) ;
#332 = CARTESIAN_POINT ( 'NONE',  ( 0.000000000000000000, 2.000000000000000000, 3.899999999999999911 ) ) ;
#333 = EDGE_CURVE ( 'NONE', #524, #917, #376, .T. ) ;
#334 = LINE ( 'NONE', #51, #971 ) ;
#335 = CARTESIAN_POINT ( 'NONE',  ( 22.19999999999999929, -1.700000000000000178, 1.149999999999999911 ) ) ;
#336 = ORIENTED_EDGE ( 'NONE', *, *, #846, .F. ) ;
#337 = CARTESIAN_POINT ( 'NONE',  ( 17.19999999999999929, 0.5000000000000000000, 7.285786437626905254 ) ) ;
#338 = VECTOR ( 'NONE', #590, 1000.000000000000000 ) ;
#339 = DIRECTION ( 'NONE',  ( -0.000000000000000000, -0.000000000000000000, -1.000000000000000000 ) ) ;
#340 = AXIS2_PLACEMENT_3D ( 'NONE', #606, #412, #968 ) ;
#341 = ORIENTED_EDGE ( 'NONE', *, *, #607, .T. ) ;
#342 = ORIENTED_EDGE ( 'NONE', *, *, #184, .T. ) ;
#343 = LINE ( 'NONE', #248, #1022 ) ;
#344 = ADVANCED_FACE ( 'NONE', ( #743 ), #283, .F. ) ;
#345 = ORIENTED_EDGE ( 'NONE', *, *, #313, .T. ) ;
#346 = PLANE ( 'NONE',  #4 ) ;
#347 = EDGE_LOOP ( 'NONE', ( #520, #424, #47, #653 ) ) ;
#348 = PLANE ( 'NONE',  #1161 ) ;
#349 = DIRECTION ( 'NONE',  ( -1.000000000000000000, -1.355252715606880789E-16, 0.000000000000000000 ) ) ;
#350 = VERTEX_POINT ( 'NONE', #22 ) ;
#351 = ORIENTED_EDGE ( 'NONE', *, *, #698, .F. ) ;
#352 = ADVANCED_FACE ( 'NONE', ( #373 ), #30, .F. ) ;
#353 = ADVANCED_FACE ( 'NONE', ( #748 ), #738, .F. ) ;
#354 = LINE ( 'NONE', #447, #720 ) ;
#355 = EDGE_CURVE ( 'NONE', #154, #255, #1019, .T. ) ;
#356 = LINE ( 'NONE', #1108, #1181 ) ;
#357 = VECTOR ( 'NONE', #503, 1000.000000000000000 ) ;
#358 = VECTOR ( 'NONE', #242, 1000.000000000000000 ) ;
#359 = ORIENTED_EDGE ( 'NONE', *, *, #140, .F. ) ;
#360 = DIRECTION ( 'NONE',  ( -0.000000000000000000, -0.000000000000000000, -1.000000000000000000 ) ) ;
#361 = LINE ( 'NONE', #717, #1103 ) ;
#362 = ORIENTED_EDGE ( 'NONE', *, *, #300, .F. ) ;
#363 = LINE ( 'NONE', #433, #549 ) ;
#364 = DIRECTION ( 'NONE',  ( -0.000000000000000000, -0.000000000000000000, -1.000000000000000000 ) ) ;
#365 = CARTESIAN_POINT ( 'NONE',  ( 22.19999999999999574, 0.4999999999999995559, 3.899999999999999911 ) ) ;
#366 = EDGE_CURVE ( 'NONE', #238, #395, #495, .T. ) ;
#367 = ORIENTED_EDGE ( 'NONE', *, *, #560, .F. ) ;
#368 = PERSON_AND_ORGANIZATION ( #782, #450 ) ;
#369 = CARTESIAN_POINT ( 'NONE',  ( 22.19999999999999574, 2.000000000000000000, 3.899999999999999911 ) ) ;
#370 = FACE_OUTER_BOUND ( 'NONE', #455, .T. ) ;
#371 = EDGE_LOOP ( 'NONE', ( #954, #518, #780, #1081 ) ) ;
#372 = AXIS2_PLACEMENT_3D ( 'NONE', #751, #676, #863 ) ;
#373 = FACE_OUTER_BOUND ( 'NONE', #900, .T. ) ;
#374 = PLANE ( 'NONE',  #66 ) ;
#375 = ORIENTED_EDGE ( 'NONE', *, *, #263, .F. ) ;
#376 = LINE ( 'NONE', #16, #650 ) ;
#377 = DIRECTION ( 'NONE',  ( 1.000000000000000000, 0.000000000000000000, 0.000000000000000000 ) ) ;
#378 = DIRECTION ( 'NONE',  ( -2.168404344971006896E-16, -1.000000000000000000, -0.000000000000000000 ) ) ;
#379 = ORIENTED_EDGE ( 'NONE', *, *, #333, .T. ) ;
#380 = EDGE_CURVE ( 'NONE', #687, #310, #1119, .T. ) ;
#381 = CALENDAR_DATE ( 2020, 30, 7 ) ;
#382 = EDGE_CURVE ( 'NONE', #609, #1164, #114, .T. ) ;
#383 = EDGE_CURVE ( 'NONE', #255, #1185, #318, .T. ) ;
#384 = LINE ( 'NONE', #576, #163 ) ;
#385 = PLANE ( 'NONE',  #243 ) ;
#386 = FACE_OUTER_BOUND ( 'NONE', #251, .T. ) ;
#387 = VERTEX_POINT ( 'NONE', #501 ) ;
#388 = DATE_AND_TIME ( #1191, #20 ) ;
#389 = VECTOR ( 'NONE', #1145, 1000.000000000000000 ) ;
#390 = ORIENTED_EDGE ( 'NONE', *, *, #1078, .T. ) ;
#391 = FACE_OUTER_BOUND ( 'NONE', #699, .T. ) ;
#392 = VECTOR ( 'NONE', #791, 1000.000000000000000 ) ;
#393 = ADVANCED_FACE ( 'NONE', ( #869, #410 ), #1139, .F. ) ;
#394 = CARTESIAN_POINT ( 'NONE',  ( 21.39999999999999858, -3.100000000000000533, 3.899999999999999911 ) ) ;
#395 = VERTEX_POINT ( 'NONE', #768 ) ;
#396 = LINE ( 'NONE', #1034, #723 ) ;
#397 = ORIENTED_EDGE ( 'NONE', *, *, #818, .F. ) ;
#398 = CARTESIAN_POINT ( 'NONE',  ( 17.19999999999999929, 0.000000000000000000, 3.899999999999999911 ) ) ;
#399 = DIRECTION ( 'NONE',  ( -1.000000000000000000, -3.942553354492744024E-16, 0.000000000000000000 ) ) ;
#400 = VECTOR ( 'NONE', #1137, 1000.000000000000000 ) ;
#401 = ADVANCED_FACE ( 'NONE', ( #416 ), #876, .F. ) ;
#402 = ORIENTED_EDGE ( 'NONE', *, *, #600, .T. ) ;
#403 = CARTESIAN_POINT ( 'NONE',  ( 22.19999999999999929, -5.299999999999998934, 6.700000000000001066 ) ) ;
#404 = ORIENTED_EDGE ( 'NONE', *, *, #1152, .T. ) ;
#405 = DIRECTION ( 'NONE',  ( 2.168404344971005170E-16, 1.000000000000000000, -0.000000000000000000 ) ) ;
#406 = DIRECTION ( 'NONE',  ( 0.000000000000000000, 0.000000000000000000, 1.000000000000000000 ) ) ;
#407 = ORIENTED_EDGE ( 'NONE', *, *, #1129, .F. ) ;
#408 = EDGE_LOOP ( 'NONE', ( #1049, #705, #282, #336 ) ) ;
#409 = VERTEX_POINT ( 'NONE', #331 ) ;
#410 = FACE_OUTER_BOUND ( 'NONE', #91, .T. ) ;
#411 = PLANE ( 'NONE',  #449 ) ;
#412 = DIRECTION ( 'NONE',  ( 0.000000000000000000, -1.000000000000000000, 0.000000000000000000 ) ) ;
#413 = ORIENTED_EDGE ( 'NONE', *, *, #204, .F. ) ;
#414 = EDGE_LOOP ( 'NONE', ( #816, #330, #792, #499 ) ) ;
#415 = ORIENTED_EDGE ( 'NONE', *, *, #1114, .F. ) ;
#416 = FACE_OUTER_BOUND ( 'NONE', #408, .T. ) ;
#417 = LINE ( 'NONE', #529, #24 ) ;
#418 = CARTESIAN_POINT ( 'NONE',  ( 22.19999999999999929, -6.799999999999999822, 0.000000000000000000 ) ) ;
#419 = CARTESIAN_POINT ( 'NONE',  ( 21.40000000000000213, 2.000000000000000000, 2.750000000000000444 ) ) ;
#420 = VERTEX_POINT ( 'NONE', #674 ) ;
#421 = EDGE_CURVE ( 'NONE', #982, #224, #688, .T. ) ;
#422 = CARTESIAN_POINT ( 'NONE',  ( 21.40000000000000213, 2.000000000000000000, 1.149999999999999689 ) ) ;
#423 = CARTESIAN_POINT ( 'NONE',  ( 7.200000000000000178, -4.599999999999985434, 0.000000000000000000 ) ) ;
#424 = ORIENTED_EDGE ( 'NONE', *, *, #683, .F. ) ;
#425 = APPROVAL_STATUS ( 'not_yet_approved' ) ;
#426 = ORIENTED_EDGE ( 'NONE', *, *, #513, .T. ) ;
#427 = CARTESIAN_POINT ( 'NONE',  ( 4.000000000000000000, 0.000000000000000000, 0.000000000000000000 ) ) ;
#428 = ADVANCED_FACE ( 'NONE', ( #227 ), #1062, .T. ) ;
#429 = VECTOR ( 'NONE', #1055, 1000.000000000000000 ) ;
#430 = DIRECTION ( 'NONE',  ( 0.000000000000000000, 1.000000000000000000, 0.000000000000000000 ) ) ;
#431 = AXIS2_PLACEMENT_3D ( 'NONE', #17, #208, #928 ) ;
#432 = VERTEX_POINT ( 'NONE', #239 ) ;
#433 = CARTESIAN_POINT ( 'NONE',  ( 22.19999999999999929, -5.299999999999998934, 7.700000000000000178 ) ) ;
#434 = EDGE_LOOP ( 'NONE', ( #909, #773, #341, #1169 ) ) ;
#435 = LINE ( 'NONE', #611, #85 ) ;
#436 = DIRECTION ( 'NONE',  ( 1.000000000000000000, 0.000000000000000000, 0.000000000000000000 ) ) ;
#437 = EDGE_CURVE ( 'NONE', #350, #409, #36, .T. ) ;
#438 = ORIENTED_EDGE ( 'NONE', *, *, #527, .F. ) ;
#439 = EDGE_CURVE ( 'NONE', #982, #592, #234, .T. ) ;
#440 = CARTESIAN_POINT ( 'NONE',  ( 19.20000000000000284, -3.100000000000000533, -0.000000000000000000 ) ) ;
#441 = VERTEX_POINT ( 'NONE', #896 ) ;
#442 = VECTOR ( 'NONE', #785, 1000.000000000000000 ) ;
#443 = CARTESIAN_POINT ( 'NONE',  ( 22.19999999999999929, -3.100000000000000533, 3.899999999999999911 ) ) ;
#444 = CARTESIAN_POINT ( 'NONE',  ( 21.40000000000000213, 9.899999999999998579, 2.750000000000000444 ) ) ;
#445 = ORIENTED_EDGE ( 'NONE', *, *, #324, .F. ) ;
#446 = PLANE ( 'NONE',  #187 ) ;
#447 = CARTESIAN_POINT ( 'NONE',  ( 7.200000000000000178, -4.599999999999985434, 0.000000000000000000 ) ) ;
#448 = CARTESIAN_POINT ( 'NONE',  ( 7.200000000000000178, -4.599999999999985434, 3.899999999999999911 ) ) ;
#449 = AXIS2_PLACEMENT_3D ( 'NONE', #776, #1146, #326 ) ;
#450 = ORGANIZATION ( '未指定', '未指定', '' ) ;
#451 = ORIENTED_EDGE ( 'NONE', *, *, #690, .T. ) ;
#452 = EDGE_CURVE ( 'NONE', #544, #888, #435, .T. ) ;
#453 = DIRECTION ( 'NONE',  ( -0.000000000000000000, -0.000000000000000000, -1.000000000000000000 ) ) ;
#454 = FACE_BOUND ( 'NONE', #371, .T. ) ;
#455 = EDGE_LOOP ( 'NONE', ( #673, #70, #293, #217 ) ) ;
#456 = APPROVAL_STATUS ( 'not_yet_approved' ) ;
#457 = AXIS2_PLACEMENT_3D ( 'NONE', #1009, #805, #621 ) ;
#458 = CARTESIAN_POINT ( 'NONE',  ( 21.40000000000000213, 9.899999999999998579, 1.149999999999999689 ) ) ;
#459 = DIRECTION ( 'NONE',  ( 0.000000000000000000, -1.000000000000000000, 0.000000000000000000 ) ) ;
#460 = ORIENTED_EDGE ( 'NONE', *, *, #774, .F. ) ;
#461 = DATE_AND_TIME ( #478, #755 ) ;
#462 = CARTESIAN_POINT ( 'NONE',  ( 19.80000000000000071, 9.899999999999998579, 2.750000000000000444 ) ) ;
#463 = CARTESIAN_POINT ( 'NONE',  ( 19.80000000000000071, 9.899999999999998579, 2.750000000000000444 ) ) ;
#464 = LOCAL_TIME ( 11, 48, 46.00000000000000000, #103 ) ;
#465 = ORIENTED_EDGE ( 'NONE', *, *, #87, .F. ) ;
#466 = VECTOR ( 'NONE', #1168, 1000.000000000000000 ) ;
#467 = LINE ( 'NONE', #296, #273 ) ;
#468 = PLANE ( 'NONE',  #431 ) ;
#469 = CC_DESIGN_PERSON_AND_ORGANIZATION_ASSIGNMENT ( #1013, #828, ( #1178 ) ) ;
#470 = CYLINDRICAL_SURFACE ( 'NONE', #752, 1.000000000000000000 ) ;
#471 = ORIENTED_EDGE ( 'NONE', *, *, #452, .F. ) ;
#472 = APPROVAL_STATUS ( 'not_yet_approved' ) ;
#473 = EDGE_CURVE ( 'NONE', #917, #833, #240, .T. ) ;
#474 = CARTESIAN_POINT ( 'NONE',  ( 18.19999999999999574, -5.099999999999999645, 3.899999999999999911 ) ) ;
#475 = DIRECTION ( 'NONE',  ( -1.000000000000000000, 0.000000000000000000, -0.000000000000000000 ) ) ;
#476 = CARTESIAN_POINT ( 'NONE',  ( 22.19999999999999929, -3.100000000000000533, 0.000000000000000000 ) ) ;
#477 = VERTEX_POINT ( 'NONE', #615 ) ;
#478 = CALENDAR_DATE ( 2020, 30, 7 ) ;
#479 = EDGE_CURVE ( 'NONE', #693, #827, #156, .T. ) ;
#480 = ORIENTED_EDGE ( 'NONE', *, *, #826, .T. ) ;
#481 = CARTESIAN_POINT ( 'NONE',  ( 22.19999999999999929, -3.100000000000000533, -0.000000000000000000 ) ) ;
#482 = CARTESIAN_POINT ( 'NONE',  ( 0.000000000000000000, 0.000000000000000000, 0.000000000000000000 ) ) ;
#483 = LINE ( 'NONE', #758, #319 ) ;
#484 = ORIENTED_EDGE ( 'NONE', *, *, #191, .F. ) ;
#485 = CARTESIAN_POINT ( 'NONE',  ( 21.78578643762689993, -4.885786437626903123, 7.699999999999998401 ) ) ;
#486 = VECTOR ( 'NONE', #781, 1000.000000000000000 ) ;
#487 = VERTEX_POINT ( 'NONE', #800 ) ;
#488 = DIRECTION ( 'NONE',  ( 0.6332377902572615680, 0.7739572992033219023, -0.000000000000000000 ) ) ;
#489 = VECTOR ( 'NONE', #1072, 1000.000000000000000 ) ;
#490 = LINE ( 'NONE', #43, #715 ) ;
#491 = VERTEX_POINT ( 'NONE', #979 ) ;
#492 = ORIENTED_EDGE ( 'NONE', *, *, #905, .F. ) ;
#493 = CARTESIAN_POINT ( 'NONE',  ( 18.19999999999999929, -0.4999999999999997780, 7.700000000000000178 ) ) ;
#494 = ORIENTED_EDGE ( 'NONE', *, *, #771, .T. ) ;
#495 = LINE ( 'NONE', #474, #921 ) ;
#496 = FACE_OUTER_BOUND ( 'NONE', #670, .T. ) ;
#497 = VECTOR ( 'NONE', #74, 1000.000000000000000 ) ;
#498 = ORIENTED_EDGE ( 'NONE', *, *, #366, .F. ) ;
#499 = ORIENTED_EDGE ( 'NONE', *, *, #313, .F. ) ;
#500 = EDGE_LOOP ( 'NONE', ( #1035, #965, #707, #362 ) ) ;
#501 = CARTESIAN_POINT ( 'NONE',  ( 22.19999999999999929, -1.700000000000000178, 3.899999999999999911 ) ) ;
#502 = DIRECTION ( 'NONE',  ( 0.000000000000000000, 0.000000000000000000, 1.000000000000000000 ) ) ;
#503 = DIRECTION ( 'NONE',  ( 3.942553354492744024E-16, -1.000000000000000000, -0.000000000000000000 ) ) ;
#504 = ORIENTED_EDGE ( 'NONE', *, *, #521, .T. ) ;
#505 = EDGE_CURVE ( 'NONE', #491, #233, #702, .T. ) ;
#506 = CARTESIAN_POINT ( 'NONE',  ( 17.19999999999999929, -5.299999999999998934, 7.700000000000000178 ) ) ;
#507 = ORIENTED_EDGE ( 'NONE', *, *, #1082, .F. ) ;
#508 = CARTESIAN_POINT ( 'NONE',  ( 19.80000000000000071, 9.899999999999998579, 1.149999999999999689 ) ) ;
#509 = VECTOR ( 'NONE', #349, 1000.000000000000000 ) ;
#510 = VECTOR ( 'NONE', #137, 1000.000000000000000 ) ;
#511 = PLANE ( 'NONE',  #278 ) ;
#512 = LINE ( 'NONE', #418, #489 ) ;
#513 = EDGE_CURVE ( 'NONE', #1039, #387, #252, .T. ) ;
#514 = EDGE_LOOP ( 'NONE', ( #254, #664, #851, #1150 ) ) ;
#515 = LINE ( 'NONE', #870, #873 ) ;
#516 = LINE ( 'NONE', #878, #167 ) ;
#517 = VECTOR ( 'NONE', #907, 1000.000000000000000 ) ;
#518 = ORIENTED_EDGE ( 'NONE', *, *, #630, .T. ) ;
#519 = APPLICATION_PROTOCOL_DEFINITION ( 'international standard', 'config_control_design', 1994, #118 ) ;
#520 = ORIENTED_EDGE ( 'NONE', *, *, #452, .T. ) ;
#521 = EDGE_CURVE ( 'NONE', #645, #487, #417, .T. ) ;
#522 = FACE_OUTER_BOUND ( 'NONE', #984, .T. ) ;
#523 = DIRECTION ( 'NONE',  ( -1.000000000000000000, 2.040851148208009182E-15, 0.000000000000000000 ) ) ;
#524 = VERTEX_POINT ( 'NONE', #962 ) ;
#525 = DIRECTION ( 'NONE',  ( -0.7739572992033220133, 0.6332377902572616790, 0.000000000000000000 ) ) ;
#526 = ORIENTED_EDGE ( 'NONE', *, *, #48, .F. ) ;
#527 = EDGE_CURVE ( 'NONE', #661, #756, #515, .T. ) ;
#528 = CC_DESIGN_APPROVAL ( #135, ( #990 ) ) ;
#529 = CARTESIAN_POINT ( 'NONE',  ( 17.19999999999999929, 0.000000000000000000, 3.899999999999999911 ) ) ;
#530 = ADVANCED_FACE ( 'NONE', ( #522 ), #348, .F. ) ;
#531 = AXIS2_PLACEMENT_3D ( 'NONE', #18, #571, #110 ) ;
#532 = LINE ( 'NONE', #69, #916 ) ;
#533 = ORIENTED_EDGE ( 'NONE', *, *, #1003, .T. ) ;
#534 = DIRECTION ( 'NONE',  ( 0.000000000000000000, 0.000000000000000000, -1.000000000000000000 ) ) ;
#535 = ORIENTED_EDGE ( 'NONE', *, *, #1152, .F. ) ;
#536 = CARTESIAN_POINT ( 'NONE',  ( 17.19999999999999929, -5.299999999999998934, 6.700000000000001066 ) ) ;
#537 = FACE_OUTER_BOUND ( 'NONE', #1124, .T. ) ;
#538 = ORIENTED_EDGE ( 'NONE', *, *, #543, .T. ) ;
#539 = DIRECTION ( 'NONE',  ( -0.000000000000000000, -0.000000000000000000, -1.000000000000000000 ) ) ;
#540 = AXIS2_PLACEMENT_3D ( 'NONE', #132, #919, #708 ) ;
#541 = CARTESIAN_POINT ( 'NONE',  ( 17.19999999999999929, 0.5000000000000000000, 7.700000000000000178 ) ) ;
#542 = CARTESIAN_POINT ( 'NONE',  ( 22.19999999999999929, -5.100000000000000533, 3.899999999999999911 ) ) ;
#543 = EDGE_CURVE ( 'NONE', #898, #190, #136, .T. ) ;
#544 = VERTEX_POINT ( 'NONE', #422 ) ;
#545 = DIRECTION ( 'NONE',  ( -1.000000000000000000, 0.000000000000000000, -0.000000000000000000 ) ) ;
#546 = LINE ( 'NONE', #731, #1056 ) ;
#547 = LINE ( 'NONE', #265, #1047 ) ;
#548 = AXIS2_PLACEMENT_3D ( 'NONE', #41, #680, #588 ) ;
#549 = VECTOR ( 'NONE', #899, 1000.000000000000000 ) ;
#550 = ORIENTED_EDGE ( 'NONE', *, *, #521, .F. ) ;
#551 = DIRECTION ( 'NONE',  ( 1.000000000000000000, -0.000000000000000000, -0.000000000000000000 ) ) ;
#552 = LINE ( 'NONE', #193, #147 ) ;
#553 = ORIENTED_EDGE ( 'NONE', *, *, #839, .F. ) ;
#554 = EDGE_CURVE ( 'NONE', #152, #693, #889, .T. ) ;
#555 = LINE ( 'NONE', #541, #1189 ) ;
#556 = LINE ( 'NONE', #542, #794 ) ;
#557 = ORIENTED_EDGE ( 'NONE', *, *, #866, .T. ) ;
#558 = CARTESIAN_POINT ( 'NONE',  ( 21.40000000000000213, 9.899999999999998579, 1.149999999999999689 ) ) ;
#559 = DIRECTION ( 'NONE',  ( -0.000000000000000000, 0.000000000000000000, 1.000000000000000000 ) ) ;
#560 = EDGE_CURVE ( 'NONE', #395, #158, #795, .T. ) ;
#561 = AXIS2_PLACEMENT_3D ( 'NONE', #558, #215, #762 ) ;
#562 = EDGE_CURVE ( 'NONE', #38, #1185, #328, .T. ) ;
#563 = ORIENTED_EDGE ( 'NONE', *, *, #1065, .T. ) ;
#564 = CALENDAR_DATE ( 2020, 30, 7 ) ;
#565 = DIRECTION ( 'NONE',  ( -1.000000000000000000, 0.000000000000000000, 0.000000000000000000 ) ) ;
#566 = CARTESIAN_POINT ( 'NONE',  ( 17.19999999999999929, -6.799999999999999822, 3.899999999999999911 ) ) ;
#567 = CARTESIAN_POINT ( 'NONE',  ( 4.000000000000000000, -3.600000000000000089, 3.899999999999999911 ) ) ;
#568 = EDGE_LOOP ( 'NONE', ( #753, #845, #179, #881 ) ) ;
#569 = CARTESIAN_POINT ( 'NONE',  ( 18.19999999999999929, -4.299999999999998934, 7.700000000000000178 ) ) ;
#570 = DIRECTION ( 'NONE',  ( 0.000000000000000000, -0.000000000000000000, 1.000000000000000000 ) ) ;
#571 = DIRECTION ( 'NONE',  ( 0.000000000000000000, -1.000000000000000000, 0.000000000000000000 ) ) ;
#572 = ORIENTED_EDGE ( 'NONE', *, *, #607, .F. ) ;
#573 = EDGE_CURVE ( 'NONE', #790, #238, #161, .T. ) ;
#574 = CARTESIAN_POINT ( 'NONE',  ( 22.19999999999998863, -5.299999999999998046, 7.285786437626903478 ) ) ;
#575 = EDGE_LOOP ( 'NONE', ( #1167, #930, #718, #308 ) ) ;
#576 = CARTESIAN_POINT ( 'NONE',  ( 19.20000000000000284, -1.700000000000000178, -0.000000000000000000 ) ) ;
#577 = DIRECTION ( 'NONE',  ( -0.000000000000000000, -0.000000000000000000, -1.000000000000000000 ) ) ;
#578 = ORIENTED_EDGE ( 'NONE', *, *, #910, .T. ) ;
#579 = ORIENTED_EDGE ( 'NONE', *, *, #421, .T. ) ;
#580 = CARTESIAN_POINT ( 'NONE',  ( 19.79999999999999716, -3.100000000000000533, 3.899999999999999911 ) ) ;
#581 = VECTOR ( 'NONE', #55, 1000.000000000000000 ) ;
#582 = EDGE_LOOP ( 'NONE', ( #572, #149, #245, #770, #865, #445, #886, #246, #614, #492, #765, #53, #484, #736, #587, #996, #317 ) ) ;
#583 = DIRECTION ( 'NONE',  ( 1.000000000000000000, 0.000000000000000000, 0.000000000000000000 ) ) ;
#584 = VECTOR ( 'NONE', #539, 1000.000000000000000 ) ;
#585 = DIRECTION ( 'NONE',  ( -1.000000000000000000, 0.000000000000000000, 0.000000000000000000 ) ) ;
#586 = FACE_OUTER_BOUND ( 'NONE', #740, .T. ) ;
#587 = ORIENTED_EDGE ( 'NONE', *, *, #505, .F. ) ;
#588 = DIRECTION ( 'NONE',  ( -1.000000000000000000, -3.942553354492744024E-16, 0.000000000000000000 ) ) ;
#589 = DIRECTION ( 'NONE',  ( 0.000000000000000000, 1.000000000000000000, 0.000000000000000000 ) ) ;
#590 = DIRECTION ( 'NONE',  ( 0.000000000000000000, 0.000000000000000000, -1.000000000000000000 ) ) ;
#591 = LINE ( 'NONE', #506, #33 ) ;
#592 = VERTEX_POINT ( 'NONE', #967 ) ;
#593 = CARTESIAN_POINT ( 'NONE',  ( 17.19999999999999929, 0.5000000000000000000, 3.899999999999999911 ) ) ;
#594 = ADVANCED_FACE ( 'NONE', ( #696 ), #411, .F. ) ;
#595 = CARTESIAN_POINT ( 'NONE',  ( 17.19999999999999929, 0.5000000000000000000, 6.700000000000001066 ) ) ;
#596 = CARTESIAN_POINT ( 'NONE',  ( 19.20000000000000284, -1.700000000000000178, 3.899999999999999911 ) ) ;
#597 = EDGE_CURVE ( 'NONE', #645, #238, #682, .T. ) ;
#598 = ADVANCED_FACE ( 'NONE', ( #144 ), #511, .F. ) ;
#599 = ORIENTED_EDGE ( 'NONE', *, *, #77, .T. ) ;
#600 = EDGE_CURVE ( 'NONE', #259, #1164, #975, .T. ) ;
#601 = LINE ( 'NONE', #946, #704 ) ;
#602 = ORIENTED_EDGE ( 'NONE', *, *, #1194, .F. ) ;
#603 = VECTOR ( 'NONE', #1165, 1000.000000000000000 ) ;
#604 = APPROVAL_PERSON_ORGANIZATION ( #58, #135, #1163 ) ;
#605 = DIRECTION ( 'NONE',  ( 0.000000000000000000, -0.000000000000000000, 1.000000000000000000 ) ) ;
#606 = CARTESIAN_POINT ( 'NONE',  ( 18.19999999999999929, 0.000000000000000000, 6.700000000000000178 ) ) ;
#607 = EDGE_CURVE ( 'NONE', #833, #807, #291, .T. ) ;
#608 = ORIENTED_EDGE ( 'NONE', *, *, #6, .F. ) ;
#609 = VERTEX_POINT ( 'NONE', #476 ) ;
#610 = ADVANCED_FACE ( 'NONE', ( #31 ), #1140, .F. ) ;
#611 = CARTESIAN_POINT ( 'NONE',  ( 21.40000000000000213, 9.899999999999998579, 1.149999999999999689 ) ) ;
#612 = CARTESIAN_POINT ( 'NONE',  ( 8.327598234202000132E-16, -6.799999999999999822, 3.899999999999999911 ) ) ;
#613 = EDGE_LOOP ( 'NONE', ( #875, #21, #977, #119 ) ) ;
#614 = ORIENTED_EDGE ( 'NONE', *, *, #382, .F. ) ;
#615 = CARTESIAN_POINT ( 'NONE',  ( 4.000000000000000000, 0.000000000000000000, 3.899999999999999911 ) ) ;
#616 = DIRECTION ( 'NONE',  ( 1.000000000000000000, 0.000000000000000000, 0.000000000000000000 ) ) ;
#617 = ORIENTED_EDGE ( 'NONE', *, *, #735, .T. ) ;
#618 =( NAMED_UNIT ( * ) SI_UNIT ( $, .STERADIAN. ) SOLID_ANGLE_UNIT ( ) );
#619 = VERTEX_POINT ( 'NONE', #663 ) ;
#620 = AXIS2_PLACEMENT_3D ( 'NONE', #855, #288, #201 ) ;
#621 = DIRECTION ( 'NONE',  ( 1.000000000000000000, 0.000000000000000000, -0.000000000000000000 ) ) ;
#622 = CARTESIAN_POINT ( 'NONE',  ( 8.327598234202000132E-16, -6.799999999999999822, 0.000000000000000000 ) ) ;
#623 = ORIENTED_EDGE ( 'NONE', *, *, #1105, .F. ) ;
#624 = CARTESIAN_POINT ( 'NONE',  ( 17.19999999999999929, 0.5000000000000000000, 6.700000000000001066 ) ) ;
#625 = FACE_OUTER_BOUND ( 'NONE', #160, .T. ) ;
#626 = CARTESIAN_POINT ( 'NONE',  ( 0.000000000000000000, -4.299999999999998934, 6.700000000000000178 ) ) ;
#627 = ORIENTED_EDGE ( 'NONE', *, *, #935, .T. ) ;
#628 = FACE_OUTER_BOUND ( 'NONE', #1141, .T. ) ;
#629 = CARTESIAN_POINT ( 'NONE',  ( 5.399999999999993250, -6.799999999999999822, 3.899999999999999911 ) ) ;
#630 = EDGE_CURVE ( 'NONE', #756, #272, #305, .T. ) ;
#631 = VERTEX_POINT ( 'NONE', #837 ) ;
#632 = CARTESIAN_POINT ( 'NONE',  ( 21.40000000000000213, 9.899999999999998579, 2.750000000000000444 ) ) ;
#633 = DIRECTION ( 'NONE',  ( -2.168404344971006896E-16, -1.000000000000000000, -0.000000000000000000 ) ) ;
#634 = VECTOR ( 'NONE', #502, 1000.000000000000000 ) ;
#635 = VECTOR ( 'NONE', #633, 1000.000000000000000 ) ;
#636 = ORIENTED_EDGE ( 'NONE', *, *, #749, .T. ) ;
#637 = EDGE_CURVE ( 'NONE', #27, #350, #37, .T. ) ;
#638 = PLANE ( 'NONE',  #457 ) ;
#639 = DIRECTION ( 'NONE',  ( -1.000000000000000000, -1.355252715606880789E-16, 0.000000000000000000 ) ) ;
#640 = EDGE_LOOP ( 'NONE', ( #407, #608, #761, #623 ) ) ;
#641 = EDGE_CURVE ( 'NONE', #729, #687, #1134, .T. ) ;
#642 = CARTESIAN_POINT ( 'NONE',  ( 17.19999999999999929, -5.299999999999998934, 6.700000000000001066 ) ) ;
#643 = ADVANCED_FACE ( 'NONE', ( #669 ), #470, .T. ) ;
#644 = DIRECTION ( 'NONE',  ( 0.000000000000000000, 0.000000000000000000, -1.000000000000000000 ) ) ;
#645 = VERTEX_POINT ( 'NONE', #131 ) ;
#646 = PERSON_AND_ORGANIZATION_ROLE ( 'classification_officer' ) ;
#647 = DIRECTION ( 'NONE',  ( 0.000000000000000000, 0.000000000000000000, 1.000000000000000000 ) ) ;
#648 = LINE ( 'NONE', #566, #1069 ) ;
#649 = CC_DESIGN_APPROVAL ( #1092, ( #912 ) ) ;
#650 = VECTOR ( 'NONE', #488, 1000.000000000000000 ) ;
#651 = LINE ( 'NONE', #231, #338 ) ;
#652 = VECTOR ( 'NONE', #1050, 1000.000000000000000 ) ;
#653 = ORIENTED_EDGE ( 'NONE', *, *, #1031, .F. ) ;
#654 = APPROVAL_DATE_TIME ( #461, #135 ) ;
#655 = VECTOR ( 'NONE', #430, 1000.000000000000000 ) ;
#656 = CARTESIAN_POINT ( 'NONE',  ( 19.79999999999999716, -1.700000000000000178, 3.899999999999999911 ) ) ;
#657 = CARTESIAN_POINT ( 'NONE',  ( 0.000000000000000000, 0.000000000000000000, 7.700000000000000178 ) ) ;
#658 = CARTESIAN_POINT ( 'NONE',  ( 17.19999999999999929, -5.299999999999998934, 7.700000000000000178 ) ) ;
#659 = ADVANCED_FACE ( 'NONE', ( #496 ), #1128, .F. ) ;
#660 = EDGE_LOOP ( 'NONE', ( #142, #415, #1117, #1075 ) ) ;
#661 = VERTEX_POINT ( 'NONE', #1030 ) ;
#662 = DIRECTION ( 'NONE',  ( -0.000000000000000000, 1.000000000000000000, -0.000000000000000000 ) ) ;
#663 = CARTESIAN_POINT ( 'NONE',  ( 22.19999999999999929, -5.299999999999998934, 3.899999999999999911 ) ) ;
#664 = ORIENTED_EDGE ( 'NONE', *, *, #184, .F. ) ;
#665 = EDGE_LOOP ( 'NONE', ( #1032, #1132, #617, #1008 ) ) ;
#666 = PLANE ( 'NONE',  #904 ) ;
#667 = ORIENTED_EDGE ( 'NONE', *, *, #101, .F. ) ;
#668 = CARTESIAN_POINT ( 'NONE',  ( 22.19999999999999929, -3.100000000000000533, 2.750000000000000444 ) ) ;
#669 = FACE_OUTER_BOUND ( 'NONE', #640, .T. ) ;
#670 = EDGE_LOOP ( 'NONE', ( #59, #1138, #323, #198 ) ) ;
#671 = DIRECTION ( 'NONE',  ( -1.000000000000000000, 0.000000000000000000, 0.000000000000000000 ) ) ;
#672 = VECTOR ( 'NONE', #877, 1000.000000000000000 ) ;
#673 = ORIENTED_EDGE ( 'NONE', *, *, #479, .T. ) ;
#674 = CARTESIAN_POINT ( 'NONE',  ( 17.19999999999999929, -6.799999999999999822, 0.000000000000000000 ) ) ;
#675 = AXIS2_PLACEMENT_3D ( 'NONE', #482, #559, #377 ) ;
#676 = DIRECTION ( 'NONE',  ( -1.000000000000000000, 2.168404344971006896E-16, 0.000000000000000000 ) ) ;
#677 = CC_DESIGN_PERSON_AND_ORGANIZATION_ASSIGNMENT ( #737, #287, ( #1178 ) ) ;
#678 = CARTESIAN_POINT ( 'NONE',  ( 7.200000000000000178, -6.799999999999999822, 3.899999999999999911 ) ) ;
#679 = VERTEX_POINT ( 'NONE', #769 ) ;
#680 = DIRECTION ( 'NONE',  ( -3.942553354492744024E-16, 1.000000000000000000, 0.000000000000000000 ) ) ;
#681 = EDGE_CURVE ( 'NONE', #923, #158, #125, .T. ) ;
#682 = LINE ( 'NONE', #1057, #793 ) ;
#683 = EDGE_CURVE ( 'NONE', #214, #888, #651, .T. ) ;
#684 = PLANE ( 'NONE',  #1180 ) ;
#685 = VECTOR ( 'NONE', #364, 1000.000000000000000 ) ;
#686 = PLANE ( 'NONE',  #961 ) ;
#687 = VERTEX_POINT ( 'NONE', #936 ) ;
#688 = LINE ( 'NONE', #325, #652 ) ;
#689 = DIRECTION ( 'NONE',  ( 0.000000000000000000, 1.000000000000000000, 0.000000000000000000 ) ) ;
#690 = EDGE_CURVE ( 'NONE', #661, #409, #842, .T. ) ;
#691 = LINE ( 'NONE', #258, #295 ) ;
#692 = ORIENTED_EDGE ( 'NONE', *, *, #315, .T. ) ;
#693 = VERTEX_POINT ( 'NONE', #1037 ) ;
#694 = VECTOR ( 'NONE', #577, 1000.000000000000000 ) ;
#695 = VECTOR ( 'NONE', #339, 1000.000000000000000 ) ;
#696 = FACE_OUTER_BOUND ( 'NONE', #347, .T. ) ;
#697 = LINE ( 'NONE', #327, #510 ) ;
#698 = EDGE_CURVE ( 'NONE', #303, #477, #1025, .T. ) ;
#699 = EDGE_LOOP ( 'NONE', ( #19, #538, #1135, #1012 ) ) ;
#700 = CARTESIAN_POINT ( 'NONE',  ( 22.19999999999999574, 0.5000000000000002220, 7.285786437626905254 ) ) ;
#701 = ORIENTED_EDGE ( 'NONE', *, *, #1026, .T. ) ;
#702 = LINE ( 'NONE', #427, #581 ) ;
#703 = CARTESIAN_POINT ( 'NONE',  ( 21.19999999999999574, -0.4999999999999997780, 7.700000000000000178 ) ) ;
#704 = VECTOR ( 'NONE', #34, 1000.000000000000000 ) ;
#705 = ORIENTED_EDGE ( 'NONE', *, *, #380, .F. ) ;
#706 = LINE ( 'NONE', #892, #584 ) ;
#707 = ORIENTED_EDGE ( 'NONE', *, *, #637, .F. ) ;
#708 = DIRECTION ( 'NONE',  ( 0.000000000000000000, -0.000000000000000000, 1.000000000000000000 ) ) ;
#709 = LINE ( 'NONE', #1059, #509 ) ;
#710 = EDGE_LOOP ( 'NONE', ( #938, #367, #498, #974, #1085 ) ) ;
#711 = CARTESIAN_POINT ( 'NONE',  ( 7.200000000000000178, -4.599999999999985434, 3.899999999999999911 ) ) ;
#712 = ORIENTED_EDGE ( 'NONE', *, *, #87, .T. ) ;
#713 = LOCAL_TIME ( 11, 48, 46.00000000000000000, #15 ) ;
#714 = ADVANCED_FACE ( 'NONE', ( #745 ), #216, .F. ) ;
#715 = VECTOR ( 'NONE', #436, 1000.000000000000000 ) ;
#716 = CARTESIAN_POINT ( 'NONE',  ( 22.19999999999999929, -1.700000000000000178, 3.899999999999999911 ) ) ;
#717 = CARTESIAN_POINT ( 'NONE',  ( 18.19999999999999929, 0.000000000000000000, 7.700000000000000178 ) ) ;
#718 = ORIENTED_EDGE ( 'NONE', *, *, #1023, .F. ) ;
#719 = CARTESIAN_POINT ( 'NONE',  ( 0.000000000000000000, 0.000000000000000000, 0.000000000000000000 ) ) ;
#720 = VECTOR ( 'NONE', #1093, 1000.000000000000000 ) ;
#721 = LINE ( 'NONE', #443, #933 ) ;
#722 = PLANE ( 'NONE',  #832 ) ;
#723 = VECTOR ( 'NONE', #28, 1000.000000000000000 ) ;
#724 = ORIENTED_EDGE ( 'NONE', *, *, #228, .T. ) ;
#725 = DIRECTION ( 'NONE',  ( 0.000000000000000000, 0.000000000000000000, -1.000000000000000000 ) ) ;
#726 = LINE ( 'NONE', #458, #175 ) ;
#727 = DIRECTION ( 'NONE',  ( 0.000000000000000000, -0.000000000000000000, -1.000000000000000000 ) ) ;
#728 = ADVANCED_FACE ( 'NONE', ( #386 ), #301, .F. ) ;
#729 = VERTEX_POINT ( 'NONE', #117 ) ;
#730 = APPROVAL_ROLE ( '' ) ;
#731 = CARTESIAN_POINT ( 'NONE',  ( 22.19999999999999929, -1.700000000000000178, 3.899999999999999911 ) ) ;
#732 = DIRECTION ( 'NONE',  ( 1.000000000000000000, 0.000000000000000000, 0.000000000000000000 ) ) ;
#733 = VECTOR ( 'NONE', #143, 1000.000000000000000 ) ;
#734 = VECTOR ( 'NONE', #170, 1000.000000000000000 ) ;
#735 = EDGE_CURVE ( 'NONE', #7, #1162, #483, .T. ) ;
#736 = ORIENTED_EDGE ( 'NONE', *, *, #228, .F. ) ;
#737 = PERSON_AND_ORGANIZATION ( #782, #450 ) ;
#738 = PLANE ( 'NONE',  #1157 ) ;
#739 = CARTESIAN_POINT ( 'NONE',  ( 22.19999999999999574, 2.000000000000000000, 3.899999999999999911 ) ) ;
#740 = EDGE_LOOP ( 'NONE', ( #578, #947, #978, #854 ) ) ;
#741 = PERSON_AND_ORGANIZATION_ROLE ( 'creator' ) ;
#742 = VECTOR ( 'NONE', #1048, 1000.000000000000000 ) ;
#743 = FACE_OUTER_BOUND ( 'NONE', #97, .T. ) ;
#744 = DIRECTION ( 'NONE',  ( 1.000000000000000000, -0.000000000000000000, 0.000000000000000000 ) ) ;
#745 = FACE_OUTER_BOUND ( 'NONE', #1156, .T. ) ;
#746 = EDGE_LOOP ( 'NONE', ( #67, #504, #891, #843 ) ) ;
#747 = PERSON_AND_ORGANIZATION ( #782, #450 ) ;
#748 = FACE_OUTER_BOUND ( 'NONE', #1149, .T. ) ;
#749 = EDGE_CURVE ( 'NONE', #906, #524, #490, .T. ) ;
#750 = PLANE ( 'NONE',  #297 ) ;
#751 = CARTESIAN_POINT ( 'NONE',  ( 19.80000000000000071, 9.899999999999998579, 1.149999999999999689 ) ) ;
#752 = AXIS2_PLACEMENT_3D ( 'NONE', #222, #585, #406 ) ;
#753 = ORIENTED_EDGE ( 'NONE', *, *, #61, .T. ) ;
#754 = DATE_TIME_ROLE ( 'classification_date' ) ;
#755 = LOCAL_TIME ( 11, 48, 46.00000000000000000, #185 ) ;
#756 = VERTEX_POINT ( 'NONE', #1147 ) ;
#757 = CARTESIAN_POINT ( 'NONE',  ( 22.19999999999999929, -5.299999999999998934, 6.700000000000001066 ) ) ;
#758 = CARTESIAN_POINT ( 'NONE',  ( 22.19999999999999574, 2.000000000000000000, 2.750000000000000444 ) ) ;
#759 = ORIENTED_EDGE ( 'NONE', *, *, #1148, .T. ) ;
#760 = CARTESIAN_POINT ( 'NONE',  ( 5.399999999999993250, -6.799999999999999822, 0.000000000000000000 ) ) ;
#761 = ORIENTED_EDGE ( 'NONE', *, *, #562, .F. ) ;
#762 = DIRECTION ( 'NONE',  ( 2.168404344971006896E-16, 1.000000000000000000, 0.000000000000000000 ) ) ;
#763 = DIRECTION ( 'NONE',  ( 0.000000000000000000, 1.000000000000000000, 0.000000000000000000 ) ) ;
#764 = EDGE_CURVE ( 'NONE', #1016, #286, #801, .T. ) ;
#765 = ORIENTED_EDGE ( 'NONE', *, *, #1003, .F. ) ;
#766 = CARTESIAN_POINT ( 'NONE',  ( 7.200000000000000178, -6.799999999999999822, 3.899999999999999911 ) ) ;
#767 = ORIENTED_EDGE ( 'NONE', *, *, #935, .F. ) ;
#768 = CARTESIAN_POINT ( 'NONE',  ( 18.19999999999999574, -5.099999999999999645, 3.899999999999999911 ) ) ;
#769 = CARTESIAN_POINT ( 'NONE',  ( 19.20000000000000284, -1.700000000000000178, 3.899999999999999911 ) ) ;
#770 = ORIENTED_EDGE ( 'NONE', *, *, #479, .F. ) ;
#771 = EDGE_CURVE ( 'NONE', #224, #152, #343, .T. ) ;
#772 = LINE ( 'NONE', #1041, #802 ) ;
#773 = ORIENTED_EDGE ( 'NONE', *, *, #473, .T. ) ;
#774 = EDGE_CURVE ( 'NONE', #1104, #303, #709, .T. ) ;
#775 = CARTESIAN_POINT ( 'NONE',  ( 17.19999999999999929, 0.000000000000000000, 6.700000000000000178 ) ) ;
#776 = CARTESIAN_POINT ( 'NONE',  ( 21.40000000000000213, 9.899999999999998579, 1.149999999999999689 ) ) ;
#777 = CARTESIAN_POINT ( 'NONE',  ( 21.39999999999999858, -5.099999999999999645, 1.149999999999999689 ) ) ;
#778 = ORIENTED_EDGE ( 'NONE', *, *, #324, .T. ) ;
#779 = CARTESIAN_POINT ( 'NONE',  ( 22.19999999999999574, 2.000000000000000000, 3.899999999999999911 ) ) ;
#780 = ORIENTED_EDGE ( 'NONE', *, *, #300, .T. ) ;
#781 = DIRECTION ( 'NONE',  ( -1.000000000000000000, 0.000000000000000000, 0.000000000000000000 ) ) ;
#782 = PERSON ( '未指定', '未指定', '未指定', ('未指定'), ('未指定'), ('未指定') ) ;
#783 = DIRECTION ( 'NONE',  ( 0.000000000000000000, -1.000000000000000000, 0.000000000000000000 ) ) ;
#784 = PLANE ( 'NONE',  #812 ) ;
#785 = DIRECTION ( 'NONE',  ( 0.000000000000000000, 0.000000000000000000, -1.000000000000000000 ) ) ;
#786 = VERTEX_POINT ( 'NONE', #703 ) ;
#787 = VECTOR ( 'NONE', #861, 1000.000000000000000 ) ;
#788 = DIRECTION ( 'NONE',  ( 1.224646799147352961E-16, -1.000000000000000000, 0.000000000000000000 ) ) ;
#789 = DIRECTION ( 'NONE',  ( -1.000000000000000000, 0.000000000000000000, -0.000000000000000000 ) ) ;
#790 = VERTEX_POINT ( 'NONE', #1084 ) ;
#791 = DIRECTION ( 'NONE',  ( -0.000000000000000000, -0.000000000000000000, -1.000000000000000000 ) ) ;
#792 = ORIENTED_EDGE ( 'NONE', *, *, #970, .T. ) ;
#793 = VECTOR ( 'NONE', #235, 1000.000000000000000 ) ;
#794 = VECTOR ( 'NONE', #908, 1000.000000000000000 ) ;
#795 = LINE ( 'NONE', #1071, #603 ) ;
#796 = CARTESIAN_POINT ( 'NONE',  ( 22.19999999999999929, -5.100000000000000533, 3.899999999999999911 ) ) ;
#797 = ORIENTED_EDGE ( 'NONE', *, *, #905, .T. ) ;
#798 = CARTESIAN_POINT ( 'NONE',  ( 21.19999999999999574, -0.4999999999999997780, 7.700000000000000178 ) ) ;
#799 = ORIENTED_EDGE ( 'NONE', *, *, #382, .T. ) ;
#800 = CARTESIAN_POINT ( 'NONE',  ( 17.19999999999999929, -6.799999999999999822, 3.899999999999999911 ) ) ;
#801 = LINE ( 'NONE', #976, #357 ) ;
#802 = VECTOR ( 'NONE', #127, 1000.000000000000000 ) ;
#803 = EDGE_LOOP ( 'NONE', ( #277, #78, #667, #1190 ) ) ;
#804 = EDGE_LOOP ( 'NONE', ( #302, #314, #404, #345, #868, #797, #375, #426, #627, #778, #526, #107 ) ) ;
#805 = DIRECTION ( 'NONE',  ( 0.000000000000000000, 0.000000000000000000, 1.000000000000000000 ) ) ;
#806 = FACE_BOUND ( 'NONE', #665, .T. ) ;
#807 = VERTEX_POINT ( 'NONE', #1077 ) ;
#808 = CARTESIAN_POINT ( 'NONE',  ( 21.78578643762689993, 0.08578643762690511820, 7.699999999999999289 ) ) ;
#809 = APPROVAL_PERSON_ORGANIZATION ( #368, #902, #730 ) ;
#810 = ADVANCED_FACE ( 'NONE', ( #897 ), #684, .F. ) ;
#811 = ADVANCED_FACE ( 'NONE', ( #146 ), #784, .F. ) ;
#812 = AXIS2_PLACEMENT_3D ( 'NONE', #236, #890, #789 ) ;
#813 = CARTESIAN_POINT ( 'NONE',  ( 22.19999999999999929, -5.100000000000000533, 3.899999999999999911 ) ) ;
#814 = LINE ( 'NONE', #444, #635 ) ;
#815 = VECTOR ( 'NONE', #639, 1000.000000000000000 ) ;
#816 = ORIENTED_EDGE ( 'NONE', *, *, #826, .F. ) ;
#817 = FACE_OUTER_BOUND ( 'NONE', #195, .T. ) ;
#818 = EDGE_CURVE ( 'NONE', #409, #898, #691, .T. ) ;
#819 = FACE_OUTER_BOUND ( 'NONE', #575, .T. ) ;
#820 = FACE_OUTER_BOUND ( 'NONE', #860, .T. ) ;
#821 = ORIENTED_EDGE ( 'NONE', *, *, #1148, .F. ) ;
#822 = COORDINATED_UNIVERSAL_TIME_OFFSET ( 8, 0, .AHEAD. ) ;
#823 = DESIGN_CONTEXT ( 'detailed design', #118, 'design' ) ;
#824 = CARTESIAN_POINT ( 'NONE',  ( 21.40000000000000213, -1.700000000000000178, 2.750000000000000444 ) ) ;
#825 = CARTESIAN_POINT ( 'NONE',  ( 0.000000000000000000, 0.000000000000000000, 3.899999999999999911 ) ) ;
#826 = EDGE_CURVE ( 'NONE', #238, #619, #334, .T. ) ;
#827 = VERTEX_POINT ( 'NONE', #622 ) ;
#828 = PERSON_AND_ORGANIZATION_ROLE ( 'design_supplier' ) ;
#829 = FACE_OUTER_BOUND ( 'NONE', #500, .T. ) ;
#830 = DIRECTION ( 'NONE',  ( 0.000000000000000000, -1.000000000000000000, 0.000000000000000000 ) ) ;
#831 = AXIS2_PLACEMENT_3D ( 'NONE', #658, #209, #942 ) ;
#832 = AXIS2_PLACEMENT_3D ( 'NONE', #1193, #1094, #727 ) ;
#833 = VERTEX_POINT ( 'NONE', #423 ) ;
#834 = DATE_AND_TIME ( #381, #713 ) ;
#835 = CARTESIAN_POINT ( 'NONE',  ( 22.19999999999999929, -6.799999999999999822, 0.000000000000000000 ) ) ;
#836 = DIRECTION ( 'NONE',  ( 1.000000000000000000, -0.000000000000000000, 0.000000000000000000 ) ) ;
#837 = CARTESIAN_POINT ( 'NONE',  ( 4.000000000000000000, -3.600000000000000089, 0.000000000000000000 ) ) ;
#838 = ORIENTED_EDGE ( 'NONE', *, *, #1112, .T. ) ;
#839 = EDGE_CURVE ( 'NONE', #259, #679, #56, .T. ) ;
#840 = DIRECTION ( 'NONE',  ( 2.040851148208009182E-15, 1.000000000000000000, -0.000000000000000000 ) ) ;
#841 = LINE ( 'NONE', #848, #991 ) ;
#842 = LINE ( 'NONE', #12, #164 ) ;
#843 = ORIENTED_EDGE ( 'NONE', *, *, #573, .T. ) ;
#844 = DATE_TIME_ROLE ( 'creation_date' ) ;
#845 = ORIENTED_EDGE ( 'NONE', *, *, #554, .F. ) ;
#846 = EDGE_CURVE ( 'NONE', #1162, #729, #1160, .T. ) ;
#847 = LINE ( 'NONE', #668, #104 ) ;
#848 = CARTESIAN_POINT ( 'NONE',  ( 22.19999999999999929, -1.700000000000000178, 2.750000000000000444 ) ) ;
#849 = CARTESIAN_POINT ( 'NONE',  ( 22.19999999999999929, -6.799999999999999822, 3.899999999999999911 ) ) ;
#850 = VECTOR ( 'NONE', #963, 1000.000000000000000 ) ;
#851 = ORIENTED_EDGE ( 'NONE', *, *, #23, .F. ) ;
#852 = ORIENTED_EDGE ( 'NONE', *, *, #77, .F. ) ;
#853 = CARTESIAN_POINT ( 'NONE',  ( 21.19999999999999929, -4.299999999999998934, 7.700000000000000178 ) ) ;
#854 = ORIENTED_EDGE ( 'NONE', *, *, #218, .T. ) ;
#855 = CARTESIAN_POINT ( 'NONE',  ( 19.80000000000000071, 9.899999999999998579, 1.149999999999999689 ) ) ;
#856 = EDGE_CURVE ( 'NONE', #631, #491, #253, .T. ) ;
#857 = CARTESIAN_POINT ( 'NONE',  ( 7.200000000000000178, -6.799999999999999822, 0.000000000000000000 ) ) ;
#858 = ORIENTED_EDGE ( 'NONE', *, *, #774, .T. ) ;
#859 = DIRECTION ( 'NONE',  ( -1.000000000000000000, 0.000000000000000000, 0.000000000000000000 ) ) ;
#860 = EDGE_LOOP ( 'NONE', ( #799, #1144, #1090, #959 ) ) ;
#861 = DIRECTION ( 'NONE',  ( 0.000000000000000000, 1.000000000000000000, 0.000000000000000000 ) ) ;
#862 = EDGE_CURVE ( 'NONE', #220, #35, #885, .T. ) ;
#863 = DIRECTION ( 'NONE',  ( -2.168404344971006896E-16, -1.000000000000000000, 0.000000000000000000 ) ) ;
#864 = EDGE_CURVE ( 'NONE', #487, #790, #516, .T. ) ;
#865 = ORIENTED_EDGE ( 'NONE', *, *, #61, .F. ) ;
#866 = EDGE_CURVE ( 'NONE', #286, #255, #697, .T. ) ;
#867 = DIRECTION ( 'NONE',  ( -0.000000000000000000, -0.000000000000000000, -1.000000000000000000 ) ) ;
#868 = ORIENTED_EDGE ( 'NONE', *, *, #862, .T. ) ;
#869 = FACE_BOUND ( 'NONE', #988, .T. ) ;
#870 = CARTESIAN_POINT ( 'NONE',  ( 22.19999999999999929, -3.100000000000000533, 1.149999999999999911 ) ) ;
#871 =( BOUNDED_CURVE ( )  B_SPLINE_CURVE ( 3, ( #250, #700, #808, #798 ),
 .UNSPECIFIED., .F., .F. ) 
 B_SPLINE_CURVE_WITH_KNOTS ( ( 4, 4 ),
 ( 0.000000000000000000, 1.570796326794896780 ),
 .UNSPECIFIED. ) 
 CURVE ( )  GEOMETRIC_REPRESENTATION_ITEM ( )  RATIONAL_B_SPLINE_CURVE ( ( 1.000000000000000000, 0.8047378541243649375, 0.8047378541243649375, 1.000000000000000000 ) ) 
 REPRESENTATION_ITEM ( '' )  );
#872 = CARTESIAN_POINT ( 'NONE',  ( 4.000000000000000000, -3.600000000000000089, 0.000000000000000000 ) ) ;
#873 = VECTOR ( 'NONE', #1170, 1000.000000000000000 ) ;
#874 = LINE ( 'NONE', #580, #442 ) ;
#875 = ORIENTED_EDGE ( 'NONE', *, *, #839, .T. ) ;
#876 = PLANE ( 'NONE',  #1067 ) ;
#877 = DIRECTION ( 'NONE',  ( 2.040851148208009182E-15, 1.000000000000000000, -0.000000000000000000 ) ) ;
#878 = CARTESIAN_POINT ( 'NONE',  ( 17.19999999999999929, -6.799999999999999822, 3.899999999999999911 ) ) ;
#879 = PRODUCT_RELATED_PRODUCT_CATEGORY ( 'detail', '', ( #266 ) ) ;
#880 = DIRECTION ( 'NONE',  ( -1.000000000000000000, 0.000000000000000000, 0.000000000000000000 ) ) ;
#881 = ORIENTED_EDGE ( 'NONE', *, *, #48, .T. ) ;
#882 = AXIS2_PLACEMENT_3D ( 'NONE', #129, #565, #647 ) ;
#883 = ADVANCED_FACE ( 'NONE', ( #987 ), #981, .T. ) ;
#884 = CARTESIAN_POINT ( 'NONE',  ( 19.20000000000000284, -1.700000000000000178, 3.899999999999999911 ) ) ;
#885 = LINE ( 'NONE', #796, #695 ) ;
#886 = ORIENTED_EDGE ( 'NONE', *, *, #212, .F. ) ;
#887 = PERSON_AND_ORGANIZATION ( #782, #450 ) ;
#888 = VERTEX_POINT ( 'NONE', #162 ) ;
#889 = LINE ( 'NONE', #332, #913 ) ;
#890 = DIRECTION ( 'NONE',  ( 0.000000000000000000, 0.000000000000000000, -1.000000000000000000 ) ) ;
#891 = ORIENTED_EDGE ( 'NONE', *, *, #864, .T. ) ;
#892 = CARTESIAN_POINT ( 'NONE',  ( 19.20000000000000284, -1.700000000000000178, 3.899999999999999911 ) ) ;
#893 = ORIENTED_EDGE ( 'NONE', *, *, #918, .F. ) ;
#894 = VECTOR ( 'NONE', #788, 1000.000000000000000 ) ;
#895 = VECTOR ( 'NONE', #84, 1000.000000000000000 ) ;
#896 = CARTESIAN_POINT ( 'NONE',  ( 19.20000000000000284, -1.700000000000000178, -0.000000000000000000 ) ) ;
#897 = FACE_OUTER_BOUND ( 'NONE', #710, .T. ) ;
#898 = VERTEX_POINT ( 'NONE', #777 ) ;
#899 = DIRECTION ( 'NONE',  ( -0.000000000000000000, -0.000000000000000000, -1.000000000000000000 ) ) ;
#900 = EDGE_LOOP ( 'NONE', ( #1099, #1074, #351, #759 ) ) ;
#901 = CARTESIAN_POINT ( 'NONE',  ( 19.20000000000000284, -3.100000000000000533, 3.899999999999999911 ) ) ;
#902 = APPROVAL ( #456, '未指定' ) ;
#903 = CARTESIAN_POINT ( 'NONE',  ( 22.19999999999999929, 0.5000000000000000000, 6.700000000000001066 ) ) ;
#904 = AXIS2_PLACEMENT_3D ( 'NONE', #766, #671, #225 ) ;
#905 = EDGE_CURVE ( 'NONE', #35, #609, #512, .T. ) ;
#906 = VERTEX_POINT ( 'NONE', #612 ) ;
#907 = DIRECTION ( 'NONE',  ( 1.000000000000000000, 0.000000000000000000, 0.000000000000000000 ) ) ;
#908 = DIRECTION ( 'NONE',  ( 1.000000000000000000, -2.168404344971005170E-16, -0.000000000000000000 ) ) ;
#909 = ORIENTED_EDGE ( 'NONE', *, *, #98, .F. ) ;
#910 = EDGE_CURVE ( 'NONE', #827, #113, #532, .T. ) ;
#911 = CARTESIAN_POINT ( 'NONE',  ( 18.19999999999999218, -6.799999999999998934, 3.899999999999999911 ) ) ;
#912 = SECURITY_CLASSIFICATION ( '', '', #931 ) ;
#913 = VECTOR ( 'NONE', #60, 1000.000000000000000 ) ;
#914 = PLANE ( 'NONE',  #13 ) ;
#915 = CARTESIAN_POINT ( 'NONE',  ( 22.19999999999999929, -3.100000000000000533, 3.899999999999999911 ) ) ;
#916 = VECTOR ( 'NONE', #732, 1000.000000000000000 ) ;
#917 = VERTEX_POINT ( 'NONE', #448 ) ;
#918 = EDGE_CURVE ( 'NONE', #38, #154, #361, .T. ) ;
#919 = DIRECTION ( 'NONE',  ( 0.000000000000000000, 1.000000000000000000, 0.000000000000000000 ) ) ;
#920 = DIRECTION ( 'NONE',  ( -0.000000000000000000, -0.000000000000000000, -1.000000000000000000 ) ) ;
#921 = VECTOR ( 'NONE', #840, 1000.000000000000000 ) ;
#922 = CLOSED_SHELL ( 'NONE', ( #289, #956, #138, #130, #54, #352, #598, #353, #1095, #610, #945, #271, #1073, #393, #810, #178, #530, #929, #230, #659, #344, #307, #594, #811, #401, #244, #1159, #714, #728, #1086, #1066, #643, #883, #428, #1058, #1182 ) ) ;
#923 = VERTEX_POINT ( 'NONE', #1088 ) ;
#924 = LINE ( 'NONE', #89, #497 ) ;
#925 = LINE ( 'NONE', #90, #952 ) ;
#926 = ORIENTED_EDGE ( 'NONE', *, *, #1105, .T. ) ;
#927 = LINE ( 'NONE', #835, #943 ) ;
#928 = DIRECTION ( 'NONE',  ( -1.000000000000000000, 0.000000000000000000, -0.000000000000000000 ) ) ;
#929 = ADVANCED_FACE ( 'NONE', ( #454, #820 ), #722, .F. ) ;
#930 = ORIENTED_EDGE ( 'NONE', *, *, #1065, .F. ) ;
#931 = SECURITY_CLASSIFICATION_LEVEL ( 'unclassified' ) ;
#932 = DIRECTION ( 'NONE',  ( 1.000000000000000000, 0.000000000000000000, 0.000000000000000000 ) ) ;
#933 = VECTOR ( 'NONE', #79, 1000.000000000000000 ) ;
#934 = DIRECTION ( 'NONE',  ( -0.000000000000000000, -0.000000000000000000, -1.000000000000000000 ) ) ;
#935 = EDGE_CURVE ( 'NONE', #387, #1070, #81, .T. ) ;
#936 = CARTESIAN_POINT ( 'NONE',  ( 19.79999999999999716, -1.700000000000000178, 1.149999999999999689 ) ) ;
#937 = EDGE_CURVE ( 'NONE', #113, #524, #100, .T. ) ;
#938 = ORIENTED_EDGE ( 'NONE', *, *, #681, .T. ) ;
#939 = DIRECTION ( 'NONE',  ( 0.000000000000000000, 0.000000000000000000, 1.000000000000000000 ) ) ;
#940 = APPLICATION_CONTEXT ( 'configuration controlled 3d designs of mechanical parts and assemblies' ) ;
#941 = CARTESIAN_POINT ( 'NONE',  ( 22.19999999999999929, -1.700000000000000178, -0.000000000000000000 ) ) ;
#942 = DIRECTION ( 'NONE',  ( 0.000000000000000000, -0.000000000000000000, 1.000000000000000000 ) ) ;
#943 = VECTOR ( 'NONE', #10, 1000.000000000000000 ) ;
#944 = ORIENTED_EDGE ( 'NONE', *, *, #866, .F. ) ;
#945 = ADVANCED_FACE ( 'NONE', ( #806, #1188 ), #374, .F. ) ;
#946 = CARTESIAN_POINT ( 'NONE',  ( 22.19999999999999574, 2.000000000000000000, 0.000000000000000000 ) ) ;
#947 = ORIENTED_EDGE ( 'NONE', *, *, #937, .T. ) ;
#948 = LINE ( 'NONE', #122, #787 ) ;
#949 = DIRECTION ( 'NONE',  ( -1.000000000000000000, 0.000000000000000000, 0.000000000000000000 ) ) ;
#950 = VECTOR ( 'NONE', #957, 1000.000000000000000 ) ;
#951 = ORIENTED_EDGE ( 'NONE', *, *, #937, .F. ) ;
#952 = VECTOR ( 'NONE', #284, 1000.000000000000000 ) ;
#953 = LINE ( 'NONE', #52, #285 ) ;
#954 = ORIENTED_EDGE ( 'NONE', *, *, #527, .T. ) ;
#955 = DIRECTION ( 'NONE',  ( -1.000000000000000000, 0.000000000000000000, 0.000000000000000000 ) ) ;
#956 = ADVANCED_FACE ( 'NONE', ( #370 ), #182, .F. ) ;
#957 = DIRECTION ( 'NONE',  ( -2.168404344971006896E-16, -1.000000000000000000, -0.000000000000000000 ) ) ;
#958 = PLANE ( 'NONE',  #540 ) ;
#959 = ORIENTED_EDGE ( 'NONE', *, *, #263, .T. ) ;
#960 = CARTESIAN_POINT ( 'NONE',  ( 22.19999999999999929, -5.100000000000000533, 3.899999999999999911 ) ) ;
#961 = AXIS2_PLACEMENT_3D ( 'NONE', #39, #964, #1155 ) ;
#962 = CARTESIAN_POINT ( 'NONE',  ( 5.399999999999993250, -6.799999999999999822, 3.899999999999999911 ) ) ;
#963 = DIRECTION ( 'NONE',  ( -2.168404344971006896E-16, -1.000000000000000000, -0.000000000000000000 ) ) ;
#964 = DIRECTION ( 'NONE',  ( 1.355252715606880789E-16, -1.000000000000000000, 0.000000000000000000 ) ) ;
#965 = ORIENTED_EDGE ( 'NONE', *, *, #985, .T. ) ;
#966 = DIRECTION ( 'NONE',  ( -1.000000000000000000, 2.168404344971005170E-16, 0.000000000000000000 ) ) ;
#967 = CARTESIAN_POINT ( 'NONE',  ( 17.19999999999999929, 0.5000000000000000000, 3.899999999999999911 ) ) ;
#968 = DIRECTION ( 'NONE',  ( 0.000000000000000000, 0.000000000000000000, -1.000000000000000000 ) ) ;
#969 = LOCAL_TIME ( 11, 48, 46.00000000000000000, #1118 ) ;
#970 = EDGE_CURVE ( 'NONE', #395, #220, #556, .T. ) ;
#971 = VECTOR ( 'NONE', #62, 1000.000000000000000 ) ;
#972 = LINE ( 'NONE', #678, #194 ) ;
#973 = VECTOR ( 'NONE', #290, 1000.000000000000000 ) ;
#974 = ORIENTED_EDGE ( 'NONE', *, *, #573, .F. ) ;
#975 = LINE ( 'NONE', #1116, #694 ) ;
#976 = CARTESIAN_POINT ( 'NONE',  ( 22.19999999999999929, -6.799999999999999822, 6.700000000000000178 ) ) ;
#977 = ORIENTED_EDGE ( 'NONE', *, *, #513, .F. ) ;
#978 = ORIENTED_EDGE ( 'NONE', *, *, #749, .F. ) ;
#979 = CARTESIAN_POINT ( 'NONE',  ( 4.000000000000000000, 0.000000000000000000, 0.000000000000000000 ) ) ;
#980 = VECTOR ( 'NONE', #174, 1000.000000000000000 ) ;
#981 = CYLINDRICAL_SURFACE ( 'NONE', #340, 1.000000000000000000 ) ;
#982 = VERTEX_POINT ( 'NONE', #365 ) ;
#983 = LINE ( 'NONE', #911, #895 ) ;
#984 = EDGE_LOOP ( 'NONE', ( #183, #602, #553, #402 ) ) ;
#985 = EDGE_CURVE ( 'NONE', #190, #350, #1177, .T. ) ;
#986 = CARTESIAN_POINT ( 'NONE',  ( 0.000000000000000000, 0.000000000000000000, 0.000000000000000000 ) ) ;
#987 = FACE_OUTER_BOUND ( 'NONE', #1136, .T. ) ;
#988 = EDGE_LOOP ( 'NONE', ( #165, #111, #397, #1061 ) ) ;
#989 = ORIENTED_EDGE ( 'NONE', *, *, #641, .T. ) ;
#990 = PRODUCT_DEFINITION ( '未知', '', #1178, #823 ) ;
#991 = VECTOR ( 'NONE', #744, 1000.000000000000000 ) ;
#992 = CARTESIAN_POINT ( 'NONE',  ( 17.19999999999999929, 0.000000000000000000, 0.000000000000000000 ) ) ;
#993 = EDGE_CURVE ( 'NONE', #477, #491, #356, .T. ) ;
#994 = DIRECTION ( 'NONE',  ( -1.000000000000000000, -0.000000000000000000, -0.000000000000000000 ) ) ;
#995 = EDGE_CURVE ( 'NONE', #7, #214, #814, .T. ) ;
#996 = ORIENTED_EDGE ( 'NONE', *, *, #856, .F. ) ;
#997 = LINE ( 'NONE', #274, #466 ) ;
#998 = CARTESIAN_POINT ( 'NONE',  ( 18.19999999999999574, -5.299999999999998934, 3.899999999999999911 ) ) ;
#999 = DIRECTION ( 'NONE',  ( 1.000000000000000000, -0.000000000000000000, 0.000000000000000000 ) ) ;
#1000 = ORIENTED_EDGE ( 'NONE', *, *, #918, .T. ) ;
#1001 = CARTESIAN_POINT ( 'NONE',  ( 18.19999999999999574, -5.099999999999999645, -0.000000000000000000 ) ) ;
#1002 = DIRECTION ( 'NONE',  ( -2.168404344971006896E-16, -1.000000000000000000, -0.000000000000000000 ) ) ;
#1003 = EDGE_CURVE ( 'NONE', #158, #35, #552, .T. ) ;
#1004 = ORIENTED_EDGE ( 'NONE', *, *, #562, .T. ) ;
#1005 = AXIS2_PLACEMENT_3D ( 'NONE', #960, #405, #966 ) ;
#1006 = LINE ( 'NONE', #256, #517 ) ;
#1007 = DIRECTION ( 'NONE',  ( 0.000000000000000000, -0.000000000000000000, -1.000000000000000000 ) ) ;
#1008 = ORIENTED_EDGE ( 'NONE', *, *, #846, .T. ) ;
#1009 = CARTESIAN_POINT ( 'NONE',  ( 19.80000000000000071, 9.899999999999998579, 2.750000000000000444 ) ) ;
#1010 = DIRECTION ( 'NONE',  ( 0.000000000000000000, 0.000000000000000000, 1.000000000000000000 ) ) ;
#1011 = VECTOR ( 'NONE', #232, 1000.000000000000000 ) ;
#1012 = ORIENTED_EDGE ( 'NONE', *, *, #630, .F. ) ;
#1013 = PERSON_AND_ORGANIZATION ( #782, #450 ) ;
#1014 = CARTESIAN_POINT ( 'NONE',  ( 21.39999999999999858, -3.100000000000000533, 2.750000000000000444 ) ) ;
#1015 = CARTESIAN_POINT ( 'NONE',  ( 7.200000000000000178, -3.599999999999999645, 3.899999999999999911 ) ) ;
#1016 = VERTEX_POINT ( 'NONE', #903 ) ;
#1017 = DATE_AND_TIME ( #294, #969 ) ;
#1018 = CC_DESIGN_DATE_AND_TIME_ASSIGNMENT ( #834, #754, ( #912 ) ) ;
#1019 =( BOUNDED_CURVE ( )  B_SPLINE_CURVE ( 3, ( #569, #311, #1043, #642 ),
 .UNSPECIFIED., .F., .F. ) 
 B_SPLINE_CURVE_WITH_KNOTS ( ( 4, 4 ),
 ( 4.712388980384689674, 6.283185307179585344 ),
 .UNSPECIFIED. ) 
 CURVE ( )  GEOMETRIC_REPRESENTATION_ITEM ( )  RATIONAL_B_SPLINE_CURVE ( ( 1.000000000000000000, 0.8047378541243649375, 0.8047378541243649375, 1.000000000000000000 ) ) 
 REPRESENTATION_ITEM ( '' )  );
#1020 = DIRECTION ( 'NONE',  ( 1.000000000000000000, 0.000000000000000000, -0.000000000000000000 ) ) ;
#1021 = FACE_OUTER_BOUND ( 'NONE', #582, .T. ) ;
#1022 = VECTOR ( 'NONE', #1154, 1000.000000000000000 ) ;
#1023 = EDGE_CURVE ( 'NONE', #1162, #310, #270, .T. ) ;
#1024 = VECTOR ( 'NONE', #920, 1000.000000000000000 ) ;
#1025 = LINE ( 'NONE', #567, #145 ) ;
#1026 = EDGE_CURVE ( 'NONE', #807, #631, #3, .T. ) ;
#1027 = ORIENTED_EDGE ( 'NONE', *, *, #383, .T. ) ;
#1028 = DIRECTION ( 'NONE',  ( -3.942553354492744024E-16, 1.000000000000000000, 0.000000000000000000 ) ) ;
#1029 = DIRECTION ( 'NONE',  ( 0.000000000000000000, 1.000000000000000000, 0.000000000000000000 ) ) ;
#1030 = CARTESIAN_POINT ( 'NONE',  ( 19.79999999999999716, -3.100000000000000533, 1.149999999999999689 ) ) ;
#1031 = EDGE_CURVE ( 'NONE', #544, #7, #547, .T. ) ;
#1032 = ORIENTED_EDGE ( 'NONE', *, *, #94, .T. ) ;
#1033 = VECTOR ( 'NONE', #46, 1000.000000000000000 ) ;
#1034 = CARTESIAN_POINT ( 'NONE',  ( 0.000000000000000000, 2.000000000000000000, 3.899999999999999911 ) ) ;
#1035 = ORIENTED_EDGE ( 'NONE', *, *, #155, .T. ) ;
#1036 = PLANE ( 'NONE',  #561 ) ;
#1037 = CARTESIAN_POINT ( 'NONE',  ( 0.000000000000000000, 2.000000000000000000, 0.000000000000000000 ) ) ;
#1038 = ORIENTED_EDGE ( 'NONE', *, *, #1078, .F. ) ;
#1039 = VERTEX_POINT ( 'NONE', #915 ) ;
#1040 = EDGE_CURVE ( 'NONE', #1104, #807, #925, .T. ) ;
#1041 = CARTESIAN_POINT ( 'NONE',  ( 4.000000000000000000, 0.000000000000000000, 3.899999999999999911 ) ) ;
#1042 = ORIENTED_EDGE ( 'NONE', *, *, #140, .T. ) ;
#1043 = CARTESIAN_POINT ( 'NONE',  ( 17.19999999999999929, -5.299999999999998046, 7.285786437626905254 ) ) ;
#1044 = DIRECTION ( 'NONE',  ( 0.000000000000000000, 0.000000000000000000, 1.000000000000000000 ) ) ;
#1045 = VECTOR ( 'NONE', #1052, 1000.000000000000000 ) ;
#1046 = ORIENTED_EDGE ( 'NONE', *, *, #6, .T. ) ;
#1047 = VECTOR ( 'NONE', #1010, 1000.000000000000000 ) ;
#1048 = DIRECTION ( 'NONE',  ( 1.000000000000000000, 0.000000000000000000, 0.000000000000000000 ) ) ;
#1049 = ORIENTED_EDGE ( 'NONE', *, *, #1023, .T. ) ;
#1050 = DIRECTION ( 'NONE',  ( -3.942553354492744024E-16, 1.000000000000000000, 0.000000000000000000 ) ) ;
#1051 = CARTESIAN_POINT ( 'NONE',  ( 18.19999999999999929, -0.4999999999999997780, 7.700000000000000178 ) ) ;
#1052 = DIRECTION ( 'NONE',  ( 2.040851148208009182E-15, 1.000000000000000000, -0.000000000000000000 ) ) ;
#1053 = LINE ( 'NONE', #335, #75 ) ;
#1054 = ORIENTED_EDGE ( 'NONE', *, *, #439, .T. ) ;
#1055 = DIRECTION ( 'NONE',  ( -0.000000000000000000, -0.000000000000000000, -1.000000000000000000 ) ) ;
#1056 = VECTOR ( 'NONE', #551, 1000.000000000000000 ) ;
#1057 = CARTESIAN_POINT ( 'NONE',  ( 17.19999999999999929, -5.299999999999998934, 3.899999999999999911 ) ) ;
#1058 = ADVANCED_FACE ( 'NONE', ( #537 ), #76, .T. ) ;
#1059 = CARTESIAN_POINT ( 'NONE',  ( 7.200000000000000178, -3.599999999999999645, 3.899999999999999911 ) ) ;
#1060 = CARTESIAN_POINT ( 'NONE',  ( 22.19999999999999574, 2.000000000000000000, 1.149999999999999911 ) ) ;
#1061 = ORIENTED_EDGE ( 'NONE', *, *, #437, .F. ) ;
#1062 = CYLINDRICAL_SURFACE ( 'NONE', #548, 1.000000000000000888 ) ;
#1063 = CARTESIAN_POINT ( 'NONE',  ( 22.19999999999999929, -5.299999999999998934, 3.899999999999999911 ) ) ;
#1064 = DIRECTION ( 'NONE',  ( 1.000000000000000000, 0.000000000000000000, 0.000000000000000000 ) ) ;
#1065 = EDGE_CURVE ( 'NONE', #310, #214, #841, .T. ) ;
#1066 = ADVANCED_FACE ( 'NONE', ( #115 ), #468, .T. ) ;
#1067 = AXIS2_PLACEMENT_3D ( 'NONE', #508, #1151, #49 ) ;
#1068 = ORIENTED_EDGE ( 'NONE', *, *, #23, .T. ) ;
#1069 = VECTOR ( 'NONE', #934, 1000.000000000000000 ) ;
#1070 = VERTEX_POINT ( 'NONE', #941 ) ;
#1071 = CARTESIAN_POINT ( 'NONE',  ( 18.19999999999999574, -5.099999999999999645, 3.899999999999999911 ) ) ;
#1072 = DIRECTION ( 'NONE',  ( -3.942553354492744024E-16, 1.000000000000000000, 0.000000000000000000 ) ) ;
#1073 = ADVANCED_FACE ( 'NONE', ( #1021 ), #106, .F. ) ;
#1074 = ORIENTED_EDGE ( 'NONE', *, *, #993, .F. ) ;
#1075 = ORIENTED_EDGE ( 'NONE', *, *, #1082, .T. ) ;
#1076 = DIRECTION ( 'NONE',  ( 0.000000000000000000, 0.000000000000000000, 1.000000000000000000 ) ) ;
#1077 = CARTESIAN_POINT ( 'NONE',  ( 7.200000000000000178, -3.599999999999999645, 0.000000000000000000 ) ) ;
#1078 = EDGE_CURVE ( 'NONE', #154, #432, #1115, .T. ) ;
#1079 = ORIENTED_EDGE ( 'NONE', *, *, #9, .T. ) ;
#1080 =( LENGTH_UNIT ( ) NAMED_UNIT ( * ) SI_UNIT ( .MILLI., .METRE. ) );
#1081 = ORIENTED_EDGE ( 'NONE', *, *, #86, .T. ) ;
#1082 = EDGE_CURVE ( 'NONE', #487, #420, #648, .T. ) ;
#1083 = LINE ( 'NONE', #632, #210 ) ;
#1084 = CARTESIAN_POINT ( 'NONE',  ( 18.19999999999999218, -6.799999999999998934, 3.899999999999999911 ) ) ;
#1085 = ORIENTED_EDGE ( 'NONE', *, *, #1114, .T. ) ;
#1086 = ADVANCED_FACE ( 'NONE', ( #1120 ), #385, .F. ) ;
#1087 = CARTESIAN_POINT ( 'NONE',  ( 17.19999999999999929, 0.000000000000000000, 3.899999999999999911 ) ) ;
#1088 = CARTESIAN_POINT ( 'NONE',  ( 18.19999999999999218, -6.799999999999999822, 0.000000000000000000 ) ) ;
#1089 = PRODUCT_DEFINITION_SHAPE ( 'NONE', 'NONE',  #990 ) ;
#1090 = ORIENTED_EDGE ( 'NONE', *, *, #45, .F. ) ;
#1091 = DIRECTION ( 'NONE',  ( 0.000000000000000000, 0.000000000000000000, 1.000000000000000000 ) ) ;
#1092 = APPROVAL ( #472, '未指定' ) ;
#1093 = DIRECTION ( 'NONE',  ( -0.6332377902572615680, -0.7739572992033219023, -0.000000000000000000 ) ) ;
#1094 = DIRECTION ( 'NONE',  ( 0.000000000000000000, -1.000000000000000000, 0.000000000000000000 ) ) ;
#1095 = ADVANCED_FACE ( 'NONE', ( #109 ), #750, .F. ) ;
#1096 = ORIENTED_EDGE ( 'NONE', *, *, #683, .T. ) ;
#1097 = FACE_BOUND ( 'NONE', #40, .T. ) ;
#1098 = CARTESIAN_POINT ( 'NONE',  ( 22.19999999999999929, -1.700000000000000178, 3.899999999999999911 ) ) ;
#1099 = ORIENTED_EDGE ( 'NONE', *, *, #856, .T. ) ;
#1100 = AXIS2_PLACEMENT_3D ( 'NONE', #849, #399, #26 ) ;
#1101 = DIRECTION ( 'NONE',  ( 0.000000000000000000, 0.000000000000000000, 1.000000000000000000 ) ) ;
#1102 = DIRECTION ( 'NONE',  ( -0.000000000000000000, -0.000000000000000000, -1.000000000000000000 ) ) ;
#1103 = VECTOR ( 'NONE', #459, 1000.000000000000000 ) ;
#1104 = VERTEX_POINT ( 'NONE', #1015 ) ;
#1105 = EDGE_CURVE ( 'NONE', #786, #38, #197, .T. ) ;
#1106 = DATE_AND_TIME ( #564, #464 ) ;
#1107 = DIRECTION ( 'NONE',  ( -0.000000000000000000, 0.000000000000000000, 1.000000000000000000 ) ) ;
#1108 = CARTESIAN_POINT ( 'NONE',  ( 4.000000000000000000, 0.000000000000000000, 3.899999999999999911 ) ) ;
#1109 = ORIENTED_EDGE ( 'NONE', *, *, #970, .F. ) ;
#1110 = CC_DESIGN_PERSON_AND_ORGANIZATION_ASSIGNMENT ( #747, #741, ( #990 ) ) ;
#1111 = PERSON_AND_ORGANIZATION ( #782, #450 ) ;
#1112 = EDGE_CURVE ( 'NONE', #1016, #982, #260, .T. ) ;
#1113 = PLANE ( 'NONE',  #171 ) ;
#1114 = EDGE_CURVE ( 'NONE', #790, #923, #983, .T. ) ;
#1115 = LINE ( 'NONE', #298, #1142 ) ;
#1116 = CARTESIAN_POINT ( 'NONE',  ( 19.20000000000000284, -3.100000000000000533, 3.899999999999999911 ) ) ;
#1117 = ORIENTED_EDGE ( 'NONE', *, *, #864, .F. ) ;
#1118 = COORDINATED_UNIVERSAL_TIME_OFFSET ( 8, 0, .AHEAD. ) ;
#1119 = LINE ( 'NONE', #656, #63 ) ;
#1120 = FACE_OUTER_BOUND ( 'NONE', #172, .T. ) ;
#1121 = VECTOR ( 'NONE', #1044, 1000.000000000000000 ) ;
#1122 = AXIS2_PLACEMENT_3D ( 'NONE', #719, #1091, #268 ) ;
#1123 = DIRECTION ( 'NONE',  ( 0.000000000000000000, 1.000000000000000000, 0.000000000000000000 ) ) ;
#1124 = EDGE_LOOP ( 'NONE', ( #205, #944, #1, #1038 ) ) ;
#1125 = APPROVAL_ROLE ( '' ) ;
#1126 = VERTEX_POINT ( 'NONE', #1186 ) ;
#1127 = CARTESIAN_POINT ( 'NONE',  ( 4.000000000000000000, -3.600000000000000089, 3.899999999999999911 ) ) ;
#1128 = PLANE ( 'NONE',  #372 ) ;
#1129 = EDGE_CURVE ( 'NONE', #1016, #786, #871, .T. ) ;
#1130 = ORIENTED_EDGE ( 'NONE', *, *, #383, .F. ) ;
#1131 = CARTESIAN_POINT ( 'NONE',  ( 22.19999999999999574, 2.000000000000000000, 0.000000000000000000 ) ) ;
#1132 = ORIENTED_EDGE ( 'NONE', *, *, #1031, .T. ) ;
#1133 = DIRECTION ( 'NONE',  ( -0.000000000000000000, 0.000000000000000000, -1.000000000000000000 ) ) ;
#1134 = LINE ( 'NONE', #312, #950 ) ;
#1135 = ORIENTED_EDGE ( 'NONE', *, *, #155, .F. ) ;
#1136 = EDGE_LOOP ( 'NONE', ( #1004, #1130, #29, #893 ) ) ;
#1137 = DIRECTION ( 'NONE',  ( 1.000000000000000000, -0.000000000000000000, -0.000000000000000000 ) ) ;
#1138 = ORIENTED_EDGE ( 'NONE', *, *, #437, .T. ) ;
#1139 = PLANE ( 'NONE',  #1005 ) ;
#1140 = PLANE ( 'NONE',  #1100 ) ;
#1141 = EDGE_LOOP ( 'NONE', ( #636, #379, #128, #858, #14, #1068, #465, #1179, #579, #494, #83 ) ) ;
#1142 = VECTOR ( 'NONE', #836, 1000.000000000000000 ) ;
#1143 = FACE_OUTER_BOUND ( 'NONE', #121, .T. ) ;
#1144 = ORIENTED_EDGE ( 'NONE', *, *, #600, .F. ) ;
#1145 = DIRECTION ( 'NONE',  ( -0.000000000000000000, 1.000000000000000000, -0.000000000000000000 ) ) ;
#1146 = DIRECTION ( 'NONE',  ( 1.000000000000000000, -2.168404344971006896E-16, 0.000000000000000000 ) ) ;
#1147 = CARTESIAN_POINT ( 'NONE',  ( 21.39999999999999858, -3.100000000000000533, 1.149999999999999689 ) ) ;
#1148 = EDGE_CURVE ( 'NONE', #303, #631, #997, .T. ) ;
#1149 = EDGE_LOOP ( 'NONE', ( #852, #1027, #1042, #712, #342, #724, #507, #550 ) ) ;
#1150 = ORIENTED_EDGE ( 'NONE', *, *, #993, .T. ) ;
#1151 = DIRECTION ( 'NONE',  ( -1.000000000000000000, 2.168404344971006896E-16, 0.000000000000000000 ) ) ;
#1152 = EDGE_CURVE ( 'NONE', #286, #619, #363, .T. ) ;
#1153 = CARTESIAN_POINT ( 'NONE',  ( 4.000000000000000000, 0.000000000000000000, 3.899999999999999911 ) ) ;
#1154 = DIRECTION ( 'NONE',  ( -1.000000000000000000, 0.000000000000000000, 0.000000000000000000 ) ) ;
#1155 = DIRECTION ( 'NONE',  ( 1.000000000000000000, 1.355252715606880789E-16, 0.000000000000000000 ) ) ;
#1156 = EDGE_LOOP ( 'NONE', ( #359, #1046, #838, #1054 ) ) ;
#1157 = AXIS2_PLACEMENT_3D ( 'NONE', #398, #1020, #1133 ) ;
#1158 = DIRECTION ( 'NONE',  ( -1.000000000000000000, 0.000000000000000000, 0.000000000000000000 ) ) ;
#1159 = ADVANCED_FACE ( 'NONE', ( #159 ), #446, .T. ) ;
#1160 = LINE ( 'NONE', #157, #358 ) ;
#1161 = AXIS2_PLACEMENT_3D ( 'NONE', #884, #1158, #1076 ) ;
#1162 = VERTEX_POINT ( 'NONE', #72 ) ;
#1163 = APPROVAL_ROLE ( '' ) ;
#1164 = VERTEX_POINT ( 'NONE', #440 ) ;
#1165 = DIRECTION ( 'NONE',  ( -0.000000000000000000, -0.000000000000000000, -1.000000000000000000 ) ) ;
#1166 = DIRECTION ( 'NONE',  ( -0.000000000000000000, 1.000000000000000000, -0.000000000000000000 ) ) ;
#1167 = ORIENTED_EDGE ( 'NONE', *, *, #995, .T. ) ;
#1168 = DIRECTION ( 'NONE',  ( -0.000000000000000000, -0.000000000000000000, -1.000000000000000000 ) ) ;
#1169 = ORIENTED_EDGE ( 'NONE', *, *, #1040, .F. ) ;
#1170 = DIRECTION ( 'NONE',  ( 1.000000000000000000, 0.000000000000000000, 0.000000000000000000 ) ) ;
#1171 = AXIS2_PLACEMENT_3D ( 'NONE', #462, #2, #169 ) ;
#1172 = DIRECTION ( 'NONE',  ( -2.040851148208009182E-15, -1.000000000000000000, 0.000000000000000000 ) ) ;
#1173 = EDGE_LOOP ( 'NONE', ( #989, #267, #471, #126 ) ) ;
#1174 =( NAMED_UNIT ( * ) PLANE_ANGLE_UNIT ( ) SI_UNIT ( $, .RADIAN. ) );
#1175 = ORIENTED_EDGE ( 'NONE', *, *, #212, .T. ) ;
#1176 = CARTESIAN_POINT ( 'NONE',  ( 8.327598234202000132E-16, -6.799999999999999822, 3.899999999999999911 ) ) ;
#1177 = LINE ( 'NONE', #276, #124 ) ;
#1178 = PRODUCT_DEFINITION_FORMATION_WITH_SPECIFIED_SOURCE ( '任何', '', #266, .NOT_KNOWN. ) ;
#1179 = ORIENTED_EDGE ( 'NONE', *, *, #439, .F. ) ;
#1180 = AXIS2_PLACEMENT_3D ( 'NONE', #151, #523, #1172 ) ;
#1181 = VECTOR ( 'NONE', #1102, 1000.000000000000000 ) ;
#1182 = ADVANCED_FACE ( 'NONE', ( #817 ), #346, .F. ) ;
#1183 = CARTESIAN_POINT ( 'NONE',  ( 17.19999999999999929, 0.000000000000000000, 0.000000000000000000 ) ) ;
#1184 = DIRECTION ( 'NONE',  ( 0.000000000000000000, 0.000000000000000000, -1.000000000000000000 ) ) ;
#1185 = VERTEX_POINT ( 'NONE', #624 ) ;
#1186 = CARTESIAN_POINT ( 'NONE',  ( 17.19999999999999929, 0.000000000000000000, 3.899999999999999911 ) ) ;
#1187 = DIRECTION ( 'NONE',  ( -2.168404344971006896E-16, -1.000000000000000000, -0.000000000000000000 ) ) ;
#1188 = FACE_OUTER_BOUND ( 'NONE', #568, .T. ) ;
#1189 = VECTOR ( 'NONE', #360, 1000.000000000000000 ) ;
#1190 = ORIENTED_EDGE ( 'NONE', *, *, #764, .F. ) ;
#1191 = CALENDAR_DATE ( 2020, 30, 7 ) ;
#1192 = LINE ( 'NONE', #1176, #306 ) ;
#1193 = CARTESIAN_POINT ( 'NONE',  ( 22.19999999999999929, -3.100000000000000533, 3.899999999999999911 ) ) ;
#1194 = EDGE_CURVE ( 'NONE', #679, #441, #706, .T. ) ;
ENDSEC;
END-ISO-10303-21;
