ISO-10303-21;
HEADER;
FILE_DESCRIPTION (( 'STEP AP203' ),
    '1' );
FILE_NAME ('锁钩.STEP',
    '2020-07-30T03:47:22',
    ( '' ),
    ( '' ),
    'SwSTEP 2.0',
    'SolidWorks 2020',
    '' );
FILE_SCHEMA (( 'CONFIG_CONTROL_DESIGN' ));
ENDSEC;

DATA;
#1 = VERTEX_POINT ( 'NONE', #284 ) ;
#2 = EDGE_CURVE ( 'NONE', #182, #600, #687, .T. ) ;
#3 = VERTEX_POINT ( 'NONE', #64 ) ;
#4 = VECTOR ( 'NONE', #190, 1000.000000000000000 ) ;
#5 = COORDINATED_UNIVERSAL_TIME_OFFSET ( 8, 0, .AHEAD. ) ;
#6 = DIRECTION ( 'NONE',  ( -0.000000000000000000, 1.000000000000000000, -0.000000000000000000 ) ) ;
#7 = CARTESIAN_POINT ( 'NONE',  ( 9.399999999999998579, -0.6934003354313531542, 3.500000000000000000 ) ) ;
#8 = ORIENTED_EDGE ( 'NONE', *, *, #15, .T. ) ;
#9 = PERSON_AND_ORGANIZATION_ROLE ( 'creator' ) ;
#10 = ORIENTED_EDGE ( 'NONE', *, *, #453, .T. ) ;
#11 = APPROVAL_PERSON_ORGANIZATION ( #519, #532, #233 ) ;
#12 = PERSON_AND_ORGANIZATION_ROLE ( 'creator' ) ;
#13 = ORIENTED_EDGE ( 'NONE', *, *, #346, .T. ) ;
#14 = CARTESIAN_POINT ( 'NONE',  ( 9.399999999999998579, 8.400000000000000355, 1.500000000000000000 ) ) ;
#15 = EDGE_CURVE ( 'NONE', #344, #506, #186, .T. ) ;
#16 = PLANE ( 'NONE',  #397 ) ;
#17 = LINE ( 'NONE', #524, #694 ) ;
#18 = DIRECTION ( 'NONE',  ( 0.000000000000000000, 0.000000000000000000, -1.000000000000000000 ) ) ;
#19 = LINE ( 'NONE', #363, #654 ) ;
#20 = DIRECTION ( 'NONE',  ( 0.000000000000000000, -0.000000000000000000, -1.000000000000000000 ) ) ;
#21 = EDGE_CURVE ( 'NONE', #348, #50, #197, .T. ) ;
#22 = DATE_AND_TIME ( #686, #684 ) ;
#23 = DIRECTION ( 'NONE',  ( -1.000000000000000000, -0.000000000000000000, -0.000000000000000000 ) ) ;
#24 = CARTESIAN_POINT ( 'NONE',  ( 9.399999999999998579, 8.400000000000000355, 1.500000000000000000 ) ) ;
#25 = LINE ( 'NONE', #413, #396 ) ;
#26 = VECTOR ( 'NONE', #373, 1000.000000000000000 ) ;
#27 = AXIS2_PLACEMENT_3D ( 'NONE', #606, #498, #677 ) ;
#28 = ADVANCED_FACE ( 'NONE', ( #651 ), #593, .F. ) ;
#29 = CARTESIAN_POINT ( 'NONE',  ( -5.299999999999999822, 0.000000000000000000, 1.500000000000000000 ) ) ;
#30 = LOCAL_TIME ( 11, 47, 22.00000000000000000, #5 ) ;
#31 = DIRECTION ( 'NONE',  ( -0.000000000000000000, -1.000000000000000000, -0.000000000000000000 ) ) ;
#32 = DIRECTION ( 'NONE',  ( -0.000000000000000000, -1.000000000000000000, -0.000000000000000000 ) ) ;
#33 = LINE ( 'NONE', #374, #122 ) ;
#34 = DIRECTION ( 'NONE',  ( 0.000000000000000000, 1.858632295689435856E-16, -1.000000000000000000 ) ) ;
#35 = LINE ( 'NONE', #714, #384 ) ;
#36 = ORIENTED_EDGE ( 'NONE', *, *, #528, .F. ) ;
#37 = AXIS2_PLACEMENT_3D ( 'NONE', #536, #481, #85 ) ;
#38 = VECTOR ( 'NONE', #109, 1000.000000000000000 ) ;
#39 = CARTESIAN_POINT ( 'NONE',  ( 9.399999999999998579, 0.000000000000000000, 0.000000000000000000 ) ) ;
#40 = CARTESIAN_POINT ( 'NONE',  ( -5.299999999999999822, -12.00000000000000000, 0.000000000000000000 ) ) ;
#41 = PRODUCT_DEFINITION_FORMATION_WITH_SPECIFIED_SOURCE ( '任何', '', #429, .NOT_KNOWN. ) ;
#42 = ORIENTED_EDGE ( 'NONE', *, *, #615, .F. ) ;
#43 = ADVANCED_FACE ( 'NONE', ( #241 ), #361, .T. ) ;
#44 = ORIENTED_EDGE ( 'NONE', *, *, #106, .F. ) ;
#45 = CARTESIAN_POINT ( 'NONE',  ( 14.69999999999999751, -5.999999999999993783, 3.500000000000000000 ) ) ;
#46 = LINE ( 'NONE', #53, #357 ) ;
#47 = ORIENTED_EDGE ( 'NONE', *, *, #411, .T. ) ;
#48 = DIRECTION ( 'NONE',  ( -0.000000000000000000, 2.478176394252581634E-16, -1.000000000000000000 ) ) ;
#49 = DIRECTION ( 'NONE',  ( -2.891205793294677833E-16, -1.000000000000000000, 0.000000000000000000 ) ) ;
#50 = VERTEX_POINT ( 'NONE', #88 ) ;
#51 = EDGE_LOOP ( 'NONE', ( #514, #385, #327, #210 ) ) ;
#52 = CARTESIAN_POINT ( 'NONE',  ( 3.000000000000000000, 5.200000000000000178, 3.500000000000000000 ) ) ;
#53 = CARTESIAN_POINT ( 'NONE',  ( 2.199999999999999734, -5.999999999999997335, 3.500000000000000000 ) ) ;
#54 = EDGE_CURVE ( 'NONE', #616, #180, #248, .T. ) ;
#55 = AXIS2_PLACEMENT_3D ( 'NONE', #705, #701, #80 ) ;
#56 = ORIENTED_EDGE ( 'NONE', *, *, #341, .F. ) ;
#57 = APPROVAL_PERSON_ORGANIZATION ( #354, #381, #286 ) ;
#58 = ORIENTED_EDGE ( 'NONE', *, *, #319, .F. ) ;
#59 = DIRECTION ( 'NONE',  ( 1.000000000000000000, 1.156482317317871478E-16, -0.000000000000000000 ) ) ;
#60 = EDGE_LOOP ( 'NONE', ( #289, #287, #337, #10 ) ) ;
#61 = ORIENTED_EDGE ( 'NONE', *, *, #702, .T. ) ;
#62 = EDGE_CURVE ( 'NONE', #506, #520, #311, .T. ) ;
#63 = DIRECTION ( 'NONE',  ( 1.000000000000000000, 0.000000000000000000, 0.000000000000000000 ) ) ;
#64 = CARTESIAN_POINT ( 'NONE',  ( 9.399999999999998579, 8.400000000000000355, 3.500000000000000000 ) ) ;
#65 = AXIS2_PLACEMENT_3D ( 'NONE', #548, #718, #165 ) ;
#66 = ADVANCED_FACE ( 'NONE', ( #484 ), #710, .F. ) ;
#67 = MECHANICAL_CONTEXT ( 'NONE', #223, 'mechanical' ) ;
#68 = ORIENTED_EDGE ( 'NONE', *, *, #2, .F. ) ;
#69 = COORDINATED_UNIVERSAL_TIME_OFFSET ( 8, 0, .AHEAD. ) ;
#70 = ORIENTED_EDGE ( 'NONE', *, *, #73, .F. ) ;
#71 = DATE_TIME_ROLE ( 'creation_date' ) ;
#72 = ORIENTED_EDGE ( 'NONE', *, *, #301, .T. ) ;
#73 = EDGE_CURVE ( 'NONE', #616, #733, #419, .T. ) ;
#74 = VECTOR ( 'NONE', #323, 999.9999999999998863 ) ;
#75 = DIRECTION ( 'NONE',  ( 0.000000000000000000, -1.000000000000000000, 0.000000000000000000 ) ) ;
#76 = DIRECTION ( 'NONE',  ( -0.000000000000000000, -1.000000000000000000, -0.000000000000000000 ) ) ;
#77 = DIRECTION ( 'NONE',  ( 1.000000000000000000, 0.000000000000000000, 0.000000000000000000 ) ) ;
#78 = EDGE_CURVE ( 'NONE', #444, #388, #486, .T. ) ;
#79 = CARTESIAN_POINT ( 'NONE',  ( 2.199999999999998401, -12.00000000000000000, 3.500000000000000000 ) ) ;
#80 = DIRECTION ( 'NONE',  ( 0.000000000000000000, -0.000000000000000000, -1.000000000000000000 ) ) ;
#81 = CARTESIAN_POINT ( 'NONE',  ( 3.000000000000000000, 1.600000000000000755, 0.000000000000000000 ) ) ;
#82 = CARTESIAN_POINT ( 'NONE',  ( -5.299999999999999822, -12.00000000000000000, 1.500000000000000000 ) ) ;
#83 = DIRECTION ( 'NONE',  ( -0.000000000000000000, 0.000000000000000000, 1.000000000000000000 ) ) ;
#84 = EDGE_CURVE ( 'NONE', #600, #348, #142, .T. ) ;
#85 = DIRECTION ( 'NONE',  ( -1.445602896647339163E-16, -1.000000000000000000, 0.000000000000000000 ) ) ;
#86 = DIRECTION ( 'NONE',  ( 0.000000000000000000, -0.000000000000000000, -1.000000000000000000 ) ) ;
#87 = VECTOR ( 'NONE', #152, 1000.000000000000000 ) ;
#88 = CARTESIAN_POINT ( 'NONE',  ( 9.399999999999998579, 8.400000000000000355, 0.000000000000000000 ) ) ;
#89 = CARTESIAN_POINT ( 'NONE',  ( 7.199999999999998401, -11.99999999999999822, 1.500000000000000000 ) ) ;
#90 = CARTESIAN_POINT ( 'NONE',  ( 7.200000000000000178, -5.999999999999996447, 3.500000000000000000 ) ) ;
#91 = DIRECTION ( 'NONE',  ( 2.891205793294677833E-16, 1.000000000000000000, 0.000000000000000000 ) ) ;
#92 = ORIENTED_EDGE ( 'NONE', *, *, #346, .F. ) ;
#93 = CARTESIAN_POINT ( 'NONE',  ( 24.69999999999999929, -11.99999999999999645, 1.500000000000000000 ) ) ;
#94 = DIRECTION ( 'NONE',  ( 1.000000000000000000, 0.000000000000000000, 0.000000000000000000 ) ) ;
#95 = EDGE_CURVE ( 'NONE', #629, #409, #368, .T. ) ;
#96 = ORIENTED_EDGE ( 'NONE', *, *, #319, .T. ) ;
#97 = VECTOR ( 'NONE', #309, 999.9999999999998863 ) ;
#98 = PLANE ( 'NONE',  #251 ) ;
#99 = FACE_OUTER_BOUND ( 'NONE', #627, .T. ) ;
#100 = ORIENTED_EDGE ( 'NONE', *, *, #432, .F. ) ;
#101 = EDGE_CURVE ( 'NONE', #388, #633, #655, .T. ) ;
#102 = ORIENTED_EDGE ( 'NONE', *, *, #62, .T. ) ;
#103 = DIRECTION ( 'NONE',  ( 1.000000000000000000, 0.000000000000000000, 0.000000000000000000 ) ) ;
#104 = FACE_OUTER_BOUND ( 'NONE', #545, .T. ) ;
#105 = EDGE_LOOP ( 'NONE', ( #293, #696, #215, #72 ) ) ;
#106 = EDGE_CURVE ( 'NONE', #1, #574, #590, .T. ) ;
#107 = ORIENTED_EDGE ( 'NONE', *, *, #78, .T. ) ;
#108 = CARTESIAN_POINT ( 'NONE',  ( 7.199999999999998401, -11.99999999999999822, 3.500000000000000000 ) ) ;
#109 = DIRECTION ( 'NONE',  ( 0.000000000000000000, 1.000000000000000000, 0.000000000000000000 ) ) ;
#110 = EDGE_LOOP ( 'NONE', ( #375, #115, #459, #378, #401, #335 ) ) ;
#111 = VERTEX_POINT ( 'NONE', #90 ) ;
#112 = ADVANCED_FACE ( 'NONE', ( #640 ), #305, .F. ) ;
#113 = VECTOR ( 'NONE', #277, 1000.000000000000000 ) ;
#114 = LINE ( 'NONE', #316, #630 ) ;
#115 = ORIENTED_EDGE ( 'NONE', *, *, #78, .F. ) ;
#116 = CC_DESIGN_PERSON_AND_ORGANIZATION_ASSIGNMENT ( #408, #350, ( #480 ) ) ;
#117 = ORIENTED_EDGE ( 'NONE', *, *, #84, .F. ) ;
#118 = EDGE_CURVE ( 'NONE', #516, #388, #582, .T. ) ;
#119 = CARTESIAN_POINT ( 'NONE',  ( 9.399999999999998579, 8.400000000000000355, 1.500000000000000000 ) ) ;
#120 = APPLICATION_PROTOCOL_DEFINITION ( 'international standard', 'config_control_design', 1994, #555 ) ;
#121 = ORIENTED_EDGE ( 'NONE', *, *, #106, .T. ) ;
#122 = VECTOR ( 'NONE', #537, 1000.000000000000000 ) ;
#123 = CC_DESIGN_SECURITY_CLASSIFICATION ( #480, ( #41 ) ) ;
#124 =( NAMED_UNIT ( * ) SI_UNIT ( $, .STERADIAN. ) SOLID_ANGLE_UNIT ( ) );
#125 = ORIENTED_EDGE ( 'NONE', *, *, #585, .F. ) ;
#126 = EDGE_CURVE ( 'NONE', #565, #671, #17, .T. ) ;
#127 = DATE_AND_TIME ( #231, #30 ) ;
#128 = ORIENTED_EDGE ( 'NONE', *, *, #653, .F. ) ;
#129 = CARTESIAN_POINT ( 'NONE',  ( 24.69999999999999929, -11.99999999999999645, 0.000000000000000000 ) ) ;
#130 = CARTESIAN_POINT ( 'NONE',  ( 0.000000000000000000, 0.000000000000000000, 1.500000000000000000 ) ) ;
#131 = APPROVAL_ROLE ( '' ) ;
#132 = CARTESIAN_POINT ( 'NONE',  ( 24.69999999999999929, -11.99999999999999645, 1.500000000000000000 ) ) ;
#133 = PLANE ( 'NONE',  #307 ) ;
#134 = VECTOR ( 'NONE', #423, 1000.000000000000000 ) ;
#135 = LOCAL_TIME ( 11, 47, 22.00000000000000000, #225 ) ;
#136 = DIRECTION ( 'NONE',  ( -1.000000000000000000, -0.000000000000000000, -0.000000000000000000 ) ) ;
#137 = FACE_OUTER_BOUND ( 'NONE', #270, .T. ) ;
#138 = CARTESIAN_POINT ( 'NONE',  ( 0.000000000000000000, 5.200000000000000178, 3.500000000000000000 ) ) ;
#139 = EDGE_CURVE ( 'NONE', #409, #1, #703, .T. ) ;
#140 = CARTESIAN_POINT ( 'NONE',  ( 9.399999999999998579, 0.000000000000000000, 1.500000000000000000 ) ) ;
#141 = DIRECTION ( 'NONE',  ( 0.000000000000000000, -0.000000000000000000, -1.000000000000000000 ) ) ;
#142 = LINE ( 'NONE', #140, #320 ) ;
#143 = PLANE ( 'NONE',  #580 ) ;
#144 = VECTOR ( 'NONE', #48, 1000.000000000000000 ) ;
#145 = VECTOR ( 'NONE', #159, 1000.000000000000000 ) ;
#146 = CARTESIAN_POINT ( 'NONE',  ( 0.000000000000000000, 8.400000000000000355, 3.500000000000000000 ) ) ;
#147 = LINE ( 'NONE', #420, #682 ) ;
#148 = ORIENTED_EDGE ( 'NONE', *, *, #720, .T. ) ;
#149 = EDGE_CURVE ( 'NONE', #111, #204, #253, .T. ) ;
#150 = LINE ( 'NONE', #447, #476 ) ;
#151 = DIRECTION ( 'NONE',  ( 0.000000000000000000, 0.000000000000000000, 1.000000000000000000 ) ) ;
#152 = DIRECTION ( 'NONE',  ( -1.000000000000000000, -0.000000000000000000, -0.000000000000000000 ) ) ;
#153 = DIRECTION ( 'NONE',  ( -1.000000000000000000, -0.000000000000000000, -0.000000000000000000 ) ) ;
#154 = ORIENTED_EDGE ( 'NONE', *, *, #364, .F. ) ;
#155 = ORIENTED_EDGE ( 'NONE', *, *, #610, .T. ) ;
#156 = AXIS2_PLACEMENT_3D ( 'NONE', #578, #414, #636 ) ;
#157 = CIRCLE ( 'NONE', #631, 7.500000000000000000 ) ;
#158 = CARTESIAN_POINT ( 'NONE',  ( 24.69999999999999929, -11.99999999999999645, 0.000000000000000000 ) ) ;
#159 = DIRECTION ( 'NONE',  ( -0.000000000000000000, -0.000000000000000000, -1.000000000000000000 ) ) ;
#160 = ORGANIZATION ( '未指定', '未指定', '' ) ;
#161 = CC_DESIGN_APPROVAL ( #230, ( #480 ) ) ;
#162 = ORIENTED_EDGE ( 'NONE', *, *, #54, .T. ) ;
#163 = ADVANCED_FACE ( 'NONE', ( #393 ), #208, .F. ) ;
#164 = ORIENTED_EDGE ( 'NONE', *, *, #521, .F. ) ;
#165 = DIRECTION ( 'NONE',  ( -1.000000000000000000, 0.000000000000000000, 0.000000000000000000 ) ) ;
#166 = CARTESIAN_POINT ( 'NONE',  ( 7.200000000000001954, -2.081668171172168513E-15, 3.500000000000000000 ) ) ;
#167 = ORIENTED_EDGE ( 'NONE', *, *, #411, .F. ) ;
#168 = DIRECTION ( 'NONE',  ( 0.000000000000000000, 0.000000000000000000, -1.000000000000000000 ) ) ;
#169 = CARTESIAN_POINT ( 'NONE',  ( 24.69999999999999929, 0.000000000000000000, 1.500000000000000000 ) ) ;
#170 = VERTEX_POINT ( 'NONE', #272 ) ;
#171 = VECTOR ( 'NONE', #194, 1000.000000000000000 ) ;
#172 = VECTOR ( 'NONE', #317, 1000.000000000000000 ) ;
#173 = ORIENTED_EDGE ( 'NONE', *, *, #432, .T. ) ;
#174 = DATE_AND_TIME ( #581, #561 ) ;
#175 = VERTEX_POINT ( 'NONE', #158 ) ;
#176 = MANIFOLD_SOLID_BREP ( '倒角1', #452 ) ;
#177 = APPROVAL_DATE_TIME ( #127, #381 ) ;
#178 = ORIENTED_EDGE ( 'NONE', *, *, #149, .F. ) ;
#179 = APPROVAL_DATE_TIME ( #174, #532 ) ;
#180 = VERTEX_POINT ( 'NONE', #617 ) ;
#181 = PERSON_AND_ORGANIZATION_ROLE ( 'design_supplier' ) ;
#182 = VERTEX_POINT ( 'NONE', #493 ) ;
#183 = CARTESIAN_POINT ( 'NONE',  ( -5.299999999999999822, 0.000000000000000000, 1.500000000000000000 ) ) ;
#184 = EDGE_CURVE ( 'NONE', #170, #449, #433, .T. ) ;
#185 = PERSON_AND_ORGANIZATION ( #199, #160 ) ;
#186 = LINE ( 'NONE', #539, #488 ) ;
#187 = CARTESIAN_POINT ( 'NONE',  ( 0.000000000000000000, 1.600000000000000089, 3.500000000000000000 ) ) ;
#188 = DIRECTION ( 'NONE',  ( 0.000000000000000000, 0.000000000000000000, 1.000000000000000000 ) ) ;
#189 = EDGE_CURVE ( 'NONE', #435, #1, #389, .T. ) ;
#190 = DIRECTION ( 'NONE',  ( -0.000000000000000000, -0.000000000000000000, -1.000000000000000000 ) ) ;
#191 = LINE ( 'NONE', #260, #732 ) ;
#192 = DIRECTION ( 'NONE',  ( 1.000000000000000000, 0.000000000000000000, 0.000000000000000000 ) ) ;
#193 = PLANE ( 'NONE',  #595 ) ;
#194 = DIRECTION ( 'NONE',  ( -0.000000000000000000, 1.000000000000000000, -0.000000000000000000 ) ) ;
#195 = LINE ( 'NONE', #478, #695 ) ;
#196 = LINE ( 'NONE', #531, #336 ) ;
#197 = LINE ( 'NONE', #416, #171 ) ;
#198 = CARTESIAN_POINT ( 'NONE',  ( 1.800000000000006484, 8.400000000000000355, 1.500000000000000000 ) ) ;
#199 = PERSON ( '未指定', '未指定', '未指定', ('未指定'), ('未指定'), ('未指定') ) ;
#200 = DIRECTION ( 'NONE',  ( 0.000000000000000000, -1.858632295689436102E-16, 1.000000000000000000 ) ) ;
#201 = DIRECTION ( 'NONE',  ( -1.000000000000000000, -0.000000000000000000, -0.000000000000000000 ) ) ;
#202 = AXIS2_PLACEMENT_3D ( 'NONE', #358, #525, #18 ) ;
#203 = EDGE_CURVE ( 'NONE', #50, #520, #226, .T. ) ;
#204 = VERTEX_POINT ( 'NONE', #557 ) ;
#205 = CARTESIAN_POINT ( 'NONE',  ( 14.69999999999999751, -5.999999999999993783, 1.500000000000000000 ) ) ;
#206 = FACE_OUTER_BOUND ( 'NONE', #564, .T. ) ;
#207 = ADVANCED_FACE ( 'NONE', ( #430 ), #98, .F. ) ;
#208 = CYLINDRICAL_SURFACE ( 'NONE', #415, 7.500000000000000000 ) ;
#209 = LINE ( 'NONE', #663, #321 ) ;
#210 = ORIENTED_EDGE ( 'NONE', *, *, #308, .F. ) ;
#211 = ORIENTED_EDGE ( 'NONE', *, *, #505, .T. ) ;
#212 = LINE ( 'NONE', #281, #460 ) ;
#213 = LINE ( 'NONE', #494, #38 ) ;
#214 = EDGE_LOOP ( 'NONE', ( #154, #8, #13, #407 ) ) ;
#215 = ORIENTED_EDGE ( 'NONE', *, *, #95, .F. ) ;
#216 = CIRCLE ( 'NONE', #607, 7.500000000000000000 ) ;
#217 = CARTESIAN_POINT ( 'NONE',  ( -5.299999999999998934, -5.999999999999997335, 1.500000000000000000 ) ) ;
#218 = CARTESIAN_POINT ( 'NONE',  ( 0.000000000000000000, 0.000000000000000000, 0.000000000000000000 ) ) ;
#219 = ORIENTED_EDGE ( 'NONE', *, *, #288, .T. ) ;
#220 = DIRECTION ( 'NONE',  ( -0.000000000000000000, 0.000000000000000000, 1.000000000000000000 ) ) ;
#221 = FACE_OUTER_BOUND ( 'NONE', #547, .T. ) ;
#222 = ORIENTED_EDGE ( 'NONE', *, *, #21, .F. ) ;
#223 = APPLICATION_CONTEXT ( 'configuration controlled 3d designs of mechanical parts and assemblies' ) ;
#224 = ORIENTED_EDGE ( 'NONE', *, *, #126, .F. ) ;
#225 = COORDINATED_UNIVERSAL_TIME_OFFSET ( 8, 0, .AHEAD. ) ;
#226 = LINE ( 'NONE', #605, #668 ) ;
#227 = CC_DESIGN_PERSON_AND_ORGANIZATION_ASSIGNMENT ( #400, #573, ( #429 ) ) ;
#228 = DIRECTION ( 'NONE',  ( 0.000000000000000000, 0.000000000000000000, 1.000000000000000000 ) ) ;
#229 = EDGE_LOOP ( 'NONE', ( #382, #399, #279, #604 ) ) ;
#230 = APPROVAL ( #639, '未指定' ) ;
#231 = CALENDAR_DATE ( 2020, 30, 7 ) ;
#232 = ORIENTED_EDGE ( 'NONE', *, *, #690, .T. ) ;
#233 = APPROVAL_ROLE ( '' ) ;
#234 = VECTOR ( 'NONE', #697, 1000.000000000000000 ) ;
#235 = ORIENTED_EDGE ( 'NONE', *, *, #73, .T. ) ;
#236 = APPROVAL_PERSON_ORGANIZATION ( #185, #230, #131 ) ;
#237 = DATE_AND_TIME ( #575, #135 ) ;
#238 = ORIENTED_EDGE ( 'NONE', *, *, #184, .T. ) ;
#239 = DIRECTION ( 'NONE',  ( 0.000000000000000000, 0.000000000000000000, 1.000000000000000000 ) ) ;
#240 = DIRECTION ( 'NONE',  ( 1.000000000000000000, 0.000000000000000000, -0.000000000000000000 ) ) ;
#241 = FACE_OUTER_BOUND ( 'NONE', #699, .T. ) ;
#242 = DIRECTION ( 'NONE',  ( 0.000000000000000000, 0.000000000000000000, -1.000000000000000000 ) ) ;
#243 = CARTESIAN_POINT ( 'NONE',  ( 1.800000000000006040, 8.400000000000000355, 3.500000000000000000 ) ) ;
#244 = DIRECTION ( 'NONE',  ( 1.224646799147353207E-16, -1.000000000000000000, 0.000000000000000000 ) ) ;
#245 = FACE_OUTER_BOUND ( 'NONE', #258, .T. ) ;
#246 = CC_DESIGN_PERSON_AND_ORGANIZATION_ASSIGNMENT ( #513, #9, ( #589 ) ) ;
#247 = APPROVAL_DATE_TIME ( #22, #230 ) ;
#248 = LINE ( 'NONE', #302, #681 ) ;
#249 = CARTESIAN_POINT ( 'NONE',  ( -5.299999999999999822, -12.00000000000000000, 1.500000000000000000 ) ) ;
#250 = DIRECTION ( 'NONE',  ( 1.445602896647339163E-16, 1.000000000000000000, 0.000000000000000000 ) ) ;
#251 = AXIS2_PLACEMENT_3D ( 'NONE', #725, #672, #662 ) ;
#252 = VECTOR ( 'NONE', #31, 1000.000000000000000 ) ;
#253 = LINE ( 'NONE', #644, #643 ) ;
#254 = CARTESIAN_POINT ( 'NONE',  ( 3.000000000000000000, 5.200000000000001066, 0.000000000000000000 ) ) ;
#255 = DIRECTION ( 'NONE',  ( 0.000000000000000000, 0.000000000000000000, -1.000000000000000000 ) ) ;
#256 = DIRECTION ( 'NONE',  ( 0.000000000000000000, 0.000000000000000000, 1.000000000000000000 ) ) ;
#257 = EDGE_CURVE ( 'NONE', #670, #608, #612, .T. ) ;
#258 = EDGE_LOOP ( 'NONE', ( #219, #47, #674, #351, #508, #495 ) ) ;
#259 = CARTESIAN_POINT ( 'NONE',  ( 3.000000000000000000, 5.200000000000001066, 0.000000000000000000 ) ) ;
#260 = CARTESIAN_POINT ( 'NONE',  ( 0.000000000000000000, 5.200000000000001066, 0.000000000000000000 ) ) ;
#261 = VECTOR ( 'NONE', #6, 1000.000000000000000 ) ;
#262 = VECTOR ( 'NONE', #704, 1000.000000000000000 ) ;
#263 = ORIENTED_EDGE ( 'NONE', *, *, #505, .F. ) ;
#264 = LINE ( 'NONE', #410, #560 ) ;
#265 = DIRECTION ( 'NONE',  ( 0.000000000000000000, 0.000000000000000000, 1.000000000000000000 ) ) ;
#266 = ORIENTED_EDGE ( 'NONE', *, *, #585, .T. ) ;
#267 = ORIENTED_EDGE ( 'NONE', *, *, #2, .T. ) ;
#268 = LINE ( 'NONE', #390, #609 ) ;
#269 = ORIENTED_EDGE ( 'NONE', *, *, #184, .F. ) ;
#270 = EDGE_LOOP ( 'NONE', ( #121, #395, #280, #457 ) ) ;
#271 = CC_DESIGN_PERSON_AND_ORGANIZATION_ASSIGNMENT ( #290, #12, ( #41 ) ) ;
#272 = CARTESIAN_POINT ( 'NONE',  ( 3.000000000000000000, 5.200000000000000178, 3.500000000000000000 ) ) ;
#273 = CARTESIAN_POINT ( 'NONE',  ( 24.69999999999999929, -11.99999999999999645, 1.500000000000000000 ) ) ;
#274 = ORIENTED_EDGE ( 'NONE', *, *, #283, .T. ) ;
#275 = AXIS2_PLACEMENT_3D ( 'NONE', #259, #529, #412 ) ;
#276 = VECTOR ( 'NONE', #618, 1000.000000000000000 ) ;
#277 = DIRECTION ( 'NONE',  ( 1.000000000000000000, 1.156482317317871478E-16, -0.000000000000000000 ) ) ;
#278 = DIRECTION ( 'NONE',  ( 0.000000000000000000, 0.000000000000000000, -1.000000000000000000 ) ) ;
#279 = ORIENTED_EDGE ( 'NONE', *, *, #62, .F. ) ;
#280 = ORIENTED_EDGE ( 'NONE', *, *, #685, .F. ) ;
#281 = CARTESIAN_POINT ( 'NONE',  ( 0.000000000000000000, 0.000000000000000000, 1.500000000000000000 ) ) ;
#282 = ORIENTED_EDGE ( 'NONE', *, *, #597, .T. ) ;
#283 = EDGE_CURVE ( 'NONE', #466, #344, #497, .T. ) ;
#284 = CARTESIAN_POINT ( 'NONE',  ( -5.299999999999999822, 0.000000000000000000, 0.000000000000000000 ) ) ;
#285 = CIRCLE ( 'NONE', #383, 7.500000000000000000 ) ;
#286 = APPROVAL_ROLE ( '' ) ;
#287 = ORIENTED_EDGE ( 'NONE', *, *, #326, .F. ) ;
#288 = EDGE_CURVE ( 'NONE', #623, #340, #729, .T. ) ;
#289 = ORIENTED_EDGE ( 'NONE', *, *, #657, .T. ) ;
#290 = PERSON_AND_ORGANIZATION ( #199, #160 ) ;
#291 = ORIENTED_EDGE ( 'NONE', *, *, #54, .F. ) ;
#292 = PRODUCT_RELATED_PRODUCT_CATEGORY ( 'detail', '', ( #429 ) ) ;
#293 = ORIENTED_EDGE ( 'NONE', *, *, #189, .T. ) ;
#294 = VECTOR ( 'NONE', #622, 1000.000000000000000 ) ;
#295 = PLANE ( 'NONE',  #156 ) ;
#296 = DIRECTION ( 'NONE',  ( 0.000000000000000000, 0.000000000000000000, -1.000000000000000000 ) ) ;
#297 = SECURITY_CLASSIFICATION_LEVEL ( 'unclassified' ) ;
#298 = CARTESIAN_POINT ( 'NONE',  ( 3.000000000000000000, 1.600000000000000089, 3.500000000000000000 ) ) ;
#299 = PLANE ( 'NONE',  #202 ) ;
#300 = CARTESIAN_POINT ( 'NONE',  ( 2.199999999999999734, -3.180326372624145518E-16, 1.500000000000000000 ) ) ;
#301 = EDGE_CURVE ( 'NONE', #629, #435, #212, .T. ) ;
#302 = CARTESIAN_POINT ( 'NONE',  ( 3.000000000000000000, 1.600000000000000755, 0.000000000000000000 ) ) ;
#303 = CARTESIAN_POINT ( 'NONE',  ( 24.69999999999999929, 0.000000000000000000, 0.000000000000000000 ) ) ;
#304 = DIRECTION ( 'NONE',  ( -0.000000000000000000, -0.000000000000000000, -1.000000000000000000 ) ) ;
#305 = PLANE ( 'NONE',  #579 ) ;
#306 = DIRECTION ( 'NONE',  ( 0.000000000000000000, 0.000000000000000000, -1.000000000000000000 ) ) ;
#307 = AXIS2_PLACEMENT_3D ( 'NONE', #14, #700, #239 ) ;
#308 = EDGE_CURVE ( 'NONE', #182, #204, #216, .T. ) ;
#309 = DIRECTION ( 'NONE',  ( 0.5999999999999987566, 0.8000000000000010436, -0.000000000000000000 ) ) ;
#310 = CARTESIAN_POINT ( 'NONE',  ( 8.673617379884035472E-16, -0.6934003354313582612, 3.500000000000000000 ) ) ;
#311 = LINE ( 'NONE', #708, #97 ) ;
#312 = CARTESIAN_POINT ( 'NONE',  ( 14.69999999999999751, -5.999999999999993783, 3.500000000000000000 ) ) ;
#313 = EDGE_CURVE ( 'NONE', #608, #565, #437, .T. ) ;
#314 = PRODUCT_DEFINITION_SHAPE ( 'NONE', 'NONE',  #589 ) ;
#315 = ORIENTED_EDGE ( 'NONE', *, *, #566, .T. ) ;
#316 = CARTESIAN_POINT ( 'NONE',  ( 0.000000000000000000, 0.000000000000000000, 0.000000000000000000 ) ) ;
#317 = DIRECTION ( 'NONE',  ( -0.000000000000000000, -0.000000000000000000, -1.000000000000000000 ) ) ;
#318 = EDGE_LOOP ( 'NONE', ( #128, #267, #619, #724, #716, #462 ) ) ;
#319 = EDGE_CURVE ( 'NONE', #170, #616, #503, .T. ) ;
#320 = VECTOR ( 'NONE', #365, 1000.000000000000000 ) ;
#321 = VECTOR ( 'NONE', #153, 1000.000000000000000 ) ;
#322 = ORIENTED_EDGE ( 'NONE', *, *, #257, .F. ) ;
#323 = DIRECTION ( 'NONE',  ( -0.5999999999999987566, -0.8000000000000010436, -0.000000000000000000 ) ) ;
#324 = DIRECTION ( 'NONE',  ( -1.000000000000000000, -0.000000000000000000, -0.000000000000000000 ) ) ;
#325 = ORIENTED_EDGE ( 'NONE', *, *, #422, .F. ) ;
#326 = EDGE_CURVE ( 'NONE', #692, #556, #285, .T. ) ;
#327 = ORIENTED_EDGE ( 'NONE', *, *, #149, .T. ) ;
#328 = CARTESIAN_POINT ( 'NONE',  ( 24.69999999999999929, -11.99999999999999645, 1.500000000000000000 ) ) ;
#329 = PLANE ( 'NONE',  #625 ) ;
#330 = ORIENTED_EDGE ( 'NONE', *, *, #203, .F. ) ;
#331 = ORIENTED_EDGE ( 'NONE', *, *, #118, .F. ) ;
#332 = CARTESIAN_POINT ( 'NONE',  ( 0.000000000000000000, 8.400000000000000355, 1.500000000000000000 ) ) ;
#333 = FACE_OUTER_BOUND ( 'NONE', #60, .T. ) ;
#334 = DIRECTION ( 'NONE',  ( 1.000000000000000000, 0.000000000000000000, -0.000000000000000000 ) ) ;
#335 = ORIENTED_EDGE ( 'NONE', *, *, #657, .F. ) ;
#336 = VECTOR ( 'NONE', #250, 1000.000000000000000 ) ;
#337 = ORIENTED_EDGE ( 'NONE', *, *, #572, .F. ) ;
#338 = CC_DESIGN_APPROVAL ( #381, ( #589 ) ) ;
#339 = ADVANCED_FACE ( 'NONE', ( #333 ), #379, .F. ) ;
#340 = VERTEX_POINT ( 'NONE', #734 ) ;
#341 = EDGE_CURVE ( 'NONE', #392, #340, #150, .T. ) ;
#342 = ORIENTED_EDGE ( 'NONE', *, *, #398, .T. ) ;
#343 = APPROVAL_STATUS ( 'not_yet_approved' ) ;
#344 = VERTEX_POINT ( 'NONE', #621 ) ;
#345 = CC_DESIGN_PERSON_AND_ORGANIZATION_ASSIGNMENT ( #688, #181, ( #41 ) ) ;
#346 = EDGE_CURVE ( 'NONE', #506, #733, #114, .T. ) ;
#347 = VECTOR ( 'NONE', #471, 1000.000000000000000 ) ;
#348 = VERTEX_POINT ( 'NONE', #39 ) ;
#349 = ORIENTED_EDGE ( 'NONE', *, *, #313, .F. ) ;
#350 = PERSON_AND_ORGANIZATION_ROLE ( 'classification_officer' ) ;
#351 = ORIENTED_EDGE ( 'NONE', *, *, #499, .F. ) ;
#352 = CARTESIAN_POINT ( 'NONE',  ( 2.199999999999999734, -5.999999999999997335, 3.500000000000000000 ) ) ;
#353 = DESIGN_CONTEXT ( 'detailed design', #555, 'design' ) ;
#354 = PERSON_AND_ORGANIZATION ( #199, #160 ) ;
#355 = VECTOR ( 'NONE', #136, 1000.000000000000000 ) ;
#356 = DIRECTION ( 'NONE',  ( -1.156482317317871478E-16, 1.000000000000000000, 0.000000000000000000 ) ) ;
#357 = VECTOR ( 'NONE', #278, 1000.000000000000000 ) ;
#358 = CARTESIAN_POINT ( 'NONE',  ( 0.000000000000000000, 0.000000000000000000, 1.500000000000000000 ) ) ;
#359 = DIRECTION ( 'NONE',  ( 1.000000000000000000, 1.156482317317871478E-16, -0.000000000000000000 ) ) ;
#360 = FACE_OUTER_BOUND ( 'NONE', #658, .T. ) ;
#361 = PLANE ( 'NONE',  #37 ) ;
#362 = CARTESIAN_POINT ( 'NONE',  ( 24.69999999999999929, 0.000000000000000000, 1.500000000000000000 ) ) ;
#363 = CARTESIAN_POINT ( 'NONE',  ( 2.498279470260600730E-15, -12.00000000000000000, 3.500000000000000000 ) ) ;
#364 = EDGE_CURVE ( 'NONE', #344, #449, #264, .T. ) ;
#365 = DIRECTION ( 'NONE',  ( -0.000000000000000000, -0.000000000000000000, -1.000000000000000000 ) ) ;
#366 = CARTESIAN_POINT ( 'NONE',  ( -5.299999999999999822, -12.00000000000000000, 1.500000000000000000 ) ) ;
#367 = ADVANCED_FACE ( 'NONE', ( #467 ), #295, .F. ) ;
#368 = LINE ( 'NONE', #425, #427 ) ;
#369 = CARTESIAN_POINT ( 'NONE',  ( 7.199999999999998401, -11.99999999999999822, 3.500000000000000000 ) ) ;
#370 = VECTOR ( 'NONE', #59, 1000.000000000000000 ) ;
#371 = AXIS2_PLACEMENT_3D ( 'NONE', #567, #228, #63 ) ;
#372 = SHAPE_DEFINITION_REPRESENTATION ( #314, #570 ) ;
#373 = DIRECTION ( 'NONE',  ( 1.224646799147353207E-16, -1.000000000000000000, 0.000000000000000000 ) ) ;
#374 = CARTESIAN_POINT ( 'NONE',  ( 9.399999999999998579, 0.000000000000000000, 0.000000000000000000 ) ) ;
#375 = ORIENTED_EDGE ( 'NONE', *, *, #101, .F. ) ;
#376 = DIRECTION ( 'NONE',  ( 0.000000000000000000, 0.000000000000000000, -1.000000000000000000 ) ) ;
#377 = PLANE ( 'NONE',  #683 ) ;
#378 = ORIENTED_EDGE ( 'NONE', *, *, #301, .F. ) ;
#379 = CYLINDRICAL_SURFACE ( 'NONE', #65, 7.500000000000000000 ) ;
#380 = LINE ( 'NONE', #303, #347 ) ;
#381 = APPROVAL ( #515, '未指定' ) ;
#382 = ORIENTED_EDGE ( 'NONE', *, *, #283, .F. ) ;
#383 = AXIS2_PLACEMENT_3D ( 'NONE', #217, #220, #676 ) ;
#384 = VECTOR ( 'NONE', #91, 1000.000000000000000 ) ;
#385 = ORIENTED_EDGE ( 'NONE', *, *, #679, .F. ) ;
#386 = DIRECTION ( 'NONE',  ( 0.000000000000000000, 0.000000000000000000, 1.000000000000000000 ) ) ;
#387 = PLANE ( 'NONE',  #27 ) ;
#388 = VERTEX_POINT ( 'NONE', #187 ) ;
#389 = LINE ( 'NONE', #666, #569 ) ;
#390 = CARTESIAN_POINT ( 'NONE',  ( 3.000000000000000000, 1.600000000000000755, 0.000000000000000000 ) ) ;
#391 = ORIENTED_EDGE ( 'NONE', *, *, #364, .T. ) ;
#392 = VERTEX_POINT ( 'NONE', #79 ) ;
#393 = FACE_OUTER_BOUND ( 'NONE', #51, .T. ) ;
#394 = PLANE ( 'NONE',  #479 ) ;
#395 = ORIENTED_EDGE ( 'NONE', *, *, #626, .F. ) ;
#396 = VECTOR ( 'NONE', #304, 1000.000000000000000 ) ;
#397 = AXIS2_PLACEMENT_3D ( 'NONE', #527, #75, #20 ) ;
#398 = EDGE_CURVE ( 'NONE', #574, #175, #522, .T. ) ;
#399 = ORIENTED_EDGE ( 'NONE', *, *, #712, .F. ) ;
#400 = PERSON_AND_ORGANIZATION ( #199, #160 ) ;
#401 = ORIENTED_EDGE ( 'NONE', *, *, #499, .T. ) ;
#402 = ADVANCED_FACE ( 'NONE', ( #473 ), #133, .F. ) ;
#403 = VERTEX_POINT ( 'NONE', #352 ) ;
#404 = VECTOR ( 'NONE', #359, 1000.000000000000000 ) ;
#405 = APPLICATION_PROTOCOL_DEFINITION ( 'international standard', 'config_control_design', 1994, #223 ) ;
#406 = AXIS2_PLACEMENT_3D ( 'NONE', #591, #660, #86 ) ;
#407 = ORIENTED_EDGE ( 'NONE', *, *, #690, .F. ) ;
#408 = PERSON_AND_ORGANIZATION ( #199, #160 ) ;
#409 = VERTEX_POINT ( 'NONE', #183 ) ;
#410 = CARTESIAN_POINT ( 'NONE',  ( 0.000000000000000000, 8.400000000000000355, 3.500000000000000000 ) ) ;
#411 = EDGE_CURVE ( 'NONE', #340, #692, #642, .T. ) ;
#412 = DIRECTION ( 'NONE',  ( 0.000000000000000000, -2.478176394252581634E-16, 1.000000000000000000 ) ) ;
#413 = CARTESIAN_POINT ( 'NONE',  ( 24.69999999999999929, 0.000000000000000000, 1.500000000000000000 ) ) ;
#414 = DIRECTION ( 'NONE',  ( 1.000000000000000000, 0.000000000000000000, -0.000000000000000000 ) ) ;
#415 = AXIS2_PLACEMENT_3D ( 'NONE', #45, #722, #563 ) ;
#416 = CARTESIAN_POINT ( 'NONE',  ( 9.399999999999998579, 8.400000000000000355, 0.000000000000000000 ) ) ;
#417 = DIRECTION ( 'NONE',  ( -0.000000000000000000, -0.000000000000000000, -1.000000000000000000 ) ) ;
#418 = CARTESIAN_POINT ( 'NONE',  ( 0.000000000000000000, 0.000000000000000000, 0.000000000000000000 ) ) ;
#419 = LINE ( 'NONE', #713, #134 ) ;
#420 = CARTESIAN_POINT ( 'NONE',  ( 0.000000000000000000, -0.6934003354313565959, 3.500000000000000000 ) ) ;
#421 = FACE_OUTER_BOUND ( 'NONE', #110, .T. ) ;
#422 = EDGE_CURVE ( 'NONE', #444, #435, #526, .T. ) ;
#423 = DIRECTION ( 'NONE',  ( -1.000000000000000000, -0.000000000000000000, -0.000000000000000000 ) ) ;
#424 = CARTESIAN_POINT ( 'NONE',  ( 0.000000000000000000, 8.400000000000000355, 3.500000000000000000 ) ) ;
#425 = CARTESIAN_POINT ( 'NONE',  ( -5.299999999999999822, 0.000000000000000000, 1.500000000000000000 ) ) ;
#426 = CARTESIAN_POINT ( 'NONE',  ( -5.299999999999999822, -12.00000000000000000, 1.500000000000000000 ) ) ;
#427 = VECTOR ( 'NONE', #23, 1000.000000000000000 ) ;
#428 = ORIENTED_EDGE ( 'NONE', *, *, #464, .F. ) ;
#429 = PRODUCT ( '锁钩', '锁钩', '', ( #67 ) ) ;
#430 = FACE_OUTER_BOUND ( 'NONE', #229, .T. ) ;
#431 = PLANE ( 'NONE',  #406 ) ;
#432 = EDGE_CURVE ( 'NONE', #392, #670, #19, .T. ) ;
#433 = LINE ( 'NONE', #52, #87 ) ;
#434 = CARTESIAN_POINT ( 'NONE',  ( 3.000000000000000000, 1.600000000000000089, 3.500000000000000000 ) ) ;
#435 = VERTEX_POINT ( 'NONE', #418 ) ;
#436 = ORIENTED_EDGE ( 'NONE', *, *, #720, .F. ) ;
#437 = LINE ( 'NONE', #328, #113 ) ;
#438 = CARTESIAN_POINT ( 'NONE',  ( 7.200000000000001954, -2.081668171172168513E-15, 3.500000000000000000 ) ) ;
#439 = ORIENTED_EDGE ( 'NONE', *, *, #341, .T. ) ;
#440 = VECTOR ( 'NONE', #376, 1000.000000000000000 ) ;
#441 = VECTOR ( 'NONE', #417, 1000.000000000000000 ) ;
#442 = CARTESIAN_POINT ( 'NONE',  ( 3.000000000000000000, 5.200000000000001066, 0.000000000000000000 ) ) ;
#443 = CARTESIAN_POINT ( 'NONE',  ( 0.000000000000000000, 5.999999999999984901, 0.000000000000000000 ) ) ;
#444 = VERTEX_POINT ( 'NONE', #647 ) ;
#445 = EDGE_CURVE ( 'NONE', #392, #403, #196, .T. ) ;
#446 = ORIENTED_EDGE ( 'NONE', *, *, #445, .F. ) ;
#447 = CARTESIAN_POINT ( 'NONE',  ( 2.199999999999997957, -11.99999999999999822, 3.500000000000000000 ) ) ;
#448 = PLANE ( 'NONE',  #707 ) ;
#449 = VERTEX_POINT ( 'NONE', #138 ) ;
#450 = ADVANCED_FACE ( 'NONE', ( #421 ), #299, .F. ) ;
#451 = ORIENTED_EDGE ( 'NONE', *, *, #541, .T. ) ;
#452 = CLOSED_SHELL ( 'NONE', ( #489, #112, #402, #450, #518, #483, #469, #715, #576, #693, #475, #646, #546, #163, #510, #339, #43, #66, #28, #367, #207 ) ) ;
#453 = EDGE_CURVE ( 'NONE', #403, #633, #624, .T. ) ;
#454 = COORDINATED_UNIVERSAL_TIME_OFFSET ( 8, 0, .AHEAD. ) ;
#455 = EDGE_LOOP ( 'NONE', ( #107, #331, #436, #211 ) ) ;
#456 = CALENDAR_DATE ( 2020, 30, 7 ) ;
#457 = ORIENTED_EDGE ( 'NONE', *, *, #139, .T. ) ;
#458 = COORDINATED_UNIVERSAL_TIME_OFFSET ( 8, 0, .AHEAD. ) ;
#459 = ORIENTED_EDGE ( 'NONE', *, *, #422, .T. ) ;
#460 = VECTOR ( 'NONE', #601, 1000.000000000000000 ) ;
#461 = AXIS2_PLACEMENT_3D ( 'NONE', #637, #188, #240 ) ;
#462 = ORIENTED_EDGE ( 'NONE', *, *, #566, .F. ) ;
#463 = CARTESIAN_POINT ( 'NONE',  ( 0.000000000000000000, 0.000000000000000000, 0.000000000000000000 ) ) ;
#464 = EDGE_CURVE ( 'NONE', #671, #661, #25, .T. ) ;
#465 = DATE_TIME_ROLE ( 'classification_date' ) ;
#466 = VERTEX_POINT ( 'NONE', #243 ) ;
#467 = FACE_OUTER_BOUND ( 'NONE', #675, .T. ) ;
#468 = DIRECTION ( 'NONE',  ( 1.000000000000000000, 0.000000000000000000, 0.000000000000000000 ) ) ;
#469 = ADVANCED_FACE ( 'NONE', ( #641 ), #472, .F. ) ;
#470 = DIRECTION ( 'NONE',  ( -0.000000000000000000, 1.000000000000000000, -0.000000000000000000 ) ) ;
#471 = DIRECTION ( 'NONE',  ( -0.000000000000000000, 1.000000000000000000, -0.000000000000000000 ) ) ;
#472 = PLANE ( 'NONE',  #55 ) ;
#473 = FACE_OUTER_BOUND ( 'NONE', #318, .T. ) ;
#474 = PLANE ( 'NONE',  #461 ) ;
#475 = ADVANCED_FACE ( 'NONE', ( #360 ), #16, .F. ) ;
#476 = VECTOR ( 'NONE', #168, 1000.000000000000000 ) ;
#477 = DIRECTION ( 'NONE',  ( 0.000000000000000000, -1.000000000000000000, -1.858632295689435856E-16 ) ) ;
#478 = CARTESIAN_POINT ( 'NONE',  ( 3.000000000000000000, 1.600000000000000755, 0.000000000000000000 ) ) ;
#479 = AXIS2_PLACEMENT_3D ( 'NONE', #166, #726, #49 ) ;
#480 = SECURITY_CLASSIFICATION ( '', '', #297 ) ;
#481 = DIRECTION ( 'NONE',  ( -1.000000000000000000, 1.445602896647339163E-16, 0.000000000000000000 ) ) ;
#482 = CARTESIAN_POINT ( 'NONE',  ( 0.000000000000000000, 0.000000000000000000, 1.500000000000000000 ) ) ;
#483 = ADVANCED_FACE ( 'NONE', ( #245 ), #474, .T. ) ;
#484 = FACE_OUTER_BOUND ( 'NONE', #731, .T. ) ;
#485 = CARTESIAN_POINT ( 'NONE',  ( 24.69999999999999929, 0.000000000000000000, 0.000000000000000000 ) ) ;
#486 = LINE ( 'NONE', #648, #509 ) ;
#487 = LINE ( 'NONE', #424, #511 ) ;
#488 = VECTOR ( 'NONE', #255, 1000.000000000000000 ) ;
#489 = ADVANCED_FACE ( 'NONE', ( #706 ), #193, .F. ) ;
#490 = DIRECTION ( 'NONE',  ( -1.000000000000000000, -0.000000000000000000, -0.000000000000000000 ) ) ;
#491 = DIRECTION ( 'NONE',  ( -1.000000000000000000, 0.000000000000000000, 0.000000000000000000 ) ) ;
#492 = ORIENTED_EDGE ( 'NONE', *, *, #528, .T. ) ;
#493 = CARTESIAN_POINT ( 'NONE',  ( 9.399999999999998579, -0.6934003354313531542, 1.500000000000000000 ) ) ;
#494 = CARTESIAN_POINT ( 'NONE',  ( 3.000000000000000000, 1.600000000000000089, 3.500000000000000000 ) ) ;
#495 = ORIENTED_EDGE ( 'NONE', *, *, #685, .T. ) ;
#496 = EDGE_LOOP ( 'NONE', ( #439, #559, #727, #342, #36, #349, #322, #100 ) ) ;
#497 = LINE ( 'NONE', #659, #74 ) ;
#498 = DIRECTION ( 'NONE',  ( -0.000000000000000000, 0.000000000000000000, 1.000000000000000000 ) ) ;
#499 = EDGE_CURVE ( 'NONE', #629, #556, #523, .T. ) ;
#500 = ORIENTED_EDGE ( 'NONE', *, *, #541, .F. ) ;
#501 = AXIS2_PLACEMENT_3D ( 'NONE', #81, #477, #34 ) ;
#502 = VECTOR ( 'NONE', #584, 1000.000000000000000 ) ;
#503 = LINE ( 'NONE', #442, #144 ) ;
#504 = DIRECTION ( 'NONE',  ( 1.224646799147353207E-16, -1.000000000000000000, 0.000000000000000000 ) ) ;
#505 = EDGE_CURVE ( 'NONE', #180, #444, #268, .T. ) ;
#506 = VERTEX_POINT ( 'NONE', #443 ) ;
#507 = ORIENTED_EDGE ( 'NONE', *, *, #313, .T. ) ;
#508 = ORIENTED_EDGE ( 'NONE', *, *, #95, .T. ) ;
#509 = VECTOR ( 'NONE', #200, 1000.000000000000000 ) ;
#510 = ADVANCED_FACE ( 'NONE', ( #99 ), #394, .F. ) ;
#511 = VECTOR ( 'NONE', #201, 1000.000000000000000 ) ;
#512 =( GEOMETRIC_REPRESENTATION_CONTEXT ( 3 ) GLOBAL_UNCERTAINTY_ASSIGNED_CONTEXT ( ( #638 ) ) GLOBAL_UNIT_ASSIGNED_CONTEXT ( ( #634, #698, #124 ) ) REPRESENTATION_CONTEXT ( 'NONE', 'WORKASPACE' ) );
#513 = PERSON_AND_ORGANIZATION ( #199, #160 ) ;
#514 = ORIENTED_EDGE ( 'NONE', *, *, #653, .T. ) ;
#515 = APPROVAL_STATUS ( 'not_yet_approved' ) ;
#516 = VERTEX_POINT ( 'NONE', #434 ) ;
#517 = ORIENTED_EDGE ( 'NONE', *, *, #572, .T. ) ;
#518 = ADVANCED_FACE ( 'NONE', ( #673 ), #387, .T. ) ;
#519 = PERSON_AND_ORGANIZATION ( #199, #160 ) ;
#520 = VERTEX_POINT ( 'NONE', #730 ) ;
#521 = EDGE_CURVE ( 'NONE', #670, #111, #613, .T. ) ;
#522 = LINE ( 'NONE', #129, #404 ) ;
#523 = LINE ( 'NONE', #332, #535 ) ;
#524 = CARTESIAN_POINT ( 'NONE',  ( 24.69999999999999929, 0.000000000000000000, 1.500000000000000000 ) ) ;
#525 = DIRECTION ( 'NONE',  ( 1.000000000000000000, 0.000000000000000000, 0.000000000000000000 ) ) ;
#526 = LINE ( 'NONE', #463, #234 ) ;
#527 = CARTESIAN_POINT ( 'NONE',  ( 0.000000000000000000, 8.400000000000000355, 1.500000000000000000 ) ) ;
#528 = EDGE_CURVE ( 'NONE', #565, #175, #667, .T. ) ;
#529 = DIRECTION ( 'NONE',  ( -0.000000000000000000, 1.000000000000000000, 2.478176394252581634E-16 ) ) ;
#530 = DIRECTION ( 'NONE',  ( -0.000000000000000000, 2.478176394252581634E-16, -1.000000000000000000 ) ) ;
#531 = CARTESIAN_POINT ( 'NONE',  ( 2.199999999999999734, -3.180326372624145518E-16, 3.500000000000000000 ) ) ;
#532 = APPROVAL ( #343, '未指定' ) ;
#533 = DIRECTION ( 'NONE',  ( -1.000000000000000000, -1.156482317317871478E-16, 0.000000000000000000 ) ) ;
#534 = CARTESIAN_POINT ( 'NONE',  ( 9.399999999999998579, 0.000000000000000000, 1.500000000000000000 ) ) ;
#535 = VECTOR ( 'NONE', #504, 1000.000000000000000 ) ;
#536 = CARTESIAN_POINT ( 'NONE',  ( 2.199999999999999734, -3.180326372624145518E-16, 3.500000000000000000 ) ) ;
#537 = DIRECTION ( 'NONE',  ( -1.000000000000000000, -0.000000000000000000, -0.000000000000000000 ) ) ;
#538 = ORIENTED_EDGE ( 'NONE', *, *, #189, .F. ) ;
#539 = CARTESIAN_POINT ( 'NONE',  ( 0.000000000000000000, 5.999999999999984901, 1.500000000000000000 ) ) ;
#540 = DIRECTION ( 'NONE',  ( 1.000000000000000000, 0.000000000000000000, 0.000000000000000000 ) ) ;
#541 = EDGE_CURVE ( 'NONE', #516, #170, #213, .T. ) ;
#542 = ORIENTED_EDGE ( 'NONE', *, *, #664, .F. ) ;
#543 = DIRECTION ( 'NONE',  ( -0.000000000000000000, -1.000000000000000000, -0.000000000000000000 ) ) ;
#544 = FACE_OUTER_BOUND ( 'NONE', #571, .T. ) ;
#545 = EDGE_LOOP ( 'NONE', ( #92, #102, #330, #222, #554, #689, #603, #44, #538, #325, #263, #291, #235 ) ) ;
#546 = ADVANCED_FACE ( 'NONE', ( #104 ), #329, .F. ) ;
#547 = EDGE_LOOP ( 'NONE', ( #282, #428, #224, #492 ) ) ;
#548 = CARTESIAN_POINT ( 'NONE',  ( -5.299999999999998934, -5.999999999999997335, 3.500000000000000000 ) ) ;
#549 = CARTESIAN_POINT ( 'NONE',  ( 24.69999999999999929, -11.99999999999999645, 1.500000000000000000 ) ) ;
#550 = ORIENTED_EDGE ( 'NONE', *, *, #118, .T. ) ;
#551 = EDGE_LOOP ( 'NONE', ( #665, #274, #391, #269, #500, #550, #577, #611, #446, #173, #620, #721, #315 ) ) ;
#552 = DIRECTION ( 'NONE',  ( -1.000000000000000000, -0.000000000000000000, -0.000000000000000000 ) ) ;
#553 = CARTESIAN_POINT ( 'NONE',  ( 0.000000000000000000, -0.6934003354313565959, 1.500000000000000000 ) ) ;
#554 = ORIENTED_EDGE ( 'NONE', *, *, #610, .F. ) ;
#555 = APPLICATION_CONTEXT ( 'configuration controlled 3d designs of mechanical parts and assemblies' ) ;
#556 = VERTEX_POINT ( 'NONE', #553 ) ;
#557 = CARTESIAN_POINT ( 'NONE',  ( 7.200000000000000178, -5.999999999999996447, 1.500000000000000000 ) ) ;
#558 = CARTESIAN_POINT ( 'NONE',  ( 9.399999999999998579, 8.400000000000000355, 3.500000000000000000 ) ) ;
#559 = ORIENTED_EDGE ( 'NONE', *, *, #288, .F. ) ;
#560 = VECTOR ( 'NONE', #244, 1000.000000000000000 ) ;
#561 = LOCAL_TIME ( 11, 47, 22.00000000000000000, #69 ) ;
#562 = ORIENTED_EDGE ( 'NONE', *, *, #445, .T. ) ;
#563 = DIRECTION ( 'NONE',  ( -1.000000000000000000, 0.000000000000000000, 0.000000000000000000 ) ) ;
#564 = EDGE_LOOP ( 'NONE', ( #155, #117, #125, #568 ) ) ;
#565 = VERTEX_POINT ( 'NONE', #273 ) ;
#566 = EDGE_CURVE ( 'NONE', #736, #3, #735, .T. ) ;
#567 = CARTESIAN_POINT ( 'NONE',  ( 0.000000000000000000, 0.000000000000000000, 0.000000000000000000 ) ) ;
#568 = ORIENTED_EDGE ( 'NONE', *, *, #464, .T. ) ;
#569 = VECTOR ( 'NONE', #552, 1000.000000000000000 ) ;
#570 = ADVANCED_BREP_SHAPE_REPRESENTATION ( '锁钩', ( #176, #371 ), #512 ) ;
#571 = EDGE_LOOP ( 'NONE', ( #266, #68, #680, #542, #507, #628 ) ) ;
#572 = EDGE_CURVE ( 'NONE', #403, #692, #46, .T. ) ;
#573 = PERSON_AND_ORGANIZATION_ROLE ( 'design_owner' ) ;
#574 = VERTEX_POINT ( 'NONE', #40 ) ;
#575 = CALENDAR_DATE ( 2020, 30, 7 ) ;
#576 = ADVANCED_FACE ( 'NONE', ( #221 ), #448, .F. ) ;
#577 = ORIENTED_EDGE ( 'NONE', *, *, #101, .T. ) ;
#578 = CARTESIAN_POINT ( 'NONE',  ( 3.000000000000000000, 0.000000000000000000, 0.000000000000000000 ) ) ;
#579 = AXIS2_PLACEMENT_3D ( 'NONE', #132, #356, #533 ) ;
#580 = AXIS2_PLACEMENT_3D ( 'NONE', #649, #256, #645 ) ;
#581 = CALENDAR_DATE ( 2020, 30, 7 ) ;
#582 = LINE ( 'NONE', #298, #355 ) ;
#583 = LOCAL_TIME ( 11, 47, 22.00000000000000000, #458 ) ;
#584 = DIRECTION ( 'NONE',  ( 1.445602896647339163E-16, 1.000000000000000000, 0.000000000000000000 ) ) ;
#585 = EDGE_CURVE ( 'NONE', #671, #600, #209, .T. ) ;
#586 = DIRECTION ( 'NONE',  ( 0.000000000000000000, 0.000000000000000000, -1.000000000000000000 ) ) ;
#587 = CARTESIAN_POINT ( 'NONE',  ( 2.199999999999999734, -5.999999999999997335, 1.500000000000000000 ) ) ;
#588 = CARTESIAN_POINT ( 'NONE',  ( -5.299999999999998934, -5.999999999999997335, 3.500000000000000000 ) ) ;
#589 = PRODUCT_DEFINITION ( '未知', '', #41, #353 ) ;
#590 = LINE ( 'NONE', #598, #592 ) ;
#591 = CARTESIAN_POINT ( 'NONE',  ( 9.399999999999998579, 0.000000000000000000, 1.500000000000000000 ) ) ;
#592 = VECTOR ( 'NONE', #76, 1000.000000000000000 ) ;
#593 = PLANE ( 'NONE',  #501 ) ;
#594 = LINE ( 'NONE', #198, #596 ) ;
#595 = AXIS2_PLACEMENT_3D ( 'NONE', #130, #468, #296 ) ;
#596 = VECTOR ( 'NONE', #151, 1000.000000000000000 ) ;
#597 = EDGE_CURVE ( 'NONE', #175, #661, #380, .T. ) ;
#598 = CARTESIAN_POINT ( 'NONE',  ( -5.299999999999999822, -12.00000000000000000, 0.000000000000000000 ) ) ;
#599 = LINE ( 'NONE', #426, #172 ) ;
#600 = VERTEX_POINT ( 'NONE', #534 ) ;
#601 = DIRECTION ( 'NONE',  ( -0.000000000000000000, -0.000000000000000000, -1.000000000000000000 ) ) ;
#602 = LINE ( 'NONE', #366, #252 ) ;
#603 = ORIENTED_EDGE ( 'NONE', *, *, #398, .F. ) ;
#604 = ORIENTED_EDGE ( 'NONE', *, *, #15, .F. ) ;
#605 = CARTESIAN_POINT ( 'NONE',  ( 0.000000000000000000, 8.400000000000000355, 0.000000000000000000 ) ) ;
#606 = CARTESIAN_POINT ( 'NONE',  ( 0.000000000000000000, 0.000000000000000000, 3.500000000000000000 ) ) ;
#607 = AXIS2_PLACEMENT_3D ( 'NONE', #205, #386, #103 ) ;
#608 = VERTEX_POINT ( 'NONE', #89 ) ;
#609 = VECTOR ( 'NONE', #324, 1000.000000000000000 ) ;
#610 = EDGE_CURVE ( 'NONE', #661, #348, #33, .T. ) ;
#611 = ORIENTED_EDGE ( 'NONE', *, *, #453, .F. ) ;
#612 = LINE ( 'NONE', #108, #440 ) ;
#613 = LINE ( 'NONE', #438, #276 ) ;
#614 = ORIENTED_EDGE ( 'NONE', *, *, #664, .T. ) ;
#615 = EDGE_CURVE ( 'NONE', #3, #466, #487, .T. ) ;
#616 = VERTEX_POINT ( 'NONE', #254 ) ;
#617 = CARTESIAN_POINT ( 'NONE',  ( 3.000000000000000000, 1.600000000000000755, 0.000000000000000000 ) ) ;
#618 = DIRECTION ( 'NONE',  ( 2.891205793294677833E-16, 1.000000000000000000, 0.000000000000000000 ) ) ;
#619 = ORIENTED_EDGE ( 'NONE', *, *, #84, .T. ) ;
#620 = ORIENTED_EDGE ( 'NONE', *, *, #521, .T. ) ;
#621 = CARTESIAN_POINT ( 'NONE',  ( 2.939152317953667813E-16, 5.999999999999984901, 3.500000000000000000 ) ) ;
#622 = DIRECTION ( 'NONE',  ( -0.000000000000000000, 1.000000000000000000, -0.000000000000000000 ) ) ;
#623 = VERTEX_POINT ( 'NONE', #249 ) ;
#624 = CIRCLE ( 'NONE', #717, 7.500000000000000000 ) ;
#625 = AXIS2_PLACEMENT_3D ( 'NONE', #218, #265, #334 ) ;
#626 = EDGE_CURVE ( 'NONE', #623, #574, #599, .T. ) ;
#627 = EDGE_LOOP ( 'NONE', ( #614, #178, #164, #678 ) ) ;
#628 = ORIENTED_EDGE ( 'NONE', *, *, #126, .T. ) ;
#629 = VERTEX_POINT ( 'NONE', #482 ) ;
#630 = VECTOR ( 'NONE', #543, 1000.000000000000000 ) ;
#631 = AXIS2_PLACEMENT_3D ( 'NONE', #312, #141, #540 ) ;
#632 = CC_DESIGN_APPROVAL ( #532, ( #41 ) ) ;
#633 = VERTEX_POINT ( 'NONE', #310 ) ;
#634 =( LENGTH_UNIT ( ) NAMED_UNIT ( * ) SI_UNIT ( .MILLI., .METRE. ) );
#635 = ORIENTED_EDGE ( 'NONE', *, *, #203, .T. ) ;
#636 = DIRECTION ( 'NONE',  ( -0.000000000000000000, 0.000000000000000000, -1.000000000000000000 ) ) ;
#637 = CARTESIAN_POINT ( 'NONE',  ( 0.000000000000000000, 0.000000000000000000, 1.500000000000000000 ) ) ;
#638 = UNCERTAINTY_MEASURE_WITH_UNIT (LENGTH_MEASURE( 1.000000000000000082E-05 ), #634, 'distance_accuracy_value', 'NONE');
#639 = APPROVAL_STATUS ( 'not_yet_approved' ) ;
#640 = FACE_OUTER_BOUND ( 'NONE', #496, .T. ) ;
#641 = FACE_OUTER_BOUND ( 'NONE', #105, .T. ) ;
#642 = LINE ( 'NONE', #300, #502 ) ;
#643 = VECTOR ( 'NONE', #586, 1000.000000000000000 ) ;
#644 = CARTESIAN_POINT ( 'NONE',  ( 7.200000000000000178, -5.999999999999996447, 3.500000000000000000 ) ) ;
#645 = DIRECTION ( 'NONE',  ( 1.000000000000000000, 0.000000000000000000, -0.000000000000000000 ) ) ;
#646 = ADVANCED_FACE ( 'NONE', ( #544 ), #143, .T. ) ;
#647 = CARTESIAN_POINT ( 'NONE',  ( 0.000000000000000000, 1.600000000000000755, 0.000000000000000000 ) ) ;
#648 = CARTESIAN_POINT ( 'NONE',  ( 0.000000000000000000, 1.600000000000000755, 0.000000000000000000 ) ) ;
#649 = CARTESIAN_POINT ( 'NONE',  ( 0.000000000000000000, 0.000000000000000000, 1.500000000000000000 ) ) ;
#650 = CC_DESIGN_DATE_AND_TIME_ASSIGNMENT ( #237, #465, ( #480 ) ) ;
#651 = FACE_OUTER_BOUND ( 'NONE', #455, .T. ) ;
#652 = CARTESIAN_POINT ( 'NONE',  ( 0.000000000000000000, 5.200000000000001066, 0.000000000000000000 ) ) ;
#653 = EDGE_CURVE ( 'NONE', #182, #736, #656, .T. ) ;
#654 = VECTOR ( 'NONE', #77, 1000.000000000000000 ) ;
#655 = LINE ( 'NONE', #146, #26 ) ;
#656 = LINE ( 'NONE', #719, #262 ) ;
#657 = EDGE_CURVE ( 'NONE', #633, #556, #147, .T. ) ;
#658 = EDGE_LOOP ( 'NONE', ( #635, #728, #42, #61 ) ) ;
#659 = CARTESIAN_POINT ( 'NONE',  ( -2.879999999999990123, 2.159999999999985043, 3.500000000000000000 ) ) ;
#660 = DIRECTION ( 'NONE',  ( 0.000000000000000000, -1.000000000000000000, 0.000000000000000000 ) ) ;
#661 = VERTEX_POINT ( 'NONE', #485 ) ;
#662 = DIRECTION ( 'NONE',  ( 0.000000000000000000, 0.000000000000000000, -1.000000000000000000 ) ) ;
#663 = CARTESIAN_POINT ( 'NONE',  ( 9.399999999999998579, 0.000000000000000000, 1.500000000000000000 ) ) ;
#664 = EDGE_CURVE ( 'NONE', #608, #204, #35, .T. ) ;
#665 = ORIENTED_EDGE ( 'NONE', *, *, #615, .T. ) ;
#666 = CARTESIAN_POINT ( 'NONE',  ( -5.299999999999999822, 0.000000000000000000, 0.000000000000000000 ) ) ;
#667 = LINE ( 'NONE', #549, #145 ) ;
#668 = VECTOR ( 'NONE', #490, 1000.000000000000000 ) ;
#669 = CC_DESIGN_DATE_AND_TIME_ASSIGNMENT ( #691, #71, ( #589 ) ) ;
#670 = VERTEX_POINT ( 'NONE', #369 ) ;
#671 = VERTEX_POINT ( 'NONE', #362 ) ;
#672 = DIRECTION ( 'NONE',  ( 0.8000000000000010436, -0.5999999999999987566, 0.000000000000000000 ) ) ;
#673 = FACE_OUTER_BOUND ( 'NONE', #551, .T. ) ;
#674 = ORIENTED_EDGE ( 'NONE', *, *, #326, .T. ) ;
#675 = EDGE_LOOP ( 'NONE', ( #162, #148, #451, #96 ) ) ;
#676 = DIRECTION ( 'NONE',  ( 1.000000000000000000, 0.000000000000000000, 0.000000000000000000 ) ) ;
#677 = DIRECTION ( 'NONE',  ( 1.000000000000000000, 0.000000000000000000, 0.000000000000000000 ) ) ;
#678 = ORIENTED_EDGE ( 'NONE', *, *, #257, .T. ) ;
#679 = EDGE_CURVE ( 'NONE', #111, #736, #157, .T. ) ;
#680 = ORIENTED_EDGE ( 'NONE', *, *, #308, .T. ) ;
#681 = VECTOR ( 'NONE', #32, 1000.000000000000000 ) ;
#682 = VECTOR ( 'NONE', #306, 1000.000000000000000 ) ;
#683 = AXIS2_PLACEMENT_3D ( 'NONE', #82, #94, #242 ) ;
#684 = LOCAL_TIME ( 11, 47, 22.00000000000000000, #454 ) ;
#685 = EDGE_CURVE ( 'NONE', #409, #623, #602, .T. ) ;
#686 = CALENDAR_DATE ( 2020, 30, 7 ) ;
#687 = LINE ( 'NONE', #119, #261 ) ;
#688 = PERSON_AND_ORGANIZATION ( #199, #160 ) ;
#689 = ORIENTED_EDGE ( 'NONE', *, *, #597, .F. ) ;
#690 = EDGE_CURVE ( 'NONE', #449, #733, #191, .T. ) ;
#691 = DATE_AND_TIME ( #456, #583 ) ;
#692 = VERTEX_POINT ( 'NONE', #587 ) ;
#693 = ADVANCED_FACE ( 'NONE', ( #206 ), #431, .F. ) ;
#694 = VECTOR ( 'NONE', #470, 1000.000000000000000 ) ;
#695 = VECTOR ( 'NONE', #709, 1000.000000000000000 ) ;
#696 = ORIENTED_EDGE ( 'NONE', *, *, #139, .F. ) ;
#697 = DIRECTION ( 'NONE',  ( -0.000000000000000000, -1.000000000000000000, -0.000000000000000000 ) ) ;
#698 =( NAMED_UNIT ( * ) PLANE_ANGLE_UNIT ( ) SI_UNIT ( $, .RADIAN. ) );
#699 = EDGE_LOOP ( 'NONE', ( #167, #56, #562, #517 ) ) ;
#700 = DIRECTION ( 'NONE',  ( -1.000000000000000000, 0.000000000000000000, 0.000000000000000000 ) ) ;
#701 = DIRECTION ( 'NONE',  ( 0.000000000000000000, -1.000000000000000000, 0.000000000000000000 ) ) ;
#702 = EDGE_CURVE ( 'NONE', #3, #50, #711, .T. ) ;
#703 = LINE ( 'NONE', #29, #4 ) ;
#704 = DIRECTION ( 'NONE',  ( -0.000000000000000000, -0.000000000000000000, 1.000000000000000000 ) ) ;
#705 = CARTESIAN_POINT ( 'NONE',  ( -5.299999999999999822, 0.000000000000000000, 1.500000000000000000 ) ) ;
#706 = FACE_OUTER_BOUND ( 'NONE', #214, .T. ) ;
#707 = AXIS2_PLACEMENT_3D ( 'NONE', #169, #491, #723 ) ;
#708 = CARTESIAN_POINT ( 'NONE',  ( 0.000000000000000000, 5.999999999999984901, 0.000000000000000000 ) ) ;
#709 = DIRECTION ( 'NONE',  ( 0.000000000000000000, -1.858632295689436102E-16, 1.000000000000000000 ) ) ;
#710 = PLANE ( 'NONE',  #275 ) ;
#711 = LINE ( 'NONE', #24, #441 ) ;
#712 = EDGE_CURVE ( 'NONE', #520, #466, #594, .T. ) ;
#713 = CARTESIAN_POINT ( 'NONE',  ( 3.000000000000000000, 5.200000000000001066, 0.000000000000000000 ) ) ;
#714 = CARTESIAN_POINT ( 'NONE',  ( 7.200000000000001954, -2.081668171172168513E-15, 1.500000000000000000 ) ) ;
#715 = ADVANCED_FACE ( 'NONE', ( #137 ), #377, .F. ) ;
#716 = ORIENTED_EDGE ( 'NONE', *, *, #702, .F. ) ;
#717 = AXIS2_PLACEMENT_3D ( 'NONE', #588, #83, #192 ) ;
#718 = DIRECTION ( 'NONE',  ( 0.000000000000000000, 0.000000000000000000, -1.000000000000000000 ) ) ;
#719 = CARTESIAN_POINT ( 'NONE',  ( 9.399999999999998579, -0.6934003354313531542, 3.500000000000000000 ) ) ;
#720 = EDGE_CURVE ( 'NONE', #180, #516, #195, .T. ) ;
#721 = ORIENTED_EDGE ( 'NONE', *, *, #679, .T. ) ;
#722 = DIRECTION ( 'NONE',  ( 0.000000000000000000, 0.000000000000000000, -1.000000000000000000 ) ) ;
#723 = DIRECTION ( 'NONE',  ( 0.000000000000000000, 0.000000000000000000, 1.000000000000000000 ) ) ;
#724 = ORIENTED_EDGE ( 'NONE', *, *, #21, .T. ) ;
#725 = CARTESIAN_POINT ( 'NONE',  ( 0.000000000000000000, 5.999999999999984901, 1.500000000000000000 ) ) ;
#726 = DIRECTION ( 'NONE',  ( -1.000000000000000000, 2.891205793294677833E-16, 0.000000000000000000 ) ) ;
#727 = ORIENTED_EDGE ( 'NONE', *, *, #626, .T. ) ;
#728 = ORIENTED_EDGE ( 'NONE', *, *, #712, .T. ) ;
#729 = LINE ( 'NONE', #93, #370 ) ;
#730 = CARTESIAN_POINT ( 'NONE',  ( 1.800000000000006040, 8.400000000000000355, 0.000000000000000000 ) ) ;
#731 = EDGE_LOOP ( 'NONE', ( #232, #70, #58, #238 ) ) ;
#732 = VECTOR ( 'NONE', #530, 1000.000000000000000 ) ;
#733 = VERTEX_POINT ( 'NONE', #652 ) ;
#734 = CARTESIAN_POINT ( 'NONE',  ( 2.199999999999997957, -11.99999999999999822, 1.500000000000000000 ) ) ;
#735 = LINE ( 'NONE', #558, #294 ) ;
#736 = VERTEX_POINT ( 'NONE', #7 ) ;
ENDSEC;
END-ISO-10303-21;
