0
SECTION
2
HEADER
9
$INSUNITS
70
4
9
$ACADVER
1
AC1014
9
$HANDSEED
5
FFFF
0
ENDSEC
0
SECTION
2
TABLES
0
TABLE
2
VPORT
5
8
100
AcDbSymbolTable
0
ENDTAB
0
TABLE
2
LTYPE
5
5
100
AcDbSymbolTable
0
LTYPE
5
14
100
AcDbSymbolTableRecord
100
AcDbLinetypeTableRecord
2
BYBLOCK
70
0
0
LTYPE
5
15
100
AcDbSymbolTableRecord
100
AcDbLinetypeTableRecord
2
BYLAYER
70
0
0
LTYPE
5
16
100
AcDbSymbolTableRecord
100
AcDbLinetypeTableRecord
2
DASHED
70
0
3
Dashed __ __ __ __ __ __ __ __ __ __ __ __ __ _
72
65
73
2
40
0.75
49
0.5
74
0
49
-0.25
74
0
0
ENDTAB
0
TABLE
2
LAYER
5
2
100
AcDbSymbolTable
70
3
0
LAYER
5
50
100
AcDbSymbolTableRecord
100
AcDbLayerTableRecord
2
1
70
0
62
7
6
DASHED
0
LAYER
5
51
100
AcDbSymbolTableRecord
100
AcDbLayerTableRecord
2
0
70
0
62
7
6
CONTINUOUS
0
ENDTAB
0
TABLE
2
STYLE
5
3
100
AcDbSymbolTable
70
1
0
STYLE
5
11
100
AcDbSymbolTableRecord
100
AcDbTextStyleTableRecord
2
STANDARD
70
0
0
ENDTAB
0
TABLE
2
VIEW
5
6
100
AcDbSymbolTable
70
0
0
ENDTAB
0
TABLE
2
UCS
5
7
100
AcDbSymbolTable
70
0
0
ENDTAB
0
TABLE
2
APPID
5
9
100
AcDbSymbolTable
70
2
0
APPID
5
12
100
AcDbSymbolTableRecord
100
AcDbRegAppTableRecord
2
ACAD
70
0
0
ENDTAB
0
TABLE
2
DIMSTYLE
5
A
100
AcDbSymbolTable
70
1
0
ENDTAB
0
TABLE
2
BLOCK_RECORD
5
1
100
AcDbSymbolTable
70
1
0
BLOCK_RECORD
5
1F
100
AcDbSymbolTableRecord
100
AcDbBlockTableRecord
2
*MODEL_SPACE
0
BLOCK_RECORD
5
1B
100
AcDbSymbolTableRecord
100
AcDbBlockTableRecord
2
*PAPER_SPACE
0
ENDTAB
0
ENDSEC
0
SECTION
2
BLOCKS
0
BLOCK
5
20
100
AcDbEntity
100
AcDbBlockBegin
2
*MODEL_SPACE
0
ENDBLK
5
21
100
AcDbEntity
100
AcDbBlockEnd
0
BLOCK
5
1C
100
AcDbEntity
100
AcDbBlockBegin
2
*PAPER_SPACE
0
ENDBLK
5
1D
100
AcDbEntity
100
AcDbBlockEnd
0
ENDSEC
0
SECTION
2
ENTITIES
0
POINT
5
100
100
AcDbEntity
8
0
100
AcDbPoint
10
16.045350330665656
20
-14.172725524877375
30
0
0
POINT
5
101
100
AcDbEntity
8
0
100
AcDbPoint
10
16.04535033066599
20
-14.172725524877448
30
0
0
POINT
5
102
100
AcDbEntity
8
0
100
AcDbPoint
10
16.045350330665983
20
14.172725524877452
30
0
0
POINT
5
103
100
AcDbEntity
8
0
100
AcDbPoint
10
0
20
0
30
0
0
POINT
5
104
100
AcDbEntity
8
0
100
AcDbPoint
10
0
20
0
30
0
0
POINT
5
105
100
AcDbEntity
8
0
100
AcDbPoint
10
-12.215000864267349
20
-77.999999997658378
30
0
0
POINT
5
106
100
AcDbEntity
8
0
100
AcDbPoint
10
-14.015000864267346
20
-77.999999997658378
30
0
0
POINT
5
107
100
AcDbEntity
8
0
100
AcDbPoint
10
-12.215000864267349
20
-92.000000002341622
30
0
0
POINT
5
108
100
AcDbEntity
8
0
100
AcDbPoint
10
-65
20
-95
30
0
0
LINE
5
109
100
AcDbEntity
8
0
100
AcDbLine
10
38.778929372066621
20
40.757249173023141
30
0
11
40.99200385683141
21
43.665861353016467
31
0
0
ARC
5
110
100
AcDbEntity
8
0
100
AcDbCircle
10
39.49390443266158
20
51.376587680896051
30
0
40
2.9999999999999489
210
-0
220
0
230
1
100
AcDbArc
50
-5.7426254102233347
51
52.73359809901109
0
ARC
5
111
100
AcDbEntity
8
0
100
AcDbCircle
10
36.192993113124373
20
33.47915195865172
30
0
40
4.9999999999999538
210
0
220
0
230
1
100
AcDbArc
50
113.63082653026407
51
144.10067861989796
0
LINE
5
112
100
AcDbEntity
8
0
100
AcDbLine
10
34.188783112413532
20
38.05988795552495
30
0
11
36.803995902164786
21
39.204122338555138
31
0
0
ARC
5
113
100
AcDbEntity
8
0
100
AcDbCircle
10
34.799785901453916
20
43.784858335428403
30
0
40
5.0000000000000018
210
0
220
0
230
1
100
AcDbArc
50
293.63082653026419
51
322.73359809918196
0
LWPOLYLINE
5
114
100
AcDbEntity
8
0
100
AcDbPolyline
90
12
70
1
43
0.0
10
2.535742016020055
20
5.0000000745058051
10
1.8000000149011628
20
5.0000000745058042
42
-0.41421356237309592
10
1.000000014901163
20
5.8000000745058058
10
1.000000014901163
20
14.668629373618939
42
-0.19891236737965684
10
1.2343145899519254
20
15.23431479856818
10
1.7656854547515612
20
15.765685663367817
42
-0.19891236737965823
10
2.3313708797008004
20
16.000000238418579
10
2.6686290481307124
20
16.000000238418579
42
-0.19891238674308523
10
3.2343145152267958
20
15.765685621220966
10
6.5679317344632873
20
12.432067905236789
42
-0.33821327187381967
10
6.6968407812942505
20
11.469471372147018
10
3.2303365299471003
20
5.403088924218423
42
-0.26914263606158384
0
ARC
5
115
100
AcDbEntity
8
0
100
AcDbCircle
10
15.200000238418578
20
1.800000014901157
30
0
40
0.80000000000000127
210
0
220
0
230
1
100
AcDbArc
50
270
51
270.20034164965625
0
LWPOLYLINE
5
116
100
AcDbEntity
8
0
100
AcDbPolyline
90
10
70
1
43
0.0
10
20.862445602095363
20
1.0000000149011623
10
22.757779832541111
20
1.0000000149011612
42
0.14806873911202892
10
23.201539989521294
20
1.1343597794308873
10
25.643760544410373
20
2.7625068160236044
42
0.25076489093331283
10
26.000000387430191
20
3.4281470514938812
10
26.000000387430191
20
6.2500000894069689
42
0.41421356237309792
10
25.20000038743019
20
7.0500000894069679
10
20.862445602095345
20
7.0500000894069679
42
0.41421356237309792
10
20.062445602095345
20
6.2500000894069689
10
20.062445602095362
20
1.8000000149011575
42
0.41421356237309304
0
LINE
5
117
100
AcDbEntity
8
0
100
AcDbLine
10
24.171573232426962
20
11.000000000000025
30
0
11
17.665447501609766
21
11.000000000000028
31
0
0
ARC
5
118
100
AcDbEntity
8
0
100
AcDbCircle
10
17.665447501609762
20
13.000000000000023
30
0
40
1.9999999999999931
210
0
220
0
230
1
100
AcDbArc
50
144.10067861989782
51
270.00000000000011
0
ARC
5
119
100
AcDbEntity
8
0
100
AcDbCircle
10
6.0000000745058006
20
2.5400651222330706
30
0
40
0.99999999999999545
210
0
220
0
230
1
100
AcDbArc
50
130.60129464500415
51
133.32202951526824
0
CIRCLE
5
120
100
AcDbEntity
8
0
100
AcDbCircle
10
39.459070070812182
20
46.60555272566684
30
0
40
1.05
210
0
220
0
230
1
0
LINE
5
121
100
AcDbEntity
8
0
100
AcDbLine
10
41.055218324834364
20
53.958286941186813
30
0
11
41.310469930111829
21
53.764073763258217
31
0
0
ARC
5
122
100
AcDbEntity
8
0
100
AcDbCircle
10
3.8857805861880479e-15
20
21.920310216782983
30
0
40
1.9999999999999849
210
0
220
-0
230
1
100
AcDbArc
50
44.999999999999602
51
135.00000000000034
0
LINE
5
123
100
AcDbEntity
8
0
100
AcDbLine
10
41.055218324834364
20
53.958286941186813
30
0
11
40.799966719557375
21
54.152500119115039
31
0
0
CIRCLE
5
124
100
AcDbEntity
8
0
100
AcDbCircle
10
34.39444727433554
20
50.459070070794773
30
0
40
1.05
210
0
220
0
230
1
0
ARC
5
125
100
AcDbEntity
8
0
100
AcDbCircle
10
35.13155236621229
20
48.124900530611157
30
0
40
5.0000000000000124
210
0
220
0
230
1
100
AcDbArc
50
111.209821608262
51
142.73359809888845
0
CIRCLE
5
126
100
AcDbEntity
8
0
100
AcDbCircle
10
35.000000000000007
20
46.000000000000014
30
0
40
2.2500000000000013
210
0
220
0
230
1
0
CIRCLE
5
127
100
AcDbEntity
8
0
100
AcDbCircle
10
1.1102230246251565e-15
20
18.031222920256962
30
0
40
1.05
210
0
220
0
230
1
0
CIRCLE
5
128
100
AcDbEntity
8
0
100
AcDbCircle
10
35.605552725669938
20
41.540929929165003
30
0
40
1.05
210
0
220
0
230
1
0
CIRCLE
5
129
100
AcDbEntity
8
0
100
AcDbCircle
10
30.540929929182422
20
45.394447274332457
30
0
40
1.05
210
0
220
0
230
1
0
LINE
5
130
100
AcDbEntity
8
0
100
AcDbLine
10
37.898048072636975
20
54.561799430903676
30
0
11
33.322630450428797
21
52.786209520862535
31
0
0
ARC
5
131
100
AcDbEntity
8
0
100
AcDbCircle
10
37.012860386218676
20
46.693470515421751
30
0
40
5.0000000000000364
210
0
220
0
230
1
100
AcDbArc
50
322.73359809918196
51
354.25737458977682
0
ARC
5
132
100
AcDbEntity
8
0
100
AcDbCircle
10
24.171573232426965
20
9.0000000000000373
30
0
40
1.9999999999999882
210
0
220
-0
230
1
100
AcDbArc
50
44.999999999999922
51
90.000000000000099
0
LWPOLYLINE
5
133
100
AcDbEntity
8
0
100
AcDbPolyline
90
10
70
1
43
0.0
10
11.621433129384933
20
8.6441967366104535
10
5.2810289017906271
20
3.2395527161788307
42
0.21965975154106068
10
5.0000000745058069
20
2.6307268610358103
10
5.0000000745058077
20
1.8000000149011592
42
0.41421356237309587
10
5.8000000745058076
20
1.000000014901159
10
15.200000238418578
20
1.0000000149011721
42
0.41421356237309442
10
16.000000238418579
20
1.8000000149011719
10
16.000000238418579
20
6.505572913308205
42
0.28407904384040933
10
15.557771114818543
20
7.2211146661081393
10
12.498175178500077
20
8.7509126342673689
42
0.30101229094668008
0
LINE
5
134
100
AcDbEntity
8
0
100
AcDbLine
10
26.414213951203443
20
9.5857864059697331
30
0
11
25.585786794800054
21
10.414213562373122
31
0
0
ARC
5
135
100
AcDbEntity
8
0
100
AcDbCircle
10
24.171573259850177
20
-9.0000001518454305
30
0
40
2.0000000000000044
210
0
220
0
230
1
100
AcDbArc
50
269.99999916539741
51
314.99999999999994
0
LWPOLYLINE
5
136
100
AcDbEntity
8
0
100
AcDbPolyline
90
13
70
1
43
0.0
10
31.242220972121594
20
-1.0000000149011612
42
0.14806873911202892
10
30.798460815141411
20
-1.1343597794308873
10
28.356240260252331
20
-2.7625068160236044
42
0.25076489093331283
10
28.000000417232513
20
-3.4281470514938812
10
28.000000417232513
20
-5.2000000894069673
42
0.41421356237309792
10
28.800000417232514
20
-6.0000000894069672
10
33.137555202567356
20
-6.0000000894069672
42
0.41421356237309792
10
33.93755520256736
20
-5.2000000894069673
10
33.93755520256736
20
-3.0000000447034836
10
33.93755520256736
20
-2.5345962451333111
42
0.18459837931855624
10
33.733602082954384
20
-2.0009970356315607
42
-0.059245229746796059
10
33.326693596414948
20
-1.4210526433430204
42
0.27603881469568131
10
32.622137786284064
20
-1.0000000149011612
0
ARC
5
137
100
AcDbEntity
8
0
100
AcDbCircle
10
5.7528081045089516
20
11.832978616240011
30
0
40
1.0000000000000056
210
0
220
-0
230
1
100
AcDbArc
50
40.780804605754724
51
44.999999999999787
0
LWPOLYLINE
5
138
100
AcDbEntity
8
0
100
AcDbPolyline
90
10
70
1
43
0.0
10
26.000000387430191
20
-3.4281470514938812
10
26.000000387430191
20
-6.2500000894069689
42
-0.41421356237309792
10
25.20000038743019
20
-7.0500000894069679
10
20.862445602095345
20
-7.0500000894069679
42
-0.41421356237309792
10
20.062445602095345
20
-6.2500000894069689
10
20.062445602095362
20
-1.8000000149011575
42
-0.41421356237309304
10
20.862445602095363
20
-1.0000000149011623
10
22.757779832541111
20
-1.0000000149011607
42
-0.14806873911202892
10
23.201539989521294
20
-1.1343597794308873
10
25.643760544410373
20
-2.7625068160236044
42
-0.25076489093331283
0
LINE
5
139
100
AcDbEntity
8
0
100
AcDbLine
10
25.585786822223273
20
-10.41421371421853
30
0
11
26.414213964704448
21
-9.5857865717373549
31
0
0
LINE
5
140
100
AcDbEntity
8
0
100
AcDbLine
10
-41.055218324832595
20
53.958286941188106
30
0
11
-41.310469930110372
21
53.764073763259361
31
0
0
LINE
5
141
100
AcDbEntity
8
0
100
AcDbLine
10
-16.045350330665979
20
14.172725524877459
30
0
11
-32.142750185766232
21
36.410965770845188
31
0
0
LINE
5
142
100
AcDbEntity
8
0
100
AcDbLine
10
30.16862960458694
20
-9.0000001341104507
30
0
11
27.828427527077544
21
-9.000000134110449
31
0
0
LINE
5
143
100
AcDbEntity
8
0
100
AcDbLine
10
31.265685894335817
20
-9.7656855739608499
30
0
11
30.734315029536177
21
-9.234314709161211
31
0
0
LINE
5
144
100
AcDbEntity
8
0
100
AcDbLine
10
-9.0351026107642358
20
18.853230845075608
30
0
11
-26.51782984437294
21
40.687868469528382
31
0
0
ARC
5
145
100
AcDbEntity
8
0
100
AcDbCircle
10
-34.799785901457398
20
43.784858335429668
30
0
40
5.0000000000000995
210
0
220
0
230
1
100
AcDbArc
50
217.26640190097203
51
246.36917346972473
0
ARC
5
146
100
AcDbEntity
8
0
100
AcDbCircle
10
34.331371356537957
20
-9.8000001341104657
30
0
40
0.80000000000001514
210
0
220
0
230
1
100
AcDbArc
50
90
51
134.99999999999955
0
ARC
5
147
100
AcDbEntity
8
0
100
AcDbCircle
10
38.983401222107069
20
51.765014036752824
30
0
40
3.0000000000000266
210
0
220
-0
230
1
100
AcDbArc
50
52.733598099010798
51
111.20982160826181
0
LINE
5
148
100
AcDbEntity
8
0
100
AcDbLine
10
27.969145040821864
20
45.926291472223511
30
0
11
27.564128432851128
21
43.1029771262073
31
0
0
ARC
5
149
100
AcDbEntity
8
0
100
AcDbCircle
10
22.614795592218297
20
43.812980247772444
30
0
40
4.9999999999998916
210
0
220
0
230
1
100
AcDbArc
50
321.31617168259538
51
351.8363696675242
0
LINE
5
150
100
AcDbEntity
8
0
100
AcDbLine
10
1.414213562373098
20
23.334523779156058
30
0
11
6.0596753475344816
21
18.689061993994681
31
0
0
LWPOLYLINE
5
151
100
AcDbEntity
8
0
100
AcDbPolyline
90
18
70
1
43
0.0
10
-38.000000566244125
20
2.2000000447034833
42
0.41421356237309748
10
-38.800000566244123
20
3.0000000447034818
10
-44.668629820653777
20
3.0000000447034814
42
0.19891236737965431
10
-45.234315245603014
20
2.7656854696527233
10
-46.765686125303816
20
1.2343145899519232
42
0.19891236737965026
10
-47.000000700354583
20
0.66862916500268454
10
-47.000000700354576
20
-0.6933936914734784
42
0.1989123673796476
10
-46.765686125303816
20
-1.2590791164227153
10
-45.259079772073811
20
-2.7656854696527238
42
0.19891236737965468
10
-44.693394347124567
20
-3.0000000447034836
10
-38.800000566244123
20
-3.0000000447034836
42
0.41421356237309748
10
-38.000000566244125
20
-2.2000000447034833
10
-38.000000566244125
20
-2.1888544118021533
42
0.11643382146583831
10
-38.084458813444193
20
-1.8310835354021875
10
-38.821115142278899
20
-0.35777087773276622
42
-0.23606797828637555
10
-38.821115141212658
20
0.35777087719964706
10
-38.084458814510434
20
1.8310835196270727
42
0.11643382222099374
10
-38.000000566244125
20
2.1888543981595192
0
LINE
5
152
100
AcDbEntity
8
0
100
AcDbLine
10
-16.045350330666
20
-14.172725524877425
30
0
11
-32.142750185771689
21
-36.410965770852705
31
0
0
ARC
5
153
100
AcDbEntity
8
0
100
AcDbCircle
10
-51.000000864267349
20
7.0000001043081284
30
0
40
0.80000000000000071
210
0
220
0
230
1
100
AcDbArc
50
-180
51
0
0
LWPOLYLINE
5
154
100
AcDbEntity
8
0
100
AcDbPolyline
90
15
70
1
43
0.0
10
-35.171571474544663
20
5.5857865270338758
10
-35.171571474544663
20
2.4142135921754226
42
0.19891236737965962
10
-34.878678255731209
20
1.7071068109888721
10
-34.464464678456956
20
1.292893233714616
42
0.19891236737965998
10
-33.75735789727041
20
1.0000000149011656
10
-30.932425984405604
20
1.0000000149011652
42
0.27603881469567287
10
-30.227870174274727
20
1.4210526433430197
42
-0.14700991408442063
10
-29.006838517862889
20
2.6420842943181162
42
0.27603881589364221
10
-28.58578588628394
20
3.3466401061362867
10
-28.58578588628394
20
6.200000104308133
42
0.41421356237309792
10
-29.385785886283941
20
7.0000001043081328
10
-31.971571423880718
20
7.0000001043081328
10
-33.75735789727041
20
7.0000001043081328
42
0.19891236737965248
10
-34.464464678456956
20
6.7071068854946825
10
-34.878678255731216
20
6.2928933082204219
42
0.19891236737965445
0
LWPOLYLINE
5
155
100
AcDbEntity
8
0
100
AcDbPolyline
90
16
70
1
43
0.0
10
-28.58578588628394
20
-6.0000000745058006
10
-28.58578588628394
20
-3.3466401061363209
42
0.27603881589364221
10
-29.006838517862885
20
-2.6420842943181508
42
-0.14700991408442085
10
-30.227870174274727
20
-1.4210526433430521
42
0.27603881469567121
10
-30.932425984405608
20
-1.0000000149011958
10
-33.757357897270403
20
-1.0000000149011978
42
0.19891236737966031
10
-34.464464678456949
20
-1.2928932337146481
10
-34.878678255731209
20
-1.7071068109889049
42
0.19891236737965889
10
-35.171571474544663
20
-2.4142135921754555
10
-35.171571474544663
20
-5.5857865270339087
42
0.19891236737965445
10
-34.878678255731209
20
-6.2928933082204548
10
-34.464464678456956
20
-6.7071068854947153
42
0.19891236737965351
10
-33.757357897270403
20
-7.0000001043081639
10
-31.971571423880722
20
-7.0000001043081639
10
-29.385785886283937
20
-7.000000104308139
42
0.41421356237309098
10
-28.58578588628394
20
-6.2000001043081365
0
CIRCLE
5
156
100
AcDbEntity
8
0
100
AcDbCircle
10
-34.394447274333729
20
-50.459070070814988
30
0
40
1.05
210
0
220
0
230
1
0
LWPOLYLINE
5
157
100
AcDbEntity
8
0
100
AcDbPolyline
90
8
70
1
43
0.0
10
-44.615000864267351
20
7.0000000250481476
42
0.99999999999999989
10
-43.01500086426735
20
7.0000000023416176
10
-41.215000864267353
20
7.0000000023416176
42
0.99999999999999989
10
-39.615000864267351
20
7.0000000023416176
10
-39.615000864267358
20
9.1000000023416163
42
0.99999999999999989
10
-41.21500086426736
20
9.1000000023416163
10
-43.015000864267357
20
9.1000000023416163
42
0.99999999999999989
10
-44.615000864267351
20
9.1000000250481463
0
LINE
5
158
100
AcDbEntity
8
0
100
AcDbLine
10
-53.000000864267349
20
-9.8385526520249336
30
0
11
-53.000000864267349
21
-9.600000104308128
31
0
0
LWPOLYLINE
5
159
100
AcDbEntity
8
0
100
AcDbPolyline
90
8
70
1
43
0.0
10
-39.615000864267351
20
-7.0000000023416176
42
0.99999999999999989
10
-41.215000864267353
20
-7.0000000023416176
10
-43.01500086426735
20
-7.0000000023416176
42
0.99999999999999989
10
-44.615000864267351
20
-7.0000000250481476
10
-44.615000864267351
20
-9.1000000250481463
42
0.99999999999999989
10
-43.015000864267357
20
-9.1000000023416163
10
-41.21500086426736
20
-9.1000000023416163
42
0.99999999999999989
10
-39.615000864267358
20
-9.1000000023416163
0
LINE
5
160
100
AcDbEntity
8
0
100
AcDbLine
10
-53.000000864267349
20
-7.0000001043081284
30
0
11
-51.800000864267346
21
-7.0000001043081284
31
0
0
LWPOLYLINE
5
161
100
AcDbEntity
8
0
100
AcDbPolyline
90
10
70
1
43
0.0
10
16.000000238418579
20
-1.8000000149011575
10
16.000000238418579
20
-6.5055729133081996
42
-0.28407904384040938
10
15.557771114818543
20
-7.2211146661081349
10
12.49817517850008
20
-8.7509126342673671
42
-0.30101229094668008
10
11.621433129384934
20
-8.6441967366104517
10
5.2810289017906262
20
-3.2395527161788302
42
-0.21965975154106018
10
5.000000074505806
20
-2.630726861035809
10
5.0000000745058077
20
-1.8000000149011577
42
-0.41421356237309548
10
5.8000000745058067
20
-1.0000000149011572
10
15.200000238418578
20
-1.0000000149011576
42
-0.41421356237309476
0
LWPOLYLINE
5
162
100
AcDbEntity
8
0
100
AcDbPolyline
90
16
70
1
43
0.0
10
-26.58578588628394
20
-6.0000000745058015
10
-26.58578588628394
20
-6.2000001043081356
42
0.41421356237308898
10
-25.785785886283946
20
-7.0000001043081372
10
-23.200000348687166
20
-7.0000001043081594
10
-21.414213875297484
20
-7.0000001043081594
42
0.1989123673796539
10
-20.707107094110931
20
-6.7071068854947091
10
-20.292893516836678
20
-6.2928933082204486
42
0.19891236737965445
10
-20.000000298023227
20
-5.5857865270339024
10
-20.000000298023227
20
-2.4142135921754488
42
0.19891236737965864
10
-20.292893516836678
20
-1.7071068109888987
10
-20.707107094110938
20
-1.2928932337146426
42
0.19891236737966031
10
-21.414213875297484
20
-1.0000000149011925
10
-24.239145788162283
20
-1.0000000149011929
42
0.27603881469567321
10
-24.94370159829316
20
-1.4210526433430501
42
-0.14700991408442063
10
-26.164733254704995
20
-2.6420842943181495
42
0.27603881589364021
10
-26.58578588628394
20
-3.3466401061363165
0
ARC
5
163
100
AcDbEntity
8
0
100
AcDbCircle
10
-52.500000864267349
20
9.6000001043081298
30
0
40
0.49999999999999822
210
0
220
0
230
1
100
AcDbArc
50
180
51
270
0
LINE
5
164
100
AcDbEntity
8
0
100
AcDbLine
10
-52.500000864267349
20
-9.100000104308128
30
0
11
-51.800000834465024
21
-9.100000104308128
31
0
0
LINE
5
165
100
AcDbEntity
8
0
100
AcDbLine
10
-52.500000864267349
20
9.100000104308128
30
0
11
-51.800000834465024
21
9.100000104308128
31
0
0
ARC
5
166
100
AcDbEntity
8
0
100
AcDbCircle
10
17.665447542890718
20
-13.000000057073528
30
0
40
1.9999999999999996
210
0
220
-0
230
1
100
AcDbArc
50
89.999999165397213
51
215.89932138013728
0
LINE
5
167
100
AcDbEntity
8
0
100
AcDbLine
10
-54.999953886407468
20
2.2204460492503131e-14
30
0
11
-54.999964792786685
21
3.0916797303673644
31
0
0
ARC
5
168
100
AcDbEntity
8
0
100
AcDbCircle
10
-37.012860386217589
20
-46.693470515422568
30
0
40
5.000000000000087
210
0
220
0
230
1
100
AcDbArc
50
142.73359809902311
51
174.25737458979938
0
LINE
5
169
100
AcDbEntity
8
0
100
AcDbLine
10
-52.858739039169436
20
9.9912604078601142
30
0
11
-52.026665443424548
21
10.848291432378028
31
0
0
ARC
5
170
100
AcDbEntity
8
0
100
AcDbCircle
10
-51.667927268522462
20
10.500000000000018
30
0
40
0.50000000000000266
210
0
220
-0
230
1
100
AcDbArc
50
90
51
135.8465143435852
0
LINE
5
171
100
AcDbEntity
8
0
100
AcDbLine
10
-41.055218324832595
20
-53.958286941208577
30
0
11
-41.310469930110393
21
-53.764073763279818
31
0
0
LINE
5
172
100
AcDbEntity
8
0
100
AcDbLine
10
-50.20000083446503
20
9.100000104308128
30
0
11
-50.200000864267345
21
7.0000001043081284
31
0
0
ARC
5
173
100
AcDbEntity
8
0
100
AcDbCircle
10
-51.000000864267349
20
-7.0000001043081284
30
0
40
0.80000000000000071
210
0
220
0
230
1
100
AcDbArc
50
0
51
180
0
LWPOLYLINE
5
174
100
AcDbEntity
8
0
100
AcDbPolyline
90
12
70
1
43
0.0
10
-2.3313708797007919
20
-16.000000238418579
10
-2.6686290481307045
20
-16.000000238418579
42
-0.19891238674308478
10
-3.2343145152267883
20
-15.765685621220968
10
-6.5679317344632802
20
-12.43206790523679
42
-0.33821327187381967
10
-6.6968407812942443
20
-11.469471372147019
10
-3.2303365299470981
20
-5.4030889242184257
42
-0.26914263606158406
10
-2.5357420160200519
20
-5.000000074505806
10
-1.8000000149011601
20
-5.000000074505806
42
-0.41421356237309587
10
-1.0000000149011601
20
-5.8000000745058058
10
-1.0000000149011548
20
-14.668629373618941
42
-0.19891236737965651
10
-1.234314589951917
20
-15.23431479856818
10
-1.765685454751553
20
-15.765685663367817
42
-0.19891236737965823
0
LINE
5
175
100
AcDbEntity
8
0
100
AcDbLine
10
-54.496128297589301
20
4.7557719691966325
30
0
11
-53.000000864267349
21
6.9999999999564668
31
0
0
LINE
5
176
100
AcDbEntity
8
0
100
AcDbLine
10
-9.0351026107642181
20
-18.853230845075622
30
0
11
-26.517829844372159
21
-40.687868469527388
31
0
0
LWPOLYLINE
5
177
100
AcDbEntity
8
0
100
AcDbPolyline
90
12
70
1
43
0.0
10
2.5357420160200563
20
-5.0000000745058024
10
1.8000000149011641
20
-5.0000000745058015
42
0.41421356237309709
10
1.0000000149011645
20
-5.8000000745058058
10
1.0000000149011656
20
-14.668629373618941
42
0.19891236737965681
10
1.2343145899519281
20
-15.23431479856818
10
1.7656854547515632
20
-15.765685663367817
42
0.1989123673796582
10
2.3313708797008026
20
-16.000000238418579
10
2.6686290481307151
20
-16.000000238418579
42
0.19891238674308517
10
3.2343145152267985
20
-15.765685621220966
10
6.5679317344632899
20
-12.432067905236789
42
0.33821327187381967
10
6.6968407812942532
20
-11.469471372147018
10
3.2303365299471007
20
-5.4030889242184221
42
0.26914263606158384
0
LINE
5
178
100
AcDbEntity
8
0
100
AcDbLine
10
-52.848292296645347
20
-10.197290826927022
30
0
11
-52.167005167163026
21
-10.85873833039625
31
0
0
ARC
5
179
100
AcDbEntity
8
0
100
AcDbCircle
10
-51.999942979912461
20
-3.0917072256226721
30
0
40
3.0000000000001199
210
0
220
0
230
1
100
AcDbArc
50
180.00020211727423
51
213.689445455949
0
LINE
5
180
100
AcDbEntity
8
0
100
AcDbLine
10
-31.152408895616723
20
-51.152509693061354
30
0
11
-28.939334410859161
21
-48.24389751310791
31
0
0
LINE
5
181
100
AcDbEntity
8
0
100
AcDbLine
10
-54.496111930202318
20
-4.7557807130653265
30
0
11
-53.000000864267349
21
-7.0000001043081284
31
0
0
LINE
5
182
100
AcDbEntity
8
0
100
AcDbLine
10
-41.055218324832595
20
-53.958286941208577
30
0
11
-40.799966719554803
21
-54.152500119137336
31
0
0
ARC
5
183
100
AcDbEntity
8
0
100
AcDbCircle
10
38.414214113716056
20
-3.4694469519536142e-16
30
0
40
0.99999999999999967
210
0
220
0
230
1
100
AcDbArc
50
134.99999999999991
51
225.00000000000037
0
CIRCLE
5
184
100
AcDbEntity
8
0
100
AcDbCircle
10
-18.031222920256962
20
1.1102230246251565e-15
30
0
40
1.05
210
0
220
0
230
1
0
LWPOLYLINE
5
185
100
AcDbEntity
8
0
100
AcDbPolyline
90
10
70
1
43
0.0
10
-5.2810289017906253
20
-3.2395527161788329
42
0.21965975154106099
10
-5.0000000745058051
20
-2.6307268610358121
10
-5.000000074505806
20
-1.8000000149011608
42
0.4142135623730957
10
-5.8000000745058058
20
-1.0000000149011614
10
-15.200000238418578
20
-1.000000014901163
42
0.41421356237309481
10
-16.000000238418579
20
-1.8000000149011637
10
-16.000000238418576
20
-6.505572913308213
42
0.28407904384041011
10
-15.557771114818538
20
-7.2211146661081482
10
-12.49817517850007
20
-8.750912634267376
42
0.30101229094668008
10
-11.621433129384929
20
-8.6441967366104606
0
ARC
5
186
100
AcDbEntity
8
0
100
AcDbCircle
10
-22.614795592218066
20
-43.812980247770234
30
0
40
5.0000000000000249
210
0
220
0
230
1
100
AcDbArc
50
141.3161716825787
51
171.83636966756123
0
LINE
5
187
100
AcDbEntity
8
0
100
AcDbLine
10
-38.778929372054407
20
-40.757249173026004
30
0
11
-40.992003856821967
21
-43.665861353006221
31
0
0
LINE
5
188
100
AcDbEntity
8
0
100
AcDbLine
10
37.171573441497941
20
-9.0000001341104525
30
0
11
34.331371356537957
21
-9.0000001341104507
31
0
0
ARC
5
189
100
AcDbEntity
8
0
100
AcDbCircle
10
-7.4738889099025929
20
-20.103275556372754
30
0
40
1.999999999999996
210
0
220
-0
230
1
100
AcDbArc
50
44.999999999999893
51
141.31617168257864
0
LWPOLYLINE
5
190
100
AcDbEntity
8
0
100
AcDbPolyline
90
13
70
1
43
0.0
10
28.800000417232514
20
6.0000000894069672
42
0.41421356237309792
10
28.000000417232513
20
5.2000000894069673
10
28.000000417232513
20
3.4281470514938812
42
0.25076489093331283
10
28.356240260252331
20
2.7625068160236044
10
30.798460815141411
20
1.1343597794308873
42
0.14806873911202892
10
31.242220972121594
20
1.0000000149011612
10
32.622137786284064
20
1.0000000149011612
42
0.27603881469568131
10
33.326693596414948
20
1.4210526433430204
42
-0.059245229746796059
10
33.733602082954384
20
2.0009970356315607
42
0.18459837931855624
10
33.93755520256736
20
2.5345962451333111
10
33.93755520256736
20
3.0000000447034836
10
33.93755520256736
20
5.2000000894069673
42
0.41421356237309792
10
33.137555202567356
20
6.0000000894069672
0
LINE
5
191
100
AcDbEntity
8
0
100
AcDbLine
10
9.0351026107789938
20
-18.85323084506372
30
0
11
26.517829844376305
21
-40.687868469548008
31
0
0
CIRCLE
5
192
100
AcDbEntity
8
0
100
AcDbCircle
10
-30.540929929182226
20
-45.394447274353894
30
0
40
1.05
210
0
220
0
230
1
0
ARC
5
193
100
AcDbEntity
8
0
100
AcDbCircle
10
-5.7528081045089472
20
11.832978616240013
30
0
40
1.0000000000000027
210
0
220
0
230
1
100
AcDbArc
50
135.00000000000006
51
139.21919539424519
0
LINE
5
194
100
AcDbEntity
8
0
100
AcDbLine
10
41.055218324834385
20
-53.958286941227776
30
0
11
40.799966719556615
21
-54.152500119156599
31
0
0
LINE
5
195
100
AcDbEntity
8
0
100
AcDbLine
10
-37.898048072635696
20
-54.561799430925873
30
0
11
-33.322630450431973
21
-52.786209520887923
31
0
0
ARC
5
196
100
AcDbEntity
8
0
100
AcDbCircle
10
38.000000596046426
20
6.1715729795619314
30
0
40
2.0000000000000195
210
0
220
-0
230
1
100
AcDbArc
50
0
51
44.999999999999787
0
LINE
5
197
100
AcDbEntity
8
0
100
AcDbLine
10
40.000000596046448
20
6.1715729795619403
30
0
11
40.000000596046448
21
3.8284271694496708
31
0
0
ARC
5
198
100
AcDbEntity
8
0
100
AcDbCircle
10
-34.799785901450086
20
-43.784858335442337
30
0
40
5.0000000000000346
210
0
220
0
230
1
100
AcDbArc
50
113.63082653047407
51
142.73359809902286
0
ARC
5
199
100
AcDbEntity
8
0
100
AcDbCircle
10
38.000000596046434
20
-6.1715729795619314
30
0
40
2.000000000000016
210
0
220
0
230
1
100
AcDbArc
50
315.00000000000011
51
360
0
LINE
5
200
100
AcDbEntity
8
0
100
AcDbLine
10
-27.969145040823221
20
-45.926291472244579
30
0
11
-27.56412843285149
21
-43.102977126208273
31
0
0
CIRCLE
5
201
100
AcDbEntity
8
0
100
AcDbCircle
10
-35.605552725666207
20
-41.540929929184962
30
0
40
1.05
210
0
220
0
230
1
0
LINE
5
202
100
AcDbEntity
8
0
100
AcDbLine
10
33.322630450439206
20
-52.786209520911029
30
0
11
37.8980480726376
21
-54.561799430945761
31
0
0
CIRCLE
5
203
100
AcDbEntity
8
0
100
AcDbCircle
10
37.000000551342964
20
6.0000000894069672
30
0
40
1.05
210
0
220
0
230
1
0
ARC
5
204
100
AcDbEntity
8
0
100
AcDbCircle
10
34.331371357948555
20
9.8000001326998323
30
0
40
0.79999999999998461
210
0
220
0
230
1
100
AcDbArc
50
224.99999999999977
51
269.99999975609927
0
ARC
5
205
100
AcDbEntity
8
0
100
AcDbCircle
10
-4.163336342344337e-15
20
-21.920310216782966
30
0
40
2.0000000000000022
210
0
220
0
230
1
100
AcDbArc
50
224.99999999999997
51
315
0
LINE
5
206
100
AcDbEntity
8
0
100
AcDbLine
10
16.045350330665652
20
14.172725524877379
30
0
11
32.142750185764115
21
36.410965770845081
31
0
0
LINE
5
207
100
AcDbEntity
8
0
100
AcDbLine
10
-51.667927268522462
20
11.000000000000021
30
0
11
-34.999999999999986
21
11.000000000000018
31
0
0
LINE
5
208
100
AcDbEntity
8
0
100
AcDbLine
10
30.734315008975045
20
9.2343146886000831
30
0
11
31.265685894335817
21
9.7656855739608517
31
0
0
LINE
5
209
100
AcDbEntity
8
0
100
AcDbLine
10
41.055218324834385
20
-53.958286941227776
30
0
11
41.310469930112134
21
-53.764073763298967
31
0
0
ARC
5
210
100
AcDbEntity
8
0
100
AcDbCircle
10
34.79978590145209
20
-43.784858335466012
30
0
40
4.9999999999999982
210
0
220
-0
230
1
100
AcDbArc
50
37.266401900989422
51
66.369173469476664
0
CIRCLE
5
211
100
AcDbEntity
8
0
100
AcDbCircle
10
-39.459070070814988
20
-46.605552725666215
30
0
40
1.05
210
0
220
0
230
1
0
LWPOLYLINE
5
212
100
AcDbEntity
8
0
100
AcDbPolyline
90
15
70
1
43
0.0
10
-25.785785886283939
20
7.0000001043081328
10
-23.200000348687169
20
7.0000001043081328
10
-21.414213875297481
20
7.0000001043081355
42
-0.19891236737965245
10
-20.707107094110931
20
6.7071068854946825
10
-20.292893516836674
20
6.2928933082204228
42
-0.19891236737965443
10
-20.000000298023224
20
5.5857865270338758
10
-20.00000029802322
20
2.4142135921754231
42
-0.19891236737965962
10
-20.292893516836678
20
1.7071068109888721
10
-20.707107094110935
20
1.2928932337146168
42
-0.19891236737965995
10
-21.414213875297481
20
1.0000000149011656
10
-24.239145788162286
20
1.0000000149011656
42
-0.27603881469567798
10
-24.94370159829316
20
1.4210526433430217
42
0.14700991408441999
10
-26.164733254704991
20
2.6420842943181162
42
-0.27603881589364171
10
-26.58578588628394
20
3.3466401061362849
10
-26.58578588628394
20
6.2000001043081348
42
-0.41421356237309748
0
CIRCLE
5
213
100
AcDbEntity
8
0
100
AcDbCircle
10
39.459070070815173
20
-46.605552725685783
30
0
40
1.05
210
0
220
0
230
1
0
CIRCLE
5
214
100
AcDbEntity
8
0
100
AcDbCircle
10
35.605552725665319
20
-41.540929929205376
30
0
40
1.05
210
0
220
0
230
1
0
ARC
5
215
100
AcDbEntity
8
0
100
AcDbCircle
10
37.012860386217838
20
-46.693470515442641
30
0
40
5.0000000000000444
210
0
220
-0
230
1
100
AcDbArc
50
5.7426254102128276
51
37.266401900989102
0
ARC
5
216
100
AcDbEntity
8
0
100
AcDbCircle
10
39.493904432661864
20
-51.376587680936787
30
0
40
2.9999999999999765
210
0
220
0
230
1
100
AcDbArc
50
-52.733598099010926
51
5.7426254102127645
0
ARC
5
217
100
AcDbEntity
8
0
100
AcDbCircle
10
36.192993113133333
20
-33.479151958679736
30
0
40
5.0000000000001563
210
0
220
0
230
1
100
AcDbArc
50
215.89932138013779
51
246.36917346947618
0
CIRCLE
5
218
100
AcDbEntity
8
0
100
AcDbCircle
10
34.394447274334759
20
-50.459070070835651
30
0
40
1.05
210
0
220
0
230
1
0
ARC
5
219
100
AcDbEntity
8
0
100
AcDbCircle
10
22.614795592219107
20
-43.812980247786832
30
0
40
4.9999999999999343
210
0
220
-0
230
1
100
AcDbArc
50
8.1636303324509907
51
38.683828317363087
0
LINE
5
220
100
AcDbEntity
8
0
100
AcDbLine
10
-51.818713731221713
20
-11.000000155494163
30
0
11
-34.999999999999986
21
-10.999999999999988
31
0
0
ARC
5
221
100
AcDbEntity
8
0
100
AcDbCircle
10
32.668629641839843
20
9.200000149011613
30
0
40
0.80000000000000027
210
0
220
-0
230
1
100
AcDbArc
50
45
51
90
0
LINE
5
222
100
AcDbEntity
8
0
100
AcDbLine
10
16.045350371947322
20
-14.17272558195188
30
0
11
32.142750185774744
21
-36.410965770875741
31
0
0
LINE
5
223
100
AcDbEntity
8
0
100
AcDbLine
10
27.564128432852289
20
-43.102977126223827
30
0
11
27.969145040822756
21
-45.92629147224703
31
0
0
LINE
5
224
100
AcDbEntity
8
0
100
AcDbLine
10
6.059675347542993
20
-18.689061993986162
30
0
11
1.4142135623730923
21
-23.334523779156061
31
0
0
LINE
5
225
100
AcDbEntity
8
0
100
AcDbLine
10
24.171573230717051
20
-11.000000151845434
30
0
11
17.665447572023851
21
-11.000000057073528
31
0
0
ARC
5
226
100
AcDbEntity
8
0
100
AcDbCircle
10
38.983401222106316
20
-51.765014036794398
30
0
40
3.000000000000008
210
0
220
0
230
1
100
AcDbArc
50
248.79017839176626
51
307.26640190098925
0
LINE
5
227
100
AcDbEntity
8
0
100
AcDbLine
10
36.803995902183679
20
-39.204122338601806
30
0
11
34.188783112401644
21
-38.05988795554407
31
0
0
CIRCLE
5
228
100
AcDbEntity
8
0
100
AcDbCircle
10
35.000000000000036
20
-46.000000000020492
30
0
40
2.2500000000000018
210
0
220
0
230
1
0
CIRCLE
5
229
100
AcDbEntity
8
0
100
AcDbCircle
10
18.031222920256962
20
-1.1102230246251565e-15
30
0
40
1.05
210
0
220
0
230
1
0
ARC
5
230
100
AcDbEntity
8
0
100
AcDbCircle
10
-51.999964792805493
20
3.0916903133321814
30
0
40
2.9999999999998614
210
0
220
0
230
1
100
AcDbArc
50
146.31036705008634
51
180.00020211907747
0
LINE
5
231
100
AcDbEntity
8
0
100
AcDbLine
10
40.99200385682154
20
-43.66586135302547
30
0
11
38.778929372055735
21
-40.757249173048848
31
0
0
ARC
5
232
100
AcDbEntity
8
0
100
AcDbCircle
10
35.131552366220369
20
-48.124900530658799
30
0
40
4.9999999999999654
210
0
220
0
230
1
100
AcDbArc
50
217.26640190098937
51
248.79017839176649
0
LINE
5
233
100
AcDbEntity
8
0
100
AcDbLine
10
28.939334410852361
20
-48.243897513101182
30
0
11
31.152408895616745
21
-51.152509693075942
31
0
0
LINE
5
234
100
AcDbEntity
8
0
100
AcDbLine
10
42.478848648568324
20
-51.076407688388237
30
0
11
41.987767412728687
21
-46.19317052786171
31
0
0
CIRCLE
5
235
100
AcDbEntity
8
0
100
AcDbCircle
10
-27.585785886283944
20
-1.4675058771082038e-14
30
0
40
1.0500000000000016
210
0
220
0
230
1
0
ARC
5
236
100
AcDbEntity
8
0
100
AcDbCircle
10
32.918477881456056
20
-45.216288350683989
30
0
40
5.0000000000000533
210
0
220
0
230
1
100
AcDbArc
50
188.16363033245122
51
217.26640190098934
0
CIRCLE
5
237
100
AcDbEntity
8
0
100
AcDbCircle
10
30.540929929184891
20
-45.394447274355223
30
0
40
1.05
210
0
220
0
230
1
0
LINE
5
238
100
AcDbEntity
8
0
100
AcDbLine
10
-41.98776741272858
20
-46.193170527842689
30
0
11
-42.478848648567151
21
-51.076407688369329
31
0
0
LINE
5
239
100
AcDbEntity
8
0
100
AcDbLine
10
-53.000000864267349
20
7.0000001043081284
30
0
11
-51.800000864267346
21
7.0000001043081284
31
0
0
ARC
5
240
100
AcDbEntity
8
0
100
AcDbCircle
10
-51.000000834465027
20
9.100000104308128
30
0
40
0.80000000000000071
210
0
220
0
230
1
100
AcDbArc
50
0
51
180
0
LINE
5
241
100
AcDbEntity
8
0
100
AcDbLine
10
-53.000000864267349
20
9.600000104308128
30
0
11
-53.000000864267349
21
9.6429689754821091
31
0
0
ARC
5
242
100
AcDbEntity
8
0
100
AcDbCircle
10
-51.818713734785035
20
-10.500000155494176
30
0
40
0.49999999999998701
210
0
220
0
230
1
100
AcDbArc
50
225.8465143435858
51
270.00000040832663
0
LINE
5
243
100
AcDbEntity
8
0
100
AcDbLine
10
-1.4142135623731009
20
-23.334523779156061
30
0
11
-6.0596753475294989
21
-18.689061993999665
31
0
0
ARC
5
244
100
AcDbEntity
8
0
100
AcDbCircle
10
7.4738889099160879
20
-20.103275556359257
30
0
40
2.0000000000000009
210
0
220
-0
230
1
100
AcDbArc
50
38.68382831736276
51
135
0
ARC
5
245
100
AcDbEntity
8
0
100
AcDbCircle
10
15.200000238418578
20
-1.8000000149011535
30
0
40
0.80000000000000071
210
0
220
-0
230
1
100
AcDbArc
50
89.799658350344501
51
90
0
ARC
5
246
100
AcDbEntity
8
0
100
AcDbCircle
10
-35.131552366214144
20
-48.124900530636097
30
0
40
4.9999999999999485
210
0
220
0
230
1
100
AcDbArc
50
291.20982160824605
51
322.73359809889359
0
ARC
5
247
100
AcDbEntity
8
0
100
AcDbCircle
10
-52.500000864267349
20
-9.6000001043081298
30
0
40
0.50000000000000155
210
0
220
-0
230
1
100
AcDbArc
50
90
51
180
0
ARC
5
248
100
AcDbEntity
8
0
100
AcDbCircle
10
6.0000000745058006
20
-2.5400651222330684
30
0
40
0.99999999999999245
210
0
220
0
230
1
100
AcDbArc
50
226.67797048473173
51
229.39870535499583
0
LINE
5
249
100
AcDbEntity
8
0
100
AcDbLine
10
-54.999942979893916
20
-3.0917178085874775
30
0
11
-54.999953886407468
21
2.2204460492503131e-14
31
0
0
LINE
5
250
100
AcDbEntity
8
0
100
AcDbLine
10
-50.20000083446503
20
-9.100000104308128
30
0
11
-50.200000864267345
21
-7.0000001043081284
31
0
0
ARC
5
251
100
AcDbEntity
8
0
100
AcDbCircle
10
-51.000000834465027
20
-9.100000104308128
30
0
40
0.80000000000000071
210
0
220
0
230
1
100
AcDbArc
50
-180
51
0
0
ARC
5
252
100
AcDbEntity
8
0
100
AcDbCircle
10
5.7528081045089525
20
-11.832978616240011
30
0
40
1.0000000000000058
210
-0
220
0
230
1
100
AcDbArc
50
315.00000000000028
51
319.21919539424533
0
ARC
5
253
100
AcDbEntity
8
0
100
AcDbCircle
10
-52.500000864267371
20
9.6429689754821215
30
0
40
0.4999999999999799
210
0
220
0
230
1
100
AcDbArc
50
135.84651434358494
51
180
0
ARC
5
254
100
AcDbEntity
8
0
100
AcDbCircle
10
-36.192993113131934
20
-33.479151958658974
30
0
40
5.0000000000001616
210
-0
220
0
230
1
100
AcDbArc
50
293.63082653047439
51
324.10067861989444
0
ARC
5
255
100
AcDbEntity
8
0
100
AcDbCircle
10
-52.500000864267349
20
-9.8385526520249318
30
0
40
0.49999999999999822
210
0
220
0
230
1
100
AcDbArc
50
180
51
225.84651434358648
0
CIRCLE
5
256
100
AcDbEntity
8
0
100
AcDbCircle
10
-1.1102230246251565e-15
20
-18.031222920256962
30
0
40
1.05
210
0
220
0
230
1
0
ARC
5
257
100
AcDbEntity
8
0
100
AcDbCircle
10
7.4738889099075747
20
20.103275556367777
30
0
40
1.9999999999999998
210
0
220
0
230
1
100
AcDbArc
50
225.00000000000006
51
321.31617168259567
0
LINE
5
258
100
AcDbEntity
8
0
100
AcDbLine
10
33.765685931588713
20
-9.2343147091612128
30
0
11
33.234315066789087
21
-9.7656855739608481
31
0
0
LINE
5
259
100
AcDbEntity
8
0
100
AcDbLine
10
-40.992003856821995
20
43.66586135298445
30
0
11
-38.778929372062045
21
40.757249173013648
31
0
0
LINE
5
260
100
AcDbEntity
8
0
100
AcDbLine
10
-41.055218324832595
20
53.958286941188106
30
0
11
-40.799966719554774
21
54.15250011911688
31
0
0
ARC
5
261
100
AcDbEntity
8
0
100
AcDbCircle
10
-32.918477881455424
20
45.21628835066138
30
0
40
4.999999999999897
210
0
220
-0
230
1
100
AcDbArc
50
8.163630332464475
51
37.266401901119067
0
ARC
5
262
100
AcDbEntity
8
0
100
AcDbCircle
10
-37.012860386217248
20
46.693470515400442
30
0
40
5.0000000000001705
210
0
220
0
230
1
100
AcDbArc
50
185.74262541020181
51
217.26640190097106
0
LWPOLYLINE
5
263
100
AcDbEntity
8
0
100
AcDbPolyline
90
12
70
1
43
0.0
10
-1.0000000149011581
20
14.668629373618941
42
0.19891236737965673
10
-1.2343145899519199
20
15.23431479856818
10
-1.7656854547515555
20
15.765685663367817
42
0.19891236737965828
10
-2.3313708797007946
20
16.000000238418579
10
-2.6686290481307076
20
16.000000238418579
42
0.1989123867430847
10
-3.2343145152267905
20
15.765685621220968
10
-6.5679317344632837
20
12.43206790523679
42
0.33821327187381967
10
-6.696840781294247
20
11.469471372147019
10
-3.2303365299470981
20
5.4030889242184257
42
0.26914263606158384
10
-2.5357420160200528
20
5.000000074505806
10
-1.800000014901161
20
5.0000000745058051
42
0.41421356237309576
10
-1.000000014901161
20
5.8000000745058058
0
LINE
5
264
100
AcDbEntity
8
0
100
AcDbLine
10
-42.478848648567116
20
51.07640768834883
30
0
11
-41.98776741272831
21
46.193170527820456
31
0
0
CIRCLE
5
265
100
AcDbEntity
8
0
100
AcDbCircle
10
-34.999999999999979
20
46.000000000000014
30
0
40
2.2500000000000022
210
0
220
0
230
1
0
LINE
5
266
100
AcDbEntity
8
0
100
AcDbLine
10
-37.89804807263571
20
54.561799430905431
30
0
11
-33.322630450432833
21
52.786209520867885
31
0
0
ARC
5
267
100
AcDbEntity
8
0
100
AcDbCircle
10
30.16862960458694
20
-9.8000001341104479
30
0
40
0.79999999999999716
210
0
220
-0
230
1
100
AcDbArc
50
45
51
90
0
ARC
5
268
100
AcDbEntity
8
0
100
AcDbCircle
10
-35.131552366215018
20
48.124900530615946
30
0
40
5.0000000000000586
210
0
220
-0
230
1
100
AcDbArc
50
37.266401901118826
51
68.790178391754296
0
LINE
5
269
100
AcDbEntity
8
0
100
AcDbLine
10
32.66862964183985
20
-10.000000149011612
30
0
11
31.831371319285054
21
-10.000000149011612
31
0
0
ARC
5
270
100
AcDbEntity
8
0
100
AcDbCircle
10
27.828427513576543
20
10.999999968342841
30
0
40
2.0000000000000142
210
0
220
0
230
1
100
AcDbArc
50
225.00000000000014
51
270.00000093375752
0
ARC
5
271
100
AcDbEntity
8
0
100
AcDbCircle
10
-36.192993113126477
20
33.479151958651478
30
0
40
5.0000000000001474
210
0
220
-0
230
1
100
AcDbArc
50
35.899321380105363
51
66.369173469724373
0
ARC
5
272
100
AcDbEntity
8
0
100
AcDbCircle
10
32.668629641839843
20
-9.2000001490116041
30
0
40
0.80000000000000848
210
-0
220
0
230
1
100
AcDbArc
50
270.00000000000051
51
315
0
ARC
5
273
100
AcDbEntity
8
0
100
AcDbCircle
10
-22.614795592218755
20
43.81298024777125
30
0
40
5.0000000000001172
210
0
220
0
230
1
100
AcDbArc
50
188.16363033246489
51
218.68382831742079
0
LINE
5
274
100
AcDbEntity
8
0
100
AcDbLine
10
-34.188783112414633
20
38.059887955524481
30
0
11
-36.803995902169191
21
39.204122338556694
31
0
0
LWPOLYLINE
5
275
100
AcDbEntity
8
0
100
AcDbPolyline
90
10
70
1
43
0.0
10
-15.557771114818539
20
7.2211146661081465
10
-12.498175178500073
20
8.7509126342673742
42
-0.30101229094668019
10
-11.621433129384929
20
8.6441967366104606
10
-5.2810289017906253
20
3.2395527161788333
42
-0.21965975154106099
10
-5.0000000745058051
20
2.6307268610358121
10
-5.000000074505806
20
1.800000014901161
42
-0.4142135623730957
10
-5.8000000745058058
20
1.0000000149011614
10
-15.200000238418578
20
1.0000000149011616
42
-0.41421356237309481
10
-16.000000238418579
20
1.8000000149011619
10
-16.000000238418576
20
6.5055729133082094
42
-0.2840790438404095
0
LINE
5
276
100
AcDbEntity
8
0
100
AcDbLine
10
37.171573422404634
20
9.0000001206094495
30
0
11
34.331371354543059
21
9.0000001326998476
31
0
0
ARC
5
277
100
AcDbEntity
8
0
100
AcDbCircle
10
-38.983401222104995
20
51.76501403675428
30
0
40
3.0000000000000155
210
0
220
-0
230
1
100
AcDbArc
50
68.790178391754694
51
127.26640190097679
0
ARC
5
278
100
AcDbEntity
8
0
100
AcDbCircle
10
37.171573454998928
20
7.0000001206094371
30
0
40
2.0000000000000142
210
0
220
-0
230
1
100
AcDbArc
50
45.00000000000022
51
90.000000933757732
0
ARC
5
279
100
AcDbEntity
8
0
100
AcDbCircle
10
31.831371319285054
20
-9.2000001490116201
30
0
40
0.79999999999999249
210
0
220
0
230
1
100
AcDbArc
50
224.99999999999963
51
270
0
LINE
5
280
100
AcDbEntity
8
0
100
AcDbLine
10
33.765685932999325
20
9.234314707750606
30
0
11
33.23431506678908
21
9.7656855739608499
31
0
0
CIRCLE
5
281
100
AcDbEntity
8
0
100
AcDbCircle
10
-35.605552725667998
20
41.54092992916474
30
0
40
1.05
210
0
220
0
230
1
0
ARC
5
282
100
AcDbEntity
8
0
100
AcDbCircle
10
-39.493904432660649
20
51.376587680896819
30
0
40
2.9999999999999361
210
0
220
0
230
1
100
AcDbArc
50
127.26640190097659
51
185.74262541020207
0
LINE
5
283
100
AcDbEntity
8
0
100
AcDbLine
10
-6.0596753475295095
20
18.689061993999644
30
0
11
-1.4142135623730903
21
23.334523779156061
31
0
0
ARC
5
284
100
AcDbEntity
8
0
100
AcDbCircle
10
-5.7528081045089454
20
-11.832978616240013
30
0
40
1.000000000000004
210
0
220
0
230
1
100
AcDbArc
50
220.78080460575481
51
224.99999999999997
0
ARC
5
285
100
AcDbEntity
8
0
100
AcDbCircle
10
27.828427527077558
20
-11.000000134110481
30
0
40
2.0000000000000329
210
0
220
0
230
1
100
AcDbArc
50
90.000000000000398
51
134.99999999999969
0
CIRCLE
5
286
100
AcDbEntity
8
0
100
AcDbCircle
10
-39.459070070815109
20
46.605552725644799
30
0
40
1.05
210
0
220
0
230
1
0
ARC
5
287
100
AcDbEntity
8
0
100
AcDbCircle
10
38.000000596046426
20
3.8284271694496796
30
0
40
2.0000000000000204
210
0
220
0
230
1
100
AcDbArc
50
315.00000000000017
51
360
0
ARC
5
288
100
AcDbEntity
8
0
100
AcDbCircle
10
-17.665447501610036
20
13.000000000000016
30
0
40
2.0000000000000018
210
0
220
0
230
1
100
AcDbArc
50
-89.999999999999901
51
35.8993213801051
0
LINE
5
289
100
AcDbEntity
8
0
100
AcDbLine
10
-28.939334410858706
20
48.243897513087489
30
0
11
-31.152408895618162
21
51.152509693042134
31
0
0
CIRCLE
5
290
100
AcDbEntity
8
0
100
AcDbCircle
10
-34.394447274334695
20
50.459070070794645
30
0
40
1.05
210
0
220
0
230
1
0
LINE
5
291
100
AcDbEntity
8
0
100
AcDbLine
10
-34.999999999999986
20
11.000000000000018
30
0
11
-17.665447501610032
21
11.000000000000014
31
0
0
ARC
5
292
100
AcDbEntity
8
0
100
AcDbCircle
10
-17.66544750161006
20
-12.999999999999988
30
0
40
2
210
-0
220
0
230
1
100
AcDbArc
50
-35.899321380104929
51
90
0
LINE
5
293
100
AcDbEntity
8
0
100
AcDbLine
10
-27.564128432851945
20
43.102977126207016
30
0
11
-27.969145040822447
21
45.926291472225543
31
0
0
LINE
5
294
100
AcDbEntity
8
0
100
AcDbLine
10
-34.999999999999986
20
-10.999999999999988
30
0
11
-17.66544750161006
21
-10.999999999999988
31
0
0
LINE
5
295
100
AcDbEntity
8
0
100
AcDbLine
10
37.70710733252951
20
0.70710678118654791
30
0
11
39.41421415841954
21
2.414213607076575
31
0
0
ARC
5
296
100
AcDbEntity
8
0
100
AcDbCircle
10
-38.983401222105016
20
-51.76501403677478
30
0
40
2.9999999999999809
210
0
220
0
230
1
100
AcDbArc
50
232.73359809902257
51
291.20982160824633
0
ARC
5
297
100
AcDbEntity
8
0
100
AcDbCircle
10
-7.4738889099026053
20
20.103275556372747
30
0
40
2.0000000000000044
210
0
220
0
230
1
100
AcDbArc
50
218.68382831742142
51
314.99999999999983
0
ARC
5
298
100
AcDbEntity
8
0
100
AcDbCircle
10
30.168629584025815
20
9.8000001135493147
30
0
40
0.79999999999999116
210
-0
220
0
230
1
100
AcDbArc
50
270.00000355512833
51
314.99999999999989
0
CIRCLE
5
299
100
AcDbEntity
8
0
100
AcDbCircle
10
37.000000551342964
20
-6.0000000894069672
30
0
40
1.05
210
0
220
0
230
1
0
ARC
5
300
100
AcDbEntity
8
0
100
AcDbCircle
10
-32.918477881456425
20
-45.216288350682703
30
0
40
4.9999999999997966
210
0
220
0
230
1
100
AcDbArc
50
322.73359809889297
51
351.83636966756183
0
ARC
5
301
100
AcDbEntity
8
0
100
AcDbCircle
10
38.000000596046426
20
-3.8284271694496819
30
0
40
2.0000000000000195
210
0
220
-0
230
1
100
AcDbArc
50
0
51
44.999999999999801
0
LINE
5
302
100
AcDbEntity
8
0
100
AcDbLine
10
39.41421415841954
20
7.5857865419350343
30
0
11
38.585787017372027
21
8.4142136829825471
31
0
0
CIRCLE
5
303
100
AcDbEntity
8
0
100
AcDbCircle
10
-34.999999999999972
20
-45.999999999999979
30
0
40
2.2500000000000004
210
0
220
0
230
1
0
LINE
5
304
100
AcDbEntity
8
0
100
AcDbLine
10
31.831371319285054
20
10.000000149011612
30
0
11
32.668629641839843
21
10.000000149011614
31
0
0
LINE
5
305
100
AcDbEntity
8
0
100
AcDbLine
10
30.168629633664771
20
9.0000001135493246
30
0
11
27.828427546170829
21
8.9999999683428307
31
0
0
LINE
5
306
100
AcDbEntity
8
0
100
AcDbLine
10
39.41421415841954
20
-2.4142136070765781
30
0
11
37.707107332529517
21
-0.70710678118654857
31
0
0
LINE
5
307
100
AcDbEntity
8
0
100
AcDbLine
10
40.000000596046448
20
-3.8284271694496734
30
0
11
40.000000596046448
21
-6.1715729795619358
31
0
0
CIRCLE
5
308
100
AcDbEntity
8
0
100
AcDbCircle
10
-30.540929929182099
20
45.394447274334354
30
0
40
1.05
210
0
220
0
230
1
0
LINE
5
309
100
AcDbEntity
8
0
100
AcDbLine
10
-34.188783112404195
20
-38.059887955525035
30
0
11
-36.803995902177746
21
-39.204122338576383
31
0
0
ARC
5
310
100
AcDbEntity
8
0
100
AcDbCircle
10
-6.000000074505798
20
2.5400651222330728
30
0
40
0.99999999999999245
210
0
220
-0
230
1
100
AcDbArc
50
46.677970484731809
51
49.398705354995869
0
ARC
5
311
100
AcDbEntity
8
0
100
AcDbCircle
10
-6.000000074505798
20
-2.5400651222330728
30
0
40
0.99999999999999545
210
-0
220
0
230
1
100
AcDbArc
50
310.60129464500415
51
313.32202951526818
0
ARC
5
312
100
AcDbEntity
8
0
100
AcDbCircle
10
37.171573441497934
20
-7.0000001341104623
30
0
40
1.9999999999999907
210
-0
220
0
230
1
100
AcDbArc
50
270.00000000000023
51
315.00000000000034
0
ARC
5
313
100
AcDbEntity
8
0
100
AcDbCircle
10
31.831371319285054
20
9.2000001490116148
30
0
40
0.79999999999999627
210
0
220
-0
230
1
100
AcDbArc
50
90
51
135
0
LINE
5
314
100
AcDbEntity
8
0
100
AcDbLine
10
38.585787003871033
20
-8.414213696483543
30
0
11
39.41421415841954
21
-7.5857865419350334
31
0
0
ARC
5
315
100
AcDbEntity
8
0
100
AcDbCircle
10
-39.493904432660614
20
-51.376587680917247
30
0
40
2.9999999999999938
210
0
220
0
230
1
100
AcDbArc
50
174.25737458979938
51
232.73359809902291
0
LINE
5
316
100
AcDbEntity
8
0
100
AcDbLine
10
41.987767412729426
20
46.193170527839925
30
0
11
42.478848648567947
21
51.076407688346954
31
0
0
LINE
5
317
100
AcDbEntity
8
0
100
AcDbLine
10
31.152408895615089
20
51.152509693036812
30
0
11
28.939334410857597
21
48.243897513083965
31
0
0
ARC
5
318
100
AcDbEntity
8
0
100
AcDbCircle
10
32.918477881454763
20
45.216288350658346
30
0
40
4.9999999999999654
210
0
220
0
230
1
100
AcDbArc
50
142.73359809888851
51
171.83636966752402
0
LINE
5
319
100
AcDbEntity
8
0
100
AcDbLine
10
9.0351026107695738
20
18.853230845071106
30
0
11
26.517829844373196
21
40.687868469530812
31
0
0
LWPOLYLINE
5
320
100
AcDbEntity
8
0
100
AcDbPolyline
90
8
70
1
43
0.0
10
11.000000014901161
20
-92.200000119209292
42
0.41421356237309587
10
11.800000014901162
20
-93.00000011920929
10
14.200000074505805
20
-93.00000011920929
42
0.41421356237309587
10
15.000000074505806
20
-92.200000119209292
10
15.000000074505806
20
-87.80000002980232
42
0.41421356237309503
10
14.200000074505805
20
-87.000000029802322
10
11.800000014901162
20
-87.000000029802322
42
0.41421356237309503
10
11.000000014901161
20
-87.80000002980232
0
LWPOLYLINE
5
321
100
AcDbEntity
8
0
100
AcDbPolyline
90
77
70
1
43
0.0
10
3.1686290810164452
20
-96.000000162565172
42
0.19891235197765417
10
3.7343144733942371
20
-95.765685623339238
10
4.2656854757992919
20
-95.234314688237561
42
-0.19891235092074416
10
4.8313708649237075
20
-95.000000149011612
10
13.000000044703484
20
-95.000000149011612
10
21.168629224483261
20
-95.000000149011612
42
-0.19891235092074394
10
21.734314613607676
20
-95.234314688237561
10
22.265685617017716
20
-95.765685624344229
42
0.19891235118944969
10
22.831371006969263
20
-96.000000163570164
10
34.171573230717051
20
-96.000000151845427
42
0.19891237116538496
10
35.58578682222327
20
-95.414213714218533
10
36.414213964704452
20
-94.585786571737373
42
-0.19891236737965476
10
37.828427527077544
20
-94.000000134110451
10
40.16862960458694
20
-94.000000134110437
42
-0.19891236737966214
10
40.734315029536177
20
-94.234314709161211
10
41.265685894335817
20
-94.765685573960852
42
0.19891236737965801
10
41.831371319285054
20
-95.000000149011612
10
42.668629641839843
20
-95.000000149011612
42
0.19891236737966209
10
43.23431506678908
20
-94.765685573960852
10
43.76568593158872
20
-94.234314709161211
42
-0.19891236737965384
10
44.331371356537957
20
-94.000000134110451
10
47.171573441497934
20
-94.000000134110451
42
0.19891236737965801
10
48.585787003871026
20
-93.414213696483557
10
49.414214158419547
20
-92.585786541935022
42
0.19891236737965634
10
50.000000596046448
20
-91.171572979561944
10
50.000000596046448
20
-88.828427169449668
42
0.19891236737965554
10
49.414214158419547
20
-87.41421360707659
10
47.70710733252951
20
-85.707106781186553
42
-0.41421356237309503
10
47.70710733252951
20
-84.292893218813447
10
49.414214158419547
20
-82.58578639292341
42
0.19891236737965554
10
50.000000596046448
20
-81.171572830550332
10
50.000000596046448
20
-78.828427020438056
42
0.19891236737965554
10
49.414214158419547
20
-77.414213458064978
10
48.585787017372027
20
-76.585786317017451
42
0.19891237161514741
10
47.171573422404634
20
-75.999999879390558
10
44.331371354543059
20
-75.999999867300147
42
-0.19891236627333078
10
43.765685932999325
20
-75.765685292249401
10
43.23431506678908
20
-75.234314426039148
42
0.19891236737966209
10
42.668629641839843
20
-74.999999850988388
10
41.831371319285054
20
-74.999999850988388
42
0.19891236737966209
10
41.265685894335817
20
-75.234314426039148
10
40.734315008975045
20
-75.765685311399935
42
-0.19891235125372436
10
40.168629633664771
20
-75.999999886450681
10
37.828427546170829
20
-76.000000031657166
42
-0.19891237161514683
10
36.414213951203443
20
-75.414213594030258
10
35.585786794800057
20
-74.585786437626894
42
0.19891236737965981
10
34.171573232426965
20
-73.999999999999972
10
22.831370745590377
20
-73.999999999999972
42
0.19891236737965243
10
22.26568532064114
20
-74.234314575050732
10
21.734314619754251
20
-74.765685275937628
42
-0.19891236737965801
10
21.168629194805007
20
-74.999999850988388
10
4.8313707679420865
20
-74.999999850988388
42
-0.19891236737965684
10
4.2656853429928514
20
-74.765685275937628
10
3.7343144802606876
20
-74.234314413205453
42
0.19891236900115619
10
3.1686290503201264
20
-73.999999838154693
10
-22.771628554055052
20
-73.999999999999972
42
0.19891236737965387
10
-23.337313979004293
20
-74.234314575050732
10
-23.868684828902769
20
-74.765685424949197
42
0.19891236737964818
10
-24.102999403953529
20
-75.331370849898448
10
-24.102999403953529
20
-75.499999999999972
42
0.41421356237309503
10
-23.702999403953527
20
-75.899999999999963
10
-23.16979940395353
20
-75.899999999999949
42
-0.99999999999999989
10
-21.569799403953528
20
-75.899999999999977
10
-21.569799403953528
20
-77.999999895691872
42
-0.99999999999999989
10
-23.16979940395353
20
-77.999999895691872
10
-24.102999403953529
20
-77.999999895691872
10
-24.10299940395354
20
-92.000000057073521
10
-23.16979940395354
20
-92.000000057073521
42
-0.99999999999999989
10
-21.569799403953539
20
-92.000000057073521
10
-21.569799403953539
20
-94.10000005707353
42
-0.99999999999999989
10
-23.16979940395354
20
-94.10000005707353
10
-23.702999403953537
20
-94.10000005707353
42
0.41421356237309503
10
-24.10299940395354
20
-94.500000057073521
10
-24.10299940395354
20
-94.668629207175059
42
0.19891236737965803
10
-23.868684828902779
20
-95.234314632124295
10
-23.3373139790043
20
-95.765685482022761
42
0.19891236737965801
10
-22.771628554055063
20
-96.000000057073521
0
LWPOLYLINE
5
322
100
AcDbEntity
8
0
100
AcDbPolyline
90
8
70
1
43
0.0
10
7.1999999701976769
20
-93.00000011920929
10
3.7999998956918724
20
-93.00000011920929
42
-0.41421356237309626
10
2.9999998956918708
20
-92.200000119209292
10
2.9999998956918694
20
-87.80000002980232
42
-0.41421356237309548
10
3.7999998956918715
20
-87.000000029802322
10
7.1999999701976778
20
-87.000000029802322
42
-0.41421356237309503
10
7.9999999701976776
20
-87.80000002980232
10
7.9999999701976794
20
-92.200000119209292
42
-0.41421356237309587
0
LWPOLYLINE
5
323
100
AcDbEntity
8
0
100
AcDbPolyline
90
8
70
1
43
0.0
10
7.1999999701976769
20
-82.999999970197678
42
0.41421356237309548
10
7.9999999701976776
20
-82.19999997019768
10
7.9999999701976776
20
-77.799999880790708
42
0.41421356237309587
10
7.1999999701976769
20
-76.99999988079071
10
3.7999998956918715
20
-76.99999988079071
42
0.41421356237309548
10
2.9999998956918716
20
-77.799999880790708
10
2.9999998956918716
20
-82.19999997019768
42
0.41421356237309587
10
3.7999998956918724
20
-82.999999970197678
0
LWPOLYLINE
5
324
100
AcDbEntity
8
0
100
AcDbPolyline
90
8
70
1
43
0.0
10
15.000000074505806
20
-77.799999880790708
42
0.41421356237309587
10
14.200000074505805
20
-76.99999988079071
10
11.800000014901162
20
-76.99999988079071
42
0.41421356237309587
10
11.000000014901161
20
-77.799999880790708
10
11.000000014901161
20
-82.19999997019768
42
0.41421356237309503
10
11.800000014901162
20
-82.999999970197678
10
14.200000074505805
20
-82.999999970197678
42
0.41421356237309503
10
15.000000074505806
20
-82.19999997019768
0
LWPOLYLINE
5
325
100
AcDbEntity
8
0
100
AcDbPolyline
90
13
70
1
43
0.0
10
33.201539989521294
20
-83.865640220569105
10
35.64376054441037
20
-82.237493183976397
42
0.25076489093331467
10
36.000000387430191
20
-81.57185294850612
10
36.000000387430191
20
-78.749999910593033
42
0.41421356237309664
10
35.200000387430194
20
-77.949999910593021
10
30.862445602095345
20
-77.949999910593021
42
0.41421356237309664
10
30.062445602095345
20
-78.749999910593033
10
30.062445602095345
20
-81.999999955296516
10
30.062445602095345
20
-82.465403754866685
42
0.18459837931855722
10
30.266398721708324
20
-82.999002964368444
42
-0.059245229746795393
10
30.673307208247756
20
-83.578947356656968
42
0.27603881469568275
10
31.377863018378637
20
-83.999999985098839
10
32.757779832541111
20
-83.999999985098839
42
0.14806873911203103
0
LWPOLYLINE
5
326
100
AcDbEntity
8
0
100
AcDbPolyline
90
13
70
1
43
0.0
10
35.200000387430194
20
-92.050000089406979
42
0.41421356237309664
10
36.000000387430191
20
-91.250000089406967
10
36.000000387430191
20
-88.42814705149388
42
0.25076489093331467
10
35.64376054441037
20
-87.762506816023603
10
33.201539989521294
20
-86.134359779430895
42
0.14806873911203103
10
32.757779832541111
20
-86.000000014901161
10
31.377863018378637
20
-86.000000014901161
42
0.27603881469568275
10
30.673307208247756
20
-86.421052643343032
42
-0.059245229746795393
10
30.26639872170832
20
-87.000997035631556
42
0.18459837931855722
10
30.062445602095345
20
-87.534596245133315
10
30.062445602095345
20
-88.000000044703484
10
30.062445602095345
20
-91.250000089406967
42
0.41421356237309664
10
30.862445602095345
20
-92.050000089406979
0
CIRCLE
5
327
100
AcDbEntity
8
0
100
AcDbCircle
10
-17.585785886283951
20
-85
30
0
40
1.0499999999999998
210
0
220
0
230
1
0
LWPOLYLINE
5
328
100
AcDbEntity
8
0
100
AcDbPolyline
90
8
70
1
43
0.0
10
-14.59939940395353
20
-75.899999999999949
10
-11.799399403953533
20
-75.899999999999906
42
-0.99999999999999989
10
-10.199399403953532
20
-75.899999999999949
10
-10.199399403953532
20
-77.999999895691801
42
-0.99999999999999989
10
-11.799399403953533
20
-77.999999895691843
10
-14.59939940395353
20
-77.999999895691801
42
-0.99999999999999989
10
-16.199399403953532
20
-77.999999895691872
10
-16.199399403953532
20
-75.899999999999949
42
-0.99999999999999989
0
LWPOLYLINE
5
329
100
AcDbEntity
8
0
100
AcDbPolyline
90
8
70
1
43
0.0
10
22.200000193715095
20
-93.00000011920929
42
0.41421356237309503
10
23.000000193715096
20
-92.200000119209292
10
23.000000193715096
20
-87.80000002980232
42
0.41421356237309503
10
22.200000193715095
20
-87.000000029802322
10
18.80000011920929
20
-87.000000029802322
42
0.41421356237309587
10
18.00000011920929
20
-87.80000002980232
10
18.00000011920929
20
-92.200000119209292
42
0.41421356237309587
10
18.80000011920929
20
-93.00000011920929
0
LWPOLYLINE
5
330
100
AcDbEntity
8
0
100
AcDbPolyline
90
8
70
1
43
0.0
10
-16.199399403953542
20
-94.10000005707353
42
0.99999999999999989
10
-14.599399403953539
20
-94.10000005707353
10
-11.79939940395354
20
-94.10000005707353
42
0.99999999999999989
10
-10.199399403953539
20
-94.10000005707353
10
-10.199399403953539
20
-92.000000104308128
42
1.0000000298023228
10
-11.79939940395354
20
-92.000000057073521
10
-14.599399403953539
20
-92.000000057073521
42
1.0000000298023228
10
-16.199399403953542
20
-92.000000104308128
0
LWPOLYLINE
5
331
100
AcDbEntity
8
0
100
AcDbPolyline
90
8
70
1
43
0.0
10
23.000000193715096
20
-77.799999880790708
42
0.41421356237309503
10
22.200000193715095
20
-76.99999988079071
10
18.80000011920929
20
-76.99999988079071
42
0.41421356237309587
10
18.00000011920929
20
-77.799999880790708
10
18.00000011920929
20
-82.19999997019768
42
0.41421356237309587
10
18.80000011920929
20
-82.999999970197678
10
22.200000193715095
20
-82.999999970197678
42
0.41421356237309503
10
23.000000193715096
20
-82.19999997019768
0
LWPOLYLINE
5
332
100
AcDbEntity
8
0
100
AcDbPolyline
90
13
70
1
43
0.0
10
42.622137786284071
20
-86.000000014901161
10
41.242220972121601
20
-86.000000014901161
42
0.14806873911203242
10
40.798460815141411
20
-86.134359779430895
10
38.356240260252335
20
-87.762506816023603
42
0.25076489093331467
10
38.000000417232513
20
-88.42814705149388
10
38.000000417232513
20
-90.20000008940697
42
0.41421356237309664
10
38.800000417232511
20
-91.000000089406967
10
43.137555202567356
20
-91.000000089406967
42
0.41421356237309503
10
43.93755520256736
20
-90.20000008940697
10
43.93755520256736
20
-88.000000044703484
10
43.93755520256736
20
-87.534596245133315
42
0.18459837931855633
10
43.733602082954377
20
-87.000997035631556
42
-0.059245229746795504
10
43.326693596414941
20
-86.421052643343032
42
0.27603881469568059
0
LWPOLYLINE
5
333
100
AcDbEntity
8
0
100
AcDbPolyline
90
8
70
1
43
0.0
10
-4.8000002086162574
20
-82.999999970197678
42
0.41421356237309503
10
-4.0000002086162567
20
-82.19999997019768
10
-4.0000002086162567
20
-77.799999880790708
42
0.41421356237309587
10
-4.8000002086162574
20
-76.99999988079071
10
-6.2000002533197396
20
-76.99999988079071
42
0.41421356237309587
10
-7.0000002533197403
20
-77.799999880790708
10
-7.0000002533197403
20
-82.19999997019768
42
0.41421356237309503
10
-6.2000002533197396
20
-82.999999970197678
0
LWPOLYLINE
5
334
100
AcDbEntity
8
0
100
AcDbPolyline
90
13
70
1
43
0.0
10
42.622137786284071
20
-83.999999985098839
10
41.242220972121601
20
-83.999999985098839
42
-0.14806873911203244
10
40.798460815141411
20
-83.865640220569105
10
38.356240260252335
20
-82.237493183976383
42
-0.25076489093331461
10
38.000000417232513
20
-81.57185294850612
10
38.000000417232506
20
-79.79999991059303
42
-0.41421356237309664
10
38.800000417232511
20
-78.999999910593033
10
43.137555202567356
20
-78.999999910593033
42
-0.41421356237309503
10
43.93755520256736
20
-79.79999991059303
10
43.93755520256736
20
-81.999999955296516
10
43.93755520256736
20
-82.465403754866685
42
-0.18459837931855635
10
43.733602082954384
20
-82.999002964368444
42
0.059245229746795545
10
43.326693596414955
20
-83.578947356656968
42
-0.27603881469568053
0
LWPOLYLINE
5
335
100
AcDbEntity
8
0
100
AcDbPolyline
90
8
70
1
43
0.0
10
-6.2000002533197396
20
-87.000000029802322
42
0.41421356237309503
10
-7.0000002533197403
20
-87.80000002980232
10
-7.0000002533197403
20
-92.200000119209292
42
0.41421356237309587
10
-6.2000002533197396
20
-93.00000011920929
10
-4.8000002086162574
20
-93.00000011920929
42
0.41421356237309587
10
-4.0000002086162567
20
-92.200000119209292
10
-4.0000002086162567
20
-87.80000002980232
42
0.41421356237309503
10
-4.8000002086162574
20
-87.000000029802322
0
LINE
5
336
100
AcDbEntity
8
0
100
AcDbLine
10
-24.102999403953529
20
-75.331370849898448
30
0
11
-24.102999403953529
21
-75.499999999999972
31
0
0
CIRCLE
5
337
100
AcDbEntity
8
0
100
AcDbCircle
10
47.000000551342964
20
-91.000000089406967
30
0
40
1.05
210
0
220
0
230
1
0
CIRCLE
5
338
100
AcDbEntity
8
0
100
AcDbCircle
10
47.000000551342964
20
-78.999999910593033
30
0
40
1.05
210
0
220
0
230
1
0
LINE
5
339
100
AcDbEntity
8
0
100
AcDbLine
10
-24.10299940395354
20
-94.668629207175059
30
0
11
-24.10299940395354
21
-94.500000057073521
31
0
0
LINE
5
340
100
AcDbEntity
8
0
100
AcDbLine
10
-59.282906747825223
20
-66.887101344249643
30
0
11
-70.270981553083402
21
-90.451103807202529
31
0
0
LINE
5
341
100
AcDbEntity
8
0
100
AcDbLine
10
-46.370400000000004
20
-75
30
0
11
-46.370400000000004
21
-70.546626595105707
31
0
0
LINE
5
342
100
AcDbEntity
8
0
100
AcDbLine
10
-52.815000000000012
20
-95
30
0
11
-49.799999761581439
21
-95
31
0
0
LINE
5
343
100
AcDbEntity
8
0
100
AcDbLine
10
-52.517937721136065
20
-78.553406310546592
30
0
11
-48.003032842565325
21
-77.741046702847228
31
0
0
LINE
5
344
100
AcDbEntity
8
0
100
AcDbLine
10
-40.860000000000021
20
-73.799999672174451
30
0
11
-40.860000000000021
21
-75
31
0
0
LINE
5
345
100
AcDbEntity
8
0
100
AcDbLine
10
-48.999999761581421
20
-94.200000000000003
30
0
11
-48.999999761581421
21
-90.177355655608551
31
0
0
ARC
5
346
100
AcDbEntity
8
0
100
AcDbCircle
10
-49.799999761581439
20
-94.200000000000003
30
0
40
0.80000000000000071
210
0
220
0
230
1
100
AcDbArc
50
-90
51
0
0
ARC
5
347
100
AcDbEntity
8
0
100
AcDbCircle
10
-45.570400000000006
20
-75
30
0
40
0.80000000000000071
210
0
220
0
230
1
100
AcDbArc
50
-180
51
0
0
LWPOLYLINE
5
348
100
AcDbEntity
8
0
100
AcDbPolyline
90
2
70
1
43
0.0
10
-42.460000000000022
20
-75
10
-44.770400000000009
20
-75
0
ARC
5
349
100
AcDbEntity
8
0
100
AcDbCircle
10
-47.861365050309658
20
-78.52840318922263
30
0
40
0.79999999999998828
210
0
220
0
230
1
100
AcDbArc
50
-24.999999999999005
51
100.19999999999995
0
LINE
5
350
100
AcDbEntity
8
0
100
AcDbLine
10
-35
20
-79.331651127093465
30
0
11
-35
21
-75
31
0
0
LINE
5
351
100
AcDbEntity
8
0
100
AcDbLine
10
-35.800000000000018
20
-72.999999672174454
30
0
11
-40.060000000000002
21
-72.999999672174454
31
0
0
ARC
5
352
100
AcDbEntity
8
0
100
AcDbCircle
10
-40.060000000000002
20
-73.799999672174451
30
0
40
0.80000000000000071
210
0
220
-0
230
1
100
AcDbArc
50
90
51
180
0
ARC
5
353
100
AcDbEntity
8
0
100
AcDbCircle
10
-44.646465587721913
20
-82.556777027499621
30
0
40
0.80000000000000449
210
0
220
0
230
1
100
AcDbArc
50
100.24681194009477
51
154.99999999999886
0
LINE
5
354
100
AcDbEntity
8
0
100
AcDbLine
10
-67.2209778709082
20
-97.557270134311096
30
0
11
-70.134991347132967
21
-92.81686307922071
31
0
0
LINE
5
355
100
AcDbEntity
8
0
100
AcDbLine
10
-40.860000000000021
20
-75
30
0
11
-40.860000000000021
21
-74.299999999999997
31
0
0
LWPOLYLINE
5
356
100
AcDbEntity
8
0
100
AcDbPolyline
90
4
70
1
43
0.0
10
-53.574220213582194
20
-76.224542002896555
42
0.9999999925494194
10
-52.686721863926721
20
-74.321295650119595
10
-56.311953012073332
20
-72.630822603156787
42
0.99999999999999989
10
-57.199451361728805
20
-74.534068955933748
0
ARC
5
357
100
AcDbEntity
8
0
100
AcDbCircle
10
-56.291422828956158
20
-87.73683528598751
30
0
40
0.79999999999999571
210
0
220
-0
230
1
100
AcDbArc
50
65.000000000000057
51
209.8000000000001
0
LWPOLYLINE
5
358
100
AcDbEntity
8
0
100
AcDbPolyline
90
4
70
1
43
0.0
10
-60.580397455654392
20
-81.784531252226955
10
-53.891845987323919
20
-84.903454023873323
42
0.99999999999999989
10
-53.004347637668445
20
-83.000207671096362
10
-59.692899105998919
20
-79.88128489944998
42
0.9999999925494194
0
ARC
5
359
100
AcDbEntity
8
0
100
AcDbCircle
10
-35.800000000000018
20
-79.331651127093465
30
0
40
0.80000000000000449
210
0
220
0
230
1
100
AcDbArc
50
-79.753188059905227
51
0
0
LINE
5
360
100
AcDbEntity
8
0
100
AcDbLine
10
-48.253860584182618
20
-81.263073844404289
30
0
11
-47.136318820680344
21
-78.866497798615171
31
0
0
LINE
5
361
100
AcDbEntity
8
0
100
AcDbLine
10
-46.879647056121669
20
-69.80133287741711
30
0
11
-55.983483255120902
21
-65.667343118103815
31
0
0
ARC
5
362
100
AcDbEntity
8
0
100
AcDbCircle
10
-48.199999761581424
20
-90.177355655608551
30
0
40
0.80000000000001181
210
0
220
0
230
1
100
AcDbArc
50
155.00000000000048
51
180
0
LINE
5
363
100
AcDbEntity
8
0
100
AcDbLine
10
-48.925045991210752
20
-89.839261046215995
30
0
11
-45.371511817351248
21
-82.218682418107036
31
0
0
LINE
5
364
100
AcDbEntity
8
0
100
AcDbLine
10
-44.788776620574779
20
-81.769536549673205
30
0
11
-35.657688967147152
21
-80.118891604919881
31
0
0
LINE
5
365
100
AcDbEntity
8
0
100
AcDbLine
10
-35
20
-75
30
0
11
-35
21
-73.799999672174451
31
0
0
ARC
5
366
100
AcDbEntity
8
0
100
AcDbCircle
10
-58.475000000000001
20
-97.200000044703486
30
0
40
0.80000000000000071
210
0
220
0
230
1
100
AcDbArc
50
180
51
270
0
LWPOLYLINE
5
367
100
AcDbEntity
8
0
100
AcDbPolyline
90
4
70
1
43
0.0
10
-52.489969482195988
20
-69.349586663537067
42
0.043660942908512114
10
-56.573388105405833
20
-66.992023822212843
42
0.99999999999999989
10
-57.460886455061278
20
-68.895270174989747
42
-0.043660942908512121
10
-53.694479998533104
20
-71.069805956543831
42
0.99999999999999989
0
LWPOLYLINE
5
368
100
AcDbEntity
8
0
100
AcDbPolyline
90
4
70
1
43
0.0
10
-60.336112401433404
20
-90.725466595482942
42
0.99999999999999989
10
-59.44861405177793
20
-88.822220242705981
10
-63.073845199924534
20
-87.131747195743188
42
0.99999999999999989
10
-63.961343549580008
20
-89.034993548520148
0
ARC
5
369
100
AcDbEntity
8
0
100
AcDbCircle
10
-35.800000000000018
20
-73.799999672174451
30
0
40
0.80000000000001847
210
0
220
-0
230
1
100
AcDbArc
50
0
51
90
0
LINE
5
370
100
AcDbEntity
8
0
100
AcDbLine
10
-59.275000000000006
20
-95
30
0
11
-59.275000000000006
21
-97.200000044703486
31
0
0
LINE
5
371
100
AcDbEntity
8
0
100
AcDbLine
10
-54.415000000000013
20
-97.200000044703486
30
0
11
-54.415000000000013
21
-95
31
0
0
ARC
5
372
100
AcDbEntity
8
0
100
AcDbCircle
10
-54.011601477389988
20
-91.717627769866368
30
0
40
0.79999999999998195
210
0
220
0
230
1
100
AcDbArc
50
209.79999999999995
51
335.00000000000051
0
LINE
5
373
100
AcDbEntity
8
0
100
AcDbLine
10
-56.985635191651305
20
-88.134414454809558
30
0
11
-54.705813840085113
21
-92.115206938688402
31
0
0
ARC
5
374
100
AcDbEntity
8
0
100
AcDbCircle
10
-53.615000000000009
20
-95
30
0
40
0.80000000000000071
210
0
220
0
230
1
100
AcDbArc
50
0
51
180
0
ARC
5
375
100
AcDbEntity
8
0
100
AcDbCircle
10
-52.894059713887685
20
-89.32105172407725
30
0
40
0.79999999999999571
210
0
220
0
230
1
100
AcDbArc
50
-25.000000000000888
51
65.000000000000981
0
LINE
5
376
100
AcDbEntity
8
0
100
AcDbLine
10
-58.475000000000001
20
-98.000000044703484
30
0
11
-55.215000000000018
21
-98.000000044703484
31
0
0
ARC
5
377
100
AcDbEntity
8
0
100
AcDbCircle
10
-64.200000000000017
20
-95
30
0
40
0.80000000000000071
210
0
220
-0
230
1
100
AcDbArc
50
0
51
180
0
ARC
5
378
100
AcDbEntity
8
0
100
AcDbCircle
10
-60.075000000000003
20
-95
30
0
40
0.80000000000000071
210
0
220
0
230
1
100
AcDbArc
50
0
51
180
0
LWPOLYLINE
5
379
100
AcDbEntity
8
0
100
AcDbPolyline
90
4
70
1
43
0.0
10
-66.268782157192931
20
-93.362332390860217
42
0.99999999999999989
10
-65.550539856208957
20
-91.388977887209819
42
-0.021820077622150116
10
-67.561462910664034
20
-90.5560262851658
42
0.9999999925494194
10
-68.448961260319521
20
-92.459272637942775
42
0.021820077622150075
0
ARC
5
380
100
AcDbEntity
8
0
100
AcDbCircle
10
-68.005212085491777
20
-91.50764946155428
30
0
40
2.5000000000000089
210
0
220
0
230
1
100
AcDbArc
50
154.99999999999994
51
211.57979028355211
0
ARC
5
381
100
AcDbEntity
8
0
100
AcDbCircle
10
-55.215000000000018
20
-97.200000044703486
30
0
40
0.80000000000000071
210
0
220
0
230
1
100
AcDbArc
50
-90
51
0
0
LINE
5
382
100
AcDbEntity
8
0
100
AcDbLine
10
-52.169013484258372
20
-89.65914633346982
30
0
11
-53.28655524776066
21
-92.055722379258924
31
0
0
ARC
5
383
100
AcDbEntity
8
0
100
AcDbCircle
10
-57.017137280233584
20
-67.943646998601395
30
0
40
2.4999999999999938
210
0
220
-0
230
1
100
AcDbArc
50
65.577525960552421
51
155.00000000000009
0
LWPOLYLINE
5
384
100
AcDbEntity
8
0
100
AcDbPolyline
90
2
70
1
43
0.0
10
-63.40000000000002
20
-95
10
-60.875
20
-95
0
LINE
5
385
100
AcDbEntity
8
0
100
AcDbLine
10
-65
20
-95
30
0
11
-65
21
-97.200000044703486
31
0
0
ARC
5
386
100
AcDbEntity
8
0
100
AcDbCircle
10
-41.660000000000004
20
-75
30
0
40
0.80000000000001847
210
0
220
0
230
1
100
AcDbArc
50
-180
51
0
0
LINE
5
387
100
AcDbEntity
8
0
100
AcDbLine
10
-52.714364538272953
20
-80.065809026551307
30
0
11
-49.317001423204502
21
-81.650025464641033
31
0
0
ARC
5
388
100
AcDbEntity
8
0
100
AcDbCircle
10
-48.978906813811932
20
-80.924979235011719
30
0
40
0.79999999999999571
210
0
220
0
230
1
100
AcDbArc
50
244.99999999999909
51
334.99999999999909
0
ARC
5
389
100
AcDbEntity
8
0
100
AcDbCircle
10
-47.170400000000029
20
-70.546626595105707
30
0
40
0.80000000000001847
210
0
220
-0
230
1
100
AcDbArc
50
0
51
68.688318307783362
0
LINE
5
390
100
AcDbEntity
8
0
100
AcDbLine
10
-65.800000000000011
20
-98.000000044703484
30
0
11
-66.505185943689298
21
-98.000000044703484
31
0
0
LINE
5
391
100
AcDbEntity
8
0
100
AcDbLine
10
-55.953328219563602
20
-87.011789056358197
30
0
11
-52.555965104495144
21
-88.596005494447937
31
0
0
ARC
5
392
100
AcDbEntity
8
0
100
AcDbCircle
10
-66.505185943689298
20
-97.200000044703486
30
0
40
0.79999999999999838
210
0
220
0
230
1
100
AcDbArc
50
206.52495854337928
51
270
0
ARC
5
393
100
AcDbEntity
8
0
100
AcDbCircle
10
-65.800000000000011
20
-97.200000044703486
30
0
40
0.80000000000000071
210
0
220
0
230
1
100
AcDbArc
50
-90
51
0
0
ARC
5
394
100
AcDbEntity
8
0
100
AcDbCircle
10
-52.37626992888039
20
-79.340762796921979
30
0
40
0.79999999999999083
210
0
220
0
230
1
100
AcDbArc
50
100.20000000000063
51
245.00000000000003
0
ENDSEC
0
SECTION
2
OBJECTS
0
DICTIONARY
5
C
100
AcDbDictionary
3
ACAD_GROUP
350
D
3
ACAD_MLINESTYLE
350
17
0
DICTIONARY
5
D
100
AcDbDictionary
0
DICTIONARY
5
1A
330
C
100
AcDbDictionary
0
DICTIONARY
5
17
100
AcDbDictionary
0
ENDSEC
0
EOF
