solid OpenSCAD_Model
  facet normal -1 0 0
    outer loop
      vertex 0 31.6 0
      vertex 0 0 0
      vertex 0 31.6 2
    endloop
  endfacet
  facet normal -1 0 0
    outer loop
      vertex 0 53.6 2
      vertex 0 88.8 0
      vertex 0 53.6 0
    endloop
  endfacet
  facet normal -1 0 0
    outer loop
      vertex 0 88.8 0
      vertex 0 53.6 2
      vertex 0 88.8 13.6
    endloop
  endfacet
  facet normal -1 0 0
    outer loop
      vertex 0 0 13.6
      vertex 0 53.6 2
      vertex 0 31.6 2
    endloop
  endfacet
  facet normal -1 0 0
    outer loop
      vertex 0 0 13.6
      vertex 0 31.6 2
      vertex 0 0 0
    endloop
  endfacet
  facet normal -1 0 0
    outer loop
      vertex 0 53.6 2
      vertex 0 0 13.6
      vertex 0 88.8 13.6
    endloop
  endfacet
  facet normal 0 0 1
    outer loop
      vertex 42.2 88.8 13.6
      vertex 40.6 83.6 13.6
      vertex 42.2 0 13.6
    endloop
  endfacet
  facet normal 0 0 1
    outer loop
      vertex 42.2 88.8 13.6
      vertex 1.6 83.6 13.6
      vertex 40.6 83.6 13.6
    endloop
  endfacet
  facet normal 0 0 1
    outer loop
      vertex 0 0 13.6
      vertex 1.6 83.6 13.6
      vertex 0 88.8 13.6
    endloop
  endfacet
  facet normal -0 0 1
    outer loop
      vertex 0 88.8 13.6
      vertex 1.6 83.6 13.6
      vertex 42.2 88.8 13.6
    endloop
  endfacet
  facet normal -0 0 1
    outer loop
      vertex 40.6 1.6 13.6
      vertex 42.2 0 13.6
      vertex 40.6 83.6 13.6
    endloop
  endfacet
  facet normal -0 0 1
    outer loop
      vertex 1.6 1.6 13.6
      vertex 42.2 0 13.6
      vertex 40.6 1.6 13.6
    endloop
  endfacet
  facet normal 0 0 1
    outer loop
      vertex 1.6 1.6 13.6
      vertex 0 0 13.6
      vertex 42.2 0 13.6
    endloop
  endfacet
  facet normal 0 0 1
    outer loop
      vertex 1.6 83.6 13.6
      vertex 0 0 13.6
      vertex 1.6 1.6 13.6
    endloop
  endfacet
  facet normal 1 0 0
    outer loop
      vertex 42.2 88.8 13.6
      vertex 42.2 53.6 2
      vertex 42.2 88.8 0
    endloop
  endfacet
  facet normal 1 -0 0
    outer loop
      vertex 42.2 0 13.6
      vertex 42.2 53.6 2
      vertex 42.2 88.8 13.6
    endloop
  endfacet
  facet normal 1 0 0
    outer loop
      vertex 42.2 53.6 2
      vertex 42.2 0 13.6
      vertex 42.2 31.6 2
    endloop
  endfacet
  facet normal 1 0 0
    outer loop
      vertex 42.2 0 0
      vertex 42.2 31.6 2
      vertex 42.2 0 13.6
    endloop
  endfacet
  facet normal 1 0 0
    outer loop
      vertex 42.2 31.6 2
      vertex 42.2 0 0
      vertex 42.2 31.6 0
    endloop
  endfacet
  facet normal 1 0 0
    outer loop
      vertex 42.2 88.8 0
      vertex 42.2 53.6 2
      vertex 42.2 53.6 0
    endloop
  endfacet
  facet normal 0 0 -1
    outer loop
      vertex 0 0 0
      vertex 42.2 31.6 0
      vertex 42.2 0 0
    endloop
  endfacet
  facet normal -0 0 -1
    outer loop
      vertex 42.2 31.6 0
      vertex 0 0 0
      vertex 0 31.6 0
    endloop
  endfacet
  facet normal 0 0 -1
    outer loop
      vertex 0 53.6 0
      vertex 42.2 88.8 0
      vertex 42.2 53.6 0
    endloop
  endfacet
  facet normal -0 0 -1
    outer loop
      vertex 42.2 88.8 0
      vertex 0 53.6 0
      vertex 0 88.8 0
    endloop
  endfacet
  facet normal 0 -1 0
    outer loop
      vertex 0 0 0
      vertex 42.2 0 13.6
      vertex 0 0 13.6
    endloop
  endfacet
  facet normal 0 -1 -0
    outer loop
      vertex 42.2 0 13.6
      vertex 0 0 0
      vertex 42.2 0 0
    endloop
  endfacet
  facet normal 0 1 -0
    outer loop
      vertex 42.2 88.8 0
      vertex 0 88.8 13.6
      vertex 42.2 88.8 13.6
    endloop
  endfacet
  facet normal 0 1 0
    outer loop
      vertex 0 88.8 13.6
      vertex 42.2 88.8 0
      vertex 0 88.8 0
    endloop
  endfacet
  facet normal 1 -0 0
    outer loop
      vertex 1.6 1.6 13.6
      vertex 1.6 83.6 3.6
      vertex 1.6 83.6 13.6
    endloop
  endfacet
  facet normal 1 0 0
    outer loop
      vertex 1.6 83.6 3.6
      vertex 1.6 1.6 13.6
      vertex 1.6 1.6 3.6
    endloop
  endfacet
  facet normal -1 0 0
    outer loop
      vertex 40.6 1.6 3.6
      vertex 40.6 83.6 13.6
      vertex 40.6 83.6 3.6
    endloop
  endfacet
  facet normal -1 -0 0
    outer loop
      vertex 40.6 83.6 13.6
      vertex 40.6 1.6 3.6
      vertex 40.6 1.6 13.6
    endloop
  endfacet
  facet normal -0 0 1
    outer loop
      vertex 1.6 83.6 3.6
      vertex 40.6 1.6 3.6
      vertex 40.6 83.6 3.6
    endloop
  endfacet
  facet normal 0 0 1
    outer loop
      vertex 40.6 1.6 3.6
      vertex 1.6 83.6 3.6
      vertex 1.6 1.6 3.6
    endloop
  endfacet
  facet normal 0 1 -0
    outer loop
      vertex 40.6 1.6 3.6
      vertex 1.6 1.6 13.6
      vertex 40.6 1.6 13.6
    endloop
  endfacet
  facet normal 0 1 0
    outer loop
      vertex 1.6 1.6 13.6
      vertex 40.6 1.6 3.6
      vertex 1.6 1.6 3.6
    endloop
  endfacet
  facet normal 0 -1 0
    outer loop
      vertex 1.6 83.6 3.6
      vertex 40.6 83.6 13.6
      vertex 1.6 83.6 13.6
    endloop
  endfacet
  facet normal 0 -1 -0
    outer loop
      vertex 40.6 83.6 13.6
      vertex 1.6 83.6 3.6
      vertex 40.6 83.6 3.6
    endloop
  endfacet
  facet normal 0 0 -1
    outer loop
      vertex 0 31.6 2
      vertex 42.2 53.6 2
      vertex 42.2 31.6 2
    endloop
  endfacet
  facet normal -0 0 -1
    outer loop
      vertex 42.2 53.6 2
      vertex 0 31.6 2
      vertex 0 53.6 2
    endloop
  endfacet
  facet normal 0 1 -0
    outer loop
      vertex 42.2 31.6 0
      vertex 0 31.6 2
      vertex 42.2 31.6 2
    endloop
  endfacet
  facet normal 0 1 0
    outer loop
      vertex 0 31.6 2
      vertex 42.2 31.6 0
      vertex 0 31.6 0
    endloop
  endfacet
  facet normal 0 -1 0
    outer loop
      vertex 0 53.6 0
      vertex 42.2 53.6 2
      vertex 0 53.6 2
    endloop
  endfacet
  facet normal 0 -1 -0
    outer loop
      vertex 42.2 53.6 2
      vertex 0 53.6 0
      vertex 42.2 53.6 0
    endloop
  endfacet
  facet normal 1 -0 0
    outer loop
      vertex 1.6 85.6 11.6
      vertex 1.6 87.6 1.6
      vertex 1.6 87.6 11.6
    endloop
  endfacet
  facet normal 1 0 0
    outer loop
      vertex 1.6 87.6 1.6
      vertex 1.6 85.6 11.6
      vertex 1.6 85.6 1.6
    endloop
  endfacet
  facet normal 0 0 -1
    outer loop
      vertex 1.6 85.6 11.6
      vertex 40.6 87.6 11.6
      vertex 40.6 85.6 11.6
    endloop
  endfacet
  facet normal -0 0 -1
    outer loop
      vertex 40.6 87.6 11.6
      vertex 1.6 85.6 11.6
      vertex 1.6 87.6 11.6
    endloop
  endfacet
  facet normal -1 0 0
    outer loop
      vertex 40.6 85.6 1.6
      vertex 40.6 87.6 11.6
      vertex 40.6 87.6 1.6
    endloop
  endfacet
  facet normal -1 -0 0
    outer loop
      vertex 40.6 87.6 11.6
      vertex 40.6 85.6 1.6
      vertex 40.6 85.6 11.6
    endloop
  endfacet
  facet normal -0 0 1
    outer loop
      vertex 1.6 87.6 1.6
      vertex 40.6 85.6 1.6
      vertex 40.6 87.6 1.6
    endloop
  endfacet
  facet normal 0 0 1
    outer loop
      vertex 40.6 85.6 1.6
      vertex 1.6 87.6 1.6
      vertex 1.6 85.6 1.6
    endloop
  endfacet
  facet normal 0 1 -0
    outer loop
      vertex 40.6 85.6 1.6
      vertex 1.6 85.6 11.6
      vertex 40.6 85.6 11.6
    endloop
  endfacet
  facet normal 0 1 0
    outer loop
      vertex 1.6 85.6 11.6
      vertex 40.6 85.6 1.6
      vertex 1.6 85.6 1.6
    endloop
  endfacet
  facet normal 0 -1 0
    outer loop
      vertex 1.6 87.6 1.6
      vertex 40.6 87.6 11.6
      vertex 1.6 87.6 11.6
    endloop
  endfacet
  facet normal 0 -1 -0
    outer loop
      vertex 40.6 87.6 11.6
      vertex 1.6 87.6 1.6
      vertex 40.6 87.6 1.6
    endloop
  endfacet
endsolid OpenSCAD_Model
