solid DJI HD Camera Lens Cover 1.0
facet normal 0.0 0.0 -1.0
  outer loop
    vertex 13.919338016901253 26.052570498619076 0.0
    vertex 13.919338016901253 21.75617434991723 0.0
    vertex 13.63652237510052 23.904372424268153 0.0
  endloop
endfacet
facet normal 0.0 0.0 -1.0
  outer loop
    vertex 13.919338016901253 21.75617434991723 0.0
    vertex 13.919338016901253 26.052570498619076 0.0
    vertex 14.748511523689677 28.054372424268152 0.0
  endloop
endfacet
facet normal 0.0 0.0 -1.0
  outer loop
    vertex 13.919338016901253 21.75617434991723 0.0
    vertex 14.748511523689677 28.054372424268152 0.0
    vertex 14.748511523689684 19.75437242426815 0.0
  endloop
endfacet
facet normal 0.0 0.0 -1.0
  outer loop
    vertex 14.748511523689684 19.75437242426815 0.0
    vertex 14.748511523689677 28.054372424268152 0.0
    vertex 16.067536091252176 29.773358708116497 0.0
  endloop
endfacet
facet normal 0.0 0.0 -1.0
  outer loop
    vertex 14.748511523689684 19.75437242426815 0.0
    vertex 16.067536091252176 29.773358708116497 0.0
    vertex 16.06753609125218 18.03538614041981 0.0
  endloop
endfacet
facet normal 0.0 0.0 -1.0
  outer loop
    vertex 16.06753609125218 18.03538614041981 0.0
    vertex 16.067536091252176 29.773358708116497 0.0
    vertex 17.78652237510052 31.092383275678994 0.0
  endloop
endfacet
facet normal 0.0 0.0 -1.0
  outer loop
    vertex 16.06753609125218 18.03538614041981 0.0
    vertex 17.78652237510052 31.092383275678994 0.0
    vertex 17.78652237510052 16.716361572857316 0.0
  endloop
endfacet
facet normal 0.0 0.0 -1.0
  outer loop
    vertex 17.78652237510052 16.716361572857316 0.0
    vertex 17.78652237510052 31.092383275678994 0.0
    vertex 19.788324300749597 31.92155678246742 0.0
  endloop
endfacet
facet normal 0.0 0.0 -1.0
  outer loop
    vertex 17.78652237510052 16.716361572857316 0.0
    vertex 19.788324300749597 31.92155678246742 0.0
    vertex 19.788324300749597 15.887188066068893 0.0
  endloop
endfacet
facet normal 0.0 0.0 -1.0
  outer loop
    vertex 19.788324300749597 15.887188066068893 0.0
    vertex 19.788324300749597 31.92155678246742 0.0
    vertex 21.93652237510052 32.20437242426815 0.0
  endloop
endfacet
facet normal 0.0 0.0 -1.0
  outer loop
    vertex 19.788324300749597 15.887188066068893 0.0
    vertex 21.93652237510052 32.20437242426815 0.0
    vertex 21.936522375100513 15.60437242426816 0.0
  endloop
endfacet
facet normal 0.0 0.0 -1.0
  outer loop
    vertex 21.936522375100513 15.60437242426816 0.0
    vertex 21.93652237510052 32.20437242426815 0.0
    vertex 24.084720449451435 15.887188066068893 0.0
  endloop
endfacet
facet normal 0.0 0.0 -1.0
  outer loop
    vertex 24.084720449451435 15.887188066068893 0.0
    vertex 21.93652237510052 32.20437242426815 0.0
    vertex 24.08472044945144 31.92155678246742 0.0
  endloop
endfacet
facet normal 0.0 0.0 -1.0
  outer loop
    vertex 24.084720449451435 15.887188066068893 0.0
    vertex 24.08472044945144 31.92155678246742 0.0
    vertex 26.086522375100508 16.716361572857316 0.0
  endloop
endfacet
facet normal 0.0 0.0 -1.0
  outer loop
    vertex 26.086522375100508 16.716361572857316 0.0
    vertex 24.08472044945144 31.92155678246742 0.0
    vertex 26.086522375100515 31.092383275678994 0.0
  endloop
endfacet
facet normal 0.0 0.0 -1.0
  outer loop
    vertex 26.086522375100508 16.716361572857316 0.0
    vertex 26.086522375100515 31.092383275678994 0.0
    vertex 27.805508658948856 18.035386140419806 0.0
  endloop
endfacet
facet normal 0.0 0.0 -1.0
  outer loop
    vertex 27.805508658948856 18.035386140419806 0.0
    vertex 26.086522375100515 31.092383275678994 0.0
    vertex 27.80550865894886 29.773358708116497 0.0
  endloop
endfacet
facet normal 0.0 0.0 -1.0
  outer loop
    vertex 27.805508658948856 18.035386140419806 0.0
    vertex 27.80550865894886 29.773358708116497 0.0
    vertex 29.12453322651135 19.754372424268144 0.0
  endloop
endfacet
facet normal 0.0 0.0 -1.0
  outer loop
    vertex 29.12453322651135 19.754372424268144 0.0
    vertex 27.80550865894886 29.773358708116497 0.0
    vertex 29.124533226511357 28.054372424268152 0.0
  endloop
endfacet
facet normal 0.0 0.0 -1.0
  outer loop
    vertex 29.12453322651135 19.754372424268144 0.0
    vertex 29.124533226511357 28.054372424268152 0.0
    vertex 29.953706733299775 21.75617434991722 0.0
  endloop
endfacet
facet normal 0.0 0.0 -1.0
  outer loop
    vertex 29.953706733299775 21.75617434991722 0.0
    vertex 29.124533226511357 28.054372424268152 0.0
    vertex 29.95370673329978 26.052570498619076 0.0
  endloop
endfacet
facet normal 0.0 0.0 -1.0
  outer loop
    vertex 29.953706733299775 21.75617434991722 0.0
    vertex 29.95370673329978 26.052570498619076 0.0
    vertex 30.236522375100513 23.904372424268153 0.0
  endloop
endfacet
facet normal -0.0 -0.0 1.0
  outer loop
    vertex 15.078449008448134 22.06675720404026 0.9999999999999999
    vertex 15.078449008448136 25.741987644496056 0.9999999999999999
    vertex 14.836522375100518 23.904372424268153 0.9999999999999999
  endloop
endfacet
facet normal -0.0 -0.0 1.0
  outer loop
    vertex 15.078449008448136 25.741987644496056 0.9999999999999999
    vertex 15.078449008448134 22.06675720404026 0.9999999999999999
    vertex 15.787742008231003 20.35437242426816 0.9999999999999999
  endloop
endfacet
facet normal -0.0 -0.0 1.0
  outer loop
    vertex 15.078449008448136 25.741987644496056 0.9999999999999999
    vertex 15.787742008231003 20.35437242426816 0.9999999999999999
    vertex 15.787742008231005 27.454372424268154 0.9999999999999999
  endloop
endfacet
facet normal -0.0 -0.0 1.0
  outer loop
    vertex 15.787742008231005 27.454372424268154 0.9999999999999999
    vertex 15.787742008231003 20.35437242426816 0.9999999999999999
    vertex 16.916064228676028 18.883914277843672 0.9999999999999999
  endloop
endfacet
facet normal -0.0 -0.0 1.0
  outer loop
    vertex 15.787742008231005 27.454372424268154 0.9999999999999999
    vertex 16.916064228676028 18.883914277843672 0.9999999999999999
    vertex 16.91606422867603 28.92483057069264 0.9999999999999999
  endloop
endfacet
facet normal -0.0 -0.0 1.0
  outer loop
    vertex 16.91606422867603 28.92483057069264 0.9999999999999999
    vertex 16.916064228676028 18.883914277843672 0.9999999999999999
    vertex 18.386522375100515 17.755592057398644 0.9999999999999999
  endloop
endfacet
facet normal -0.0 -0.0 1.0
  outer loop
    vertex 16.91606422867603 28.92483057069264 0.9999999999999999
    vertex 18.386522375100515 17.755592057398644 0.9999999999999999
    vertex 18.38652237510052 30.05315279113767 0.9999999999999999
  endloop
endfacet
facet normal -0.0 -0.0 1.0
  outer loop
    vertex 18.38652237510052 30.05315279113767 0.9999999999999999
    vertex 18.386522375100515 17.755592057398644 0.9999999999999999
    vertex 20.098907154872617 17.046299057615773 0.9999999999999999
  endloop
endfacet
facet normal -0.0 -0.0 1.0
  outer loop
    vertex 18.38652237510052 30.05315279113767 0.9999999999999999
    vertex 20.098907154872617 17.046299057615773 0.9999999999999999
    vertex 20.09890715487262 30.762445790920538 0.9999999999999999
  endloop
endfacet
facet normal -0.0 -0.0 1.0
  outer loop
    vertex 20.09890715487262 30.762445790920538 0.9999999999999999
    vertex 20.098907154872617 17.046299057615773 0.9999999999999999
    vertex 21.936522375100516 16.804372424268156 0.9999999999999999
  endloop
endfacet
facet normal -0.0 -0.0 1.0
  outer loop
    vertex 20.09890715487262 30.762445790920538 0.9999999999999999
    vertex 21.936522375100516 16.804372424268156 0.9999999999999999
    vertex 21.936522375100516 31.004372424268155 0.9999999999999999
  endloop
endfacet
facet normal -0.0 -0.0 1.0
  outer loop
    vertex 21.936522375100516 31.004372424268155 0.9999999999999999
    vertex 21.936522375100516 16.804372424268156 0.9999999999999999
    vertex 23.77413759532841 17.04629905761577 0.9999999999999999
  endloop
endfacet
facet normal -0.0 -0.0 1.0
  outer loop
    vertex 21.936522375100516 31.004372424268155 0.9999999999999999
    vertex 23.77413759532841 17.04629905761577 0.9999999999999999
    vertex 23.774137595328416 30.762445790920538 0.9999999999999999
  endloop
endfacet
facet normal -0.0 -0.0 1.0
  outer loop
    vertex 23.774137595328416 30.762445790920538 0.9999999999999999
    vertex 23.77413759532841 17.04629905761577 0.9999999999999999
    vertex 25.48652237510051 17.75559205739864 0.9999999999999999
  endloop
endfacet
facet normal -0.0 -0.0 1.0
  outer loop
    vertex 23.774137595328416 30.762445790920538 0.9999999999999999
    vertex 25.48652237510051 17.75559205739864 0.9999999999999999
    vertex 25.486522375100517 30.05315279113767 0.9999999999999999
  endloop
endfacet
facet normal -0.0 -0.0 1.0
  outer loop
    vertex 25.486522375100517 30.05315279113767 0.9999999999999999
    vertex 25.48652237510051 17.75559205739864 0.9999999999999999
    vertex 26.956980521525 18.883914277843665 0.9999999999999999
  endloop
endfacet
facet normal -0.0 -0.0 1.0
  outer loop
    vertex 25.486522375100517 30.05315279113767 0.9999999999999999
    vertex 26.956980521525 18.883914277843665 0.9999999999999999
    vertex 26.956980521525 28.92483057069264 0.9999999999999999
  endloop
endfacet
facet normal -0.0 -0.0 1.0
  outer loop
    vertex 26.956980521525 28.92483057069264 0.9999999999999999
    vertex 26.956980521525 18.883914277843665 0.9999999999999999
    vertex 28.085302741970025 20.354372424268153 0.9999999999999999
  endloop
endfacet
facet normal -0.0 -0.0 1.0
  outer loop
    vertex 26.956980521525 28.92483057069264 0.9999999999999999
    vertex 28.085302741970025 20.354372424268153 0.9999999999999999
    vertex 28.085302741970033 27.454372424268154 0.9999999999999999
  endloop
endfacet
facet normal -0.0 -0.0 1.0
  outer loop
    vertex 28.085302741970033 27.454372424268154 0.9999999999999999
    vertex 28.085302741970025 20.354372424268153 0.9999999999999999
    vertex 28.794595741752897 22.066757204040254 0.9999999999999999
  endloop
endfacet
facet normal -0.0 -0.0 1.0
  outer loop
    vertex 28.085302741970033 27.454372424268154 0.9999999999999999
    vertex 28.794595741752897 22.066757204040254 0.9999999999999999
    vertex 28.794595741752897 25.74198764449605 0.9999999999999999
  endloop
endfacet
facet normal -0.0 -0.0 1.0
  outer loop
    vertex 28.794595741752897 25.74198764449605 0.9999999999999999
    vertex 28.794595741752897 22.066757204040254 0.9999999999999999
    vertex 29.036522375100514 23.904372424268153 0.9999999999999999
  endloop
endfacet
facet normal 0.13052619222005166 0.9914448613738105 0.0
  outer loop
    vertex 21.93652237510052 32.20437242426815 7.0
    vertex 24.08472044945144 31.92155678246742 0.0
    vertex 21.93652237510052 32.20437242426815 0.0
  endloop
endfacet
facet normal 0.13052619222005166 0.9914448613738105 0.0
  outer loop
    vertex 24.08472044945144 31.92155678246742 0.0
    vertex 21.93652237510052 32.20437242426815 7.0
    vertex 24.08472044945144 31.92155678246742 7.0
  endloop
endfacet
facet normal 0.3826834323650895 0.9238795325112871 0.0
  outer loop
    vertex 24.08472044945144 31.92155678246742 7.0
    vertex 26.086522375100515 31.092383275678994 0.0
    vertex 24.08472044945144 31.92155678246742 0.0
  endloop
endfacet
facet normal 0.3826834323650895 0.9238795325112871 0.0
  outer loop
    vertex 26.086522375100515 31.092383275678994 0.0
    vertex 24.08472044945144 31.92155678246742 7.0
    vertex 26.086522375100515 31.092383275678994 7.0
  endloop
endfacet
facet normal 0.6087614290087202 0.7933533402912355 0.0
  outer loop
    vertex 26.086522375100515 31.092383275678994 7.0
    vertex 27.80550865894886 29.773358708116497 0.0
    vertex 26.086522375100515 31.092383275678994 0.0
  endloop
endfacet
facet normal 0.6087614290087202 0.7933533402912355 0.0
  outer loop
    vertex 27.80550865894886 29.773358708116497 0.0
    vertex 26.086522375100515 31.092383275678994 7.0
    vertex 27.80550865894886 29.773358708116497 7.0
  endloop
endfacet
facet normal 0.7933533402912355 0.6087614290087202 0.0
  outer loop
    vertex 27.80550865894886 29.773358708116497 0.0
    vertex 29.124533226511357 28.054372424268152 7.0
    vertex 29.124533226511357 28.054372424268152 0.0
  endloop
endfacet
facet normal 0.7933533402912355 0.6087614290087202 0.0
  outer loop
    vertex 29.124533226511357 28.054372424268152 7.0
    vertex 27.80550865894886 29.773358708116497 0.0
    vertex 27.80550865894886 29.773358708116497 7.0
  endloop
endfacet
facet normal 0.9238795325112871 0.38268343236508895 0.0
  outer loop
    vertex 29.124533226511357 28.054372424268152 0.0
    vertex 29.95370673329978 26.052570498619076 7.0
    vertex 29.95370673329978 26.052570498619076 0.0
  endloop
endfacet
facet normal 0.9238795325112871 0.38268343236508895 0.0
  outer loop
    vertex 29.95370673329978 26.052570498619076 7.0
    vertex 29.124533226511357 28.054372424268152 0.0
    vertex 29.124533226511357 28.054372424268152 7.0
  endloop
endfacet
facet normal 0.9914448613738105 0.13052619222005166 0.0
  outer loop
    vertex 29.95370673329978 26.052570498619076 0.0
    vertex 30.236522375100513 23.904372424268153 7.0
    vertex 30.236522375100513 23.904372424268153 0.0
  endloop
endfacet
facet normal 0.9914448613738105 0.13052619222005166 0.0
  outer loop
    vertex 30.236522375100513 23.904372424268153 7.0
    vertex 29.95370673329978 26.052570498619076 0.0
    vertex 29.95370673329978 26.052570498619076 7.0
  endloop
endfacet
facet normal 0.9914448613738103 -0.13052619222005335 0.0
  outer loop
    vertex 30.236522375100513 23.904372424268153 0.0
    vertex 29.953706733299775 21.75617434991722 7.0
    vertex 29.953706733299775 21.75617434991722 0.0
  endloop
endfacet
facet normal 0.9914448613738103 -0.13052619222005335 0.0
  outer loop
    vertex 29.953706733299775 21.75617434991722 7.0
    vertex 30.236522375100513 23.904372424268153 0.0
    vertex 30.236522375100513 23.904372424268153 7.0
  endloop
endfacet
facet normal 0.9238795325112871 -0.3826834323650895 0.0
  outer loop
    vertex 29.953706733299775 21.75617434991722 0.0
    vertex 29.12453322651135 19.754372424268144 7.0
    vertex 29.12453322651135 19.754372424268144 0.0
  endloop
endfacet
facet normal 0.9238795325112871 -0.3826834323650895 0.0
  outer loop
    vertex 29.12453322651135 19.754372424268144 7.0
    vertex 29.953706733299775 21.75617434991722 0.0
    vertex 29.953706733299775 21.75617434991722 7.0
  endloop
endfacet
facet normal 0.7933533402912346 -0.6087614290087215 0.0
  outer loop
    vertex 29.12453322651135 19.754372424268144 0.0
    vertex 27.805508658948856 18.035386140419806 7.0
    vertex 27.805508658948856 18.035386140419806 0.0
  endloop
endfacet
facet normal 0.7933533402912346 -0.6087614290087215 0.0
  outer loop
    vertex 27.805508658948856 18.035386140419806 7.0
    vertex 29.12453322651135 19.754372424268144 0.0
    vertex 29.12453322651135 19.754372424268144 7.0
  endloop
endfacet
facet normal 0.6087614290087187 -0.7933533402912367 0.0
  outer loop
    vertex 27.805508658948856 18.035386140419806 7.0
    vertex 26.086522375100508 16.716361572857316 0.0
    vertex 27.805508658948856 18.035386140419806 0.0
  endloop
endfacet
facet normal 0.6087614290087187 -0.7933533402912367 0.0
  outer loop
    vertex 26.086522375100508 16.716361572857316 0.0
    vertex 27.805508658948856 18.035386140419806 7.0
    vertex 26.086522375100508 16.716361572857316 7.0
  endloop
endfacet
facet normal 0.3826834323650895 -0.9238795325112871 0.0
  outer loop
    vertex 26.086522375100508 16.716361572857316 7.0
    vertex 24.084720449451435 15.887188066068893 0.0
    vertex 26.086522375100508 16.716361572857316 0.0
  endloop
endfacet
facet normal 0.3826834323650895 -0.9238795325112871 0.0
  outer loop
    vertex 24.084720449451435 15.887188066068893 0.0
    vertex 26.086522375100508 16.716361572857316 7.0
    vertex 24.084720449451435 15.887188066068893 7.0
  endloop
endfacet
facet normal 0.13052619222005166 -0.9914448613738105 0.0
  outer loop
    vertex 24.084720449451435 15.887188066068893 7.0
    vertex 21.936522375100513 15.60437242426816 0.0
    vertex 24.084720449451435 15.887188066068893 0.0
  endloop
endfacet
facet normal 0.13052619222005166 -0.9914448613738105 0.0
  outer loop
    vertex 21.936522375100513 15.60437242426816 0.0
    vertex 24.084720449451435 15.887188066068893 7.0
    vertex 21.936522375100513 15.60437242426816 7.0
  endloop
endfacet
facet normal -0.1305261922200518 -0.9914448613738104 -0.0
  outer loop
    vertex 21.936522375100513 15.60437242426816 7.0
    vertex 19.788324300749597 15.887188066068893 0.0
    vertex 21.936522375100513 15.60437242426816 0.0
  endloop
endfacet
facet normal -0.1305261922200518 -0.9914448613738104 -0.0
  outer loop
    vertex 19.788324300749597 15.887188066068893 0.0
    vertex 21.936522375100513 15.60437242426816 7.0
    vertex 19.788324300749597 15.887188066068893 7.0
  endloop
endfacet
facet normal -0.3826834323650895 -0.9238795325112871 -0.0
  outer loop
    vertex 19.788324300749597 15.887188066068893 7.0
    vertex 17.78652237510052 16.716361572857316 0.0
    vertex 19.788324300749597 15.887188066068893 0.0
  endloop
endfacet
facet normal -0.3826834323650895 -0.9238795325112871 -0.0
  outer loop
    vertex 17.78652237510052 16.716361572857316 0.0
    vertex 19.788324300749597 15.887188066068893 7.0
    vertex 17.78652237510052 16.716361572857316 7.0
  endloop
endfacet
facet normal -0.6087614290087201 -0.7933533402912356 -0.0
  outer loop
    vertex 17.78652237510052 16.716361572857316 7.0
    vertex 16.06753609125218 18.03538614041981 0.0
    vertex 17.78652237510052 16.716361572857316 0.0
  endloop
endfacet
facet normal -0.6087614290087201 -0.7933533402912356 -0.0
  outer loop
    vertex 16.06753609125218 18.03538614041981 0.0
    vertex 17.78652237510052 16.716361572857316 7.0
    vertex 16.06753609125218 18.03538614041981 7.0
  endloop
endfacet
facet normal -0.7933533402912349 -0.6087614290087209 -0.0
  outer loop
    vertex 14.748511523689684 19.75437242426815 7.0
    vertex 16.06753609125218 18.03538614041981 0.0
    vertex 16.06753609125218 18.03538614041981 7.0
  endloop
endfacet
facet normal -0.7933533402912349 -0.6087614290087209 -0.0
  outer loop
    vertex 16.06753609125218 18.03538614041981 0.0
    vertex 14.748511523689684 19.75437242426815 7.0
    vertex 14.748511523689684 19.75437242426815 0.0
  endloop
endfacet
facet normal -0.9238795325112862 -0.3826834323650912 -0.0
  outer loop
    vertex 13.919338016901253 21.75617434991723 7.0
    vertex 14.748511523689684 19.75437242426815 0.0
    vertex 14.748511523689684 19.75437242426815 7.0
  endloop
endfacet
facet normal -0.9238795325112862 -0.3826834323650912 -0.0
  outer loop
    vertex 14.748511523689684 19.75437242426815 0.0
    vertex 13.919338016901253 21.75617434991723 7.0
    vertex 13.919338016901253 21.75617434991723 0.0
  endloop
endfacet
facet normal -0.9914448613738106 -0.1305261922200515 -0.0
  outer loop
    vertex 13.63652237510052 23.904372424268153 7.0
    vertex 13.919338016901253 21.75617434991723 0.0
    vertex 13.919338016901253 21.75617434991723 7.0
  endloop
endfacet
facet normal -0.9914448613738106 -0.1305261922200515 -0.0
  outer loop
    vertex 13.919338016901253 21.75617434991723 0.0
    vertex 13.63652237510052 23.904372424268153 7.0
    vertex 13.63652237510052 23.904372424268153 0.0
  endloop
endfacet
facet normal -0.9914448613738106 0.1305261922200515 0.0
  outer loop
    vertex 13.919338016901253 26.052570498619076 7.0
    vertex 13.63652237510052 23.904372424268153 0.0
    vertex 13.63652237510052 23.904372424268153 7.0
  endloop
endfacet
facet normal -0.9914448613738106 0.1305261922200515 0.0
  outer loop
    vertex 13.63652237510052 23.904372424268153 0.0
    vertex 13.919338016901253 26.052570498619076 7.0
    vertex 13.919338016901253 26.052570498619076 0.0
  endloop
endfacet
facet normal -0.9238795325112871 0.38268343236508895 0.0
  outer loop
    vertex 14.748511523689677 28.054372424268152 7.0
    vertex 13.919338016901253 26.052570498619076 0.0
    vertex 13.919338016901253 26.052570498619076 7.0
  endloop
endfacet
facet normal -0.9238795325112871 0.38268343236508895 0.0
  outer loop
    vertex 13.919338016901253 26.052570498619076 0.0
    vertex 14.748511523689677 28.054372424268152 7.0
    vertex 14.748511523689677 28.054372424268152 0.0
  endloop
endfacet
facet normal -0.7933533402912348 0.6087614290087211 0.0
  outer loop
    vertex 16.067536091252176 29.773358708116497 7.0
    vertex 14.748511523689677 28.054372424268152 0.0
    vertex 14.748511523689677 28.054372424268152 7.0
  endloop
endfacet
facet normal -0.7933533402912348 0.6087614290087211 0.0
  outer loop
    vertex 14.748511523689677 28.054372424268152 0.0
    vertex 16.067536091252176 29.773358708116497 7.0
    vertex 16.067536091252176 29.773358708116497 0.0
  endloop
endfacet
facet normal -0.6087614290087202 0.7933533402912355 0.0
  outer loop
    vertex 16.067536091252176 29.773358708116497 7.0
    vertex 17.78652237510052 31.092383275678994 0.0
    vertex 16.067536091252176 29.773358708116497 0.0
  endloop
endfacet
facet normal -0.6087614290087202 0.7933533402912355 0.0
  outer loop
    vertex 17.78652237510052 31.092383275678994 0.0
    vertex 16.067536091252176 29.773358708116497 7.0
    vertex 17.78652237510052 31.092383275678994 7.0
  endloop
endfacet
facet normal -0.3826834323650895 0.9238795325112871 0.0
  outer loop
    vertex 17.78652237510052 31.092383275678994 7.0
    vertex 19.788324300749597 31.92155678246742 0.0
    vertex 17.78652237510052 31.092383275678994 0.0
  endloop
endfacet
facet normal -0.3826834323650895 0.9238795325112871 0.0
  outer loop
    vertex 19.788324300749597 31.92155678246742 0.0
    vertex 17.78652237510052 31.092383275678994 7.0
    vertex 19.788324300749597 31.92155678246742 7.0
  endloop
endfacet
facet normal -0.1305261922200515 0.9914448613738106 0.0
  outer loop
    vertex 19.788324300749597 31.92155678246742 7.0
    vertex 21.93652237510052 32.20437242426815 0.0
    vertex 19.788324300749597 31.92155678246742 0.0
  endloop
endfacet
facet normal -0.1305261922200515 0.9914448613738106 0.0
  outer loop
    vertex 21.93652237510052 32.20437242426815 0.0
    vertex 19.788324300749597 31.92155678246742 7.0
    vertex 21.93652237510052 32.20437242426815 7.0
  endloop
endfacet
facet normal 0.0 0.0 1.0
  outer loop
    vertex 14.748511523689684 19.75437242426815 7.0
    vertex 15.078449008448134 22.06675720404026 7.0
    vertex 14.836522375100518 23.904372424268153 7.0
  endloop
endfacet
facet normal 0.0 0.0 1.0
  outer loop
    vertex 15.078449008448134 22.06675720404026 7.0
    vertex 14.748511523689684 19.75437242426815 7.0
    vertex 16.06753609125218 18.03538614041981 7.0
  endloop
endfacet
facet normal 0.0 0.0 1.0
  outer loop
    vertex 15.078449008448134 22.06675720404026 7.0
    vertex 16.06753609125218 18.03538614041981 7.0
    vertex 15.787742008231003 20.35437242426816 7.0
  endloop
endfacet
facet normal 0.0 0.0 1.0
  outer loop
    vertex 15.787742008231003 20.35437242426816 7.0
    vertex 16.06753609125218 18.03538614041981 7.0
    vertex 16.916064228676028 18.883914277843672 7.0
  endloop
endfacet
facet normal 0.0 0.0 1.0
  outer loop
    vertex 16.916064228676028 18.883914277843672 7.0
    vertex 16.06753609125218 18.03538614041981 7.0
    vertex 17.78652237510052 16.716361572857316 7.0
  endloop
endfacet
facet normal 0.0 0.0 1.0
  outer loop
    vertex 16.916064228676028 18.883914277843672 7.0
    vertex 17.78652237510052 16.716361572857316 7.0
    vertex 18.386522375100515 17.755592057398644 7.0
  endloop
endfacet
facet normal 0.0 0.0 1.0
  outer loop
    vertex 18.386522375100515 17.755592057398644 7.0
    vertex 17.78652237510052 16.716361572857316 7.0
    vertex 19.788324300749597 15.887188066068893 7.0
  endloop
endfacet
facet normal 0.0 0.0 1.0
  outer loop
    vertex 18.386522375100515 17.755592057398644 7.0
    vertex 19.788324300749597 15.887188066068893 7.0
    vertex 20.098907154872617 17.046299057615773 7.0
  endloop
endfacet
facet normal 0.0 0.0 1.0
  outer loop
    vertex 20.098907154872617 17.046299057615773 7.0
    vertex 19.788324300749597 15.887188066068893 7.0
    vertex 21.936522375100513 15.60437242426816 7.0
  endloop
endfacet
facet normal 0.0 0.0 1.0
  outer loop
    vertex 20.098907154872617 17.046299057615773 7.0
    vertex 21.936522375100513 15.60437242426816 7.0
    vertex 21.936522375100516 16.804372424268156 7.0
  endloop
endfacet
facet normal 0.0 0.0 1.0
  outer loop
    vertex 21.936522375100516 16.804372424268156 7.0
    vertex 21.936522375100513 15.60437242426816 7.0
    vertex 24.084720449451435 15.887188066068893 7.0
  endloop
endfacet
facet normal 0.0 0.0 1.0
  outer loop
    vertex 21.936522375100516 16.804372424268156 7.0
    vertex 24.084720449451435 15.887188066068893 7.0
    vertex 23.77413759532841 17.04629905761577 7.0
  endloop
endfacet
facet normal 0.0 0.0 1.0
  outer loop
    vertex 23.77413759532841 17.04629905761577 7.0
    vertex 24.084720449451435 15.887188066068893 7.0
    vertex 25.48652237510051 17.75559205739864 7.0
  endloop
endfacet
facet normal 0.0 0.0 1.0
  outer loop
    vertex 25.48652237510051 17.75559205739864 7.0
    vertex 24.084720449451435 15.887188066068893 7.0
    vertex 26.086522375100508 16.716361572857316 7.0
  endloop
endfacet
facet normal 0.0 0.0 1.0
  outer loop
    vertex 25.48652237510051 17.75559205739864 7.0
    vertex 26.086522375100508 16.716361572857316 7.0
    vertex 26.956980521525 18.883914277843665 7.0
  endloop
endfacet
facet normal 0.0 0.0 1.0
  outer loop
    vertex 26.956980521525 18.883914277843665 7.0
    vertex 26.086522375100508 16.716361572857316 7.0
    vertex 27.805508658948856 18.035386140419806 7.0
  endloop
endfacet
facet normal 0.0 0.0 1.0
  outer loop
    vertex 26.956980521525 18.883914277843665 7.0
    vertex 27.805508658948856 18.035386140419806 7.0
    vertex 28.085302741970025 20.354372424268153 7.0
  endloop
endfacet
facet normal 0.0 0.0 1.0
  outer loop
    vertex 28.085302741970025 20.354372424268153 7.0
    vertex 27.805508658948856 18.035386140419806 7.0
    vertex 29.12453322651135 19.754372424268144 7.0
  endloop
endfacet
facet normal 0.0 0.0 1.0
  outer loop
    vertex 28.085302741970025 20.354372424268153 7.0
    vertex 29.12453322651135 19.754372424268144 7.0
    vertex 28.794595741752897 22.066757204040254 7.0
  endloop
endfacet
facet normal 0.0 0.0 1.0
  outer loop
    vertex 28.794595741752897 22.066757204040254 7.0
    vertex 29.12453322651135 19.754372424268144 7.0
    vertex 29.036522375100514 23.904372424268153 7.0
  endloop
endfacet
facet normal 0.0 0.0 1.0
  outer loop
    vertex 13.919338016901253 21.75617434991723 7.0
    vertex 13.919338016901253 26.052570498619076 7.0
    vertex 13.63652237510052 23.904372424268153 7.0
  endloop
endfacet
facet normal 0.0 0.0 1.0
  outer loop
    vertex 13.919338016901253 26.052570498619076 7.0
    vertex 13.919338016901253 21.75617434991723 7.0
    vertex 14.748511523689684 19.75437242426815 7.0
  endloop
endfacet
facet normal 0.0 0.0 1.0
  outer loop
    vertex 13.919338016901253 26.052570498619076 7.0
    vertex 14.748511523689684 19.75437242426815 7.0
    vertex 14.748511523689677 28.054372424268152 7.0
  endloop
endfacet
facet normal 0.0 0.0 1.0
  outer loop
    vertex 14.748511523689677 28.054372424268152 7.0
    vertex 14.748511523689684 19.75437242426815 7.0
    vertex 14.836522375100518 23.904372424268153 7.0
  endloop
endfacet
facet normal 0.0 0.0 1.0
  outer loop
    vertex 14.748511523689677 28.054372424268152 7.0
    vertex 14.836522375100518 23.904372424268153 7.0
    vertex 15.078449008448136 25.741987644496056 7.0
  endloop
endfacet
facet normal 0.0 0.0 1.0
  outer loop
    vertex 14.748511523689677 28.054372424268152 7.0
    vertex 15.078449008448136 25.741987644496056 7.0
    vertex 16.067536091252176 29.773358708116497 7.0
  endloop
endfacet
facet normal 0.0 0.0 1.0
  outer loop
    vertex 16.067536091252176 29.773358708116497 7.0
    vertex 15.078449008448136 25.741987644496056 7.0
    vertex 15.787742008231005 27.454372424268154 7.0
  endloop
endfacet
facet normal 0.0 0.0 1.0
  outer loop
    vertex 16.067536091252176 29.773358708116497 7.0
    vertex 15.787742008231005 27.454372424268154 7.0
    vertex 16.91606422867603 28.92483057069264 7.0
  endloop
endfacet
facet normal 0.0 0.0 1.0
  outer loop
    vertex 16.067536091252176 29.773358708116497 7.0
    vertex 16.91606422867603 28.92483057069264 7.0
    vertex 17.78652237510052 31.092383275678994 7.0
  endloop
endfacet
facet normal 0.0 0.0 1.0
  outer loop
    vertex 17.78652237510052 31.092383275678994 7.0
    vertex 16.91606422867603 28.92483057069264 7.0
    vertex 18.38652237510052 30.05315279113767 7.0
  endloop
endfacet
facet normal 0.0 0.0 1.0
  outer loop
    vertex 17.78652237510052 31.092383275678994 7.0
    vertex 18.38652237510052 30.05315279113767 7.0
    vertex 19.788324300749597 31.92155678246742 7.0
  endloop
endfacet
facet normal 0.0 0.0 1.0
  outer loop
    vertex 19.788324300749597 31.92155678246742 7.0
    vertex 18.38652237510052 30.05315279113767 7.0
    vertex 20.09890715487262 30.762445790920538 7.0
  endloop
endfacet
facet normal 0.0 0.0 1.0
  outer loop
    vertex 19.788324300749597 31.92155678246742 7.0
    vertex 20.09890715487262 30.762445790920538 7.0
    vertex 21.93652237510052 32.20437242426815 7.0
  endloop
endfacet
facet normal 0.0 0.0 1.0
  outer loop
    vertex 21.93652237510052 32.20437242426815 7.0
    vertex 20.09890715487262 30.762445790920538 7.0
    vertex 21.936522375100516 31.004372424268155 7.0
  endloop
endfacet
facet normal 0.0 0.0 1.0
  outer loop
    vertex 21.93652237510052 32.20437242426815 7.0
    vertex 21.936522375100516 31.004372424268155 7.0
    vertex 23.774137595328416 30.762445790920538 7.0
  endloop
endfacet
facet normal 0.0 0.0 1.0
  outer loop
    vertex 21.93652237510052 32.20437242426815 7.0
    vertex 23.774137595328416 30.762445790920538 7.0
    vertex 24.08472044945144 31.92155678246742 7.0
  endloop
endfacet
facet normal 0.0 0.0 1.0
  outer loop
    vertex 24.08472044945144 31.92155678246742 7.0
    vertex 23.774137595328416 30.762445790920538 7.0
    vertex 25.486522375100517 30.05315279113767 7.0
  endloop
endfacet
facet normal 0.0 0.0 1.0
  outer loop
    vertex 24.08472044945144 31.92155678246742 7.0
    vertex 25.486522375100517 30.05315279113767 7.0
    vertex 26.086522375100515 31.092383275678994 7.0
  endloop
endfacet
facet normal 0.0 0.0 1.0
  outer loop
    vertex 26.086522375100515 31.092383275678994 7.0
    vertex 25.486522375100517 30.05315279113767 7.0
    vertex 26.956980521525 28.92483057069264 7.0
  endloop
endfacet
facet normal 0.0 0.0 1.0
  outer loop
    vertex 26.086522375100515 31.092383275678994 7.0
    vertex 26.956980521525 28.92483057069264 7.0
    vertex 27.80550865894886 29.773358708116497 7.0
  endloop
endfacet
facet normal 0.0 0.0 1.0
  outer loop
    vertex 27.80550865894886 29.773358708116497 7.0
    vertex 26.956980521525 28.92483057069264 7.0
    vertex 28.085302741970033 27.454372424268154 7.0
  endloop
endfacet
facet normal 0.0 0.0 1.0
  outer loop
    vertex 27.80550865894886 29.773358708116497 7.0
    vertex 28.085302741970033 27.454372424268154 7.0
    vertex 29.124533226511357 28.054372424268152 7.0
  endloop
endfacet
facet normal 0.0 0.0 1.0
  outer loop
    vertex 29.124533226511357 28.054372424268152 7.0
    vertex 28.085302741970033 27.454372424268154 7.0
    vertex 28.794595741752897 25.74198764449605 7.0
  endloop
endfacet
facet normal 0.0 0.0 1.0
  outer loop
    vertex 29.124533226511357 28.054372424268152 7.0
    vertex 28.794595741752897 25.74198764449605 7.0
    vertex 29.036522375100514 23.904372424268153 7.0
  endloop
endfacet
facet normal 0.0 0.0 1.0
  outer loop
    vertex 29.124533226511357 28.054372424268152 7.0
    vertex 29.036522375100514 23.904372424268153 7.0
    vertex 29.12453322651135 19.754372424268144 7.0
  endloop
endfacet
facet normal 0.0 0.0 1.0
  outer loop
    vertex 29.124533226511357 28.054372424268152 7.0
    vertex 29.12453322651135 19.754372424268144 7.0
    vertex 29.953706733299775 21.75617434991722 7.0
  endloop
endfacet
facet normal 0.0 0.0 1.0
  outer loop
    vertex 29.124533226511357 28.054372424268152 7.0
    vertex 29.953706733299775 21.75617434991722 7.0
    vertex 29.95370673329978 26.052570498619076 7.0
  endloop
endfacet
facet normal 0.0 0.0 1.0
  outer loop
    vertex 29.95370673329978 26.052570498619076 7.0
    vertex 29.953706733299775 21.75617434991722 7.0
    vertex 30.236522375100513 23.904372424268153 7.0
  endloop
endfacet
facet normal -0.9238795325112875 -0.38268343236508806 0.0
  outer loop
    vertex 28.085302741970033 27.454372424268154 7.0
    vertex 28.794595741752897 25.74198764449605 0.9999999999999999
    vertex 28.794595741752897 25.74198764449605 7.0
  endloop
endfacet
facet normal -0.9238795325112875 -0.38268343236508806 0.0
  outer loop
    vertex 28.794595741752897 25.74198764449605 0.9999999999999999
    vertex 28.085302741970033 27.454372424268154 7.0
    vertex 28.085302741970033 27.454372424268154 0.9999999999999999
  endloop
endfacet
facet normal -0.9914448613738103 -0.13052619222005274 -7.208137615909379e-33
  outer loop
    vertex 28.794595741752897 25.74198764449605 7.0
    vertex 29.036522375100514 23.904372424268153 0.9999999999999999
    vertex 29.036522375100514 23.904372424268153 7.0
  endloop
endfacet
facet normal -0.9914448613738103 -0.13052619222005274 -7.208137615909379e-33
  outer loop
    vertex 29.036522375100514 23.904372424268153 0.9999999999999999
    vertex 28.794595741752897 25.74198764449605 7.0
    vertex 28.794595741752897 25.74198764449605 0.9999999999999999
  endloop
endfacet
facet normal -0.9914448613738105 0.13052619222005238 0.0
  outer loop
    vertex 29.036522375100514 23.904372424268153 7.0
    vertex 28.794595741752897 22.066757204040254 0.9999999999999999
    vertex 28.794595741752897 22.066757204040254 7.0
  endloop
endfacet
facet normal -0.9914448613738105 0.13052619222005238 0.0
  outer loop
    vertex 28.794595741752897 22.066757204040254 0.9999999999999999
    vertex 29.036522375100514 23.904372424268153 7.0
    vertex 29.036522375100514 23.904372424268153 0.9999999999999999
  endloop
endfacet
facet normal -0.9238795325112862 0.38268343236509117 -4.045343926109037e-32
  outer loop
    vertex 28.794595741752897 22.066757204040254 7.0
    vertex 28.085302741970025 20.354372424268153 0.9999999999999999
    vertex 28.085302741970025 20.354372424268153 7.0
  endloop
endfacet
facet normal -0.9238795325112862 0.38268343236509117 -4.045343926109037e-32
  outer loop
    vertex 28.085302741970025 20.354372424268153 0.9999999999999999
    vertex 28.794595741752897 22.066757204040254 7.0
    vertex 28.794595741752897 22.066757204040254 0.9999999999999999
  endloop
endfacet
facet normal -0.793353340291236 0.6087614290087198 0.0
  outer loop
    vertex 28.085302741970025 20.354372424268153 7.0
    vertex 26.956980521525 18.883914277843665 0.9999999999999999
    vertex 26.956980521525 18.883914277843665 7.0
  endloop
endfacet
facet normal -0.793353340291236 0.6087614290087198 0.0
  outer loop
    vertex 26.956980521525 18.883914277843665 0.9999999999999999
    vertex 28.085302741970025 20.354372424268153 7.0
    vertex 28.085302741970025 20.354372424268153 0.9999999999999999
  endloop
endfacet
facet normal -0.6087614290087193 0.7933533402912363 -1.1712102392023428e-32
  outer loop
    vertex 25.48652237510051 17.75559205739864 7.0
    vertex 26.956980521525 18.883914277843665 0.9999999999999999
    vertex 25.48652237510051 17.75559205739864 0.9999999999999999
  endloop
endfacet
facet normal -0.6087614290087193 0.7933533402912363 -1.1712102392023428e-32
  outer loop
    vertex 26.956980521525 18.883914277843665 0.9999999999999999
    vertex 25.48652237510051 17.75559205739864 7.0
    vertex 26.956980521525 18.883914277843665 7.0
  endloop
endfacet
facet normal -0.38268343236508995 0.9238795325112867 -3.607661226645599e-32
  outer loop
    vertex 23.77413759532841 17.04629905761577 7.0
    vertex 25.48652237510051 17.75559205739864 0.9999999999999999
    vertex 23.77413759532841 17.04629905761577 0.9999999999999999
  endloop
endfacet
facet normal -0.38268343236508995 0.9238795325112867 -3.607661226645599e-32
  outer loop
    vertex 25.48652237510051 17.75559205739864 0.9999999999999999
    vertex 23.77413759532841 17.04629905761577 7.0
    vertex 25.48652237510051 17.75559205739864 7.0
  endloop
endfacet
facet normal -0.13052619222005146 0.9914448613738105 -3.097968927852068e-32
  outer loop
    vertex 21.936522375100516 16.804372424268156 7.0
    vertex 23.77413759532841 17.04629905761577 0.9999999999999999
    vertex 21.936522375100516 16.804372424268156 0.9999999999999999
  endloop
endfacet
facet normal -0.13052619222005146 0.9914448613738105 -3.097968927852068e-32
  outer loop
    vertex 23.77413759532841 17.04629905761577 0.9999999999999999
    vertex 21.936522375100516 16.804372424268156 7.0
    vertex 23.77413759532841 17.04629905761577 7.0
  endloop
endfacet
facet normal 0.13052619222005238 0.9914448613738105 -0.0
  outer loop
    vertex 20.098907154872617 17.046299057615773 7.0
    vertex 21.936522375100516 16.804372424268156 0.9999999999999999
    vertex 20.098907154872617 17.046299057615773 0.9999999999999999
  endloop
endfacet
facet normal 0.13052619222005238 0.9914448613738105 -0.0
  outer loop
    vertex 21.936522375100516 16.804372424268156 0.9999999999999999
    vertex 20.098907154872617 17.046299057615773 7.0
    vertex 21.936522375100516 16.804372424268156 7.0
  endloop
endfacet
facet normal 0.38268343236508995 0.9238795325112867 3.607661226645599e-32
  outer loop
    vertex 18.386522375100515 17.755592057398644 7.0
    vertex 20.098907154872617 17.046299057615773 0.9999999999999999
    vertex 18.386522375100515 17.755592057398644 0.9999999999999999
  endloop
endfacet
facet normal 0.38268343236508995 0.9238795325112867 3.607661226645599e-32
  outer loop
    vertex 20.098907154872617 17.046299057615773 0.9999999999999999
    vertex 18.386522375100515 17.755592057398644 7.0
    vertex 20.098907154872617 17.046299057615773 7.0
  endloop
endfacet
facet normal 0.6087614290087218 0.7933533402912344 -0.0
  outer loop
    vertex 16.916064228676028 18.883914277843672 7.0
    vertex 18.386522375100515 17.755592057398644 0.9999999999999999
    vertex 16.916064228676028 18.883914277843672 0.9999999999999999
  endloop
endfacet
facet normal 0.6087614290087218 0.7933533402912344 -0.0
  outer loop
    vertex 18.386522375100515 17.755592057398644 0.9999999999999999
    vertex 16.916064228676028 18.883914277843672 7.0
    vertex 18.386522375100515 17.755592057398644 7.0
  endloop
endfacet
facet normal 0.7933533402912352 0.6087614290087207 2.190594836789415e-32
  outer loop
    vertex 15.787742008231003 20.35437242426816 0.9999999999999999
    vertex 16.916064228676028 18.883914277843672 7.0
    vertex 16.916064228676028 18.883914277843672 0.9999999999999999
  endloop
endfacet
facet normal 0.7933533402912352 0.6087614290087207 2.190594836789415e-32
  outer loop
    vertex 16.916064228676028 18.883914277843672 7.0
    vertex 15.787742008231003 20.35437242426816 0.9999999999999999
    vertex 15.787742008231003 20.35437242426816 7.0
  endloop
endfacet
facet normal 0.9238795325112871 0.38268343236508945 -2.551001717584882e-32
  outer loop
    vertex 15.078449008448134 22.06675720404026 0.9999999999999999
    vertex 15.787742008231003 20.35437242426816 7.0
    vertex 15.787742008231003 20.35437242426816 0.9999999999999999
  endloop
endfacet
facet normal 0.9238795325112871 0.38268343236508945 -2.551001717584882e-32
  outer loop
    vertex 15.787742008231003 20.35437242426816 7.0
    vertex 15.078449008448134 22.06675720404026 0.9999999999999999
    vertex 15.078449008448134 22.06675720404026 7.0
  endloop
endfacet
facet normal 0.9914448613738105 0.13052619222005146 -3.097968927852068e-32
  outer loop
    vertex 14.836522375100518 23.904372424268153 0.9999999999999999
    vertex 15.078449008448134 22.06675720404026 7.0
    vertex 15.078449008448134 22.06675720404026 0.9999999999999999
  endloop
endfacet
facet normal 0.9914448613738105 0.13052619222005146 -3.097968927852068e-32
  outer loop
    vertex 15.078449008448134 22.06675720404026 7.0
    vertex 14.836522375100518 23.904372424268153 0.9999999999999999
    vertex 14.836522375100518 23.904372424268153 7.0
  endloop
endfacet
facet normal 0.9914448613738105 -0.13052619222005238 -0.0
  outer loop
    vertex 15.078449008448136 25.741987644496056 0.9999999999999999
    vertex 14.836522375100518 23.904372424268153 7.0
    vertex 14.836522375100518 23.904372424268153 0.9999999999999999
  endloop
endfacet
facet normal 0.9914448613738105 -0.13052619222005238 -0.0
  outer loop
    vertex 14.836522375100518 23.904372424268153 7.0
    vertex 15.078449008448136 25.741987644496056 0.9999999999999999
    vertex 15.078449008448136 25.741987644496056 7.0
  endloop
endfacet
facet normal 0.9238795325112865 -0.3826834323650904 -5.9484642140791375e-18
  outer loop
    vertex 15.787742008231005 27.454372424268154 0.9999999999999999
    vertex 15.078449008448136 25.741987644496056 7.0
    vertex 15.078449008448136 25.741987644496056 0.9999999999999999
  endloop
endfacet
facet normal 0.9238795325112865 -0.3826834323650904 -5.9484642140791375e-18
  outer loop
    vertex 15.078449008448136 25.741987644496056 7.0
    vertex 15.787742008231005 27.454372424268154 0.9999999999999999
    vertex 15.787742008231005 27.454372424268154 7.0
  endloop
endfacet
facet normal 0.7933533402912352 -0.6087614290087207 -2.190594836789415e-32
  outer loop
    vertex 16.91606422867603 28.92483057069264 0.9999999999999999
    vertex 15.787742008231005 27.454372424268154 7.0
    vertex 15.787742008231005 27.454372424268154 0.9999999999999999
  endloop
endfacet
facet normal 0.7933533402912352 -0.6087614290087207 -2.190594836789415e-32
  outer loop
    vertex 15.787742008231005 27.454372424268154 7.0
    vertex 16.91606422867603 28.92483057069264 0.9999999999999999
    vertex 16.91606422867603 28.92483057069264 7.0
  endloop
endfacet
facet normal 0.6087614290087218 -0.7933533402912344 4.381189673578826e-32
  outer loop
    vertex 18.38652237510052 30.05315279113767 7.0
    vertex 16.91606422867603 28.92483057069264 0.9999999999999999
    vertex 18.38652237510052 30.05315279113767 0.9999999999999999
  endloop
endfacet
facet normal 0.6087614290087218 -0.7933533402912344 4.381189673578826e-32
  outer loop
    vertex 16.91606422867603 28.92483057069264 0.9999999999999999
    vertex 18.38652237510052 30.05315279113767 7.0
    vertex 16.91606422867603 28.92483057069264 7.0
  endloop
endfacet
facet normal 0.38268343236508806 -0.9238795325112875 0.0
  outer loop
    vertex 20.09890715487262 30.762445790920538 7.0
    vertex 18.38652237510052 30.05315279113767 0.9999999999999999
    vertex 20.09890715487262 30.762445790920538 0.9999999999999999
  endloop
endfacet
facet normal 0.38268343236508806 -0.9238795325112875 0.0
  outer loop
    vertex 18.38652237510052 30.05315279113767 0.9999999999999999
    vertex 20.09890715487262 30.762445790920538 7.0
    vertex 18.38652237510052 30.05315279113767 7.0
  endloop
endfacet
facet normal 0.13052619222005274 -0.9914448613738103 -7.208137615909379e-33
  outer loop
    vertex 21.936522375100516 31.004372424268155 7.0
    vertex 20.09890715487262 30.762445790920538 0.9999999999999999
    vertex 21.936522375100516 31.004372424268155 0.9999999999999999
  endloop
endfacet
facet normal 0.13052619222005274 -0.9914448613738103 -7.208137615909379e-33
  outer loop
    vertex 20.09890715487262 30.762445790920538 0.9999999999999999
    vertex 21.936522375100516 31.004372424268155 7.0
    vertex 20.09890715487262 30.762445790920538 7.0
  endloop
endfacet
facet normal -0.13052619222005252 -0.9914448613738103 3.604068807954683e-33
  outer loop
    vertex 23.774137595328416 30.762445790920538 7.0
    vertex 21.936522375100516 31.004372424268155 0.9999999999999999
    vertex 23.774137595328416 30.762445790920538 0.9999999999999999
  endloop
endfacet
facet normal -0.13052619222005252 -0.9914448613738103 3.604068807954683e-33
  outer loop
    vertex 21.936522375100516 31.004372424268155 0.9999999999999999
    vertex 23.774137595328416 30.762445790920538 7.0
    vertex 21.936522375100516 31.004372424268155 7.0
  endloop
endfacet
facet normal -0.3826834323650886 -0.9238795325112873 1.0566595090607144e-32
  outer loop
    vertex 25.486522375100517 30.05315279113767 7.0
    vertex 23.774137595328416 30.762445790920538 0.9999999999999999
    vertex 25.486522375100517 30.05315279113767 0.9999999999999999
  endloop
endfacet
facet normal -0.3826834323650886 -0.9238795325112873 1.0566595090607144e-32
  outer loop
    vertex 23.774137595328416 30.762445790920538 0.9999999999999999
    vertex 25.486522375100517 30.05315279113767 7.0
    vertex 23.774137595328416 30.762445790920538 7.0
  endloop
endfacet
facet normal -0.6087614290087218 -0.7933533402912344 4.381189673578826e-32
  outer loop
    vertex 26.956980521525 28.92483057069264 7.0
    vertex 25.486522375100517 30.05315279113767 0.9999999999999999
    vertex 26.956980521525 28.92483057069264 0.9999999999999999
  endloop
endfacet
facet normal -0.6087614290087218 -0.7933533402912344 4.381189673578826e-32
  outer loop
    vertex 25.486522375100517 30.05315279113767 0.9999999999999999
    vertex 26.956980521525 28.92483057069264 7.0
    vertex 25.486522375100517 30.05315279113767 7.0
  endloop
endfacet
facet normal -0.7933533402912344 -0.6087614290087218 4.381189673578826e-32
  outer loop
    vertex 26.956980521525 28.92483057069264 7.0
    vertex 28.085302741970033 27.454372424268154 0.9999999999999999
    vertex 28.085302741970033 27.454372424268154 7.0
  endloop
endfacet
facet normal -0.7933533402912344 -0.6087614290087218 4.381189673578826e-32
  outer loop
    vertex 28.085302741970033 27.454372424268154 0.9999999999999999
    vertex 26.956980521525 28.92483057069264 7.0
    vertex 26.956980521525 28.92483057069264 0.9999999999999999
  endloop
endfacet
endsolid DJI HD Camera Lens Cover 1.0
