0
SECTION
2
HEADER
9
$INSUNITS
70
4
9
$ACADVER
1
AC1014
9
$HANDSEED
5
FFFF
0
ENDSEC
0
SECTION
2
TABLES
0
TABLE
2
VPORT
5
8
100
AcDbSymbolTable
0
ENDTAB
0
TABLE
2
LTYPE
5
5
100
AcDbSymbolTable
0
LTYPE
5
14
100
AcDbSymbolTableRecord
100
AcDbLinetypeTableRecord
2
BYBLOCK
70
0
0
LTYPE
5
15
100
AcDbSymbolTableRecord
100
AcDbLinetypeTableRecord
2
BYLAYER
70
0
0
LTYPE
5
16
100
AcDbSymbolTableRecord
100
AcDbLinetypeTableRecord
2
DASHED
70
0
3
Dashed __ __ __ __ __ __ __ __ __ __ __ __ __ _
72
65
73
2
40
0.75
49
0.5
74
0
49
-0.25
74
0
0
ENDTAB
0
TABLE
2
LAYER
5
2
100
AcDbSymbolTable
70
3
0
LAYER
5
50
100
AcDbSymbolTableRecord
100
AcDbLayerTableRecord
2
1
70
0
62
7
6
DASHED
0
LAYER
5
51
100
AcDbSymbolTableRecord
100
AcDbLayerTableRecord
2
0
70
0
62
7
6
CONTINUOUS
0
ENDTAB
0
TABLE
2
STYLE
5
3
100
AcDbSymbolTable
70
1
0
STYLE
5
11
100
AcDbSymbolTableRecord
100
AcDbTextStyleTableRecord
2
STANDARD
70
0
0
ENDTAB
0
TABLE
2
VIEW
5
6
100
AcDbSymbolTable
70
0
0
ENDTAB
0
TABLE
2
UCS
5
7
100
AcDbSymbolTable
70
0
0
ENDTAB
0
TABLE
2
APPID
5
9
100
AcDbSymbolTable
70
2
0
APPID
5
12
100
AcDbSymbolTableRecord
100
AcDbRegAppTableRecord
2
ACAD
70
0
0
ENDTAB
0
TABLE
2
DIMSTYLE
5
A
100
AcDbSymbolTable
70
1
0
ENDTAB
0
TABLE
2
BLOCK_RECORD
5
1
100
AcDbSymbolTable
70
1
0
BLOCK_RECORD
5
1F
100
AcDbSymbolTableRecord
100
AcDbBlockTableRecord
2
*MODEL_SPACE
0
BLOCK_RECORD
5
1B
100
AcDbSymbolTableRecord
100
AcDbBlockTableRecord
2
*PAPER_SPACE
0
ENDTAB
0
ENDSEC
0
SECTION
2
BLOCKS
0
BLOCK
5
20
100
AcDbEntity
100
AcDbBlockBegin
2
*MODEL_SPACE
0
ENDBLK
5
21
100
AcDbEntity
100
AcDbBlockEnd
0
BLOCK
5
1C
100
AcDbEntity
100
AcDbBlockBegin
2
*PAPER_SPACE
0
ENDBLK
5
1D
100
AcDbEntity
100
AcDbBlockEnd
0
ENDSEC
0
SECTION
2
ENTITIES
0
POINT
5
100
100
AcDbEntity
8
0
100
AcDbPoint
10
0
20
0
30
0
0
POINT
5
101
100
AcDbEntity
8
0
100
AcDbPoint
10
18.031222920256962
20
1.1102230246251565e-15
30
0
0
POINT
5
102
100
AcDbEntity
8
0
100
AcDbPoint
10
14.915685506905641
20
11.000000000000028
30
0
0
POINT
5
103
100
AcDbEntity
8
0
100
AcDbPoint
10
-10.000000149011612
20
11.000000163912773
30
0
0
POINT
5
104
100
AcDbEntity
8
0
100
AcDbPoint
10
-10.000000149011612
20
-11.000000163912773
30
0
0
POINT
5
105
100
AcDbEntity
8
0
100
AcDbPoint
10
0
20
0
30
0
0
POINT
5
106
100
AcDbEntity
8
0
100
AcDbPoint
10
14.915685638112034
20
-11.000000161415176
30
0
0
POINT
5
107
100
AcDbEntity
8
0
100
AcDbPoint
10
18.031222920256962
20
-1.1102230246251565e-15
30
0
0
LWPOLYLINE
5
108
100
AcDbEntity
8
0
100
AcDbPolyline
90
24
70
1
43
0.0
10
-7.0000001043081284
20
2.8000000298023227
42
0.41421356237309626
10
-6.2000001043081276
20
2.0000000298023224
10
12.200000193715095
20
2.0000000298023224
42
0.41421356237309481
10
13.000000193715096
20
2.8000000298023231
10
13.000000193715096
20
10.000000000000027
42
-0.4142135623730937
10
14.000000193715096
20
11.000000000000028
10
17.000000268220905
20
11.000000000000028
42
-0.41421356237309698
10
18.000000268220905
20
10.000000000000032
10
18.000000268220898
20
-10.000000159260182
42
-0.41421356207026827
10
17.000000269254809
20
-11.000000159260184
10
14.000000194749004
20
-11.000000162361911
42
-0.41421356267592113
10
13.000000193715096
20
-10.000000162361911
10
13.000000193715096
20
-2.8000000298023222
42
0.41421356237309465
10
12.200000193715095
20
-2.0000000298023224
10
-6.2000001043081285
20
-2.0000000298023224
42
0.41421356237309587
10
-7.0000001043081292
20
-2.8000000298023231
10
-7.0000001043081292
20
-10.000000157812696
42
-0.41421356356420724
10
-8.0000001083748433
20
-11.0000001578127
10
-11.000000182880649
20
-11.00000014561255
42
-0.41421356118198155
10
-12.000000178813934
20
-10.000000145612551
10
-12.000000178813936
20
10.000000135836579
42
-0.41421356054568925
10
-11.000000185053088
20
11.000000135836579
10
-8.0000001105472833
20
11.000000154554041
42
-0.41421356420050148
10
-7.0000001043081284
20
10.000000154554042
0
ENDSEC
0
SECTION
2
OBJECTS
0
DICTIONARY
5
C
100
AcDbDictionary
3
ACAD_GROUP
350
D
3
ACAD_MLINESTYLE
350
17
0
DICTIONARY
5
D
100
AcDbDictionary
0
DICTIONARY
5
1A
330
C
100
AcDbDictionary
0
DICTIONARY
5
17
100
AcDbDictionary
0
ENDSEC
0
EOF
